<svg xmlns="http://www.w3.org/2000/svg" xmlns:xlink="http://www.w3.org/1999/xlink" viewBox="0 0 593.03 235.45"><defs><style>.cls-1{fill:url(#Безымянный_градиент_15);}.cls-2{fill:url(#Безымянный_градиент_10);}.cls-3{fill:url(#Безымянный_градиент_13);}.cls-4{fill:url(#Безымянный_градиент_13-2);}.cls-5{fill:url(#Безымянный_градиент_13-3);}.cls-6{fill:url(#Безымянный_градиент_15-2);}.cls-7{fill:url(#Безымянный_градиент_10-2);}.cls-8{fill:url(#Безымянный_градиент_10-3);}.cls-9{fill:url(#Безымянный_градиент_13-4);}.cls-10{fill:url(#Безымянный_градиент_13-5);}.cls-11{fill:url(#Безымянный_градиент_10-4);}.cls-12{fill:url(#Безымянный_градиент_15-3);}.cls-13{fill:#d8bd80;}.cls-14{fill:#fff3a0;}.cls-15{fill:#c29d51;}</style><linearGradient id="Безымянный_градиент_15" x1="4097.54" y1="-244.8" x2="4253.01" y2="-280.26" gradientTransform="matrix(-1, -0.03, 0.03, -1, 4478.8, 10.08)" gradientUnits="userSpaceOnUse"><stop offset="0" stop-color="#6e4011"/><stop offset="0.3" stop-color="#90622a"/><stop offset="0.96" stop-color="#e6b768"/><stop offset="1" stop-color="#ebbc6c"/></linearGradient><linearGradient id="Безымянный_градиент_10" x1="4169.58" y1="-364.52" x2="4170.49" y2="-142.67" gradientTransform="matrix(-1, -0.03, 0.03, -1, 4478.8, 10.08)" gradientUnits="userSpaceOnUse"><stop offset="0" stop-color="#825221"/><stop offset="0.12" stop-color="#9c743c"/><stop offset="0.39" stop-color="#dfca82"/><stop offset="0.51" stop-color="#fff3a3"/><stop offset="0.71" stop-color="#dab96d"/><stop offset="1" stop-color="#a66923"/></linearGradient><linearGradient id="Безымянный_градиент_13" x1="4166.19" y1="-295.26" x2="4288.02" y2="-180.7" gradientTransform="matrix(-1, -0.03, 0.03, -1, 4478.8, 10.08)" gradientUnits="userSpaceOnUse"><stop offset="0" stop-color="#825221"/><stop offset="0.24" stop-color="#9c743c"/><stop offset="0.76" stop-color="#dfca82"/><stop offset="1" stop-color="#fff3a3"/></linearGradient><linearGradient id="Безымянный_градиент_13-2" x1="4224.4" y1="-263.38" x2="4258.84" y2="-210.53" xlink:href="#Безымянный_градиент_13"/><linearGradient id="Безымянный_градиент_13-3" x1="4181.55" y1="-209.58" x2="4339.3" y2="-119.57" xlink:href="#Безымянный_градиент_13"/><linearGradient id="Безымянный_градиент_15-2" x1="4190.98" y1="-199.78" x2="4174.62" y2="-96.13" xlink:href="#Безымянный_градиент_15"/><linearGradient id="Безымянный_градиент_10-2" x1="4179.33" y1="-288.88" x2="4167.05" y2="-102.71" xlink:href="#Безымянный_градиент_10"/><linearGradient id="Безымянный_градиент_10-3" x1="4057.83" y1="-169.54" x2="4262.4" y2="-266.37" xlink:href="#Безымянный_градиент_10"/><linearGradient id="Безымянный_градиент_13-4" x1="4079.85" y1="-280.89" x2="4231.24" y2="-214.74" xlink:href="#Безымянный_градиент_13"/><linearGradient id="Безымянный_градиент_13-5" x1="4243.26" y1="-217.97" x2="4230.53" y2="-190.7" xlink:href="#Безымянный_градиент_13"/><linearGradient id="Безымянный_градиент_10-4" x1="4328.26" y1="-327.4" x2="4160.51" y2="-216.93" xlink:href="#Безымянный_градиент_10"/><linearGradient id="Безымянный_градиент_15-3" x1="4078.73" y1="-193.26" x2="4180.73" y2="-193.26" xlink:href="#Безымянный_градиент_15"/></defs><g id="Capa_2" data-name="Capa 2"><g id="Capa_1-2" data-name="Capa 1"><polygon class="cls-1" points="293.62 117.72 337.17 118.92 393.96 179.39 293.62 117.72"/><polygon class="cls-2" points="290.38 235.44 293.62 117.72 314.36 156.04 290.38 235.44"/><polygon class="cls-3" points="270.81 154.84 293.62 117.72 290.38 235.44 270.81 154.84"/><polygon class="cls-4" points="190.06 173.78 250.07 116.52 293.62 117.72 190.06 173.78"/><polygon class="cls-5" points="193.3 56.05 272.89 79.41 293.62 117.72 193.3 56.05"/><polygon class="cls-6" points="272.89 79.41 296.86 0 293.62 117.72 272.89 79.41"/><polygon class="cls-7" points="293.62 117.72 296.86 0 316.44 80.61 293.62 117.72"/><polygon class="cls-8" points="293.62 117.72 397.2 61.67 337.17 118.92 293.62 117.72"/><polygon class="cls-9" points="293.62 117.72 393.96 179.39 314.36 156.04 293.62 117.72"/><polygon class="cls-10" points="193.3 56.05 293.62 117.72 250.07 116.52 193.3 56.05"/><polygon class="cls-11" points="190.06 173.78 293.62 117.72 270.81 154.84 190.06 173.78"/><polygon class="cls-12" points="293.62 117.72 316.44 80.61 397.2 61.67 293.62 117.72"/><path class="cls-13" d="M193.29,56.05q25.36,15,50.52,30.27L294.08,117l50.06,31,24.95,15.62L394,179.39l-25.3-15-25.21-15.21-50.27-30.67-50.06-31C226.46,77.06,209.83,66.64,193.29,56.05Z"/><path class="cls-14" d="M290.38,235.45c.18-19.63.55-39.26.95-58.88l1.42-58.87,1.82-58.86,1.06-29.42L296.86,0l-.38,29.44-.57,29.44-1.42,58.87-1.82,58.85C292,196.22,291.28,215.83,290.38,235.45Z"/><path class="cls-14" d="M190.05,173.78c17.09-9.66,34.27-19.15,51.47-28.62L293.21,117l51.88-27.85,26-13.8,26.09-13.64L371.5,76.06,345.73,90.29,294,118.49l-51.89,27.85Q216.15,160.17,190.05,173.78Z"/><path class="cls-15" d="M460.15,114a2,2,0,0,1-2-2V58.84a2,2,0,0,1,4,0V112A2,2,0,0,1,460.15,114Z"/><path class="cls-15" d="M460,96.89a2,2,0,0,1-1.42-.59L440.92,78.68a2,2,0,0,1,2.86-2.86L460,92l15.86-15.86A2,2,0,0,1,478.68,79L461.4,96.3A2,2,0,0,1,460,96.89Z"/><path class="cls-15" d="M459.9,78.62a2,2,0,0,1-1.43-.59l-8.75-8.76a2,2,0,1,1,2.85-2.85l7.33,7.32,7.57-7.57A2,2,0,0,1,470.33,69l-9,9A2,2,0,0,1,459.9,78.62Z"/><path class="cls-15" d="M452.56,118a2,2,0,0,1-1-.27l-46-26.57a2,2,0,1,1,2-3.5l46,26.57a2,2,0,0,1-1,3.77Z"/><path class="cls-15" d="M413.59,116a2,2,0,0,1-.52-4l22.12-5.92-5.8-21.66a2,2,0,0,1,3.9-1l6.33,23.6a2,2,0,0,1-.21,1.53,2,2,0,0,1-1.22,1L414.11,116A2.32,2.32,0,0,1,413.59,116Z"/><path class="cls-15" d="M409.84,103.71a2,2,0,0,1-.52-4l10-2.68-2.77-10.34a2,2,0,1,1,3.9-1L423.75,98a2,2,0,0,1-.2,1.53,2,2,0,0,1-1.23.94l-11.95,3.21A1.93,1.93,0,0,1,409.84,103.71Z"/><path class="cls-15" d="M406.21,153.1a2,2,0,0,1-1-3.77l46-26.57a2,2,0,1,1,2,3.5l-46,26.57A2,2,0,0,1,406.21,153.1Z"/><path class="cls-15" d="M431,159.31a1.86,1.86,0,0,1-.52-.07,2,2,0,0,1-1.43-2.47L435,134.64l-21.66-5.8a2,2,0,0,1,1.05-3.9l23.6,6.32a2,2,0,0,1,1.43,2.48L433,157.81A2,2,0,0,1,431,159.31Z"/><path class="cls-15" d="M418.5,156.4a2.32,2.32,0,0,1-.52-.07,2,2,0,0,1-1.43-2.48l2.68-10-10.34-2.78a2,2,0,0,1,1-3.9l12.3,3.3a2,2,0,0,1,1.43,2.47l-3.21,12A2,2,0,0,1,418.5,156.4Z"/><path class="cls-15" d="M459.46,184.24a2,2,0,0,1-2-2V129.09a2,2,0,0,1,4,0v53.13A2,2,0,0,1,459.46,184.24Z"/><path class="cls-15" d="M477.25,165.84a2,2,0,0,1-1.42-.59l-16.2-16.2L443.78,164.9a2,2,0,0,1-2.86-2.85l17.28-17.28a2,2,0,0,1,2.86,0l17.62,17.62a2,2,0,0,1-1.43,3.45Z"/><path class="cls-15" d="M450.7,175.49a2.06,2.06,0,0,1-1.43-.59,2,2,0,0,1,0-2.86l9-9a2.07,2.07,0,0,1,2.85,0l8.76,8.75a2,2,0,0,1-2.86,2.86l-7.33-7.32-7.57,7.57A2,2,0,0,1,450.7,175.49Z"/><path class="cls-15" d="M513.05,153.7a2.07,2.07,0,0,1-1-.27l-46-26.57a2,2,0,1,1,2-3.5l46,26.57a2,2,0,0,1-1,3.77Z"/><path class="cls-15" d="M488.26,159.14a2,2,0,0,1-1.95-1.5L480,134a2,2,0,0,1,.2-1.54,2.05,2.05,0,0,1,1.22-.94l24.08-6.45a2,2,0,1,1,1.05,3.9l-22.13,5.93,5.8,21.66a2,2,0,0,1-1.42,2.47A2,2,0,0,1,488.26,159.14Z"/><path class="cls-15" d="M501.09,156.9a2,2,0,0,1-1.95-1.49l-3.29-12.3a2,2,0,0,1,1.43-2.48l12-3.2a2,2,0,0,1,1,3.9l-10,2.68,2.77,10.35a2,2,0,0,1-1.43,2.47A1.93,1.93,0,0,1,501.09,156.9Z"/><path class="cls-15" d="M467.38,118.58a2,2,0,0,1-1-3.77l46-26.57a2,2,0,1,1,2,3.5l-46,26.57A2,2,0,0,1,467.38,118.58Z"/><path class="cls-15" d="M505.72,116.2a1.93,1.93,0,0,1-.53-.07l-23.6-6.33a2,2,0,0,1-1.43-2.47l6.45-24.08a2,2,0,1,1,3.9,1l-5.92,22.12,21.65,5.81a2,2,0,0,1-.52,4Z"/><path class="cls-15" d="M510.2,104a2.41,2.41,0,0,1-.53-.07l-12.29-3.3A2,2,0,0,1,496,98.13l3.2-12a2,2,0,1,1,3.9,1l-2.68,10L510.72,100a2,2,0,0,1-.52,4Z"/><path class="cls-15" d="M459.8,131.11a10.58,10.58,0,1,1,10.58-10.58A10.59,10.59,0,0,1,459.8,131.11Zm0-17.11a6.54,6.54,0,1,0,6.53,6.53A6.54,6.54,0,0,0,459.8,114Z"/><path class="cls-15" d="M452.15,97.13l-7.11-7A2,2,0,0,0,441.66,92l2.42,10.21a2,2,0,0,0,.93,1.27l4.74,2.81a2,2,0,0,0,3.05-1.75l-.05-6A2,2,0,0,0,452.15,97.13Z"/><path class="cls-15" d="M443.51,120.38a2,2,0,0,0-1-1.76l-5.24-3a2,2,0,0,0-1.54-.19l-9.62,2.66a2,2,0,0,0,0,3.88l10.06,3a2.25,2.25,0,0,0,.58.08,2,2,0,0,0,1-.26l4.81-2.69A2,2,0,0,0,443.51,120.38Z"/><path class="cls-15" d="M451.52,134.57a2,2,0,0,0-2,0l-5.2,3.06a2,2,0,0,0-.93,1.23l-2.51,9.66a2,2,0,0,0,.93,2.25,2.13,2.13,0,0,0,1,.28,2,2,0,0,0,1.39-.56l7.63-7.2a2,2,0,0,0,.63-1.44l.07-5.51A2,2,0,0,0,451.52,134.57Z"/><path class="cls-15" d="M475.52,138.82a2,2,0,0,0-.93-1.27l-4.74-2.82a2,2,0,0,0-3.05,1.76l.05,6a2,2,0,0,0,.6,1.42l7.11,7a2,2,0,0,0,1.42.58,2,2,0,0,0,1-.26,2,2,0,0,0,1-2.22Z"/><path class="cls-15" d="M493.55,119.07l-10.05-3a2,2,0,0,0-1.57.17l-4.8,2.7a2,2,0,0,0,0,3.52l5.24,3a2,2,0,0,0,1,.26,2,2,0,0,0,.54-.07l9.62-2.66a2,2,0,0,0,0-3.88Z"/><path class="cls-15" d="M468.08,106.5a2,2,0,0,0,1,.27,2.09,2.09,0,0,0,1-.27l5.19-3.06a2,2,0,0,0,.93-1.23l2.51-9.66a2,2,0,0,0-.93-2.25,2,2,0,0,0-2.41.27l-7.63,7.21a2,2,0,0,0-.64,1.44l-.07,5.51A2,2,0,0,0,468.08,106.5Z"/><path class="cls-15" d="M564.78,113.28h0a1,1,0,0,1-1-1l.09-16.52a1,1,0,0,1,1-1,1,1,0,0,1,1,1l-.09,16.51A1,1,0,0,1,564.78,113.28Z"/><path class="cls-15" d="M564.71,125.28a4.75,4.75,0,1,1,4.75-4.75A4.76,4.76,0,0,1,564.71,125.28Zm0-7.52a2.78,2.78,0,1,0,2.78,2.77A2.78,2.78,0,0,0,564.71,117.76Z"/><path class="cls-15" d="M556.48,136.12A.91.91,0,0,1,556,136a1,1,0,0,1-.5-1l1.12-9.78-9-3.62a1,1,0,0,1,0-1.83l9-3.91-1.38-9.64a1,1,0,0,1,.48-1,1,1,0,0,1,1.09.06l7.9,5.86,7.66-6a1,1,0,0,1,1.09-.08,1,1,0,0,1,.5,1l-1.12,9.77,9,3.63a1,1,0,0,1,.62.91,1,1,0,0,1-.6.92l-9,3.91,1.37,9.63a1,1,0,0,1-.47,1,1,1,0,0,1-1.09-.05l-7.9-5.86-7.66,6A1,1,0,0,1,556.48,136.12Zm-6-15.46,7.54,3a1,1,0,0,1,.61,1l-.94,8.17,6.39-5a1,1,0,0,1,1.2,0l6.6,4.9-1.14-8a1,1,0,0,1,.58-1l7.55-3.27-7.54-3a1,1,0,0,1-.61-1l.94-8.17-6.39,5a1,1,0,0,1-1.2,0l-6.6-4.9,1.14,8a1,1,0,0,1-.58,1.05Z"/><path class="cls-15" d="M564.75,103.93a.94.94,0,0,1-.58-.19l-4.55-3.29a1,1,0,1,1,1.16-1.6l4,2.87,4.1-3a1,1,0,0,1,1.38.22,1,1,0,0,1-.21,1.38l-4.68,3.42A1,1,0,0,1,564.75,103.93Z"/><path class="cls-15" d="M557.61,117.35a1,1,0,0,1-.5-.13l-14.26-8.34a1,1,0,0,1,1-1.71l14.26,8.34a1,1,0,0,1,.35,1.35A1,1,0,0,1,557.61,117.35Z"/><path class="cls-15" d="M544.37,115a1,1,0,0,1-.4-1.89l4.46-2-.54-5a1,1,0,0,1,2-.21l.63,5.76a1,1,0,0,1-.58,1l-5.13,2.3A1.1,1.1,0,0,1,544.37,115Z"/><path class="cls-15" d="M543.2,133.77a1,1,0,0,1-.49-1.85l14.35-8.18a1,1,0,0,1,1,1.72l-14.35,8.18A1,1,0,0,1,543.2,133.77Z"/><path class="cls-15" d="M548.89,135.88h-.1a1,1,0,0,1-.89-1.08l.5-4.87-4.64-2.06a1,1,0,0,1,.8-1.8l5.3,2.34a1,1,0,0,1,.58,1l-.57,5.59A1,1,0,0,1,548.89,135.88Z"/><path class="cls-15" d="M564.56,146.28h0a1,1,0,0,1-1-1l.09-16.51a1,1,0,0,1,1-1h0a1,1,0,0,1,1,1l-.09,16.51A1,1,0,0,1,564.56,146.28Z"/><path class="cls-15" d="M560,142.53a1,1,0,0,1-.58-1.78l4.68-3.42a1,1,0,0,1,1.16,0l4.55,3.29a1,1,0,0,1-1.16,1.6l-4-2.87-4.09,3A1,1,0,0,1,560,142.53Z"/><path class="cls-15" d="M586.08,134a1,1,0,0,1-.5-.13l-14.26-8.34a1,1,0,1,1,1-1.71l14.25,8.34a1,1,0,0,1-.49,1.84Z"/><path class="cls-15" d="M580.55,136.11a1,1,0,0,1-1-.88l-.62-5.76a1,1,0,0,1,.58-1l5.12-2.3a1,1,0,0,1,.81,1.81L581,130l.55,5a1,1,0,0,1-.88,1.09Z"/><path class="cls-15" d="M571.88,117.46a1,1,0,0,1-.49-1.85l14.35-8.18a1,1,0,1,1,1,1.72l-14.35,8.18A1,1,0,0,1,571.88,117.46Z"/><path class="cls-15" d="M564.87,88.29a2.37,2.37,0,1,0,2.36,2.37A2.37,2.37,0,0,0,564.87,88.29Z"/><path class="cls-15" d="M540.1,103.41a2.37,2.37,0,0,0-3.47,2.67,2.34,2.34,0,0,0,2.28,1.75,2.2,2.2,0,0,0,.62-.08,2.34,2.34,0,0,0,1.44-1.1A2.38,2.38,0,0,0,540.1,103.41Z"/><path class="cls-15" d="M539.38,133.05a2.37,2.37,0,1,0-1.23,4.58,2.57,2.57,0,0,0,.62.08,2.38,2.38,0,0,0,1.18-.32,2.36,2.36,0,0,0,.86-3.23A2.35,2.35,0,0,0,539.38,133.05Z"/><path class="cls-15" d="M564.56,148a2.37,2.37,0,1,0,2.37,2.37A2.38,2.38,0,0,0,564.56,148Z"/><path class="cls-15" d="M591.7,133.55a2.37,2.37,0,1,0-1.19,4.42,2.25,2.25,0,0,0,.62-.08,2.3,2.3,0,0,0,1.43-1.1,2.37,2.37,0,0,0-.86-3.24Z"/><path class="cls-15" d="M590.05,108a2.64,2.64,0,0,0,.62.08,2.36,2.36,0,1,0-.62-.08Z"/><path class="cls-15" d="M585.27,115.1a.93.93,0,0,1-.4-.09l-5.3-2.34a1,1,0,0,1-.59-1l.58-5.58a1,1,0,0,1,2,.2l-.5,4.87,4.65,2a1,1,0,0,1,.5,1.31A1,1,0,0,1,585.27,115.1Z"/><path class="cls-15" d="M26.51,125.8a5.18,5.18,0,1,1,5.17-5.18A5.18,5.18,0,0,1,26.51,125.8Zm0-8.41a3.23,3.23,0,1,0,3.23,3.23A3.24,3.24,0,0,0,26.51,117.39Z"/><path class="cls-15" d="M15.58,141a1,1,0,0,1-.49-1.82,10.4,10.4,0,0,0-10.4-18,1,1,0,1,1-1-1.68,12.35,12.35,0,1,1,12.35,21.39A1,1,0,0,1,15.58,141Z"/><path class="cls-15" d="M37.88,140.78a1,1,0,0,1-1-1,10.41,10.41,0,1,0-20.81,0,1,1,0,0,1-1.94,0,12.35,12.35,0,1,1,24.69,0A1,1,0,0,1,37.88,140.78Z"/><path class="cls-15" d="M37.43,141a1,1,0,0,1-.49-.13,12.35,12.35,0,0,1,3-22.62,12.23,12.23,0,0,1,9.37,1.23,1,1,0,1,1-1,1.68,10.4,10.4,0,1,0-10.4,18,1,1,0,0,1-.49,1.82Z"/><path class="cls-15" d="M43.14,123.38a12.71,12.71,0,0,1-3.22-.42,12.35,12.35,0,0,1-3-22.62,1,1,0,0,1,1,1.68,10.4,10.4,0,1,0,10.4,18,1,1,0,0,1,1.33.36,1,1,0,0,1-.36,1.32A12.24,12.24,0,0,1,43.14,123.38Z"/><path class="cls-15" d="M37.43,141a1.05,1.05,0,0,1-.49-.13,12.38,12.38,0,0,1-6.17-10.59,10.35,10.35,0,0,0-8.53,0,12.38,12.38,0,0,1-6.17,10.59,1,1,0,0,1-1,0l-.45-.26a1,1,0,0,1-.48-.84,12.35,12.35,0,0,1,6.09-10.65A10.46,10.46,0,0,0,18.9,125,10.33,10.33,0,0,0,16,121.78,12.62,12.62,0,0,1,13.09,123a12.28,12.28,0,0,1-9.37-1.24,1,1,0,0,1-.49-.84v-.52a1,1,0,0,1,.49-.84,12.34,12.34,0,0,1,12.25,0,10.4,10.4,0,0,0,4.27-7.39,12.35,12.35,0,0,1-6.08-10.64,1,1,0,0,1,.48-.84l.45-.26a1,1,0,0,1,1,0,12.38,12.38,0,0,1,6.17,10.58,10.35,10.35,0,0,0,8.53,0,12.38,12.38,0,0,1,6.17-10.58,1,1,0,0,1,1,0l.45.26a1,1,0,0,1,.48.84,12.35,12.35,0,0,1-6.08,10.64,10.33,10.33,0,0,0,1.34,4.15A10.54,10.54,0,0,0,37,119.47a12.44,12.44,0,0,1,2.9-1.18,12.23,12.23,0,0,1,9.37,1.23,1,1,0,0,1,.49.84v.52a1,1,0,0,1-.49.84A12.28,12.28,0,0,1,39.92,123a13.37,13.37,0,0,1-2.9-1.18,10.41,10.41,0,0,0-4.25,7.39,12.34,12.34,0,0,1,6.08,10.64,1,1,0,0,1-.48.84l-.45.26A1.05,1.05,0,0,1,37.43,141Zm-17.22-9.51a10.4,10.4,0,0,0-4,7,10.33,10.33,0,0,0,3.76-5.59A11.2,11.2,0,0,0,20.21,131.53Zm12.59,0a10.42,10.42,0,0,0,4,7A10.42,10.42,0,0,0,32.8,131.53Zm-15.13-10.9A12.08,12.08,0,0,1,20.59,124a12.48,12.48,0,0,1,1.5,4.23,12.44,12.44,0,0,1,8.83,0,12.39,12.39,0,0,1,4.41-7.65A12.39,12.39,0,0,1,30.92,113a12.3,12.3,0,0,1-8.83,0,12.4,12.4,0,0,1-4.42,7.66Zm21.42,0a10.07,10.07,0,0,0,1.34.46,10.32,10.32,0,0,0,6.72-.46,10.32,10.32,0,0,0-6.72-.46A11.74,11.74,0,0,0,39.09,120.62Zm-33.23,0a10.4,10.4,0,0,0,8.05,0A10.4,10.4,0,0,0,5.86,120.62Zm31-17.88a10.42,10.42,0,0,0-4,7A10.4,10.4,0,0,0,36.83,102.74Zm-20.65,0a10.4,10.4,0,0,0,4,7A10.42,10.42,0,0,0,16.18,102.74Z"/><path class="cls-15" d="M26.51,113.79a1,1,0,0,1-1-1V101.18a1,1,0,0,1,1.95,0v11.63A1,1,0,0,1,26.51,113.79Z"/><path class="cls-15" d="M19.74,117.69a.94.94,0,0,1-.48-.13L9.18,111.74a1,1,0,0,1-.49-.84,1.09,1.09,0,0,1,.13-.49,1,1,0,0,1,1.33-.35l10.08,5.82a1,1,0,0,1,.49.84,1,1,0,0,1-.13.48A1,1,0,0,1,19.74,117.69Z"/><path class="cls-15" d="M9.67,131.32a1,1,0,0,1-.85-.49,1.05,1.05,0,0,1-.13-.49,1,1,0,0,1,.49-.84l10.08-5.82a1,1,0,0,1,1.33.36,1,1,0,0,1,.13.48,1,1,0,0,1-.49.85l-10.08,5.82A1,1,0,0,1,9.67,131.32Z"/><path class="cls-15" d="M26.51,141a1,1,0,0,1-1-1V128.43a1,1,0,0,1,1.95,0v11.64A1,1,0,0,1,26.51,141Z"/><path class="cls-15" d="M43.34,131.32a1,1,0,0,1-.48-.13l-10.08-5.82a1,1,0,0,1-.49-.85,1,1,0,0,1,.13-.48,1,1,0,0,1,1.33-.36l10.08,5.82a1,1,0,0,1,.49.84,1.05,1.05,0,0,1-.13.49A1,1,0,0,1,43.34,131.32Z"/><path class="cls-15" d="M33.27,117.69a1,1,0,0,1-.85-.49,1,1,0,0,1-.13-.48,1,1,0,0,1,.49-.84l10.08-5.82a1,1,0,0,1,1.33.35,1.09,1.09,0,0,1,.13.49,1,1,0,0,1-.49.84l-10.08,5.82A.94.94,0,0,1,33.27,117.69Z"/><path class="cls-15" d="M25.82,90.45a8,8,0,0,0,0,11.42,1,1,0,0,0,1.37,0,8,8,0,0,0,0-11.42A1,1,0,0,0,25.82,90.45Z"/><path class="cls-15" d="M6.85,105.73a8,8,0,0,0-6.13-.79A1,1,0,0,0,0,106.13a8,8,0,0,0,7.75,6,8.18,8.18,0,0,0,2.14-.29,1,1,0,0,0,.69-1.19A8,8,0,0,0,6.85,105.73Z"/><path class="cls-15" d="M9.92,129.41A8,8,0,0,0,0,135.12a1,1,0,0,0,.69,1.18,8.18,8.18,0,0,0,2.14.29,7.87,7.87,0,0,0,4-1.08,8,8,0,0,0,3.76-4.92A1,1,0,0,0,9.92,129.41Z"/><path class="cls-15" d="M25.82,139.37a8,8,0,0,0,0,11.43,1,1,0,0,0,1.37,0,8,8,0,0,0,0-11.43A1,1,0,0,0,25.82,139.37Z"/><path class="cls-15" d="M49.23,130.19a8,8,0,0,0-6.14-.78,1,1,0,0,0-.69,1.18,8,8,0,0,0,3.76,4.92,7.87,7.87,0,0,0,4,1.08,8.18,8.18,0,0,0,2.14-.29,1,1,0,0,0,.69-1.18A8,8,0,0,0,49.23,130.19Z"/><path class="cls-15" d="M43.09,111.84a8.18,8.18,0,0,0,2.14.29,8,8,0,0,0,7.75-6,1,1,0,0,0-.69-1.19,8,8,0,0,0-9.89,5.71A1,1,0,0,0,43.09,111.84Z"/><path class="cls-15" d="M130.85,124.6a10.39,10.39,0,0,1-9-5.18h0a10.33,10.33,0,1,1,9,5.18Zm0-16.66a6.31,6.31,0,0,0-5.45,9.46h0a6.31,6.31,0,1,0,5.45-9.46Z"/><path class="cls-15" d="M107.66,90.69A2,2,0,0,1,105.77,88a6.59,6.59,0,0,1,7.76-4.07,6.54,6.54,0,0,1,3-3.89,6.61,6.61,0,0,1,4.37-.8,2,2,0,1,1-.65,4,2.55,2.55,0,0,0-2.63,3.8,2.07,2.07,0,0,1,.27,1,2,2,0,0,1-3.77,1,2.56,2.56,0,0,0-3.5-.93,2.48,2.48,0,0,0-1.11,1.31A2,2,0,0,1,107.66,90.69Z"/><path class="cls-15" d="M122.5,101.44a2,2,0,0,1-1.75-1l-7-12.18a2,2,0,0,1,3.5-2l7,12.18a2,2,0,0,1-.74,2.76A2,2,0,0,1,122.5,101.44Z"/><path class="cls-15" d="M97.1,123.55a2,2,0,0,1-1.57-.75,6.57,6.57,0,0,1,.37-8.75,6.59,6.59,0,0,1-.37-8.76,2,2,0,1,1,3.13,2.56,2.51,2.51,0,0,0-.58,1.62,2.56,2.56,0,0,0,2.56,2.56,2,2,0,0,1,0,4,2.56,2.56,0,0,0-2.56,2.56,2.53,2.53,0,0,0,.58,1.62,2,2,0,0,1-1.56,3.3Z"/><path class="cls-15" d="M113.83,116.07H99.76a2,2,0,0,1,0-4h14.07a2,2,0,0,1,0,4Z"/><path class="cls-15" d="M119.54,149.18a6.61,6.61,0,0,1-6.35-4.78,6.59,6.59,0,0,1-7.76-4.07,2,2,0,0,1,3.78-1.43,2.5,2.5,0,0,0,1.11,1.31,2.56,2.56,0,0,0,3.5-.93,2,2,0,0,1,3.77,1,2.07,2.07,0,0,1-.27,1,2.55,2.55,0,0,0,.93,3.49,2.51,2.51,0,0,0,1.69.31,2,2,0,0,1,.66,4A6.32,6.32,0,0,1,119.54,149.18Z"/><path class="cls-15" d="M115.12,143.07a2,2,0,0,1-1-.27,2,2,0,0,1-.74-2.76l7-12.18a2,2,0,1,1,3.5,2l-7,12.18A2,2,0,0,1,115.12,143.07Z"/><path class="cls-15" d="M141.78,149.37a6.31,6.31,0,0,1-1.06-.08,2,2,0,0,1,.65-4,2.56,2.56,0,0,0,2.89-1.86,2.56,2.56,0,0,0-.26-1.95,2,2,0,0,1-.27-1,2,2,0,0,1,3.77-1,2.56,2.56,0,0,0,3.5.94,2.51,2.51,0,0,0,1.11-1.31,2,2,0,0,1,3.78,1.43,6.59,6.59,0,0,1-7.76,4.07,6.54,6.54,0,0,1-3,3.89A6.67,6.67,0,0,1,141.78,149.37Z"/><path class="cls-15" d="M146.2,143.27a2,2,0,0,1-1.75-1l-7-12.19a2,2,0,1,1,3.5-2l7,12.19a2,2,0,0,1-.74,2.76A2.07,2.07,0,0,1,146.2,143.27Z"/><path class="cls-15" d="M164.56,123.94a2,2,0,0,1-1.56-3.3,2.51,2.51,0,0,0,.58-1.62,2.56,2.56,0,0,0-2.56-2.56,2,2,0,1,1,0-4,2.56,2.56,0,0,0,2.56-2.56,2.51,2.51,0,0,0-.58-1.62,2,2,0,0,1,3.13-2.56,6.64,6.64,0,0,1,1.49,4.18,6.57,6.57,0,0,1-1.86,4.58,6.57,6.57,0,0,1,1.86,4.58,6.64,6.64,0,0,1-1.49,4.18A2,2,0,0,1,164.56,123.94Z"/><path class="cls-15" d="M161.9,116.46H147.83a2,2,0,0,1,0-4H161.9a2,2,0,0,1,0,4Z"/><path class="cls-15" d="M154.34,90.89a2,2,0,0,1-1.89-1.31,2.54,2.54,0,0,0-1.11-1.31,2.58,2.58,0,0,0-3.5.94,2,2,0,0,1-3.77-1,2.07,2.07,0,0,1,.27-1,2.56,2.56,0,0,0-2.63-3.81,2,2,0,1,1-.65-4,6.6,6.6,0,0,1,7.41,4.7,6.58,6.58,0,0,1,7.76,4.06,2,2,0,0,1-1.89,2.74Z"/><path class="cls-15" d="M139.5,101.64a2.07,2.07,0,0,1-1-.27,2,2,0,0,1-.74-2.76l7-12.19a2,2,0,1,1,3.5,2l-7,12.19A2,2,0,0,1,139.5,101.64Z"/><path class="cls-15" d="M130.83,107.94a2,2,0,0,1-2-2V56.26a2,2,0,1,1,4,0v49.66A2,2,0,0,1,130.83,107.94Z"/><path class="cls-15" d="M131,85a2,2,0,0,1-1.43-.59L118.87,73.72a2,2,0,0,1,2.86-2.86L131,80.15l9.06-9.06a2,2,0,0,1,2.86,2.85l-10.5,10.5A2,2,0,0,1,131,85Z"/><path class="cls-15" d="M131,71a2,2,0,0,1-1.43-.59l-5.82-5.82a2,2,0,0,1,2.86-2.85L131,66.13l4.26-4.27a2,2,0,1,1,2.86,2.85l-5.7,5.7A2,2,0,0,1,131,71Z"/><path class="cls-15" d="M123.62,112.1a2,2,0,0,1-1-.27L79.6,87a2,2,0,1,1,2-3.5l43,24.83a2,2,0,0,1-1,3.77Z"/><path class="cls-15" d="M89.23,104.41a2,2,0,0,1-.52-4L101.4,97,98.08,84.65A2,2,0,0,1,102,83.6l3.84,14.34a2,2,0,0,1-1.43,2.48l-14.64,3.92A1.93,1.93,0,0,1,89.23,104.41Z"/><path class="cls-15" d="M83.75,95.65a2,2,0,0,1-.52-4l6-1.6-1.57-5.83a2,2,0,0,1,3.91-1L93.65,91a2,2,0,0,1-1.43,2.48l-7.94,2.13A2.49,2.49,0,0,1,83.75,95.65Z"/><path class="cls-15" d="M80.61,145.26a2.05,2.05,0,0,1-1.75-1,2,2,0,0,1,.74-2.76l43-24.84a2,2,0,0,1,2,3.5L81.62,145A2,2,0,0,1,80.61,145.26Z"/><path class="cls-15" d="M99.77,146.36a1.93,1.93,0,0,1-.53-.07,2,2,0,0,1-1.43-2.47l3.4-12.69-12.38-3.32a2,2,0,0,1,1-3.91l14.34,3.85a2,2,0,0,1,1.23.94,2,2,0,0,1,.2,1.53l-3.92,14.64A2,2,0,0,1,99.77,146.36Z"/><path class="cls-15" d="M89.44,146.72a1.93,1.93,0,0,1-.53-.07,2,2,0,0,1-1.43-2.47l1.61-6-5.83-1.56a2,2,0,1,1,1-3.9l7.79,2.08a2,2,0,0,1,1.22.95,2,2,0,0,1,.21,1.53l-2.13,7.95A2,2,0,0,1,89.44,146.72Z"/><path class="cls-15" d="M130.83,174.25a2,2,0,0,1-2-2V122.57a2,2,0,1,1,4,0v49.66A2,2,0,0,1,130.83,174.25Z"/><path class="cls-15" d="M141.36,158.21a2,2,0,0,1-1.43-.59l-9.29-9.29-9.06,9.07a2,2,0,0,1-2.86-2.86l10.49-10.49a2,2,0,0,1,2.86,0l10.72,10.71a2,2,0,0,1,0,2.86A2,2,0,0,1,141.36,158.21Z"/><path class="cls-15" d="M136.51,167.34a2,2,0,0,1-1.43-.59l-4.39-4.39-4.27,4.27a2,2,0,0,1-2.85-2.86l5.7-5.69a2,2,0,0,1,2.85,0l5.82,5.81a2,2,0,0,1,0,2.86A2,2,0,0,1,136.51,167.34Z"/><path class="cls-15" d="M181,145.26a2,2,0,0,1-1-.27l-43-24.84a2,2,0,1,1,2-3.5l43,24.84a2,2,0,0,1,.74,2.76A2.05,2.05,0,0,1,181,145.26Z"/><path class="cls-15" d="M161.62,146.38a2,2,0,0,1-2-1.5l-3.84-14.34a2,2,0,0,1,1.43-2.47l14.64-3.92a2,2,0,1,1,1,3.9l-12.69,3.4,3.32,12.39a2,2,0,0,1-1.43,2.47A1.93,1.93,0,0,1,161.62,146.38Z"/><path class="cls-15" d="M172,146.8a2,2,0,0,1-1.95-1.5L168,137.51a2,2,0,0,1,.2-1.53,2,2,0,0,1,1.23-.94l7.94-2.13a2,2,0,1,1,1.05,3.9l-6,1.61,1.57,5.83a2,2,0,0,1-1.43,2.48A2.41,2.41,0,0,1,172,146.8Z"/><path class="cls-15" d="M138,112.1a2,2,0,0,1-1-3.77L180,83.5a2,2,0,0,1,2,3.5l-43,24.83A2,2,0,0,1,138,112.1Z"/><path class="cls-15" d="M172.31,104.65a1.86,1.86,0,0,1-.52-.07l-14.34-3.84a2,2,0,0,1-1.23-.94,2,2,0,0,1-.2-1.53l3.92-14.65a2,2,0,0,1,3.9,1l-3.4,12.69,12.39,3.32a2,2,0,0,1-.52,4Z"/><path class="cls-15" d="M177.88,95.84a2.49,2.49,0,0,1-.53-.07l-7.78-2.09a2,2,0,0,1-1.43-2.47l2.13-7.95a2,2,0,1,1,3.91,1l-1.61,6,5.83,1.56a2,2,0,0,1-.52,4Z"/><path class="cls-15" d="M109.45,73.27a3.33,3.33,0,1,1-3.32,3.32A3.33,3.33,0,0,1,109.45,73.27Z"/><path class="cls-15" d="M84.66,112.27a3.32,3.32,0,1,1,1.22,4.54A3.33,3.33,0,0,1,84.66,112.27Z"/><path class="cls-15" d="M106,153.24a3.32,3.32,0,1,1,4.53,1.22A3.32,3.32,0,0,1,106,153.24Z"/><circle class="cls-15" cx="152.21" cy="151.89" r="3.32"/><path class="cls-15" d="M177,116.22a3.32,3.32,0,1,1-1.22-4.54A3.33,3.33,0,0,1,177,116.22Z"/><path class="cls-15" d="M155.62,75.25A3.32,3.32,0,1,1,151.09,74,3.31,3.31,0,0,1,155.62,75.25Z"/></g></g></svg>