<svg xmlns="http://www.w3.org/2000/svg" viewBox="0 0 124.33 128.75"><defs><style>.cls-1{isolation:isolate;}.cls-2,.cls-4{fill:#7abe31;}.cls-2{opacity:0.36;}.cls-3{fill:#439555;}.cls-4{mix-blend-mode:multiply;opacity:0.3;}.cls-5{fill:#5da028;}.cls-6{fill:#fff;}</style></defs><g class="cls-1"><g id="Capa_2" data-name="Capa 2"><g id="Capa_1-2" data-name="Capa 1"><ellipse class="cls-2" cx="62.49" cy="67.16" rx="61.84" ry="61.59"/><circle class="cls-3" cx="62.06" cy="62.06" r="58.87"/><path class="cls-4" d="M69.56,110.05A69.76,69.76,0,0,1,34.38,98.24C22.57,90.19,14.6,78.4,10.5,64.79a106.88,106.88,0,0,1-4-22.24,58.86,58.86,0,0,0,96.55,61.73A76.6,76.6,0,0,1,69.56,110.05Z"/><path class="cls-5" d="M62.06,3.19A58.87,58.87,0,1,1,3.19,62.06,58.87,58.87,0,0,1,62.06,3.19m0-3.19a62.07,62.07,0,1,0,62.07,62.06A62.13,62.13,0,0,0,62.06,0Z"/><path class="cls-4" d="M108.19,38.87A64.31,64.31,0,0,0,85,14.6c-3.2-1.93-6.12,3.08-2.93,5A58.58,58.58,0,0,1,103.19,41.8C105,45.08,110,42.16,108.19,38.87Z"/><path class="cls-4" d="M110.59,45.92c-3.73,0-3.74,5.8,0,5.8S114.33,45.92,110.59,45.92Z"/><path class="cls-6" d="M95.55,53.83,68.06,26.36c-.24-.24-.48-.74-.79-.6s-.18.68-.18,1c0,4.67,0,9.34,0,14,0,.67-.19.94-.89,1.05a54.72,54.72,0,0,0-16.48,5.21A46.88,46.88,0,0,0,30.79,64.7a65.13,65.13,0,0,0-8.1,21.07c0,.11,0,.23-.05.41.45-.1.57-.46.76-.72a49.18,49.18,0,0,1,8.86-9.2A45.59,45.59,0,0,1,48.5,68.12a63.78,63.78,0,0,1,13.59-2.18c1.33-.07,2.65-.09,4-.12,1,0,1,0,1,1V81.09c0,.22,0,.43,0,.64s0,.37.14.45.29-.11.41-.21.3-.3.46-.45L94.72,54.9c.27-.27.56-.52.83-.78Z"/></g></g></g></svg>