<svg xmlns="http://www.w3.org/2000/svg" viewBox="0 0 124.33 128.75"><defs><style>.cls-1{isolation:isolate;}.cls-2{fill:#7abe31;opacity:0.36;}.cls-3{fill:#e6e6e6;}.cls-4{fill:#ccc;mix-blend-mode:multiply;opacity:0.3;}.cls-5{fill:#5da028;}.cls-6{fill:#439555;}</style></defs><g class="cls-1"><g id="Capa_2" data-name="Capa 2"><g id="Capa_1-2" data-name="Capa 1"><ellipse class="cls-2" cx="61.84" cy="67.16" rx="61.84" ry="61.59"/><circle class="cls-3" cx="62.26" cy="62.06" r="58.87"/><path class="cls-4" d="M54.76,110.05A69.73,69.73,0,0,0,89.94,98.24c11.82-8,19.78-19.84,23.89-33.45a108.2,108.2,0,0,0,4-22.24,58.86,58.86,0,0,1-96.56,61.73A76.65,76.65,0,0,0,54.76,110.05Z"/><path class="cls-5" d="M62.26,3.19A58.87,58.87,0,1,1,3.39,62.06,58.87,58.87,0,0,1,62.26,3.19m0-3.19a62.07,62.07,0,1,0,62.07,62.06A62.13,62.13,0,0,0,62.26,0Z"/><path class="cls-4" d="M16.13,38.87A64.34,64.34,0,0,1,39.35,14.6c3.2-1.93,6.11,3.08,2.92,5A58.56,58.56,0,0,0,21.14,41.8C19.36,45.08,14.35,42.16,16.13,38.87Z"/><path class="cls-4" d="M13.73,45.92c3.73,0,3.74,5.8,0,5.8S10,45.92,13.73,45.92Z"/><path class="cls-6" d="M28.77,53.83,56.26,26.36c.25-.24.49-.74.8-.6s.18.68.18,1q0,7,0,14c0,.67.19.94.89,1.05A54.72,54.72,0,0,1,74.6,47.09,46.82,46.82,0,0,1,93.53,64.7a64.9,64.9,0,0,1,8.1,21.07c0,.11,0,.23.06.41-.46-.1-.58-.46-.77-.72a48.87,48.87,0,0,0-8.86-9.2,45.54,45.54,0,0,0-16.23-8.14,63.78,63.78,0,0,0-13.59-2.18c-1.33-.07-2.66-.09-4-.12-1,0-1,0-1,1V81.09c0,.22,0,.43,0,.64s0,.37-.15.45-.29-.11-.4-.21-.31-.3-.46-.45L29.6,54.9c-.27-.27-.55-.52-.83-.78Z"/></g></g></g></svg>