<svg xmlns="http://www.w3.org/2000/svg" viewBox="0 0 184.09 190.64"><defs><style>.cls-1{isolation:isolate;}.cls-2,.cls-4{fill:#7abe31;}.cls-2{opacity:0.36;}.cls-3{fill:#cd1e6b;}.cls-4{mix-blend-mode:multiply;opacity:0.3;}.cls-5{fill:#5da028;}.cls-6{fill:#fff;}</style></defs><g class="cls-1"><g id="Capa_2" data-name="Capa 2"><g id="Capa_1-2" data-name="Capa 1"><ellipse class="cls-2" cx="92.52" cy="99.44" rx="91.57" ry="91.2"/><circle class="cls-3" cx="91.9" cy="91.9" r="87.17"/><path class="cls-4" d="M103,163a103.3,103.3,0,0,1-52.09-17.48c-17.49-11.93-29.29-29.38-35.37-49.54A159.2,159.2,0,0,1,9.65,63a87.16,87.16,0,0,0,143,91.41A113.52,113.52,0,0,1,103,163Z"/><path class="cls-5" d="M91.9,4.73A87.17,87.17,0,1,1,4.73,91.9,87.17,87.17,0,0,1,91.9,4.73M91.9,0a91.9,91.9,0,1,0,91.89,91.9A92,92,0,0,0,91.9,0Z"/><path class="cls-4" d="M160.2,57.56a95.19,95.19,0,0,0-34.37-35.94c-4.74-2.86-9.06,4.56-4.33,7.42a86.67,86.67,0,0,1,31.29,32.85C155.42,66.75,162.84,62.42,160.2,57.56Z"/><path class="cls-4" d="M163.75,68c-5.52,0-5.53,8.59,0,8.59S169.29,68,163.75,68Z"/><path class="cls-6" d="M33.52,79.71Q53.88,59.37,74.23,39c.36-.36.72-1.1,1.18-.9s.26,1,.26,1.55c0,6.92,0,13.84,0,20.76,0,1,.29,1.4,1.32,1.57a80.92,80.92,0,0,1,24.4,7.7,69.45,69.45,0,0,1,28,26.08,96.12,96.12,0,0,1,12,31.21c0,.16,0,.33.08.6-.67-.15-.85-.69-1.14-1.07a72.6,72.6,0,0,0-13.11-13.62,67.49,67.49,0,0,0-24-12.06,94.54,94.54,0,0,0-20.12-3.22c-2-.11-3.93-.14-5.9-.18-1.49,0-1.5,0-1.5,1.53v21.08c0,.32,0,.64,0,1s0,.54-.21.66-.43-.15-.61-.31-.45-.44-.67-.66L34.75,81.28c-.4-.39-.82-.76-1.23-1.15Z"/></g></g></g></svg>