<svg xmlns="http://www.w3.org/2000/svg" viewBox="0 0 1082.24 169.13"><defs><style>.cls-1{fill:#86c6e9;}.cls-2{fill:#f9fbfb;}.cls-3{fill:#fafbfb;}.cls-4{fill:#fafcfc;}.cls-5,.cls-6{fill:#fff;}.cls-6{fill-rule:evenodd;}</style></defs><g id="Capa_2" data-name="Capa 2"><g id="Capa_1-2" data-name="Capa 1"><rect class="cls-1" width="1082.24" height="169.13" rx="20.41"/><path class="cls-2" d="M317.75,90.26c0-1.48,0-3,0-4.44q-.35-18.82-.69-37.64c0-1.69.07-3.37.13-5.06.09-2.72,1.42-4.71,4.09-5.09a81.84,81.84,0,0,1,11.27-.84c2.64,0,4.35,2,4.32,4.75-.07,6.33-.27,12.67-.54,19-.47,11-1.23,21.93-1.51,32.9-.3,12-.18,23.94-.25,35.92,0,.4-.1.81-.09,1.21.13,5.37-4.1,7.67-8.64,8.12a17,17,0,0,1-2.26,0c-4.69-.14-6.19-1.31-7.91-5.65-4.61-11.61-9.29-23.19-13.95-34.78a3.33,3.33,0,0,0-1.09-1.46c-.13,1.16-.31,2.32-.37,3.48-.49,10.62-.94,21.24-1.43,31.86-.22,4.83-2.19,6.72-7,6.63-2.55,0-5.11-.23-7.65-.52s-4-1.77-3.85-4.45c.56-11,1.15-21.93,1.84-32.88.41-6.61.89-13.22,1.58-19.8,1.17-11.21,2.49-22.4,3.83-33.58.4-3.37,2.24-5.1,5.22-5.35a4.76,4.76,0,0,1,5,2.94q6.59,14.9,13.12,29.81c2,4.64,3.94,9.32,5.91,14a10.26,10.26,0,0,0,.56,1Z"/><path class="cls-3" d="M97,94c.24-2.23.46-4.46.72-6.68,1.52-12.86,2.53-25.8,5.41-38.46A33.63,33.63,0,0,1,104.58,44a7.07,7.07,0,0,1,6.08-4.6,17.05,17.05,0,0,1,8.07.73c3.14,1.11,4.54,3.13,4.16,6.54-.56,4.9-1.24,9.8-1.77,14.71q-2.28,21.14-4.47,42.28c-.81,7.76-1.84,15.48-4.2,22.94a32.13,32.13,0,0,1-2.82,6.54c-2.1,3.6-5.56,4.66-9.47,3.2a14.36,14.36,0,0,1-7-5.81A115.15,115.15,0,0,1,82.49,109.8c-1-2.63-2-5.26-3-7.89l-.45,0c-.34,2-.62,4-1,6-1.52,7.82-2.94,15.65-4.64,23.42-1.07,4.93-4,6.31-8.71,4.45a37.91,37.91,0,0,1-4.45-2c-3.68-2-4.83-4.37-4.14-8.5,1-5.85,2-11.69,3.1-17.51,2.25-11.45,4.45-22.92,7-34.31,1.19-5.44,2.92-10.77,4.62-16.08a23,23,0,0,1,3-6.24c3.12-4.39,8.54-4.37,11.17.3A47.14,47.14,0,0,1,89.36,63c2.49,9.67,4.59,19.44,6.85,29.17.14.62.32,1.23.48,1.84Z"/><path class="cls-4" d="M360.7,113.4c-1.29,7.25-2.52,14.22-3.78,21.18a17.45,17.45,0,0,1-.81,3.2c-1.17,3.11-3.22,4.35-6.52,4-2.54-.27-5.09-.5-7.6-1-4.16-.76-5-1.94-4.32-6.07,1.59-10.22,3.1-20.45,4.82-30.64,2.85-16.85,6.26-33.58,11.51-49.88,1.14-3.53,2.32-7,3.62-10.53a11.42,11.42,0,0,1,2-3.42c3.42-4,8-4.15,11.1.07A49.91,49.91,0,0,1,376.65,51c5,12,8.17,24.57,11.43,37.11,4.07,15.68,7.94,31.41,11.88,47.13a12.94,12.94,0,0,1,.32,2.41c.19,3.52-1.45,6.09-4.85,6.89a65,65,0,0,1-9.11,1.35c-2.38.22-3.78-1.31-4.89-3.28-2.22-3.92-3-8.26-4-12.56-1.11-4.81-2.25-9.61-3.3-14.43-.22-1-.59-1.31-1.59-1.36C368.71,114,364.9,113.7,360.7,113.4Zm3.09-12.94,6.9.43c-1.18-5-2.3-9.81-3.43-14.59H367C365.92,90.93,364.88,95.55,363.79,100.46Z"/><path class="cls-2" d="M239.57,85c-6.64-3.24-9.69-8.49-10.29-15.26A25,25,0,0,1,233,54.61C239.75,43,250.24,38,263.18,37.29a55.35,55.35,0,0,1,6.44,0c3.28.18,5,2,5,5.29,0,2.73-.06,5.46-.19,8.19-.18,3.59-2.17,5.28-5.72,5.75a85.85,85.85,0,0,0-11.56,2.37c-3.43,1-6.1,3.32-8.35,6.05a9.19,9.19,0,0,0-1.51,2.72c-.83,2.35-.07,4.21,2.26,5.1a17.9,17.9,0,0,0,5.05,1.15c2.83.19,5.69,0,8.54.09,3.66.09,5.3,1.77,5.4,5.38.06,2.21.22,4.41.22,6.62,0,3.85-1.43,5.6-5.12,6.63-3.29.92-6.63,1.75-9.83,2.94a16.12,16.12,0,0,0-8,6,14.25,14.25,0,0,0-2.28,5.53c-.56,3.74,2,6,4.88,7.53a23.68,23.68,0,0,0,7.38,2.45,26,26,0,0,0,10.86-.72c4.83-1.26,8.78.53,8.61,6.1a50.2,50.2,0,0,1-1.32,9.09c-.72,3.29-3.08,5.18-6.16,6.33-7.71,2.89-15.59,3.23-23.69,2.21-9.52-1.21-15-7.16-18.89-15.23-5.72-12-1.76-24.65,6.49-33.65,1.81-2,4.19-3.45,6.32-5.14C238.42,85.76,238.86,85.5,239.57,85Z"/><path class="cls-2" d="M176.85,84.05a75.29,75.29,0,0,1-5.94,31.8,45.13,45.13,0,0,1-12.17,17C149,141.46,136.27,138.63,129,130c-5-5.91-7-13-7.09-20.53a113.22,113.22,0,0,1,6.55-41.25,41.39,41.39,0,0,1,7.05-12.76c5.74-6.72,12.72-10.95,22-10.33a15.59,15.59,0,0,1,13.94,9.52,58.74,58.74,0,0,1,5.42,23.45C176.89,79.86,176.85,81.61,176.85,84.05Zm-17.48-2.47A41.61,41.61,0,0,0,159.3,75a37.54,37.54,0,0,0-2.19-7.44c-.63-1.6-2.19-2-3.85-1.5a10,10,0,0,0-5.47,3.52,49.88,49.88,0,0,0-10.22,31.2,23,23,0,0,0,1.94,8.76c2.51,5.85,9.49,6.46,13.13,1.25a30.85,30.85,0,0,0,3.64-6.91A55.81,55.81,0,0,0,159.37,81.58Z"/><path class="cls-2" d="M200.39,92.62c.91-3.59,1.75-7.2,2.74-10.77q4.22-15.18,8.54-30.35.93-3.27,2-6.5c1.07-3.24,2.9-4.76,6.28-4.77a26.52,26.52,0,0,1,6.52.8c3,.78,4.67,2.84,4.29,5.91a69,69,0,0,1-2.4,11.56q-7,23.19-14.36,46.27-3.57,11.3-7.65,22.43a38.55,38.55,0,0,1-4.18,7.8c-1.51,2.32-3.71,4.05-6.72,3.52-3.23-.57-6.05-2-6.85-5.57-1.21-5.38-2.73-10.73-3.37-16.18-1.81-15.35-3.26-30.74-4.8-46.11-.75-7.46-1.4-14.93-2.05-22.39a27.6,27.6,0,0,1,0-4.36,4.08,4.08,0,0,1,3-3.87c3-.9,6-1.74,9.09-2.43a4.48,4.48,0,0,1,5.7,4.31c.42,5.33.5,10.68.9,16,.85,11.3,1.8,22.59,2.72,33.88,0,.26.07.52.11.78Z"/><path class="cls-3" d="M513.2,129.09q-35.09,0-70.19,0c-3.35,0-6.71.13-10.06.29-2.09.1-3.83-.3-5-2.23-1.36-2.25-1.95-4.62-.16-6.75a49.07,49.07,0,0,1,6.8-6.87c5.43-4.34,11.14-8.31,16.61-12.61,5.71-4.49,5.29-3.61,1.07-8.58-7.55-8.9-15.39-17.53-23.1-26.29-1.53-1.74-3.16-3.53-2-6.12s3.48-3,5.94-3c12-.14,24-.32,36.05-.42,8.07-.07,16.15,0,24.22,0,19.85-.1,39.71-.18,59.57-.35,10-.08,20-.37,30-.51A44.61,44.61,0,0,1,591,56a13.61,13.61,0,0,1,5.42,2.24c2,1.42,1.66,4.2-.33,5.94a291.32,291.32,0,0,0-25.22,25c-.93,1-.64,1.73.13,2.55,5.31,5.59,10.58,11.21,15.93,16.77,3.11,3.22,6.36,6.3,9.48,9.52a10.49,10.49,0,0,1,2,2.91c1.25,2.76.07,5.29-2.75,6.41a18,18,0,0,1-6.71,1.18c-20.92.08-41.84.26-62.76.4-4.3,0-8.6,0-12.9,0ZM472.32,93.52H473c0,6.82-.06,13.65,0,20.48.05,4.33,4.09,7,8,5.07a44.06,44.06,0,0,0,9.65-6.39,34.27,34.27,0,0,0,11.3-24c.31-5-.16-10-2.66-14.39-4.1-7.3-11.84-10.32-20.85-8.43-4.53,1-6.09,3-6.07,7.68C472.35,80.21,472.32,86.86,472.32,93.52Zm45.18-.64a19.8,19.8,0,0,0-6.79,10.39c-1.82,6.48.65,12.08,6.28,15.06,7.07,3.74,14,2.54,21-.14a3.87,3.87,0,0,0,2.2-5,4.09,4.09,0,0,0-4.8-2.63c-1.73.38-3.42.87-5.12,1.35a11.65,11.65,0,0,1-9.69-1.17,4.31,4.31,0,0,1-1.88-2.33c-.79-3.64,1.76-8.07,5.27-9.4,1.65-.62,3.38-1,5.06-1.54a5.14,5.14,0,0,0,3.73-4.83c-.06-2.08-1.41-3.53-3.9-4.15-.8-.2-1.61-.35-2.41-.55-6.15-1.54-6.84-5.08-3.13-10a7.17,7.17,0,0,1,.83-.91,15.52,15.52,0,0,1,10.3-4.85,3.82,3.82,0,0,0,.63-7.54,10.34,10.34,0,0,0-3.84-.11A23.55,23.55,0,0,0,516,74.07c-2.5,3.4-3.94,7.24-3.1,11.6A12.39,12.39,0,0,0,517.5,92.88Z"/><path class="cls-3" d="M481.2,109.59c-.12-2.4-.28-4.39-.32-6.37-.17-9.25-.27-18.49-.5-27.74,0-1.6.5-2,2-2,6.83-.18,10.42,3,11.1,10.2.92,9.73-2.49,17.78-9.78,24.23A24.59,24.59,0,0,1,481.2,109.59Z"/><path class="cls-5" d="M678.26,84.22a50,50,0,0,0,4.07-3.56c2.45-2.69,4.67-5.59,7.18-8.23a7.67,7.67,0,0,1,3.82-2.37c2.52-.45,4.57,2.28,4,4.86a3.77,3.77,0,0,1-.56,1.39c-4.54,6.12-9.11,12.24-16.1,15.84a2.29,2.29,0,0,0-1.41,2.64c.82,11.65,1.58,23.31,2.36,35,0,.56.08,1.13.08,1.69,0,2.36-1.14,4-3.11,4.31a3.9,3.9,0,0,1-4.67-2.87,39.77,39.77,0,0,1-.91-7.07c-.69-9.65-1.3-19.3-1.94-28.95a7.73,7.73,0,0,0-.2-1A68.65,68.65,0,0,1,652.51,98c-.57,0-1.13,0-1.7,0-2.83-.17-2.87-.19-3.74,2.63q-4,12.78-7.86,25.57c-.24.78-.3,1.61-.49,2.4a3.94,3.94,0,0,1-4,3.27,3.74,3.74,0,0,1-3.62-3.47,12.47,12.47,0,0,1,.53-4.62c4.9-15.77,9.76-31.55,14.88-47.25,2.62-8,5.7-16,8.7-23.88a18.69,18.69,0,0,1,2.87-4.84c3.46-4.38,8.75-4.48,11.91.09a24.51,24.51,0,0,1,3.94,8.84c1.6,7.93,2.64,16,3.9,24C678,81.64,678.06,82.63,678.26,84.22Zm-27.64,5.5c6.63.27,12.72-.15,18.62-2.16a2,2,0,0,0,.69-1.64c-1.27-9.06-2.55-18.12-4-27.16a28.25,28.25,0,0,0-1.68-4.83l-.63,0C658.05,65.32,655,77.62,650.62,89.72Z"/><path class="cls-5" d="M845.27,114.89c.26-6.59.55-13.18.78-19.77.37-10.42.7-20.84,1.06-31.27a4,4,0,0,1,3.75-4.19,4,4,0,0,1,4.23,3.49,32.78,32.78,0,0,1,.07,5.43c-.27,10.11-.53,20.22-.89,30.33-.42,11.93-.94,23.85-1.41,35.78a5.14,5.14,0,0,1-3.07,5,4.17,4.17,0,0,1-6-2.53q-2.62-6.76-4.85-13.68c-4.36-13.5-8.64-27-13-40.55a1.24,1.24,0,0,0-.77-.78c-.47,3.63-.93,7.27-1.42,10.9q-2.36,17.25-4.72,34.52c-.19,1.43-.31,2.87-.51,4.3a3.76,3.76,0,0,1-3.53,3.55,3.66,3.66,0,0,1-4.1-3.1,20.38,20.38,0,0,1,.13-5.4C813,111.7,815,96.5,817,81.32c.54-4,1.43-7.91,2.26-11.84a5.45,5.45,0,0,1,2.92-4.16c2.32-1.11,5-.66,6.22,1.77a93.63,93.63,0,0,1,5.18,12.47c3.66,11.16,7.07,22.4,10.58,33.6.2.63.48,1.23.72,1.85Z"/><path class="cls-5" d="M993.21,81.66c2.23-1.86,4.19-3.45,6.09-5.1a4.37,4.37,0,0,1,5.37-.53,4.1,4.1,0,0,1,1.05,5.4,5.9,5.9,0,0,1-1,1.38c-2.84,2.8-5.87,5.36-9.7,6.67a2.21,2.21,0,0,0-1.72,2.61c.29,10.51,0,21-2.12,31.33A33.34,33.34,0,0,1,986.4,136c-3.54,5.18-8.4,5.62-12.81,1.14a16.54,16.54,0,0,1-4.55-8.74c-.9-4.93-2-9.92-2.08-14.9-.27-14.76-.21-29.53,0-44.29.07-5.53,3.41-9.73,7.74-12.65,5.24-3.53,12.47-.62,15,5.89a46.41,46.41,0,0,1,2.2,9.31c.47,2.71.59,5.49.87,8.24C992.85,80.36,993,80.7,993.21,81.66ZM979,131.23l.82-.1a33,33,0,0,0,1.94-4.41c3.33-11.68,3.57-23.63,3.1-35.64a1.6,1.6,0,0,0-.65-1.19c-3-1.45-6.08-2.81-9.19-4.22a7.89,7.89,0,0,0-.11,1.06c0,7.85-.15,15.7.18,23.53A138.18,138.18,0,0,0,977,125.92C977.26,127.75,978.31,129.46,979,131.23Zm5.63-50.13c-.42-3.7-.7-7.13-1.23-10.51a19.81,19.81,0,0,0-1.57-5.36c-1.05-2.2-3.1-2.21-4.29-.11a12.07,12.07,0,0,0-1.41,3.64C975.13,74.28,978,78.19,984.65,81.1Z"/><path class="cls-5" d="M738,102.19A70,70,0,0,1,734,124a23.69,23.69,0,0,1-6.4,9.86c-4.71,4.37-10,4.67-15.22.86a20.93,20.93,0,0,1-6.3-7.87,47.76,47.76,0,0,1-4.7-19.46c-.6-14.46.57-28.77,5.17-42.6A32.54,32.54,0,0,1,711,56.35a11.21,11.21,0,0,1,15.88-2.65,36.47,36.47,0,0,1,6.68,6.52,3.89,3.89,0,0,1-.67,5.82c-1.86,1.29-4,.74-5.76-1.32a27.42,27.42,0,0,0-3.25-3.39c-2.93-2.49-5.27-2-7.28,1.26-2.44,4-3.56,8.43-4.45,12.94a122.86,122.86,0,0,0-2.32,33c.41,5.43,1.45,10.74,4.2,15.51a19,19,0,0,0,3.64,4.23c1.29,1.2,2.72.93,4-.24,3-2.61,4.41-6.07,5.43-9.73a61.8,61.8,0,0,0,2.35-19.37c-.07-1.45-.58-1.89-1.92-1.77-1.87.17-3.75.22-5.62.42a4.12,4.12,0,0,1-4.57-2.81,3.83,3.83,0,0,1,2-4.76,9.45,9.45,0,0,1,3.41-.92c2.51-.16,5-.19,7.54-.1,3.71.13,6.2,2.12,6.92,5.75A74.55,74.55,0,0,1,738,102.19Z"/><path class="cls-5" d="M885.24,113.15c-4.11.9-8,1.71-11.77,2.65-.41.1-.82.92-.9,1.45-1,6.71-2,13.42-2.82,20.14-.38,2.89-1.93,4.58-4.37,4.4s-3.92-2.14-3.59-5c.7-6.31,1.45-12.61,2.39-18.88q3.26-21.6,6.75-43.18a58.14,58.14,0,0,1,1.76-6.93,15.15,15.15,0,0,1,1.4-3.29c2.34-4.09,7.13-4.48,9.62-.49a27.89,27.89,0,0,1,3.68,8.8c1.68,8,3.07,16,4.23,24.09,1.75,12.19,3.21,24.41,4.79,36.62.13,1,.26,2,.34,3a4.31,4.31,0,0,1-3.49,4.86,4,4,0,0,1-4.68-3.59c-.72-4.4-1.19-8.84-1.79-13.26C886.3,120.84,885.79,117.19,885.24,113.15Zm-5.59-37.71H879c-1.69,10.49-3.37,21-5.11,31.85l10.38-2.23C883,95,882.2,85.09,879.65,75.44Z"/><path class="cls-5" d="M959.89,82.32a81.57,81.57,0,0,1-7.62,34c-3.18,6.82-6.93,13.38-10.44,20.05a14.41,14.41,0,0,1-.9,1.44c-1.16,1.71-2.45,3.4-4.8,3a5.94,5.94,0,0,1-4.75-4.38,29.91,29.91,0,0,1-1.07-6.86c-.69-12-1.49-24.08-1.82-36.13a50.75,50.75,0,0,1,5.08-23.94c.46-1,1-1.9,1.52-2.82,5.77-9.63,16.16-6.4,20.11-.41A31,31,0,0,1,959.89,82.32ZM938,125.44l.51.17c.83-1.66,1.63-3.34,2.49-5,5.89-11.11,10.07-22.7,10.5-35.43.17-4.72-.34-9.3-2.62-13.5-1.92-3.54-5.06-3.61-7-.2a35.6,35.6,0,0,0-4.55,14.63C936.18,99.26,937.28,112.35,938,125.44Z"/><path class="cls-5" d="M760.48,125.29c.7-1.72,1.52-3.4,2.07-5.16a118.88,118.88,0,0,0,4.66-25.52c.83-9.94,1.53-19.9,2.3-29.85.22-2.88,1.83-4.55,4.3-4.5a3.91,3.91,0,0,1,4,4.35c-1.17,15.71-1.43,31.52-4.59,47a125.46,125.46,0,0,1-4.59,15.68,13.84,13.84,0,0,1-3.41,4.88,7.07,7.07,0,0,1-10.43-.11,21.42,21.42,0,0,1-5.6-11.14,128.46,128.46,0,0,1-2.49-19.38c-.39-11.86-.14-23.74-.09-35.6a17.26,17.26,0,0,1,.6-4.47,3.9,3.9,0,0,1,4.72-3c1.92.41,3,2.14,2.94,4.44-.34,15.76-.7,31.53.74,47.26.42,4.55,1.1,9.11,3.3,13.26.31.6.65,1.18,1,1.77Z"/><path class="cls-5" d="M1019.5,114a98.83,98.83,0,0,0-7.15-31.6c-2.05-5.07-3.9-10.21-3.79-15.83.07-4.2,1.7-7.5,5.6-9.26s7.47-.46,10.5,2.09c4.65,3.92,6.43,9.16,6.14,15.14a3.88,3.88,0,0,1-3.53,3.8,4,4,0,0,1-4.19-3.33c-.26-1.22-.28-2.49-.44-3.74a8.44,8.44,0,0,0-3.33-5.71,2.53,2.53,0,0,0-1.85-.49c-.32.08-.68,1.11-.57,1.62.74,3.61,1.17,7.36,2.5,10.75A117.94,117.94,0,0,1,1027.6,110c.74,8.2-.36,16.09-5,23.11-2.51,3.79-6,6.07-10.76,5.71-2.94-.22-5.11-1.91-6.87-4.2-2.82-3.68-3.5-8-3.67-12.44a54.79,54.79,0,0,1,.13-7.9c.31-3,2.3-4.51,4.77-4.18s3.46,2.42,3.41,5.4a87.18,87.18,0,0,0,.65,11.06c.17,1.55.71,3.57,2.55,3.81s2.84-1.58,3.66-3.07C1018.7,123.23,1019.35,118.78,1019.5,114Z"/><path class="cls-5" d="M898.36,67.52a51.92,51.92,0,0,1,0-5.44c.27-2.48,2-4,4.09-3.83a4.13,4.13,0,0,1,3.78,4.21c.33,5.33.49,10.68.92,16,1.33,16.65,2.76,33.3,4.11,50,.13,1.63.77,2.35,2.46,2.2,1.5-.13,3-.08,4.52-.07,2.62,0,4.41,1.54,4.6,3.81a4,4,0,0,1-4,4.4,43.13,43.13,0,0,1-9.71-.44c-3.46-.63-5.2-3.41-5.72-6.75-.65-4.21-1.21-8.46-1.54-12.71-1.33-17.1-2.55-34.2-3.81-51.31Z"/><path class="cls-5" d="M801,79.56c-.76,17.2-1.39,32.83-2.19,48.45a13.27,13.27,0,0,1-1.71,5.44,3.61,3.61,0,0,1-4.66,1.32,4.19,4.19,0,0,1-2.37-4.14c.49-7.83,1.09-15.65,1.39-23.49.57-14.37,1-28.75,1.44-43.12a11.66,11.66,0,0,1,.34-2.42,3.94,3.94,0,0,1,4.47-3.14A4.05,4.05,0,0,1,801,62.67C801,68.82,801,75,801,79.56Z"/><path class="cls-6" d="M40.33,55.46c-.1-.85-.63-2.09-3.46-5.22-.38-.43-.81-.9-1.28-1.39,1.39,0,2.65-.11,3.69-.19,3.91-.31,4.56-.87,4.84-1.41a.92.92,0,0,0-.47-1.38c-.66-.35-1.91-.56-5.84-.74-.82,0-1.76-.07-2.77-.1.76-.77,1.46-1.49,2.06-2.13,2.67-2.87,3.26-4,3.32-4.8s-.41-1.08-1.26-1-2.09.63-5.23,3.46c-.39.35-.81.73-1.25,1.15,0-1.25-.1-2.39-.18-3.34-.31-3.92-.87-4.56-1.4-4.84a.93.93,0,0,0-1.39.47c-.35.66-.56,1.91-.74,5.84,0,.69-.06,1.47-.09,2.31-1.08-1-2.1-1.94-2.94-2.66-3-2.54-3.84-2.6-4.42-2.43a.93.93,0,0,0-.65,1.31c.23.72,1,1.76,3.61,4.66l1.7,1.83c-1,0-2,0-2.81,0-3.93.14-5.18.56-5.75,1s-.47,1.06.21,1.59,1.92,1,6.14,1.25l1.62.06c-.91,1-1.72,1.88-2.38,2.64-2.54,3-2.6,3.84-2.42,4.42a.92.92,0,0,0,1.31.65c.72-.22,1.75-1,4.65-3.61.59-.54,1.27-1.17,2-1.84,0,1.16,0,2.24.06,3.17.13,3.93.55,5.18,1,5.75s1.05.47,1.58-.21,1-1.93,1.25-6.14c0-.63.06-1.32.08-2.06.65.64,1.27,1.24,1.82,1.75,2.87,2.68,4,3.27,4.8,3.33S40.44,56.32,40.33,55.46Z"/><path class="cls-5" d="M1042.71,26.28l.22,2.09a10.36,10.36,0,0,0,9.23,9.22l2.08.22-2.08.22a10.37,10.37,0,0,0-9.23,9.23l-.22,2.08-.22-2.08a10.36,10.36,0,0,0-9.22-9.23l-2.09-.22,2.09-.22a10.35,10.35,0,0,0,9.22-9.22Z"/></g></g></svg>