<svg xmlns="http://www.w3.org/2000/svg" xmlns:xlink="http://www.w3.org/1999/xlink" viewBox="0 0 867.26 559.86"><defs><style>.cls-1,.cls-19,.cls-22,.cls-23,.cls-25,.cls-29,.cls-31,.cls-35,.cls-43,.cls-54{fill:none;}.cls-2{isolation:isolate;}.cls-3{fill:#21192e;}.cls-3,.cls-47{opacity:0.1;}.cls-4{fill:#ddebef;}.cls-5{fill:#fff;}.cls-6{fill:#795148;}.cls-7{fill:#6b443d;}.cls-8{fill:#5f779b;}.cls-9{fill:#e7a17e;}.cls-10{fill:#6a6597;}.cls-11{fill:#595689;}.cls-12{fill:#fbf9f4;}.cls-13,.cls-15{fill:#f4efe6;}.cls-14{fill:#346181;}.cls-15{opacity:0.18;}.cls-16{fill:#dd8865;}.cls-17{fill:#683935;}.cls-18{fill:#e0c1ab;}.cls-19,.cls-35{stroke:#dd8865;}.cls-19,.cls-22,.cls-23,.cls-31,.cls-35,.cls-54{stroke-linecap:round;}.cls-19,.cls-23,.cls-25,.cls-29,.cls-35,.cls-43{stroke-miterlimit:10;}.cls-19{stroke-width:1.56px;}.cls-20{fill:#fcf9ee;}.cls-21{fill:#a0cbcc;}.cls-22{stroke:#000;}.cls-22,.cls-31,.cls-54{stroke-linejoin:round;}.cls-22,.cls-23{stroke-width:0.62px;}.cls-23{stroke:#683935;}.cls-24{fill:#efd7b9;}.cls-25{stroke:#eddac3;stroke-width:0.77px;}.cls-26{fill:#d89e95;}.cls-27{fill:#ceae99;}.cls-28{fill:#b07d6a;}.cls-29{stroke:#63453c;stroke-width:1.1px;}.cls-30{fill:#54342e;}.cls-31{stroke:#e7a17e;stroke-width:0.77px;}.cls-32{fill:#634927;}.cls-33{fill:#63453c;}.cls-34{fill:#f9e8d0;}.cls-35{stroke-width:1.65px;}.cls-36{fill:#c98983;}.cls-37{opacity:0.26;}.cls-38{fill:#eddac3;}.cls-39{fill:#b08369;}.cls-40{fill:#9b6a5c;}.cls-41{opacity:0.5;}.cls-42{clip-path:url(#clip-path);}.cls-43{stroke:#d39484;stroke-width:0.83px;}.cls-44{clip-path:url(#clip-path-2);}.cls-45{fill:#db9d53;}.cls-46{fill:#c98a45;}.cls-47{fill:#916253;mix-blend-mode:multiply;}.cls-48{fill:#f2eddd;}.cls-49{fill:#dd9d82;}.cls-50{fill:#f4e771;}.cls-51{fill:#ebbc8e;}.cls-52{fill:#e09f25;}.cls-53{fill:#e8ab69;}.cls-54{stroke:#634927;stroke-width:0.53px;}.cls-55{fill:url(#linear-gradient);}.cls-56{fill:url(#linear-gradient-2);}.cls-57{fill:url(#linear-gradient-3);}.cls-58{fill:url(#linear-gradient-4);}.cls-59{fill:url(#linear-gradient-5);}.cls-60{fill:url(#linear-gradient-6);}.cls-61{fill:url(#linear-gradient-7);}.cls-62{fill:url(#linear-gradient-8);}.cls-63{fill:url(#linear-gradient-9);}.cls-64{fill:url(#linear-gradient-10);}.cls-65{fill:url(#linear-gradient-11);}.cls-66{fill:url(#linear-gradient-12);}.cls-67{fill:url(#linear-gradient-13);}.cls-68{fill:url(#linear-gradient-14);}.cls-69{fill:url(#linear-gradient-15);}.cls-70{fill:url(#linear-gradient-16);}.cls-71{fill:url(#linear-gradient-17);}.cls-72{fill:url(#linear-gradient-18);}.cls-73{fill:url(#linear-gradient-19);}.cls-74{fill:url(#linear-gradient-20);}.cls-75{fill:url(#linear-gradient-21);}.cls-76{fill:url(#linear-gradient-22);}</style><clipPath id="clip-path"><path class="cls-1" d="M668.51,471.56q-2.53,23.73-3,47.64a19.66,19.66,0,0,1-17.5,1.18c.49-6.5.66-12.36.83-18.22A713.18,713.18,0,0,1,562.94,501a127.17,127.17,0,0,1-.22,16.42,12.1,12.1,0,0,1-14.32-.19c-.22-16.88-.63-34.34-1.85-50.52,28.24-.84,56.5-.92,84.74-.55,12.87.17,26.11.52,37.22,5.43"/></clipPath><clipPath id="clip-path-2"><path class="cls-1" d="M669.47,415.11,609.92,492.7c-3.11-.12-6.24-.18-9.35-.22-28.24-.37-56.5-.29-84.74.55,1.22,16.18,1.63,33.64,1.86,50.52a12.09,12.09,0,0,0,14.31.19,127.17,127.17,0,0,0,.22-16.42,713.21,713.21,0,0,0,85.91,1.19c-.17,5.86-.34,11.72-.83,18.22a19.69,19.69,0,0,0,17.5-1.18q.23-12.07,1-24.14c6-5.78,20.67-20.15,29.36-30.54Z"/></clipPath><linearGradient id="linear-gradient" x1="226.53" y1="36.9" x2="226.53" y2="506.8" gradientUnits="userSpaceOnUse"><stop offset="0.06" stop-color="#f1ce7b"/><stop offset="0.31" stop-color="#eaa946"/><stop offset="1" stop-color="#9e6c36"/></linearGradient><linearGradient id="linear-gradient-2" x1="235.64" y1="-6.9" x2="235.64" y2="440.63" xlink:href="#linear-gradient"/><linearGradient id="linear-gradient-3" x1="149.92" y1="85.79" x2="149.92" y2="533.3" xlink:href="#linear-gradient"/><linearGradient id="linear-gradient-4" x1="221.82" y1="9.85" x2="221.82" y2="457.4" xlink:href="#linear-gradient"/><linearGradient id="linear-gradient-5" x1="308.04" y1="-15.18" x2="308.04" y2="432.34" xlink:href="#linear-gradient"/><linearGradient id="linear-gradient-6" x1="228.38" y1="-21.57" x2="228.38" y2="425.97" xlink:href="#linear-gradient"/><linearGradient id="linear-gradient-7" x1="178.81" y1="-159.81" x2="178.81" y2="287.73" xlink:href="#linear-gradient"/><linearGradient id="linear-gradient-8" x1="130.73" y1="-5.3" x2="130.73" y2="442.18" xlink:href="#linear-gradient"/><linearGradient id="linear-gradient-9" x1="242.06" y1="-11.1" x2="242.06" y2="436.44" xlink:href="#linear-gradient"/><linearGradient id="linear-gradient-10" x1="327.77" y1="-1.14" x2="327.77" y2="446.39" xlink:href="#linear-gradient"/><linearGradient id="linear-gradient-11" x1="374.9" y1="-252.54" x2="374.9" y2="368" xlink:href="#linear-gradient"/><linearGradient id="linear-gradient-12" x1="13.59" y1="12.48" x2="13.59" y2="460" xlink:href="#linear-gradient"/><linearGradient id="linear-gradient-13" x1="327.51" y1="3.78" x2="327.51" y2="451.24" xlink:href="#linear-gradient"/><linearGradient id="linear-gradient-14" x1="89.96" y1="-22.95" x2="89.96" y2="424.59" xlink:href="#linear-gradient"/><linearGradient id="linear-gradient-15" x1="146.63" y1="-5.41" x2="146.63" y2="442.22" xlink:href="#linear-gradient"/><linearGradient id="linear-gradient-16" x1="196.77" y1="-17.67" x2="196.77" y2="429.84" xlink:href="#linear-gradient"/><linearGradient id="linear-gradient-17" x1="265.88" y1="-5.3" x2="265.88" y2="442.19" xlink:href="#linear-gradient"/><linearGradient id="linear-gradient-18" x1="242.41" y1="-24.48" x2="242.41" y2="423.01" xlink:href="#linear-gradient"/><linearGradient id="linear-gradient-19" x1="267.68" y1="-5.3" x2="267.68" y2="442.18" xlink:href="#linear-gradient"/><linearGradient id="linear-gradient-20" x1="352.45" y1="-5.29" x2="352.45" y2="442.2" xlink:href="#linear-gradient"/><linearGradient id="linear-gradient-21" x1="220.04" y1="-0.84" x2="220.04" y2="446.67" xlink:href="#linear-gradient"/><linearGradient id="linear-gradient-22" x1="211.24" y1="-5.29" x2="211.24" y2="442.16" xlink:href="#linear-gradient"/></defs><g class="cls-2"><g id="Capa_2" data-name="Capa 2"><g id="Capa_1-2" data-name="Capa 1"><ellipse class="cls-3" cx="471.66" cy="503.53" rx="100.17" ry="15.65"/><ellipse class="cls-3" cx="714.21" cy="501.96" rx="100.17" ry="15.65"/><path class="cls-3" d="M704.35,530.13c0,8.64-51.4,29.73-106.72,29.73-99.08,0-93.63-21.09-93.63-29.73s44.85-15.65,100.17-15.65S704.35,521.49,704.35,530.13Z"/><path class="cls-4" d="M327.25,478.6h516.4c27.43-49.31,31.34-112.39,9.74-164.51-13.81-33.36-26.81-73.77-36.48-108.55-13.47-48.44-9.63-92.47-33.19-136.87C764.34,32.15,723.14,11.86,682.38,5,590.76-10.56,486.55,9.81,419.44,74.09c-23.79,22.78-45.1,61.26-58.82,91.21-12.37,27-18.22,56.39-24,85.5-9.71,49.09-9.5,107.19-19.2,156.28-2.39,12.09-8.57,48.83,9.81,71.52"/><path class="cls-5" d="M560.31,60.88l23.83,3.31.06,0L573,78.89a2.19,2.19,0,0,0,3.11,3L590.64,70a12.08,12.08,0,0,1,.75,2.27l3.28,24.69a2.71,2.71,0,0,0,5.32-.12l2.35-23.57a14.16,14.16,0,0,1,.89-3l13,9.38a2.34,2.34,0,0,0,3.15-3.27l-9.68-12.67a7.31,7.31,0,0,1,.78-.29l22.62-3.69a2.9,2.9,0,0,0-.12-5.61L610.27,51a11.24,11.24,0,0,1-1.16-.38l11.25-14.58a2.19,2.19,0,0,0-3.1-3L602.83,44.8a14.25,14.25,0,0,1-1.16-3.31l-3-23.46a2.71,2.71,0,0,0-5.32.12l-2.55,24.76a11.29,11.29,0,0,1-.49,1.86l-13.24-9.42a2.34,2.34,0,0,0-3.14,3.27l9.63,12.73-23.35,3.93A2.89,2.89,0,0,0,560.31,60.88Z"/><path class="cls-4" d="M559.83,57.26c6.08-.36,12.16-.61,18.25-.79s12.17-.31,18.26-.34c12.18-.1,24.36,0,36.53.61a.28.28,0,0,1,.27.3.28.28,0,0,1-.29.27c-6.08-.11-12.16-.1-18.25-.11l-18.25.14-36.5.49a.28.28,0,0,1-.29-.28A.27.27,0,0,1,559.83,57.26Z"/><path class="cls-4" d="M596.2,20.58c.48,6.26.84,12.53,1.13,18.8s.52,12.55.63,18.83.24,12.56.19,18.84-.17,12.57-.47,18.84a.3.3,0,0,1-.3.28.28.28,0,0,1-.27-.3c.11-6.27.06-12.54,0-18.81s-.19-12.55-.36-18.82l-1.14-37.63a.3.3,0,0,1,.28-.3A.3.3,0,0,1,596.2,20.58Z"/><path class="cls-4" d="M575.61,36.81q5.42,4.84,10.72,9.81c3.53,3.31,7.06,6.63,10.52,10s6.95,6.76,10.38,10.17,6.83,6.88,10.12,10.44a.2.2,0,0,1,0,.26.19.19,0,0,1-.26,0c-3.37-3.47-6.84-6.84-10.29-10.24s-6.94-6.74-10.45-10.08q-10.51-10-21-20.1a.18.18,0,0,1,.25-.26Z"/><path class="cls-4" d="M619.17,33.93q-10.42,11.91-21.32,23.39c-3.63,3.83-7.27,7.64-11,11.42s-7.41,7.52-11.28,11.11a.18.18,0,1,1-.25-.27c3.78-3.67,7.42-7.48,11.09-11.27s7.26-7.64,10.86-11.5l21.6-23.12a.18.18,0,0,1,.26.24Z"/><path class="cls-5" d="M767.68,45.8a2.32,2.32,0,0,1,1.21-2.92c1.09-.45,2.31-.44,2.72.73s-.14,3.06-1.22,3.5A2,2,0,0,1,767.68,45.8Z"/><path class="cls-5" d="M704.62,43.66a2.32,2.32,0,0,1,1.22-2.92c1.08-.45,2.31-.44,2.72.73s-.15,3.06-1.23,3.5A2.05,2.05,0,0,1,704.62,43.66Z"/><path class="cls-5" d="M659.21,72.32a2.33,2.33,0,0,1,1.22-2.93c1.08-.44,2.3-.43,2.71.74s-.14,3.05-1.22,3.5A2.06,2.06,0,0,1,659.21,72.32Z"/><path class="cls-5" d="M778.21,140.06a2.32,2.32,0,0,1,1.22-2.92c1.08-.44,2.3-.43,2.72.74s-.15,3.05-1.23,3.5A2.07,2.07,0,0,1,778.21,140.06Z"/><path class="cls-5" d="M775.79,181.07a2.32,2.32,0,0,1,1.22-2.92c1.08-.44,2.3-.44,2.72.73s-.15,3.06-1.23,3.51A2.06,2.06,0,0,1,775.79,181.07Z"/><path class="cls-5" d="M801.68,212.05a2.33,2.33,0,0,1,1.22-2.92c1.08-.45,2.31-.44,2.72.73s-.14,3.06-1.23,3.5A2.06,2.06,0,0,1,801.68,212.05Z"/><path class="cls-5" d="M762.14,74.87A2.32,2.32,0,0,1,763.36,72c1.08-.44,2.3-.44,2.72.73s-.15,3.06-1.23,3.5A2.05,2.05,0,0,1,762.14,74.87Z"/><path class="cls-5" d="M504.76,40.69a21.22,21.22,0,0,1-.77,4.24c-.07.23-.18.5-.42.54s-.48-.22-.62-.46a12.77,12.77,0,0,1-1.36-3.78,28.32,28.32,0,0,1-3.29,1.35c-.43.15-1,.25-1.28-.1s-.09-.87.13-1.26a14.7,14.7,0,0,1,2.17-2.91,32.77,32.77,0,0,1-2.41-2.8c-.22-.28-.44-.65-.28-1a.67.67,0,0,1,.5-.31,1.75,1.75,0,0,1,.6.05,20.62,20.62,0,0,1,3.83,1.16,18.19,18.19,0,0,1,3.13-2.78c.23-.15.52-.31.77-.17s.26.47.24.75A14.19,14.19,0,0,1,505,37a12.46,12.46,0,0,1,3.94,2.21c.23.19.48.47.39.76s-.36.35-.6.41a11.14,11.14,0,0,1-4,.31s0,0,0,0"/><path class="cls-5" d="M769.75,111.39a21.09,21.09,0,0,1-.77,4.24c-.07.23-.18.5-.42.54s-.49-.22-.62-.46a12.77,12.77,0,0,1-1.36-3.78,29.06,29.06,0,0,1-3.29,1.35c-.44.15-1,.25-1.28-.1s-.09-.87.13-1.26a14.7,14.7,0,0,1,2.17-2.91,31.08,31.08,0,0,1-2.41-2.8c-.22-.28-.44-.65-.28-1a.64.64,0,0,1,.49-.31,1.8,1.8,0,0,1,.61,0,20.29,20.29,0,0,1,3.82,1.16,18.13,18.13,0,0,1,3.14-2.77c.23-.16.52-.32.76-.18s.27.47.25.75a14.19,14.19,0,0,1-.72,3.79,12.57,12.57,0,0,1,3.94,2.21c.23.2.48.47.38.76s-.35.35-.6.41a11.06,11.06,0,0,1-4,.31s0,0,0,0"/><path class="cls-5" d="M428.16,203.23a21.15,21.15,0,0,1,3.48,2.55c.18.16.37.38.31.61s-.41.34-.69.36a12.87,12.87,0,0,1-4-.43,28.52,28.52,0,0,1-.21,3.55c-.06.46-.22,1-.66,1.11s-.82-.3-1.08-.67a14.87,14.87,0,0,1-1.66-3.22,34.17,34.17,0,0,1-3.58.95c-.34.07-.77.1-1-.18a.66.66,0,0,1-.06-.58,1.81,1.81,0,0,1,.3-.52,21,21,0,0,1,2.72-2.94,18,18,0,0,1-1.13-4c0-.27-.05-.6.18-.76s.54,0,.78.11a14.09,14.09,0,0,1,3.1,2.3,12.43,12.43,0,0,1,3.71-2.58c.27-.12.63-.23.85,0a.79.79,0,0,1,.1.72,11,11,0,0,1-1.45,3.71s0,0,0,0"/><path class="cls-5" d="M341.31,395.71a21.15,21.15,0,0,1,3.48,2.55c.18.16.37.38.31.61s-.41.34-.69.35a12.86,12.86,0,0,1-4-.42,28.52,28.52,0,0,1-.21,3.55c-.06.45-.22,1-.66,1.11s-.82-.3-1.08-.67a15.1,15.1,0,0,1-1.66-3.22,34.14,34.14,0,0,1-3.58.94c-.34.07-.77.11-1-.17a.66.66,0,0,1-.06-.58,1.68,1.68,0,0,1,.3-.52,20.48,20.48,0,0,1,2.72-2.94,18.13,18.13,0,0,1-1.13-4c0-.27-.05-.61.18-.76s.54,0,.78.1a13.83,13.83,0,0,1,3.1,2.31,12.25,12.25,0,0,1,3.71-2.58c.27-.13.63-.23.85,0a.82.82,0,0,1,.11.72,11.32,11.32,0,0,1-1.46,3.71s0,0,0,0"/><path class="cls-5" d="M566.65,16.19a1.67,1.67,0,0,1-1.6,1.73c-.89,0-1.76-.37-1.76-1.32s.87-2.14,1.76-2.14A1.67,1.67,0,0,1,566.65,16.19Z"/><path class="cls-5" d="M377.47,215.18a1.67,1.67,0,0,1-1.6,1.72c-.88,0-1.75-.36-1.75-1.31s.87-2.14,1.75-2.14A1.67,1.67,0,0,1,377.47,215.18Z"/><path class="cls-5" d="M354.53,341.52a1.66,1.66,0,0,1-1.6,1.72c-.88,0-1.75-.36-1.75-1.31s.87-2.14,1.75-2.14A1.66,1.66,0,0,1,354.53,341.52Z"/><path class="cls-5" d="M491.42,88.17a1.66,1.66,0,0,1-1.6,1.73c-.88,0-1.75-.36-1.75-1.32s.87-2.13,1.75-2.13A1.66,1.66,0,0,1,491.42,88.17Z"/><path class="cls-5" d="M709.16,77.59a1.67,1.67,0,0,1-1.6,1.73c-.88,0-1.75-.37-1.75-1.32s.87-2.14,1.75-2.14A1.67,1.67,0,0,1,709.16,77.59Z"/><path class="cls-5" d="M601,119.63a1.67,1.67,0,0,1-1.6,1.73c-.89,0-1.76-.37-1.76-1.32s.87-2.14,1.76-2.14A1.67,1.67,0,0,1,601,119.63Z"/><path class="cls-5" d="M432,141.38a1.67,1.67,0,0,1-1.6,1.72c-.89,0-1.75-.36-1.75-1.31s.86-2.14,1.75-2.14A1.67,1.67,0,0,1,432,141.38Z"/><path class="cls-5" d="M393.65,271.88a1.67,1.67,0,0,1-1.6,1.73c-.88,0-1.75-.36-1.75-1.32s.87-2.13,1.75-2.13A1.66,1.66,0,0,1,393.65,271.88Z"/><path class="cls-5" d="M338.1,466.24a1.66,1.66,0,0,1-1.6,1.73c-.88,0-1.75-.36-1.75-1.31s.87-2.14,1.75-2.14A1.66,1.66,0,0,1,338.1,466.24Z"/><path class="cls-5" d="M836.47,458.26a1.67,1.67,0,0,1-1.6,1.73c-.88,0-1.75-.37-1.75-1.32s.87-2.14,1.75-2.14A1.67,1.67,0,0,1,836.47,458.26Z"/><path class="cls-5" d="M528.2,63.14a2.33,2.33,0,0,1,1.21-2.93c1.09-.44,2.31-.43,2.72.74s-.14,3-1.23,3.5A2.06,2.06,0,0,1,528.2,63.14Z"/><path class="cls-5" d="M455,73.39a2.32,2.32,0,0,1,1.22-2.92c1.08-.45,2.3-.44,2.71.73s-.14,3.06-1.22,3.5A2,2,0,0,1,455,73.39Z"/><path class="cls-5" d="M383.07,152.78a2.32,2.32,0,0,1,1.22-2.92c1.08-.44,2.31-.43,2.72.73s-.15,3.06-1.23,3.51A2.07,2.07,0,0,1,383.07,152.78Z"/><path class="cls-5" d="M373.66,427.83a2.31,2.31,0,0,1,1.21-2.92c1.09-.45,2.31-.44,2.72.73s-.14,3.06-1.22,3.5A2,2,0,0,1,373.66,427.83Z"/><path class="cls-5" d="M376,354.28a2.33,2.33,0,0,1,1.22-2.92c1.08-.44,2.31-.44,2.72.73s-.14,3.06-1.23,3.5A2.06,2.06,0,0,1,376,354.28Z"/><path class="cls-5" d="M666,20.74a15.9,15.9,0,0,1-.21,3.08c0,.17-.09.37-.25.42s-.36-.12-.48-.28a9,9,0,0,1-1.27-2.58,22.92,22.92,0,0,1-2.24,1.23c-.29.13-.68.25-.92,0s-.13-.61,0-.9a10.75,10.75,0,0,1,1.31-2.25,23.24,23.24,0,0,1-1.94-1.8c-.18-.18-.36-.43-.27-.66a.46.46,0,0,1,.32-.27,1.61,1.61,0,0,1,.44,0,14.19,14.19,0,0,1,2.81.52,13.47,13.47,0,0,1,2-2.23c.15-.13.35-.26.53-.19s.23.32.24.52a10.29,10.29,0,0,1-.21,2.76,8.79,8.79,0,0,1,3,1.25c.18.12.38.3.34.51s-.23.28-.4.34a7.87,7.87,0,0,1-2.8.54s0,0,0,0"/><path class="cls-5" d="M356.78,288.37a15.85,15.85,0,0,1-.21,3.08c0,.17-.09.37-.26.43s-.36-.12-.47-.28a9.34,9.34,0,0,1-1.28-2.59,18.43,18.43,0,0,1-2.23,1.23c-.3.14-.69.26-.92,0s-.14-.61,0-.91a10.26,10.26,0,0,1,1.31-2.24,25.07,25.07,0,0,1-1.94-1.8c-.18-.18-.36-.43-.27-.67a.47.47,0,0,1,.32-.26,1,1,0,0,1,.43,0,14.89,14.89,0,0,1,2.82.51,13,13,0,0,1,2-2.22c.15-.13.35-.27.53-.19s.23.32.24.52a10.25,10.25,0,0,1-.21,2.75,8.82,8.82,0,0,1,3,1.26c.18.12.38.29.34.51s-.23.27-.4.34a8.1,8.1,0,0,1-2.8.54s0,0,0,0"/><path class="cls-5" d="M794.37,370.47a20.27,20.27,0,0,1,3.68,2.23c.2.15.41.35.37.59s-.38.37-.65.41a12.67,12.67,0,0,1-4-.08,28,28,0,0,1,.1,3.56c0,.46-.13,1-.56,1.16s-.84-.23-1.13-.57a15.07,15.07,0,0,1-1.94-3.06,34.93,34.93,0,0,1-3.48,1.25c-.34.1-.76.17-1-.09a.64.64,0,0,1-.12-.57,2,2,0,0,1,.26-.55,20.24,20.24,0,0,1,2.45-3.16,17.76,17.76,0,0,1-1.47-3.92c-.07-.26-.11-.6.11-.77s.53-.08.79,0a14.15,14.15,0,0,1,3.28,2,12.54,12.54,0,0,1,3.47-2.89c.26-.15.61-.28.85-.09a.81.81,0,0,1,.17.7,11.44,11.44,0,0,1-1.13,3.83s0,0,0,0"/><path class="cls-5" d="M802.8,315.33a1.66,1.66,0,0,1-1.44,1.86c-.88.07-1.78-.21-1.86-1.16a2.22,2.22,0,0,1,1.56-2.28A1.66,1.66,0,0,1,802.8,315.33Z"/><path class="cls-5" d="M794.39,229.09A1.66,1.66,0,0,1,793,231c-.88.08-1.78-.21-1.86-1.16a2.22,2.22,0,0,1,1.56-2.28A1.66,1.66,0,0,1,794.39,229.09Z"/><path class="cls-5" d="M797.33,441a1.66,1.66,0,0,1-1.44,1.86c-.88.08-1.78-.2-1.86-1.15s.68-2.21,1.56-2.29A1.67,1.67,0,0,1,797.33,441Z"/><path class="cls-5" d="M829.39,399.64a2.33,2.33,0,0,1,1-3c1-.53,2.26-.63,2.77.49s.13,3.06-.91,3.6A2.06,2.06,0,0,1,829.39,399.64Z"/><path class="cls-5" d="M766.24,331.68a2.31,2.31,0,0,1,1-3c1-.54,2.26-.64,2.78.49s.12,3.06-.92,3.6A2.06,2.06,0,0,1,766.24,331.68Z"/><path class="cls-5" d="M833.91,331.64a2.32,2.32,0,0,1,1-3c1-.54,2.26-.64,2.77.49s.13,3.06-.91,3.6A2.08,2.08,0,0,1,833.91,331.64Z"/><path class="cls-5" d="M800.4,262.19a15.94,15.94,0,0,1,.06,3.09c0,.17-.06.37-.22.44s-.37-.08-.49-.24a8.88,8.88,0,0,1-1.5-2.46,18.64,18.64,0,0,1-2.12,1.42c-.28.17-.66.32-.91.11s-.19-.6-.09-.9a10.11,10.11,0,0,1,1.11-2.35,22.65,22.65,0,0,1-2.09-1.63c-.2-.16-.4-.39-.33-.64a.44.44,0,0,1,.3-.29,1.49,1.49,0,0,1,.43-.05,15.2,15.2,0,0,1,2.85.27,12.31,12.31,0,0,1,1.81-2.39c.13-.14.32-.3.51-.24s.25.3.28.5a10.2,10.2,0,0,1,0,2.76,9,9,0,0,1,3.08,1c.19.11.4.26.38.48s-.2.29-.36.37a8,8,0,0,1-2.75.79s0,0,0,0"/><path class="cls-5" d="M419.58,104.09a14.43,14.43,0,0,1-.21,3.08c0,.17-.09.37-.25.43s-.36-.12-.48-.28a9,9,0,0,1-1.27-2.59,19.36,19.36,0,0,1-2.24,1.23c-.29.14-.68.26-.92,0s-.13-.61,0-.91a11,11,0,0,1,1.32-2.24,23.48,23.48,0,0,1-1.95-1.8c-.17-.18-.36-.43-.27-.67a.47.47,0,0,1,.32-.26,1.08,1.08,0,0,1,.44,0,14.93,14.93,0,0,1,2.81.51,13.39,13.39,0,0,1,2-2.22c.15-.13.35-.27.53-.19s.23.32.24.52a10.25,10.25,0,0,1-.21,2.75,8.73,8.73,0,0,1,3,1.26c.18.12.38.29.34.51s-.23.27-.39.34a8.2,8.2,0,0,1-2.81.54s0,0,0,0"/><path class="cls-6" d="M590,230.31c.86-10.74,13.91-22.78,0-44.2-10-15.45-7.15-19.37-7.15-19.37L471.13,148.13s-5,15.47-12.78,23c-3.87,3.75-8.77,6.87-12.21,11.33l1.29,3.44q8.29,22.53,16.4,45.12a65.82,65.82,0,0,0,.85-32.86c-4-18.22,12.28-30.84,28.75-32.51,23.06-2.13,40.51,11.21,59.36,20.68,6.34,2.49,14.84,5.16,17.62,11.35,5.62,11.39-7.32,23.29-2.86,35.58,2.62,8.16,10.72,15.78,13.26,24.93,3,9.2,2.39,18.57-.78,27.57l.28.64a22.47,22.47,0,0,0,8.34.62c.29-2.44.7-4.87,1.11-7.27.18-1,.33-2,.47-3,0-.5-.07-1-.09-1.51a76.79,76.79,0,0,1,1.51-19.42c.14-4,.32-8,.69-11.92C590.63,238.66,589.72,233.74,590,230.31Z"/><path class="cls-7" d="M580.81,258.17c-2.54-9.15-10.64-16.77-13.26-24.93-4.46-12.29,8.48-24.19,2.86-35.58-2.78-6.19-11.28-8.86-17.62-11.35-18.85-9.47-36.3-22.81-59.36-20.68-16.47,1.67-32.74,14.29-28.75,32.51,5.67,24.32-3.65,45.45-16.22,66.33-3.34,5.08-3.34,11.78-1.24,18.49a52.55,52.55,0,0,0,11,1.59l4.51-17.45,3.51,18.14s10.68,6.64,51.32,2.38,47,2.24,50.71-3.6-1.7-28.82-1.7-28.82L580,285.74C583.2,276.74,583.84,267.37,580.81,258.17Z"/><path class="cls-8" d="M512.48,234.57s25.77-3.44,41.47,2.67-28.64,9.81-29.82,9.85S512.48,234.57,512.48,234.57Z"/><path class="cls-9" d="M544.77,234.9l-.18-1.91c-10.25.94-21.24-.39-31.35-.82l0,3L491,240.25s-6.19,1.67-13.75,9.94l7.25,47.86,7.62,20.78,67.6-.52c1.19-16.36-1.21-63.14-1.75-79.31C554.33,238.26,544.77,234.9,544.77,234.9Z"/><path class="cls-10" d="M486.54,307.5s53.37,6.69,97.47-8.73l-.92,33.77s-75.65,1.83-95.6.43S486.54,307.5,486.54,307.5Z"/><path class="cls-11" d="M511.23,316.45a133.53,133.53,0,0,0,51.55-4.85"/><path class="cls-11" d="M511.36,323.62s43.07,3.7,69.69-4.55"/><path class="cls-12" d="M589.65,324.94c-.24-3.05-3.12-67-6.59-71.95-3.3-4.75-13.91-12.57-34.94-17.37-1.32-.3-3.31-1-3.31-1a9.29,9.29,0,0,1,.29,4.79c-1.38,3.87-9.84,6.28-16.72,5.87-16.43-1-15.6-7.23-15.61-7.38-.06-.73.39-2.76.35-3.28-.2-.39-1.41-.23-2.34-.11a147.39,147.39,0,0,0-21.38,4.73c-14.2,4.12-33.91,46.7-35,49.06l-.08.22c-1.15,4-17.11,119.51-25.28,136.12-7.57,15.38-12,50.9-12.73,57.21-.07.6-2.71,12.78-2.22,13.13,3.44,2.46,99.13,53.11,177.92-5.37C606.25,479.09,589.89,328,589.65,324.94Z"/><path class="cls-13" d="M489.71,401a102.45,102.45,0,0,0,20.4-5.93,118.4,118.4,0,0,0,19-9.51,110.07,110.07,0,0,0,17-12.74c1.3-1.21,2.7-2.31,3.89-3.64l3.71-3.82c1.29-1.23,2.37-2.64,3.53-4l3.44-4.08h0a.28.28,0,0,1,.4,0,.29.29,0,0,1,0,.4l-3.35,4.19c-1.13,1.38-2.19,2.83-3.45,4.1a100.79,100.79,0,0,1-7.57,7.62,111.91,111.91,0,0,1-17.06,13,107.93,107.93,0,0,1-19.21,9.58,91.37,91.37,0,0,1-20.76,5.43.28.28,0,0,1-.32-.25.3.3,0,0,1,.24-.32Z"/><path class="cls-13" d="M478.73,429.9c3.91-1,7.78-2.19,11.59-3.51,1.93-.63,3.81-1.38,5.71-2.06l5.63-2.25a182.26,182.26,0,0,0,21.66-10.82,136.28,136.28,0,0,0,19.76-14l4.55-4L551.9,389l2.14-2.15,2-2.31,3.93-4.62v0a.29.29,0,0,1,.45.37L556.55,385l-1.93,2.37-2.1,2.2c-1.41,1.48-2.81,3-4.25,4.39L543.72,398a135.79,135.79,0,0,1-19.8,14.23,160.26,160.26,0,0,1-21.83,10.87,147.6,147.6,0,0,1-23.25,7.32.28.28,0,0,1-.34-.22.29.29,0,0,1,.21-.34Z"/><path class="cls-14" d="M457.08,322s43.59,14.2,131.16,1.43l-3.64,18.32s-46.93,19.38-127.52-.18Z"/><path class="cls-15" d="M494.26,332a101.8,101.8,0,0,0,20.94,3.63,118,118,0,0,0,21.26-.21,110,110,0,0,0,20.88-4c1.69-.52,3.44-.89,5.09-1.56l5-1.81c1.7-.54,3.29-1.33,4.92-2l4.88-2.16h0a.29.29,0,0,1,.38.15.27.27,0,0,1-.14.37l-4.84,2.3c-1.63.74-3.21,1.59-4.91,2.17a98.06,98.06,0,0,1-10.14,3.53,111.4,111.4,0,0,1-21,4.2,106.88,106.88,0,0,1-21.46.18,90.51,90.51,0,0,1-21-4.23.28.28,0,0,1-.18-.36.28.28,0,0,1,.35-.18Z"/><path class="cls-15" d="M482.11,335.35a102.16,102.16,0,0,0,20.35,6.11,119.07,119.07,0,0,0,21.13,2.34,110.85,110.85,0,0,0,21.21-1.45c1.74-.31,3.52-.48,5.24-.94l5.19-1.2c1.75-.33,3.43-.93,5.13-1.43l5.11-1.55h0a.27.27,0,0,1,.35.19.28.28,0,0,1-.18.36l-5.09,1.69c-1.7.55-3.37,1.2-5.12,1.58A101.54,101.54,0,0,1,545,343.32a112,112,0,0,1-21.4,1.65,107,107,0,0,1-21.33-2.39,90.8,90.8,0,0,1-20.37-6.72.28.28,0,0,1-.14-.38.29.29,0,0,1,.37-.14Z"/><path class="cls-16" d="M544.59,233l-1.28-13.68L513.39,219l-.15,13.2C523.35,232.6,534.34,233.93,544.59,233Z"/><path class="cls-9" d="M572.58,150s5.08,17.35,3.11,41.93c-1.54,19.18-18.36,36.73-41.9,36.37-22.12-.34-44.28-11-48.67-42.45s7.31-55.23,35.87-59.84S568.39,130.43,572.58,150Z"/><path class="cls-17" d="M543.18,198a.33.33,0,0,1-.29-.22.35.35,0,0,1,.2-.44,9.2,9.2,0,0,0,4.25-3.38c1.1-1.83,1-4.72-.14-6.06a2.39,2.39,0,0,0-3-.42l-.19.08c-4.37,2.09-6.16.85-6.9-.56-1.36-2.58,1.54-21.93,1.88-24.12a.35.35,0,0,1,.39-.29.34.34,0,0,1,.28.39c-.9,5.91-3,21.69-2,23.71.87,1.66,2.89,1.75,6,.26l.21-.1a3.08,3.08,0,0,1,3.76.6c1.36,1.56,1.46,4.77.2,6.86a9.63,9.63,0,0,1-4.59,3.67A.26.26,0,0,1,543.18,198Z"/><path class="cls-16" d="M524.54,204c-.9,3.17-6.45,4.38-12.39,2.7s-10-5.62-9.13-8.79,6.44-4.38,12.38-2.7S525.44,200.83,524.54,204Z"/><path class="cls-16" d="M572.51,202.57c.44,3.27-4.16,6.59-10.28,7.42s-11.44-1.14-11.88-4.41,4.15-6.59,10.27-7.42S572.07,199.3,572.51,202.57Z"/><path class="cls-9" d="M494.11,199.34l-3.7-18.42s-16-7.33-18.24,9.54S487.68,209.61,494.11,199.34Z"/><path class="cls-17" d="M488.25,199.86l-.14,0a.34.34,0,0,1-.13-.47c0-.08,4.31-7.93-1.06-12.17a7.59,7.59,0,0,0-5.75-1.86,9.37,9.37,0,0,0-5.55,3.44.34.34,0,0,1-.55-.41,10,10,0,0,1,6-3.7,8.17,8.17,0,0,1,6.26,2c5.83,4.61,1.28,13,1.23,13A.34.34,0,0,1,488.25,199.86Z"/><path class="cls-17" d="M480.42,192.55a.35.35,0,0,1-.26-.16.34.34,0,0,1,.1-.47c.06,0,6.09-3.74,10,.83a.34.34,0,0,1,0,.48.34.34,0,0,1-.48,0c-3.51-4.12-9-.73-9.09-.69A.41.41,0,0,1,480.42,192.55Z"/><path class="cls-6" d="M512.18,172.78s-3.14-3.27,4.3-6.45,9.89-2.16,10.89-.19c.92,1.8-.92,4.23-5.13,5.93C517.18,174.12,513.87,174.65,512.18,172.78Z"/><path class="cls-6" d="M567.69,177.46s3.48-2.56-3.37-7.4-9.36-4.36-10.59-2.63c-1.13,1.58.36,4.42,4.25,7.06C562.65,177.67,565.8,178.94,567.69,177.46Z"/><path class="cls-6" d="M480.63,182.46s43.83-9.35,56.21-43.56c0,0,33.6,48.71,48.82,36.27,0,0,8.92-35.63-18.46-50.89-15-8.36-27.65-6.49-27.65-6.49-20.88-5.52-33.48-9.62-58.18,7.46C455.94,142.84,455.9,190.37,480.63,182.46Z"/><path class="cls-6" d="M465.88,182.39a70.42,70.42,0,0,1-9.47-1.39l.15-.71a73.74,73.74,0,0,0,85.57-49l.69.23a74.4,74.4,0,0,1-76.94,50.89Z"/><path class="cls-6" d="M581.61,180c-26.29-9.36-46.74-33.09-52.09-60.48l.72-.14c5.3,27.14,25.56,50.66,51.61,59.93Z"/><path class="cls-18" d="M564.44,277.18c-4.7-1.33-22.46,50.95-7.37,56.9S577.57,280.5,564.44,277.18Z"/><path class="cls-18" d="M509.88,277c4.71-1.31,22.2,51.07,7.08,56.94S496.74,280.29,509.88,277Z"/><path class="cls-9" d="M533,274.33c-19,2.54-49.1,9.71-59.27,12.2,1.92,11.11,5.29,22,7.77,33,25.92-7.16,51.75-24.78,51.75-24.78Z"/><path class="cls-9" d="M524.36,276.9s7.93-29.45,10.82-33.2.74,22.91.74,22.91,1.87,19.15,1.54,23.47-6.26,5.8-6.26,5.8Z"/><path class="cls-9" d="M538.31,274.34,538,294.77s27,18.6,53.44,25.54c1.36-11.42,2.65-22.95,3.24-34.18C582.5,283.13,555.78,276.76,538.31,274.34Z"/><path class="cls-9" d="M547,277s-7.78-29.49-10.65-33.26-.86,22.91-.86,22.91-2,19.14-1.67,23.46S540,295.9,540,295.9Z"/><path class="cls-19" d="M535.7,246.11s-.06,26.28-.07,29.16,0,13.78,0,13.78"/><path class="cls-13" d="M460.91,293.44c7.75-10.35,46-16,49-16.62,0,0-11,50.43,6.86,57.27,0,0-23.44,5.41-60.22,2.69C456.52,336.78,454.38,302.15,460.91,293.44Z"/><path class="cls-13" d="M564.44,277s10.71,50.49-7.15,57.23c0,0,17.33,4.09,45.58,3.63-7.29-17.6-9.34-37.15-14.2-55.65C577.22,279.07,566,277.31,564.44,277Z"/><path class="cls-20" d="M504.27,278.67a97.2,97.2,0,0,0-2.91,14,88.54,88.54,0,0,0-.82,14.27,62.68,62.68,0,0,0,.56,7.11,67,67,0,0,0,1.31,7,57.83,57.83,0,0,0,5.11,13.31h0a.46.46,0,0,1-.8.46,50.1,50.1,0,0,1-5.91-13.36,53,53,0,0,1-1.54-7.18,66.21,66.21,0,0,1-.66-7.3,72.8,72.8,0,0,1,.94-14.6,67.09,67.09,0,0,1,3.86-14.08.46.46,0,0,1,.59-.25.46.46,0,0,1,.27.55Z"/><path class="cls-20" d="M498.35,279.59a95.87,95.87,0,0,0-2.91,14,87.42,87.42,0,0,0-.83,14.27,65.08,65.08,0,0,0,.57,7.11,62.2,62.2,0,0,0,1.31,7,57.38,57.38,0,0,0,5.11,13.31h0a.46.46,0,0,1-.79.46,50.1,50.1,0,0,1-5.91-13.36,51.54,51.54,0,0,1-1.54-7.18,63.86,63.86,0,0,1-.66-7.3,73.54,73.54,0,0,1,.93-14.6,67.71,67.71,0,0,1,3.86-14.08.47.47,0,0,1,.6-.25.46.46,0,0,1,.26.55Z"/><path class="cls-18" d="M516.76,334.18a81.33,81.33,0,0,1-14.82,3.53c-1.25.21-2.51.37-3.77.52s-2.52.29-3.78.41c-2.53.24-5.06.35-7.6.5a151.12,151.12,0,0,1-15.2-.26c-2.53-.13-5-.46-7.57-.74s-5-.74-7.5-1.26v-.2c2.52.14,5,.31,7.54.42s5,.22,7.55.23c5,.11,10.07,0,15.1-.16s10-.51,15.06-1A147.27,147.27,0,0,0,516.72,334Z"/><path class="cls-18" d="M557.31,334.1c1.94,0,3.83.21,5.75.24l5.7.33,5.68.35,5.67.4,5.67.44c1.89.19,3.78.28,5.68.49,3.79.33,7.58.76,11.41,1.37v.2c-3.81.05-7.64.08-11.45,0s-7.64-.26-11.45-.51-7.62-.68-11.41-1.18-7.56-1.09-11.3-1.92Z"/><path class="cls-20" d="M570.48,277.89a67.71,67.71,0,0,1,3.79,14.1,73.55,73.55,0,0,1,.86,14.6,65.82,65.82,0,0,1-.7,7.3,51.51,51.51,0,0,1-1.58,7.17,49.82,49.82,0,0,1-6,13.33.45.45,0,0,1-.63.14.46.46,0,0,1-.16-.6h0a57.69,57.69,0,0,0,5.17-13.29,64,64,0,0,0,1.35-7,62.54,62.54,0,0,0,.6-7.11,87.23,87.23,0,0,0-.75-14.26,96.08,96.08,0,0,0-2.84-14.05v0a.46.46,0,0,1,.86-.3Z"/><path class="cls-20" d="M576.4,278.84a67.71,67.71,0,0,1,3.79,14.1,73.55,73.55,0,0,1,.86,14.6,66.23,66.23,0,0,1-.7,7.31,51.7,51.7,0,0,1-1.58,7.16,49.51,49.51,0,0,1-6,13.33.45.45,0,0,1-.63.14.46.46,0,0,1-.16-.6h0a57.69,57.69,0,0,0,5.17-13.29,64,64,0,0,0,1.35-7,62.54,62.54,0,0,0,.6-7.11,87.23,87.23,0,0,0-.75-14.26,97.38,97.38,0,0,0-2.83-14v0a.46.46,0,0,1,.86-.3Z"/><path class="cls-20" d="M484.2,161.55s26.21-18.14,55.53-18.56c36.79-.52,51.65,38.17,51.65,38.17L579.05,130l-53.59-12.61S483,136.61,484.2,161.55Z"/><path class="cls-21" d="M597.79,294.65c-.51-17.53-4-84-.11-101a16.69,16.69,0,0,0,.44-3.34,112.76,112.76,0,0,0-2.86-38.2c-5.77-22.82-25.83-42.28-66.48-46.12-56.78-5.36-76.42,38.79-81.17,62s-16.76,82.15-30.21,128.47S396.88,417,399.28,436.1s1.58,31.06,2.61,38.45c.88,6.36,1.82,26.08,14.28,27.26,2,.2,20.87,4,22.43,3.66,11.21-2.65,5.52-52.28,9.52-79.39s19.34-80,25.28-121.34-1.29-49.53,13-113.48,51.7-57,51.7-57c51.93,6.86,40.83,55.18,40.83,55.18s-10.53,33.34-10.19,59.67,4.88,61.54,1.8,78-1.7,178.39-1.7,178.39,5.88-1.17,13.65-3.27c9.61-2.6,22.11-6.62,30-11.61C626.64,481.59,598.3,312.17,597.79,294.65Z"/><path class="cls-22" d="M517.1,184.72s.95,5.88,5.78,5.76,5.28-6,5.28-6"/><line class="cls-22" x1="517.27" y1="185.46" x2="514.34" y2="187.02"/><line class="cls-22" x1="517.45" y1="186.94" x2="515.49" y2="188.1"/><path class="cls-22" d="M563.85,189.38s-2.14,5.56-6.84,4.46-3.93-7-3.93-7"/><line class="cls-22" x1="563.53" y1="190.07" x2="566.08" y2="192.19"/><line class="cls-22" x1="563.05" y1="191.48" x2="564.73" y2="193.02"/><path class="cls-23" d="M532.25,201.05s2.33,6.66,10,4.33"/><path class="cls-15" d="M500.17,307.33A102.25,102.25,0,0,0,521.1,311a118.87,118.87,0,0,0,21.26-.2,110.74,110.74,0,0,0,20.88-4c1.7-.52,3.44-.9,5.09-1.57l5-1.8c1.7-.54,3.29-1.34,4.93-2l4.88-2.16h0a.29.29,0,0,1,.37.15.29.29,0,0,1-.13.38L578.56,302c-1.63.75-3.21,1.59-4.91,2.18a101.1,101.1,0,0,1-10.13,3.52,112.47,112.47,0,0,1-21,4.21,107.62,107.62,0,0,1-21.46.17,91,91,0,0,1-21-4.22.29.29,0,0,1,.18-.55Z"/><path class="cls-15" d="M488,310.67a102.16,102.16,0,0,0,20.35,6.11,118.25,118.25,0,0,0,21.13,2.34,110,110,0,0,0,21.21-1.45c1.75-.31,3.52-.47,5.24-.94l5.19-1.19c1.75-.34,3.43-.93,5.13-1.43l5.11-1.56h0a.29.29,0,0,1,.17.55l-5.08,1.7c-1.71.54-3.38,1.19-5.13,1.57a99,99,0,0,1-10.49,2.28,111.89,111.89,0,0,1-21.39,1.66,107.84,107.84,0,0,1-21.34-2.4,90.46,90.46,0,0,1-20.37-6.72.28.28,0,0,1-.14-.38.29.29,0,0,1,.37-.14Z"/><path class="cls-24" d="M619.3,149.06s-5.46,114.73-3.51,117,65.12,14.55,100.22-.64-6.63-120.23-6.63-120.23Z"/><path class="cls-25" d="M632.86,187.11c1.3,12.44-.82,25-1.08,37.47s1.68,25.82,9.74,35.38"/><path class="cls-26" d="M704.78,213.15l-2-8.32-28.11,7.39,3.12,9.65.34,4a77,77,0,0,0,27.63-6.41Z"/><path class="cls-9" d="M726,232.52c-4.62-2.16-12.06-3.94-18.91-5.25l-1.24-7.79a77,77,0,0,1-27.63,6.41v2.42c-17.25,4.55-32.12,11.14-30.95,12.31,2,2,16.2,18.15,40.51,17.5S736.32,237.38,726,232.52Z"/><path class="cls-18" d="M752.17,308.67l13.1.15c-2-41.86-37.56-77.07-37.56-77.07l-2,.66c-1.88-.78-13.9-5.66-18.65-5.14,0,0-5.15,20.13-33.92,18.54-.49,0-11.92-1.93-16.09-10.41,0,0-16.43,7.3-26.86,16.17-33,34.3-36.26,56.07-36.26,56.07l27.78.19c-8.05,55.63-19.36,140-22.3,193.85,0,0,112.34,29.74,183.55-10.95C782.94,490.73,770,405.05,752.17,308.67Z"/><path class="cls-27" d="M655.52,434.46a101.6,101.6,0,0,0,20.4-5.93,119.19,119.19,0,0,0,19-9.5,111.36,111.36,0,0,0,17-12.74c1.3-1.22,2.7-2.32,3.89-3.64l3.71-3.83c1.29-1.22,2.37-2.64,3.53-4l3.44-4.08,0,0a.28.28,0,0,1,.44.36l-3.35,4.19c-1.13,1.39-2.19,2.84-3.45,4.11a98.7,98.7,0,0,1-7.56,7.61,111.2,111.2,0,0,1-17.07,13,106.93,106.93,0,0,1-19.21,9.58A90.71,90.71,0,0,1,655.58,435a.29.29,0,0,1-.32-.25.3.3,0,0,1,.24-.32Z"/><path class="cls-27" d="M644.54,463.41c3.91-1,7.78-2.19,11.6-3.51,1.92-.62,3.8-1.37,5.7-2l5.63-2.25a181.51,181.51,0,0,0,21.66-10.82,135,135,0,0,0,19.76-14l4.55-4,4.27-4.3,2.15-2.14,2-2.31,3.92-4.62,0,0a.28.28,0,0,1,.44.36l-3.84,4.74-1.92,2.37-2.11,2.21c-1.4,1.47-2.8,2.95-4.24,4.39l-4.56,4.06a137.31,137.31,0,0,1-19.8,14.23,159.63,159.63,0,0,1-21.83,10.86A146.81,146.81,0,0,1,644.66,464a.29.29,0,0,1-.34-.22.28.28,0,0,1,.21-.34Z"/><path class="cls-28" d="M657,235.4s.35,116.34-1.61,133.16S627.26,379.9,614,376s7-77.46,7-77.46,12.12-27.77,13.3-50.07C634.3,248.46,638.69,241.9,657,235.4Z"/><path class="cls-28" d="M707,227.27s-1.54,19.62-3.5,32.14-15.91,125.71,12.13,126.36c24.67.58,42.64.78,49.68-5.87s-10.17-85.28-10.17-85.28-12.52-6.26-19.95-30.51S729,228.9,729,228.9,714.85,226,707,227.27Z"/><path class="cls-29" d="M711.22,120.62a14.21,14.21,0,0,1,14,19.54,5.35,5.35,0,0,0-.58,2,4.59,4.59,0,0,0,1.52,2.77c2.3,2.54,4.57,5.35,5.21,8.72s-.93,7.41-4.21,8.4"/><path class="cls-9" d="M632.36,148.66s-3,17.2,1.61,40.56c3.57,18.22,21.63,33.21,44.16,30.29,21.18-2.75,41.26-15.43,42-46s-13-52.16-40.95-53.46S634.22,129.4,632.36,148.66Z"/><path class="cls-30" d="M633.35,185.82s2.51,43.58,31.9,48.24c32.34,5.12,44.74-24.47,46.57-32.9,2.54-11.68,6.4-27.49,5.49-33.17s-8.23-6.61-9.26.2-10,22.4-16.33,24.06-10-6.54-23-2.78-14.48,8.76-17.83,8.3S639.58,196.41,633.35,185.82Z"/><path class="cls-31" d="M667.22,197s5.59.24,6.32-4.62"/><path class="cls-30" d="M656.36,135.26c.08-.18.14-.29.14-.29Z"/><path class="cls-9" d="M713,187.35l1.54-18.07s14.56-8.78,18.53,7.16S720.3,196.5,713,187.35Z"/><path class="cls-30" d="M696.13,161.82s1.79-5.22-7.28-7.12-11.14.17-11.31,3.05c-.16,2.62,2.81,5.24,7.91,6.19C691.56,165.07,695.2,164.77,696.13,161.82Z"/><path class="cls-30" d="M635.7,173.17s-3.62-4.16,4.07-9.33,10.38-4,11.62-1.43c1.14,2.37-.63,5.91-5,8.71C641.16,174.47,637.67,175.56,635.7,173.17Z"/><path class="cls-32" d="M718.69,187.21l.12-.06a.32.32,0,0,0,.08-.46c0-.07-5-7.13-.32-11.78a7.27,7.27,0,0,1,5.31-2.41,9.06,9.06,0,0,1,5.7,2.68.33.33,0,0,0,.46,0,.32.32,0,0,0,0-.47,9.55,9.55,0,0,0-6.16-2.89,7.91,7.91,0,0,0-5.79,2.6c-5.09,5.05.19,12.56.25,12.64A.32.32,0,0,0,718.69,187.21Z"/><path class="cls-32" d="M725.39,179.34a.34.34,0,0,0,.24-.18.33.33,0,0,0-.16-.44c-.06,0-6.25-2.92-9.47,1.89a.34.34,0,0,0,.09.46.32.32,0,0,0,.45-.09c2.92-4.34,8.59-1.69,8.65-1.66A.28.28,0,0,0,725.39,179.34Z"/><path class="cls-32" d="M665.09,187.82a.32.32,0,0,0,.25-.25.31.31,0,0,0-.24-.39,9,9,0,0,1-4.44-2.78c-1.25-1.64-1.51-4.42-.53-5.83a2.31,2.31,0,0,1,2.8-.73l.19.06c4.42,1.53,6,.14,6.56-1.29,1-2.63-3.88-20.86-4.45-22.93a.32.32,0,0,0-.4-.23.33.33,0,0,0-.23.4c1.51,5.57,5.26,20.47,4.47,22.52-.65,1.69-2.58,2-5.74.91l-.21-.07a3,3,0,0,0-3.54,1c-1.13,1.65-.87,4.73.56,6.6a9.44,9.44,0,0,0,4.81,3A.33.33,0,0,0,665.09,187.82Z"/><path class="cls-22" d="M643.86,181.1s2.34,5.48,7,4.2,3.68-7.13,3.68-7.13"/><path class="cls-22" d="M688.4,174.8s-.74,5.91-5.56,6-5.5-5.84-5.5-5.84"/><path class="cls-33" d="M705.16,127.35A100.08,100.08,0,0,1,689.21,140a61.77,61.77,0,0,1-9,4.68,33.84,33.84,0,0,1-9.69,2.59,20.32,20.32,0,0,1-5-.16,13.23,13.23,0,0,1-4.67-1.57,9.35,9.35,0,0,1-3.44-3.4,12,12,0,0,1-1.5-4.66,22.15,22.15,0,0,1,1.33-9.86,18.12,18.12,0,0,1,1-2.29,5.57,5.57,0,0,1,1.38-1.83c.14-.08.19-.06.14-.07s.07.06.1.22a3.37,3.37,0,0,1,0,1.1,14.1,14.1,0,0,1-.56,2.42,47,47,0,0,1-4.2,9.23,43.87,43.87,0,0,1-6,8.16,21.74,21.74,0,0,1-3.84,3.21,10,10,0,0,1-4.57,1.65,5.18,5.18,0,0,1-4.22-1.76,11.49,11.49,0,0,1-2.33-4.31,21.08,21.08,0,0,1-.89-4.94,15.36,15.36,0,0,1,.37-4.94,4,4,0,0,1,.45-1,1.08,1.08,0,0,1,.32-.32c.14-.06.06,0,.11,0a2.13,2.13,0,0,1,.39.89,9.26,9.26,0,0,1,.19,1.21,29.26,29.26,0,0,1,0,5,44.73,44.73,0,0,1-1.9,10,20.63,20.63,0,0,1-2.05,4.56,6,6,0,0,1-3.56,2.93h0a.49.49,0,1,0,.19,1h0a6.91,6.91,0,0,0,4.18-3.38,21.34,21.34,0,0,0,2.14-4.79A45.28,45.28,0,0,0,636,139.26a31.25,31.25,0,0,0,0-5.21,12.11,12.11,0,0,0-.22-1.32,2.53,2.53,0,0,0-.73-1.38.85.85,0,0,0-.57-.19,1.1,1.1,0,0,0-.51.16,1.84,1.84,0,0,0-.59.59,4.43,4.43,0,0,0-.57,1.29,16.4,16.4,0,0,0-.42,5.25,22.66,22.66,0,0,0,.93,5.15,12.29,12.29,0,0,0,2.52,4.65,6.14,6.14,0,0,0,4.93,2.06,11,11,0,0,0,5-1.79,22,22,0,0,0,4-3.35,43.82,43.82,0,0,0,6.16-8.32,47.44,47.44,0,0,0,4.3-9.42,14.67,14.67,0,0,0,.6-2.58,4.17,4.17,0,0,0,0-1.45,1.24,1.24,0,0,0-.58-.83,1.08,1.08,0,0,0-1.07.1,6.16,6.16,0,0,0-1.73,2.19,18.31,18.31,0,0,0-1.07,2.4,22.9,22.9,0,0,0-1.4,10.31,13,13,0,0,0,1.62,5.05,10.45,10.45,0,0,0,3.78,3.75,14.84,14.84,0,0,0,5,1.71,23.58,23.58,0,0,0,5.24.29A32.5,32.5,0,0,0,680.78,146a54,54,0,0,0,9.21-4.8A86.65,86.65,0,0,0,705.88,128a.5.5,0,0,0,0-.7.5.5,0,0,0-.68,0Z"/><path class="cls-34" d="M696.76,145.42s8.81,15.27,11.4,38.22-.65,42,5.81,64.64,15.52,27.47,22.63,26.18,14.22-3.56,26.82-8.08,17.78-14.87,17.45-19.07-26.17-79.83-31.67-97-17.13-40.72-42.66-47.51-39.92-9.78-61.89,3.8-31.84,31.43-26,42.42c0,0-.24,16.8,4.93,16.48s6.14-8.65,11.63-8,7.68,3.47,15.11.56,9.7-10,19.07-6.14,9.92-1.36,18.7.13S697.09,150.59,696.76,145.42Z"/><path class="cls-27" d="M648.52,277.58c5-1.4,23.74,53.86,7.79,60.14S634.65,281.09,648.52,277.58Z"/><path class="cls-9" d="M679.44,242.21c-3.05-4-.78,24.2-.78,24.2s-2,20.25-1.63,24.81,6.62,6.13,6.62,6.13l7.23-20.06"/><path class="cls-9" d="M676.14,274.59l.38,21.59S648,315.83,620,323.17c-1.44-12.07-2.8-24.26-3.42-36.13C629.43,283.88,657.67,277.14,676.14,274.59Z"/><path class="cls-9" d="M667,277.36s8.21-31.18,11.25-35.15.91,24.2.91,24.2,2.09,20.23,1.76,24.8-6.59,6.17-6.59,6.17Z"/><path class="cls-35" d="M678.89,244.75s.07,27.77.08,30.82,0,14.56,0,14.56"/><path class="cls-18" d="M648.52,277.35s-11.32,53.37,7.56,60.49c0,0-7.69,1.22-29.69,1.19a34.19,34.19,0,0,1-24.24-9.92c-14-14.1-11-32.49,13.28-44.94C627.53,280.9,646.88,277.72,648.52,277.35Z"/><path class="cls-20" d="M643,278.68a101.31,101.31,0,0,0-3,14.84,95.11,95.11,0,0,0-.8,15.08,65.21,65.21,0,0,0,.64,7.51,66.16,66.16,0,0,0,1.42,7.4,61.14,61.14,0,0,0,5.47,14h0a.49.49,0,0,1-.19.66.5.5,0,0,1-.64-.17A52.72,52.72,0,0,1,639.63,324a54.36,54.36,0,0,1-1.66-7.57,66.77,66.77,0,0,1-.74-7.72,75.16,75.16,0,0,1,.9-15.43,72.11,72.11,0,0,1,4-14.9.49.49,0,0,1,.63-.27.5.5,0,0,1,.29.58Z"/><path class="cls-20" d="M636.78,279.68a101.31,101.31,0,0,0-3,14.84,95.18,95.18,0,0,0-.8,15.08,67.11,67.11,0,0,0,.64,7.51,68.51,68.51,0,0,0,1.42,7.4,61,61,0,0,0,5.47,14.05h0a.48.48,0,0,1-.84.48A52.46,52.46,0,0,1,633.38,325a53.12,53.12,0,0,1-1.67-7.58,68.65,68.65,0,0,1-.74-7.71,75.13,75.13,0,0,1,.91-15.43,70.55,70.55,0,0,1,4-14.9.48.48,0,0,1,.63-.27.48.48,0,0,1,.28.58Z"/><path class="cls-27" d="M711,277.58c-5-1.4-23.74,53.86-7.79,60.14S724.86,281.09,711,277.58Z"/><path class="cls-9" d="M683.37,274.59,683,296.18s28.49,19.65,56.48,27c1.44-12.07,2.8-24.26,3.42-36.13C730.08,283.88,701.83,277.14,683.37,274.59Z"/><path class="cls-18" d="M710.6,276.77s11.31,53.36-7.56,60.48c0,0,4.71.82,26.71.79,3.52-1.17,20.83-3.09,27.21-9.52,14-14.09,16-34.95-8.23-47.4C736.63,277.85,712.23,277.13,710.6,276.77Z"/><path class="cls-20" d="M717.37,278.34a71.51,71.51,0,0,1,4,14.9,75.87,75.87,0,0,1,.9,15.43,69,69,0,0,1-.74,7.72,54.36,54.36,0,0,1-1.66,7.57,52.72,52.72,0,0,1-6.32,14.09.5.5,0,0,1-.67.15.51.51,0,0,1-.17-.64h0a61.14,61.14,0,0,0,5.47-14,68.51,68.51,0,0,0,1.42-7.4,67.52,67.52,0,0,0,.64-7.51,95.11,95.11,0,0,0-.8-15.08,101.31,101.31,0,0,0-3-14.84v0a.48.48,0,0,1,.91-.31Z"/><path class="cls-20" d="M723.63,279.35a71.16,71.16,0,0,1,4,14.9,75.13,75.13,0,0,1,.91,15.43,68.65,68.65,0,0,1-.74,7.71,54.52,54.52,0,0,1-1.67,7.58,52.48,52.48,0,0,1-6.32,14.08.47.47,0,0,1-.66.15.47.47,0,0,1-.17-.63h0a60.61,60.61,0,0,0,5.48-14.05,68.51,68.51,0,0,0,1.42-7.4,67.1,67.1,0,0,0,.63-7.51,95.17,95.17,0,0,0-.79-15.08,101.34,101.34,0,0,0-3-14.84v0a.47.47,0,0,1,.33-.6A.48.48,0,0,1,723.63,279.35Z"/><path class="cls-36" d="M619,156.86a1.53,1.53,0,0,1-.84-2.81c.42-.28,10.56-6.89,31.34-13,19.1-5.59,51.17-11.73,95.5-9.24a1.53,1.53,0,0,1-.17,3.06c-43.8-2.46-75.46,3.57-94.3,9.07-20.4,5.95-30.58,12.57-30.68,12.64A1.56,1.56,0,0,1,619,156.86Z"/><g class="cls-37"><path class="cls-36" d="M618.73,159.29a1.54,1.54,0,0,1-.84-2.82c.42-.28,10.55-6.88,31.34-13,19.09-5.59,51.17-11.73,95.5-9.23a1.53,1.53,0,0,1-.17,3.06c-43.8-2.47-75.46,3.57-94.3,9.06-20.4,6-30.58,12.58-30.69,12.64A1.54,1.54,0,0,1,618.73,159.29Z"/></g><path class="cls-26" d="M616.71,152.49a1.53,1.53,0,0,1-.69-2.9c.48-.24,49.64-24.44,129.48-14.29a1.54,1.54,0,0,1-.39,3c-78.84-10-127.23,13.74-127.71,14A1.55,1.55,0,0,1,616.71,152.49Z"/><path class="cls-38" d="M734.81,144.6A113.27,113.27,0,0,1,743,169.05c1.93,8.39,3.42,16.85,5.21,25.24a131.05,131.05,0,0,0,7.51,24.54c3.42,7.82,8,15.24,14.28,21.11l-.24.26a61.92,61.92,0,0,1-14.6-21.13,131.63,131.63,0,0,1-7.66-24.63c-1.87-8.39-3.26-16.87-5.14-25.24a122.76,122.76,0,0,0-7.82-24.44Z"/><path class="cls-25" d="M724.23,146.74q9.46,34.72,18.94,69.44c3.47,12.71,7.7,26.52,18.66,33.85"/><path class="cls-25" d="M710.55,154.35a199.07,199.07,0,0,1,13.84,56.07c.87,9,1.13,18,3,26.84s5.62,17.52,12.28,23.59"/><path class="cls-25" d="M687.65,103.6a70.21,70.21,0,0,1,24.67,19.05"/><path class="cls-25" d="M674,107.36a47.75,47.75,0,0,1,18.55,22.25"/><path class="cls-25" d="M635.05,136.1a46.82,46.82,0,0,1,12.81-23.5"/><path class="cls-25" d="M644.1,132.84q2.85-7.29,5.71-14.59"/><path class="cls-25" d="M680.12,142.59l2.58,5.5"/><path class="cls-25" d="M648.44,151v5.18"/><path class="cls-39" d="M703.47,337.56c2.28.27,4.59.39,6.89.48,1.15.07,2.3.06,3.45.09l3.46,0A112.72,112.72,0,0,0,731,337a87,87,0,0,0,13.45-3l3.28-1.06,3.21-1.27,1.6-.63,1.56-.75,3.1-1.5h0a.29.29,0,0,1,.26.51,67.78,67.78,0,0,1-12.72,5.69,78.09,78.09,0,0,1-13.58,3.18,95.37,95.37,0,0,1-13.92,1,84.06,84.06,0,0,1-13.89-1.14.28.28,0,0,1-.23-.33.27.27,0,0,1,.31-.23Z"/><path class="cls-39" d="M656.18,338.11a46.19,46.19,0,0,1-11.28,2.54,67.75,67.75,0,0,1-11.57.22c-1-.07-1.92-.18-2.88-.27l-1.44-.14-1.43-.22c-1-.15-1.91-.28-2.86-.45l-2.82-.61c-.95-.2-1.89-.41-2.81-.69l-2.78-.78c-1.84-.56-3.64-1.25-5.45-1.87a.29.29,0,0,1-.18-.37.29.29,0,0,1,.35-.18h0c1.84.53,3.65,1.12,5.49,1.59s3.69,1,5.57,1.28l2.8.53,2.83.4,1.41.2,1.42.13c.94.07,1.89.18,2.84.24a81.57,81.57,0,0,0,11.38-.16A58,58,0,0,0,656,337.57h0a.28.28,0,0,1,.18.54Z"/><path class="cls-39" d="M711,277.07a84.9,84.9,0,0,1,9.57-.15c3.19.14,6.38.34,9.55.69s6.34.72,9.48,1.25,6.28,1.11,9.39,1.79a.27.27,0,0,1,.22.34.29.29,0,0,1-.32.22c-3.15-.45-6.29-.92-9.44-1.32s-6.29-.77-9.45-1.08-6.32-.57-9.48-.75-6.34-.36-9.5-.42h0a.29.29,0,0,1-.28-.29A.28.28,0,0,1,711,277.07Z"/><path class="cls-39" d="M648.54,277.64l-8.44,1.1-8.44,1L614.79,282a.29.29,0,0,1-.33-.24.29.29,0,0,1,.23-.32c5.56-1.18,11.18-2.1,16.82-2.85,2.81-.4,5.64-.69,8.47-1s5.67-.47,8.52-.54a.28.28,0,0,1,.29.28A.28.28,0,0,1,648.54,277.64Z"/><path class="cls-40" d="M669.59,410.59c-1.69,15.81-3.77,92.69-4.07,108.61a19.66,19.66,0,0,1-17.5,1.18c.49-6.5.66-12.36.83-18.22A713.18,713.18,0,0,1,562.94,501a127.17,127.17,0,0,1-.22,16.42,12.1,12.1,0,0,1-14.32-.19c-.22-16.88-.63-34.34-1.85-50.52,28.24-.84,56.5-.92,84.74-.55,12.87.17,16.27-54.53,27.38-49.61"/><g class="cls-41"><g class="cls-42"><path class="cls-43" d="M540.13,483.44l23.74,2.67c24.59,2.76,49.2,5.53,73.92,6.17a431.87,431.87,0,0,0,55.47-2.15"/><path class="cls-43" d="M533.27,495.6a795.85,795.85,0,0,0,95.28,4.25c8.16-.13,16.38-.38,24.45.94s16.09,4.31,22.37,10"/><path class="cls-43" d="M635.83,509.89a56,56,0,0,1,20.88-.16c1.29.23,2.81.74,3.16,2.12.44,1.77-1.38,3.18-3,3.83a31.75,31.75,0,0,1-17,2.07"/><path class="cls-43" d="M539.24,507.67c16.46,6.41,35.41-2.5,52,3.51"/><path class="cls-43" d="M539.55,514.16q24.12-.28,48.19,1.33"/></g></g><path class="cls-28" d="M669.47,415.11,609.92,492.7c-3.11-.12-6.24-.18-9.35-.22-28.24-.37-56.5-.29-84.74.55,1.22,16.18,1.63,33.64,1.86,50.52a12.09,12.09,0,0,0,14.31.19,127.17,127.17,0,0,0,.22-16.42,713.21,713.21,0,0,0,85.91,1.19c-.17,5.86-.34,11.72-.83,18.22a19.69,19.69,0,0,0,17.5-1.18q.23-12.07,1-24.14c6-5.78,20.67-20.15,29.36-30.54Z"/><g class="cls-44"><path class="cls-43" d="M509.41,509.79l23.74,2.67c24.59,2.76,49.2,5.53,73.92,6.17a431.87,431.87,0,0,0,55.47-2.15"/><path class="cls-43" d="M510.86,497.94l23.74,2.66c24.59,2.77,49.2,5.54,73.92,6.17A432.09,432.09,0,0,0,664,504.63"/><path class="cls-43" d="M502.55,522a795.85,795.85,0,0,0,95.28,4.25c8.16-.13,16.38-.38,24.45.94s16.09,4.31,22.37,10"/><path class="cls-43" d="M605.11,536.24a56.17,56.17,0,0,1,20.88-.17c1.29.24,2.81.74,3.16,2.13.44,1.77-1.38,3.18-2.95,3.83a32,32,0,0,1-17,2.07"/><path class="cls-43" d="M508.52,534c16.46,6.42,35.41-2.49,52,3.52"/><path class="cls-43" d="M508.83,540.51q24.12-.28,48.19,1.33"/><path class="cls-43" d="M552.64,477.7a363.51,363.51,0,0,0,170.3,16.52"/><path class="cls-43" d="M683.48,478.13a69.9,69.9,0,0,1-53.58-1.43c-2.23-1-4.81-3.08-3.92-5.37.61-1.55,2.51-2.09,4.15-2.42l45-9.07"/><path class="cls-43" d="M682.43,444.37a59.19,59.19,0,0,1-58.95,4.79"/></g><path class="cls-45" d="M657.89,403.92a20.66,20.66,0,0,1,12.57,3.59,6.73,6.73,0,0,1,2.9,4,6,6,0,0,1-2.16,5.42c-1.79,1.59-4.72,2.31-6.1,1.27,3.38,5.27,4.26,12,2.49,19.09a15.52,15.52,0,0,1-3.8,7.34c-2.16,2.21-5.69,3.84-8.22,3.22a32.92,32.92,0,0,1,1.87,17,17.22,17.22,0,0,1-2.08,6.57,12.92,12.92,0,0,1-6,5.33c-2.58,1.08-5.58.9-6.7-.72.4,3.72,1.34,6.74,1.24,10.06a15.22,15.22,0,0,1-4.21,10.05c-2.88,3-7.58,5.22-11.27,4.67a9.7,9.7,0,0,1-.8,8.61,12.57,12.57,0,0,1-9,5.79c-3.51.28-6.24-2.23-5.1-5.21-4.44,4.33-10.83,7.52-16,7.17s-8.55-4.17-7.83-8.73c-3.34,3.37-8.62,5.34-12.79,4.8s-7-3.57-6.83-7.32a12.17,12.17,0,0,1-9,3.17c-2.83-.36-4.83-2.32-4.94-4.84-4.31,2.89-10.12,3.2-13,.71s-2.56-7.48.75-11.2c-7.1,5.22-15.17,7.19-21,5.48a11.19,11.19,0,0,1-8.1-12.94,4.68,4.68,0,0,1-5.05-.14,4.33,4.33,0,0,1-1.18-4.42,14,14,0,0,1,2.58-5.1,2.87,2.87,0,0,1-3.93-.13c-.72-1-.54-2.45-.09-3.82a18.18,18.18,0,0,1,6.29-8.43,5.54,5.54,0,0,1-3.73-6.22c.4-2.86,2.4-5.81,4.69-8.42a50.19,50.19,0,0,1,14.41-11.18c-1.65.17-2.81-1.81-2.26-3.8s2.3-3.9,4.15-5.52a41.22,41.22,0,0,1,16.06-8.67,7.57,7.57,0,0,1,1.75-6.19,13.83,13.83,0,0,1,6.06-3.79,33.13,33.13,0,0,1,6.68-1.26c-.55-2.94,1.39-6.29,4.15-8.55a28.06,28.06,0,0,1,9.51-4.68c12.85-4.06,26-4.16,36.14.38.37-1.53-.36-2.76-.58-4.13a4,4,0,0,1,2.14-4.17,3.46,3.46,0,0,1,4.15,1.11,20.33,20.33,0,0,1,3.79,6.36,43.61,43.61,0,0,1,17.49-7.24c1.9-.31,4-.4,5,.61s.57,3.2-.74,4.88-3.21,3-5.87,4.8A58,58,0,0,1,657,395.22a10,10,0,0,1,4.43.87,2.66,2.66,0,0,1,1.28,3.43c-.81,2-3.51,3.45-4.79,4.4"/><path class="cls-46" d="M598.06,502.55a3.47,3.47,0,0,0-.9,2.91,1.46,1.46,0,0,0,.75,1,2.82,2.82,0,0,0,1.38.28A4,4,0,0,0,602,505.5a3.05,3.05,0,0,0,1-2.52.86.86,0,0,1,.64-1,.84.84,0,0,1,1,.45,1,1,0,0,0,.77.44,3,3,0,0,0,1.34-.09,4.33,4.33,0,0,0,2.31-1.68,5.35,5.35,0,0,0,1-2.85,12.55,12.55,0,0,0-.43-3.26.41.41,0,0,1,.31-.49.4.4,0,0,1,.46.26,11.24,11.24,0,0,1,.85,3.49,6.24,6.24,0,0,1-1,3.65,5.64,5.64,0,0,1-3,2.44,4.62,4.62,0,0,1-2.07.19,2.6,2.6,0,0,1-2-1.34l1.6-.58a3.75,3.75,0,0,1-.24,2.34,5.4,5.4,0,0,1-1.22,1.81,5.46,5.46,0,0,1-3.94,1.61,4.13,4.13,0,0,1-2.17-.63,2.93,2.93,0,0,1-1.27-2,3.59,3.59,0,0,1,.37-2.14,4.61,4.61,0,0,1,1.29-1.6.4.4,0,0,1,.57.07.42.42,0,0,1,0,.52Z"/><path class="cls-46" d="M524.59,469.75a8.91,8.91,0,0,0-3.29,3.36,4.6,4.6,0,0,0-.61,2.09,2.51,2.51,0,0,0,.67,1.75A2.86,2.86,0,0,0,525,477a5.76,5.76,0,0,0,1.6-1.47,2.89,2.89,0,0,0,.64-1.78l1.17.7a7,7,0,0,0-3.24,2.87,4.87,4.87,0,0,0-.65,2,2.75,2.75,0,0,0,2.13,2.92,4.86,4.86,0,0,0,2.14-.06,7.45,7.45,0,0,0,3.86-2.39h0a.4.4,0,0,1,.57,0,.39.39,0,0,1,.07.53,8.1,8.1,0,0,1-4.19,3.07,5.51,5.51,0,0,1-2.75.2,4.25,4.25,0,0,1-2.48-1.5,4.39,4.39,0,0,1-.92-2.78,6,6,0,0,1,.8-2.71,8.6,8.6,0,0,1,4-3.64.83.83,0,0,1,1.1.42.9.9,0,0,1,.07.27,4.46,4.46,0,0,1-.91,2.95,6.88,6.88,0,0,1-2.11,1.95,5.38,5.38,0,0,1-2.87.83,3.87,3.87,0,0,1-3.81-4.2,6.23,6.23,0,0,1,.95-2.7,9.08,9.08,0,0,1,4.08-3.42.41.41,0,0,1,.37.72Z"/><path class="cls-46" d="M525.19,452.91a2.44,2.44,0,0,1,.62-.86,3.62,3.62,0,0,1,.81-.55,5,5,0,0,1,1.91-.64.45.45,0,0,1,.49.41.4.4,0,0,1-.07.28,4.79,4.79,0,0,1-1.43,1.41,3.6,3.6,0,0,1-.86.47,2.52,2.52,0,0,1-1,.17.5.5,0,0,1-.46-.54A.37.37,0,0,1,525.19,452.91Z"/><path class="cls-46" d="M527.79,456.82a2.92,2.92,0,0,1,.2-1.13,4.74,4.74,0,0,1,.49-.95,6.08,6.08,0,0,1,1.48-1.61.45.45,0,0,1,.62.1.45.45,0,0,1,.08.31,5.74,5.74,0,0,1-.69,2.08,4.74,4.74,0,0,1-.59.89,2.93,2.93,0,0,1-.89.72.48.48,0,0,1-.65-.22A.45.45,0,0,1,527.79,456.82Z"/><path class="cls-46" d="M570.37,502.52a2.15,2.15,0,0,1,.2-.95,3.39,3.39,0,0,1,.47-.75,4.17,4.17,0,0,1,1.41-1.17.47.47,0,0,1,.62.22.46.46,0,0,1,0,.26,4.27,4.27,0,0,1-.67,1.7,3.08,3.08,0,0,1-.56.68,2.2,2.2,0,0,1-.85.48.51.51,0,0,1-.64-.36S570.38,502.56,570.37,502.52Z"/><path class="cls-46" d="M575.58,504.48a2.41,2.41,0,0,1-.54-.87,3.59,3.59,0,0,1-.19-.92,4.68,4.68,0,0,1,.18-1.91.45.45,0,0,1,.58-.28.45.45,0,0,1,.22.16,4.53,4.53,0,0,1,.73,1.79,3.58,3.58,0,0,1,.08.93,2.47,2.47,0,0,1-.26,1,.5.5,0,0,1-.69.2Z"/><path class="cls-46" d="M643.76,462.17a2.39,2.39,0,0,1,.49.89,4.1,4.1,0,0,1,.14.92,4.49,4.49,0,0,1-.28,1.89.46.46,0,0,1-.59.26.49.49,0,0,1-.22-.18,4.67,4.67,0,0,1-.63-1.81,3.61,3.61,0,0,1,0-.93,2.3,2.3,0,0,1,.31-1,.51.51,0,0,1,.7-.17Z"/><path class="cls-46" d="M647.13,459.81a2.47,2.47,0,0,1,1,.24,4,4,0,0,1,.81.53,4.73,4.73,0,0,1,1.29,1.5.46.46,0,0,1-.19.61.42.42,0,0,1-.29,0A4.72,4.72,0,0,1,648,462a4,4,0,0,1-.75-.61,2.39,2.39,0,0,1-.54-.89.49.49,0,0,1,.32-.63Z"/><path class="cls-46" d="M651.6,436.87a1.78,1.78,0,0,0,1.7,1.06,3.85,3.85,0,0,0,2.2-.56,4,4,0,0,0,1.49-1.66,1.61,1.61,0,0,0,0-1.66.85.85,0,0,1,0-1.21.86.86,0,0,1,.92-.19h0a3.51,3.51,0,0,0,2.18-.09,5.18,5.18,0,0,0,2.06-1.25,2.59,2.59,0,0,0,.82-2,1.78,1.78,0,0,0-1.36-1.57.4.4,0,0,1,.14-.79h0a2.71,2.71,0,0,1,2.4,2.15,3.71,3.71,0,0,1-.91,3.18,6.23,6.23,0,0,1-2.62,1.81,4.77,4.77,0,0,1-3.35.15l.93-1.4a2.75,2.75,0,0,1,.72,1.87,3.82,3.82,0,0,1-.41,1.71,5.14,5.14,0,0,1-2.27,2.34,4.87,4.87,0,0,1-3.18.47,3.32,3.32,0,0,1-1.51-.73,2.21,2.21,0,0,1-.79-1.53.4.4,0,0,1,.39-.42.41.41,0,0,1,.4.27Z"/><path class="cls-46" d="M559.58,416.47q-2,1.29-3.79,2.72c-1.21,1-2.38,2-3.48,3.07a10.06,10.06,0,0,0-2.62,3.33,1.32,1.32,0,0,0-.05.69c.06.16.07.17.17.2A1.35,1.35,0,0,0,551,426l1.18,1.08a6.86,6.86,0,0,0-1.65,1.71,2,2,0,0,0-.36,1.87,1.13,1.13,0,0,0,1.54.41,2.43,2.43,0,0,0,1.53-1.45v0a.4.4,0,0,1,.8.11,2.48,2.48,0,0,1-.67,1.47,4.16,4.16,0,0,1-1.23.93,2.76,2.76,0,0,1-1.66.27,2.12,2.12,0,0,1-1.49-1.08,2.73,2.73,0,0,1-.29-1.73,4.51,4.51,0,0,1,.53-1.51,7.65,7.65,0,0,1,1.94-2.24.81.81,0,0,1,1.19,1.07h0a2.86,2.86,0,0,1-1.27,1.06,2.79,2.79,0,0,1-1.67.21,1.93,1.93,0,0,1-1.44-1.37,3,3,0,0,1,0-1.65,6.46,6.46,0,0,1,1.39-2.35c.57-.63,1.14-1.19,1.73-1.74a28.56,28.56,0,0,1,8.06-5.27.41.41,0,0,1,.54.21A.43.43,0,0,1,559.58,416.47Z"/><path class="cls-46" d="M574.6,405.29a2.17,2.17,0,0,1,.68-.7,3.24,3.24,0,0,1,.81-.36,4.21,4.21,0,0,1,1.82-.22.48.48,0,0,1,.4.52.44.44,0,0,1-.11.24,4.09,4.09,0,0,1-1.49,1.06,3.12,3.12,0,0,1-.85.27,2,2,0,0,1-1-.06.51.51,0,0,1-.34-.64A.37.37,0,0,1,574.6,405.29Z"/><path class="cls-46" d="M571.28,413a4.89,4.89,0,0,1,.84-1.22,8.15,8.15,0,0,1,1.08-1,9.82,9.82,0,0,1,2.49-1.48.43.43,0,0,1,.56.24.42.42,0,0,1,0,.38,9.87,9.87,0,0,1-1.92,2.19,8.07,8.07,0,0,1-1.13.87,5.09,5.09,0,0,1-1.36.61.46.46,0,0,1-.55-.34A.48.48,0,0,1,571.28,413Z"/><ellipse class="cls-47" cx="592.01" cy="447.75" rx="58.86" ry="51.1" transform="translate(-73.83 775.79) rotate(-63.33)"/><path class="cls-20" d="M542.88,431.61a54,54,0,0,0-3.94,11.91c-2.63,13.16-.16,29.77,19.89,43.92,45.25,28.27,68.8-22.15,81.06-45.14a78.77,78.77,0,0,0,5.48-13.19,94.42,94.42,0,0,1-51.15,13.25A148.61,148.61,0,0,1,542.88,431.61Z"/><path class="cls-1" d="M616.21,364.11a56.26,56.26,0,0,1,7.12,2.13,34.11,34.11,0,0,0-8.29-2.35C615.79,364,616.21,364.11,616.21,364.11Z"/><path class="cls-20" d="M615,363.89c-5-.79-25.34-2.53-38,17.85l8,1.9S594.06,360.93,615,363.89Z"/><path class="cls-48" d="M625.65,367.28c-.79-.38-1.56-.72-2.32-1a56.26,56.26,0,0,0-7.12-2.13s-.42-.1-1.17-.22c-21-3-29.93,19.75-29.93,19.75l-8-1.9a49.73,49.73,0,0,0-2.57,4.66,95.43,95.43,0,0,1-6.76,11c-5.51,7.9-11.89,15.35-16.12,20.51,3.68,1.85,10,4.17,19.83,5.5,0,0,7.46,3.36,14.59,3s23.14,3.87,41-5.87S654.26,381.24,625.65,367.28Z"/><path class="cls-20" d="M648.78,399.65c-1.56-14.17-8.68-27.13-25.45-33.41.76.32,1.53.66,2.32,1,28.61,14,19.23,43.54,1.38,53.29s-33.87,5.5-41,5.87-14.59-3-14.59-3c-9.87-1.33-16.15-3.65-19.83-5.5-1.11,1.35-2.08,2.56-2.83,3.56a56.62,56.62,0,0,0-5.91,10.11,148.61,148.61,0,0,0,51.34,10.75,94.42,94.42,0,0,0,51.15-13.25C648.26,420,649.87,409.51,648.78,399.65Z"/><path class="cls-49" d="M586,426.44S569,405,582.49,380.67s44.42,3.7,50.25,17S625.72,430.72,586,426.44Z"/><path class="cls-50" d="M653.78,385.64a3.71,3.71,0,0,1-2.37,1.67,10.15,10.15,0,0,1-2.53.27,22.53,22.53,0,0,1-4.75-.57,57.38,57.38,0,0,1-8.9-2.76,110.1,110.1,0,0,1-16.47-8.33,116,116,0,0,1-15-10.73,59.14,59.14,0,0,1-6.62-6.53,24.78,24.78,0,0,1-2.76-3.89,9.45,9.45,0,0,1-1-2.32,3.68,3.68,0,0,1,.32-2.87l1.35.81c-.39.81.25,2.21,1,3.35a22.84,22.84,0,0,0,2.78,3.33,70,70,0,0,0,6.71,5.89A146.33,146.33,0,0,0,620.49,373a158.85,158.85,0,0,0,16,8.29,71.72,71.72,0,0,0,8.32,3.16,24.92,24.92,0,0,0,4.23.94c1.36.17,2.87.08,3.43-.6Z"/><path class="cls-51" d="M583.59,392.93l5.34-11.25s-5.31-9.79-13-1.54S576.28,396.09,583.59,392.93Z"/><path class="cls-32" d="M580.4,391.06a.13.13,0,0,1-.06-.07.23.23,0,0,1,.12-.3s5.31-2.68,4.23-6.92a4.55,4.55,0,0,0-2.2-3.1,6,6,0,0,0-4.19-.18.21.21,0,0,1-.27-.14.24.24,0,0,1,.15-.28,6.36,6.36,0,0,1,4.52.2,4.91,4.91,0,0,1,2.41,3.37c1.18,4.6-4.42,7.42-4.48,7.45A.2.2,0,0,1,580.4,391.06Z"/><path class="cls-32" d="M579.27,384.28a.21.21,0,0,1-.07-.18.23.23,0,0,1,.23-.22c.05,0,4.58.22,4.77,4.1a.23.23,0,0,1-.21.24.21.21,0,0,1-.23-.2c-.17-3.49-4.33-3.69-4.37-3.69A.22.22,0,0,1,579.27,384.28Z"/><path class="cls-51" d="M590.31,367s-5.83,5.54-12.31,20c-5.24,11.68-1,27.3,12.81,34.62,13,6.87,29.36,7.72,42-9.21s6.68-36.17-2.61-43.2C614.83,357.55,598.76,358,590.31,367Z"/><path class="cls-52" d="M612.06,365.5l.2-.1Z"/><path class="cls-51" d="M623.23,417.35l8-9.56s11.69.85,7.59,11.4S623.7,425.4,623.23,417.35Z"/><path class="cls-53" d="M623.79,397.76s3.46-1.59.09-7-5.39-5.47-6.9-4.19-1.28,3.9.68,6.89C620,397,621.88,398.71,623.79,397.76Z"/><path class="cls-53" d="M589.64,380.67s-.39-3.79,6-3.64,7.45,1.86,7.11,3.82c-.3,1.78-2.71,3.07-6.28,2.91C592.19,383.57,589.79,382.79,589.64,380.67Z"/><path class="cls-32" d="M626.49,419.53a.15.15,0,0,0,.09,0,.23.23,0,0,0,.23-.23c0-.06,0-6,4.51-6.76a5,5,0,0,1,3.94.76,6.26,6.26,0,0,1,2.15,3.78.22.22,0,0,0,.25.19.22.22,0,0,0,.19-.25,6.59,6.59,0,0,0-2.31-4.09,5.47,5.47,0,0,0-4.3-.83c-4.87.82-4.88,7.14-4.88,7.21A.21.21,0,0,0,626.49,419.53Z"/><path class="cls-32" d="M633.39,417.77a.22.22,0,0,0,.21,0,.22.22,0,0,0,.08-.31s-2.35-4.12-6.08-2.7a.22.22,0,0,0-.13.29.21.21,0,0,0,.29.13c3.37-1.28,5.51,2.47,5.53,2.51A.22.22,0,0,0,633.39,417.77Z"/><path class="cls-49" d="M605.43,408.05c-.49,2.14,2.36,4.62,6.36,5.54s7.65-.07,8.14-2.21-2.36-4.62-6.36-5.54S605.92,405.91,605.43,408.05Z"/><path class="cls-49" d="M591.7,402.19c-1.34,1.74-5.06,1.09-8.31-1.43s-4.77-6-3.43-7.71,5.07-1.09,8.31,1.44S593.05,400.46,591.7,402.19Z"/><path class="cls-54" d="M597.82,399.06s-.92-3.3,2.1-3.1a3.89,3.89,0,0,1,3.88,3.16"/><path class="cls-54" d="M596.48,403.83a4.62,4.62,0,0,0,5.34,1.24"/><path class="cls-53" d="M610.58,365.31s-3.23,13.65,3.1,16,8.82-6.2,8.82-6.2-2.67,18.93,3.54,20.8,7.68-4.53,7.68-4.53-6.06,14.85,1.37,17.32c9-10.3,14.38-32.91-11.61-44,0,0-27.76-19.11-40.33,12.17C583.15,376.86,602.11,373,610.58,365.31Z"/><path class="cls-50" d="M593.73,349.58a3.67,3.67,0,0,1,2.37-1.67,9.62,9.62,0,0,1,2.52-.27,23.12,23.12,0,0,1,4.75.56,58.29,58.29,0,0,1,8.91,2.77,109.51,109.51,0,0,1,16.46,8.33,114.39,114.39,0,0,1,15,10.73,58.37,58.37,0,0,1,6.63,6.53,26.07,26.07,0,0,1,2.76,3.88,9.69,9.69,0,0,1,1,2.33,3.77,3.77,0,0,1-.32,2.87l-1.35-.81c.38-.81-.25-2.22-1-3.35a23,23,0,0,0-2.79-3.34,69.92,69.92,0,0,0-6.7-5.88A143.76,143.76,0,0,0,627,362.18a155.61,155.61,0,0,0-16-8.29,72.41,72.41,0,0,0-8.32-3.16,26,26,0,0,0-4.23-1c-1.36-.16-2.87-.08-3.43.61Z"/><path class="cls-48" d="M553.34,421.37c4,1,8,2,12.08,2.93s8.09,1.75,12.15,2.55,8.16,1.37,12.26,1.94,8.23.88,12.36,1.16h0a.42.42,0,0,1,.38.44.4.4,0,0,1-.4.37,111.18,111.18,0,0,1-12.51-.53c-4.16-.38-8.3-1-12.4-1.71s-8.19-1.64-12.23-2.65a121.53,121.53,0,0,1-11.95-3.73.4.4,0,0,1-.24-.52.4.4,0,0,1,.48-.25Z"/><path class="cls-48" d="M540.66,448.69a100.85,100.85,0,0,0,13,3.38,116.6,116.6,0,0,0,13.27,1.83,107.27,107.27,0,0,0,26.67-1.08,99.78,99.78,0,0,0,13-3.23,102.76,102.76,0,0,0,12.34-5.11,98.18,98.18,0,0,0,21.89-15.34.5.5,0,0,1,.7.71,88.17,88.17,0,0,1-34.3,21.64,102.25,102.25,0,0,1-13.23,3.39,100.41,100.41,0,0,1-27.2,1,98.14,98.14,0,0,1-26.44-6.27.5.5,0,0,1,.34-.93Z"/><path class="cls-48" d="M545.23,473.28a90.13,90.13,0,0,0,12.57,1.89,105.4,105.4,0,0,0,12.69.32,96.86,96.86,0,0,0,25-4.09,83.62,83.62,0,0,0,23-11.16,94.61,94.61,0,0,0,19-17.72.47.47,0,0,1,.67-.06.53.53,0,0,1,.06.7,89.67,89.67,0,0,1-18.8,18.57,85.89,85.89,0,0,1-11.23,6.81A93.59,93.59,0,0,1,596,473.4a90.83,90.83,0,0,1-25.51,4.07A87.89,87.89,0,0,1,545,474.24a.51.51,0,0,1-.33-.62.47.47,0,0,1,.55-.35Z"/><path d="M613.15,403a1.65,1.65,0,1,1-2.72-1.76,1.65,1.65,0,1,1,2.72,1.76Z"/><path d="M594.78,392.67a1.65,1.65,0,1,1-.75-2.44A1.82,1.82,0,0,1,594.78,392.67Z"/><path class="cls-55" d="M437.57,317.78a7.23,7.23,0,0,0-1.78-2.82,17.38,17.38,0,0,0-4.41-3.13,42.13,42.13,0,0,0-4.56-2A117.23,117.23,0,0,0,408.23,305c-6.24-1.18-12.5-2.12-18.78-2.89-12.55-1.54-25.14-2.48-37.74-3.07q-37.8-1.69-75.62.2a752.58,752.58,0,0,0-75.31,7.33c-6.26.91-12.48,2-18.65,2.93s-12.39,1.84-18.59,2.6c-12.41,1.56-24.87,2.74-37.3,3.26-6.21.25-12.42.34-18.59.15a135.57,135.57,0,0,1-18.25-1.61,62.5,62.5,0,0,1-8.64-2,27.52,27.52,0,0,1-7.38-3.32,9,9,0,0,1-2.25-2.17,3.92,3.92,0,0,1-.69-2.06c-.09-1.4,1-3.59,2.58-5.59,3.36-4.08,8.33-7.62,13.39-10.75a150.22,150.22,0,0,1,16.19-8.43,316.47,316.47,0,0,1,34.72-12.95c11.84-3.74,23.87-7,36-9.84S197.8,251,210,248s24.47-6,36.68-9.33c6.12-1.62,12.21-3.35,18.31-5.22A179.38,179.38,0,0,0,283.42,227a48.55,48.55,0,0,0,4.83-2.43,21.78,21.78,0,0,0,2.71-1.89,10,10,0,0,0,.77-.73,7.3,7.3,0,0,0,.82-.88c.3-.4.58-.81.85-1.22a11.36,11.36,0,0,0,.78-1.92,7.22,7.22,0,0,0-.52-5.11,11.43,11.43,0,0,0-1.15-1.69,14.66,14.66,0,0,0-1.08-1,8.84,8.84,0,0,0-1-.71c-.3-.18-.64-.41-.92-.55-.52-.25-1.09-.55-1.58-.74a34.11,34.11,0,0,0-5.4-1.64,163.37,163.37,0,0,0-19.42-2.71c-12.7-1.14-25.3-1.78-37.9-2.35-6.3-.29-12.6-.5-18.9-.71s-12.56-.36-18.74-.7-12.37-.79-18.42-1.54c-3-.4-6-.83-8.87-1.46a36.93,36.93,0,0,1-7.82-2.42,9.6,9.6,0,0,1-1.81-1.12,8.55,8.55,0,0,1,1.56-2.08,30.31,30.31,0,0,1,3-2.63,118.48,118.48,0,0,1,15.38-9.38c10.93-5.77,22.35-11,33.76-16.25S227.3,152.63,238.64,147c5.66-2.84,11.29-5.79,16.83-9a167.12,167.12,0,0,0,16.15-10.5,58.06,58.06,0,0,0,7.7-6.49,11.61,11.61,0,0,0,1.94-2.72,5,5,0,0,0,.43-1.21,4.46,4.46,0,0,0-.78-3.84,4.61,4.61,0,0,0-1.33-1.16,5.16,5.16,0,0,0-1.13-.52,5.33,5.33,0,0,0-.93-.26,13.1,13.1,0,0,0-1.58-.23,25,25,0,0,0-2.71,0c-3.41.13-6.55.54-9.71,1l-9.35,1.35c-6.2.9-12.38,1.73-18.53,2.15s-12.35.48-18-.87a14.74,14.74,0,0,1-7.19-3.68,13.09,13.09,0,0,1-2.16-3.41,16.31,16.31,0,0,1-1.24-4c-1-5.63.84-11.68,3.53-17.11a80.83,80.83,0,0,1,10.32-15.36,125.08,125.08,0,0,1,13-13.43v0a.64.64,0,0,0,.08-.88.65.65,0,0,0-.91-.1,126.9,126.9,0,0,0-13.84,13A80.09,80.09,0,0,0,207.85,85a42.33,42.33,0,0,0-3.75,9,25.21,25.21,0,0,0-.82,10,19.5,19.5,0,0,0,1.33,5,18.85,18.85,0,0,0,1.14,2.35,7.61,7.61,0,0,0,.7,1.16,7.89,7.89,0,0,0,.87,1.11,18.53,18.53,0,0,0,9.12,5.24c6.54,1.77,13.06,1.82,19.46,1.65s12.73-.86,19-1.55l9.36-1c3.08-.32,6.19-.65,9.07-.67h.26a63.47,63.47,0,0,1-6,4.58c-10.05,7.1-21.11,12.63-32.42,18s-22.8,10.3-34.34,15.33-23.1,10-34.53,15.78a118.38,118.38,0,0,0-16.94,10,39.16,39.16,0,0,0-4.12,3.49,17.12,17.12,0,0,0-3.81,5.45l-.37,1c-.09.38-.17.77-.24,1.16a8.14,8.14,0,0,0-.1,2.49,9.21,9.21,0,0,0,.61,2.51,14.07,14.07,0,0,0,1.17,2.09,15.25,15.25,0,0,0,5.49,4.32,45.81,45.81,0,0,0,10.08,3.35c3.28.77,6.49,1.26,9.71,1.74,6.42.88,12.79,1.43,19.15,1.86s12.69.65,18.94.95l18.8.92c12.51.65,25,1.36,37.37,2.55,5.33.54,10.73,1.16,15.71,2.15-5.06,2.06-10.6,3.82-16.11,5.49-5.94,1.77-12,3.44-18,5.08-12.07,3.26-24.23,6.34-36.41,9.36l-36.62,9c-12.31,3.08-24.54,6.54-36.63,10.53a301.38,301.38,0,0,0-35.65,14.1,162.24,162.24,0,0,0-17.06,9.36c-5.49,3.61-10.94,7.48-15.48,13.25a23.84,23.84,0,0,0-3,5,14.31,14.31,0,0,0-1.28,6.56,12.75,12.75,0,0,0,2.4,6.7,17.54,17.54,0,0,0,4.56,4.27,36.32,36.32,0,0,0,9.84,4.21,71.79,71.79,0,0,0,9.78,2,148.61,148.61,0,0,0,19.34,1.23c6.4,0,12.77-.22,19.11-.64,12.68-.84,25.26-2.36,37.76-4.24,6.25-.92,12.47-2,18.69-3.09s12.38-2.33,18.54-3.39a692.49,692.49,0,0,1,74.69-8.38,717.46,717.46,0,0,1,75.21-.45c12.52.63,25,1.61,37.43,3.18,6.2.8,12.38,1.72,18.48,2.94a112.84,112.84,0,0,1,17.83,4.85c2.76,1.07,5.62,2.43,7.29,4.13a2.84,2.84,0,0,1,.74,1.12,1.09,1.09,0,0,1,0,.79,6.63,6.63,0,0,1-2.35,2.35,37.21,37.21,0,0,1-8,3.7c-2.87,1-5.85,1.85-8.84,2.62a337.71,337.71,0,0,1-36.84,6.48c-12.43,1.61-24.87,2.81-37.41,3.95l-37.58,3.64q-37.56,3.74-75.08,8.07c-25,2.9-50,6.07-75,9.75-12.48,1.83-24.94,3.77-37.39,6s-24.87,4.6-37.41,8.07a78.51,78.51,0,0,0-9.65,3.32,25.17,25.17,0,0,0-2.66,1.32,13.2,13.2,0,0,0-3.34,2.62,8.68,8.68,0,0,0-1.07,1.54,7.18,7.18,0,0,0-.83,2.68,6.92,6.92,0,0,0,.43,3.25,7.48,7.48,0,0,0,1.36,2.25A9.79,9.79,0,0,0,64,393.46a13.2,13.2,0,0,0,1.78.88A31.51,31.51,0,0,0,71.31,396c1.71.36,3.37.63,5,.87,3.28.48,6.5.81,9.71,1.09,12.81,1.07,25.44,1.4,38.09,1.64,50.37.5,100.56,1.18,150.8,2.55,25.1.74,50.21,1.45,75.22,2.66l6.62.35c-15.69,1.43-31.5,2.55-47.32,3.91-25.1,2.11-50.2,4.4-75.28,7.38-12.55,1.5-25.08,3.11-37.67,5.22a176.93,176.93,0,0,0-19.15,4.12,31.22,31.22,0,0,0-5.42,2.07,12.53,12.53,0,0,0-1.81,1.1,11.18,11.18,0,0,0-1.23,1.1,6.8,6.8,0,0,0-1.54,2.53,6.7,6.7,0,0,0,0,4.45,7.37,7.37,0,0,0,1.7,2.62,7.63,7.63,0,0,0,1.42,1.13,8.9,8.9,0,0,0,1.1.61,17.75,17.75,0,0,0,3.22,1.17c.94.26,1.83.46,2.7.63,1.73.35,3.38.59,5,.81,6.55.84,12.91,1.19,19.28,1.48l9.42.34c3.07.14,6.13.33,9.19.59a193.27,193.27,0,0,1,36.09,6.35,76.23,76.23,0,0,1,16.35,6.46,20.91,20.91,0,0,1,3.15,2.18,6.51,6.51,0,0,1,1.64,1.86c0,.08,0,.11.05.11a.16.16,0,0,0,0,.06,5.82,5.82,0,0,1-1.91,1.74,33.92,33.92,0,0,1-7.49,3.31,89.64,89.64,0,0,1-8.68,2.3c-5.94,1.3-12.05,2.25-18.2,3-12.29,1.57-24.82,2.23-37.32,3.13l-18.77,1-18.8.66A1492.62,1492.62,0,0,1,15.9,474.89h0a.66.66,0,0,0-.69.57.64.64,0,0,0,.56.71c25,3.1,50.1,5.1,75.24,6.6s50.34,2.4,75.56,2.37l18.92-.14,18.92-.47c12.6-.57,25.22-1,37.92-2.29,6.34-.64,12.69-1.48,19.06-2.71,3.19-.62,6.38-1.36,9.6-2.32a42.12,42.12,0,0,0,9.79-4.14,14.94,14.94,0,0,0,4.93-4.64,10,10,0,0,0,1.51-4.29,10.11,10.11,0,0,0-.71-4.54,15,15,0,0,0-4.13-5.49,30.59,30.59,0,0,0-4.52-3.29,85.39,85.39,0,0,0-18.48-7.77,204.23,204.23,0,0,0-38-7.41q-4.8-.5-9.63-.79l-9.41-.51c-2.17-.13-4.34-.29-6.5-.46l2.57-.42c12.24-1.9,24.68-3.34,37.12-4.65,24.91-2.57,49.93-4.7,74.95-6.64s50.15-3.34,75.5-6.39c3.18-.4,6.37-.84,9.62-1.38,1.63-.29,3.27-.59,5-1,.85-.19,1.74-.42,2.68-.68a21.38,21.38,0,0,0,3.36-1.27,10.9,10.9,0,0,0,1.35-.78,8.45,8.45,0,0,0,2.15-2.11,7.51,7.51,0,0,0-1.73-10.39,10.26,10.26,0,0,0-1.6-1c-.35-.17-.82-.39-1.09-.49-.66-.25-1.19-.42-1.72-.58A49.48,49.48,0,0,0,398.6,395c-3.35-.55-6.56-.92-9.77-1.26-12.79-1.28-25.38-2-38-2.59-25.22-1.2-50.4-1.91-75.58-2.36-50.33-.93-100.73-1.18-151-1.25-12.49-.12-25-.35-37.28-1.27-2.22-.17-4.42-.39-6.59-.64l.17-.05c11.66-3.4,24-5.89,36.22-8.28s24.62-4.5,37-6.55c49.52-8.07,99.33-14.9,149.22-21l37.44-4.39c12.49-1.39,25.05-2.85,37.53-4.72a345.43,345.43,0,0,0,37.29-7.33c3.08-.83,6.16-1.74,9.21-2.84a41.53,41.53,0,0,0,9-4.33,10.64,10.64,0,0,0,4-4.48A5.63,5.63,0,0,0,437.57,317.78ZM150.51,193.29v0S150.52,193.27,150.51,193.29Zm0,.41,0,0s0,.06,0,0Z"/><polygon class="cls-56" points="235.64 21.1 242.87 43.35 266.27 43.35 247.34 57.1 254.57 79.36 235.64 65.6 216.71 79.36 223.94 57.1 205.02 43.35 228.41 43.35 235.64 21.1"/><polygon class="cls-57" points="149.92 214.62 152.42 222.31 160.51 222.31 153.97 227.07 156.47 234.76 149.92 230.01 143.38 234.76 145.88 227.07 139.34 222.31 147.42 222.31 149.92 214.62"/><polygon class="cls-58" points="221.82 166.23 224.32 173.92 232.41 173.92 225.87 178.68 228.37 186.37 221.82 181.61 215.28 186.37 217.78 178.68 211.23 173.92 219.32 173.92 221.82 166.23"/><polygon class="cls-59" points="308.04 199.32 310.54 207.01 318.63 207.01 312.09 211.76 314.58 219.45 308.04 214.7 301.5 219.45 303.99 211.76 297.45 207.01 305.54 207.01 308.04 199.32"/><polygon class="cls-60" points="228.38 266.88 230.88 274.57 238.97 274.57 232.43 279.33 234.93 287.02 228.38 282.26 221.84 287.02 224.34 279.33 217.8 274.57 225.89 274.57 228.38 266.88"/><polygon class="cls-61" points="178.81 128.64 181.31 136.33 189.4 136.33 182.85 141.08 185.36 148.78 178.81 144.02 172.27 148.78 174.77 141.08 168.22 136.33 176.32 136.33 178.81 128.64"/><polygon class="cls-62" points="130.73 289.74 133.23 297.43 141.31 297.43 134.77 302.19 137.27 309.88 130.73 305.13 124.18 309.88 126.68 302.19 120.14 297.43 128.23 297.43 130.73 289.74"/><polygon class="cls-63" points="242.06 362.72 244.56 370.41 252.65 370.41 246.1 375.16 248.6 382.86 242.06 378.1 235.52 382.86 238.02 375.16 231.47 370.41 239.56 370.41 242.06 362.72"/><polygon class="cls-64" points="327.77 433.04 330.98 442.92 341.36 442.92 332.96 449.01 336.17 458.88 327.77 452.79 319.38 458.88 322.58 449.01 314.19 442.92 324.57 442.92 327.77 433.04"/><polygon class="cls-65" points="374.9 349.5 379.35 363.19 393.74 363.19 382.1 371.65 386.54 385.33 374.9 376.87 363.26 385.33 367.7 371.65 356.06 363.19 370.46 363.19 374.9 349.5"/><polygon class="cls-66" points="13.59 460.94 16.79 470.81 27.17 470.81 18.77 476.9 21.98 486.77 13.59 480.68 5.19 486.77 8.4 476.9 0 470.81 10.38 470.81 13.59 460.94"/><polygon class="cls-67" points="327.51 255.37 330.71 265.24 341.09 265.24 332.7 271.34 335.9 281.21 327.51 275.11 319.11 281.21 322.32 271.34 313.92 265.24 324.3 265.24 327.51 255.37"/><polygon class="cls-68" points="89.95 343.1 92.45 350.79 100.54 350.79 94 355.55 96.5 363.23 89.95 358.48 83.41 363.23 85.91 355.55 79.37 350.79 87.46 350.79 89.95 343.1"/><polygon class="cls-69" points="146.64 342.95 148.1 347.46 152.84 347.46 149.01 350.24 150.47 354.75 146.64 351.97 142.8 354.75 144.27 350.24 140.43 347.46 145.17 347.46 146.64 342.95"/><polygon class="cls-70" points="196.77 330.26 198.24 334.77 202.98 334.77 199.14 337.55 200.61 342.06 196.77 339.28 192.94 342.06 194.4 337.55 190.57 334.77 195.31 334.77 196.77 330.26"/><polygon class="cls-71" points="265.88 345.59 266.67 348.02 269.22 348.02 267.16 349.52 267.94 351.95 265.88 350.44 263.81 351.95 264.6 349.52 262.54 348.02 265.09 348.02 265.88 345.59"/><polygon class="cls-72" points="242.41 323.15 243.88 327.66 248.62 327.66 244.78 330.44 246.25 334.95 242.41 332.17 238.58 334.95 240.04 330.44 236.21 327.66 240.95 327.66 242.41 323.15"/><polygon class="cls-73" points="267.67 259.48 269.14 263.99 273.88 263.99 270.04 266.77 271.51 271.28 267.67 268.5 263.84 271.28 265.3 266.77 261.47 263.99 266.21 263.99 267.67 259.48"/><polygon class="cls-74" points="352.45 401.58 353.91 406.08 358.66 406.08 354.82 408.87 356.29 413.38 352.45 410.59 348.62 413.38 350.08 408.87 346.25 406.08 350.99 406.08 352.45 401.58"/><polygon class="cls-75" points="220.04 404 221.51 408.51 226.25 408.51 222.42 411.3 223.88 415.81 220.04 413.02 216.21 415.81 217.67 411.3 213.84 408.51 218.58 408.51 220.04 404"/><polygon class="cls-76" points="211.24 197.61 212.71 202.12 217.45 202.12 213.61 204.9 215.08 209.41 211.24 206.63 207.41 209.41 208.87 204.9 205.04 202.12 209.78 202.12 211.24 197.61"/></g></g></g></svg>