<svg xmlns="http://www.w3.org/2000/svg" viewBox="0 0 793.95 301.88"><defs><style>.cls-1{fill:#c1272d;}.cls-2{fill:#f9fbfb;}.cls-3{fill:#fafbfb;}.cls-4{fill:#fafcfc;}.cls-5,.cls-6{fill:#fff;}.cls-6{fill-rule:evenodd;}.cls-7{fill:#39b54a;}.cls-8{fill:#e9ae3d;}</style></defs><g id="Capa_2" data-name="Capa 2"><g id="Capa_1-2" data-name="Capa 1"><rect class="cls-1" width="793.95" height="301.88" rx="23.35"/><path class="cls-2" d="M370.5,89.77c0-1.63,0-3.25,0-4.88q-.37-20.67-.76-41.35c0-1.85.08-3.7.14-5.55.11-3,1.57-5.18,4.5-5.6a91.61,91.61,0,0,1,12.38-.92c2.9,0,4.78,2.15,4.74,5.22-.08,7-.29,13.91-.59,20.86-.51,12-1.35,24.09-1.65,36.14-.33,13.14-.2,26.3-.28,39.45,0,.45-.11.89-.1,1.34.15,5.89-4.51,8.42-9.49,8.92a20.67,20.67,0,0,1-2.49,0c-5.14-.15-6.8-1.44-8.69-6.2C363.14,124.46,358,111.74,352.88,99a3.54,3.54,0,0,0-1.2-1.6c-.13,1.27-.34,2.54-.4,3.82-.53,11.67-1,23.33-1.57,35-.25,5.31-2.4,7.38-7.71,7.29-2.8,0-5.61-.25-8.39-.57-2.94-.34-4.38-2-4.23-4.9q.92-18.06,2-36.11c.46-7.26,1-14.52,1.74-21.75,1.29-12.31,2.74-24.6,4.21-36.89.44-3.7,2.46-5.6,5.73-5.87a5.22,5.22,0,0,1,5.55,3.22Q355.85,57,363,73.39c2.22,5.09,4.32,10.23,6.49,15.34a10.42,10.42,0,0,0,.61,1.14Z"/><path class="cls-3" d="M128,93.86c.26-2.44.5-4.89.79-7.34,1.67-14.12,2.78-28.33,5.94-42.25A38,38,0,0,1,136.33,39,7.78,7.78,0,0,1,143,33.9a18.77,18.77,0,0,1,8.88.81c3.44,1.22,5,3.44,4.56,7.18-.61,5.39-1.36,10.77-1.94,16.16q-2.5,23.22-4.91,46.45c-.89,8.52-2,17-4.61,25.2a36,36,0,0,1-3.1,7.18c-2.31,4-6.11,5.12-10.4,3.51a15.69,15.69,0,0,1-7.7-6.37,126.43,126.43,0,0,1-11.71-22.79c-1.13-2.88-2.24-5.77-3.36-8.66l-.49,0c-.37,2.21-.68,4.44-1.11,6.64-1.66,8.59-3.23,17.19-5.09,25.73-1.18,5.41-4.42,6.92-9.58,4.88a42.85,42.85,0,0,1-4.88-2.21c-4-2.23-5.31-4.8-4.55-9.34,1.07-6.42,2.16-12.84,3.41-19.23,2.46-12.58,4.89-25.18,7.64-37.69,1.31-6,3.21-11.83,5.08-17.67a24.89,24.89,0,0,1,3.31-6.84c3.43-4.83,9.38-4.81,12.28.32a51.61,51.61,0,0,1,4.88,12.59c2.74,10.63,5,21.37,7.53,32.06.15.67.35,1.34.53,2Z"/><path class="cls-4" d="M417.67,115.19c-1.41,8-2.76,15.61-4.15,23.26a20.17,20.17,0,0,1-.89,3.52c-1.29,3.41-3.54,4.77-7.16,4.38-2.79-.3-5.59-.55-8.35-1-4.57-.83-5.45-2.13-4.74-6.67,1.74-11.22,3.4-22.45,5.29-33.65,3.13-18.51,6.87-36.88,12.64-54.79,1.25-3.88,2.55-7.75,4-11.57a12.71,12.71,0,0,1,2.24-3.76c3.76-4.39,8.76-4.56,12.19.08a55.22,55.22,0,0,1,6.48,11.64c5.45,13.18,9,27,12.55,40.77,4.47,17.22,8.72,34.5,13.05,51.77a14.68,14.68,0,0,1,.35,2.65c.21,3.86-1.59,6.69-5.33,7.57a73.07,73.07,0,0,1-10,1.48c-2.63.25-4.16-1.44-5.38-3.6-2.43-4.3-3.31-9.08-4.4-13.8-1.22-5.28-2.48-10.56-3.63-15.85a1.56,1.56,0,0,0-1.74-1.5C426.47,115.85,422.28,115.51,417.67,115.19ZM421.06,101l7.59.47c-1.3-5.51-2.54-10.77-3.77-16h-.34C423.4,90.5,422.27,95.58,421.06,101Z"/><path class="cls-2" d="M284.61,84c-7.29-3.56-10.64-9.32-11.3-16.76a27.42,27.42,0,0,1,4.08-16.64c7.42-12.74,18.94-18.23,33.16-19a61.76,61.76,0,0,1,7.07,0c3.61.2,5.47,2.19,5.49,5.81,0,3-.07,6-.22,9-.19,4-2.38,5.8-6.28,6.33a93,93,0,0,0-12.69,2.6c-3.78,1-6.7,3.65-9.18,6.65a9.84,9.84,0,0,0-1.66,3c-.91,2.58-.08,4.61,2.48,5.59a19.38,19.38,0,0,0,5.55,1.27c3.12.21,6.25,0,9.38.1,4,.09,5.83,1.94,5.93,5.9.07,2.43.25,4.85.25,7.27,0,4.24-1.57,6.16-5.62,7.29-3.63,1-7.3,1.92-10.81,3.23a17.69,17.69,0,0,0-8.75,6.59,15.63,15.63,0,0,0-2.5,6.08c-.62,4.1,2.23,6.58,5.35,8.27a26.32,26.32,0,0,0,8.12,2.69,28.38,28.38,0,0,0,11.92-.79c5.31-1.38,9.64.58,9.46,6.69a54.82,54.82,0,0,1-1.45,10c-.79,3.61-3.38,5.68-6.77,7-8.46,3.17-17.12,3.55-26,2.42-10.46-1.33-16.51-7.86-20.75-16.73-6.28-13.13-1.94-27.08,7.13-36.95,2-2.18,4.6-3.8,6.94-5.66C283.35,84.83,283.83,84.54,284.61,84Z"/><path class="cls-2" d="M215.72,82.94a82.79,82.79,0,0,1-6.53,34.93,49.69,49.69,0,0,1-13.36,18.67c-10.74,9.47-24.69,6.36-32.65-3.1-5.48-6.49-7.64-14.25-7.79-22.55a124,124,0,0,1,7.2-45.31,45.15,45.15,0,0,1,7.74-14c6.3-7.38,14-12,24.13-11.35,7.16.49,12.34,4,15.3,10.46a64.35,64.35,0,0,1,6,25.76C215.76,78.34,215.72,80.26,215.72,82.94Zm-19.2-2.71a43.93,43.93,0,0,0-.09-7.26A40.45,40.45,0,0,0,194,64.8c-.7-1.76-2.41-2.16-4.23-1.65a11,11,0,0,0-6,3.87c-7.75,10.11-11.24,21.68-11.23,34.27a25.29,25.29,0,0,0,2.13,9.62c2.75,6.43,10.42,7.09,14.42,1.37a33.59,33.59,0,0,0,4-7.59A61.41,61.41,0,0,0,196.52,80.23Z"/><path class="cls-2" d="M241.57,92.36c1-3.94,1.93-7.91,3-11.83q4.63-16.68,9.39-33.34c.67-2.4,1.42-4.77,2.2-7.14,1.18-3.56,3.19-5.22,6.9-5.24a29.39,29.39,0,0,1,7.17.88c3.33.86,5.13,3.12,4.71,6.49a76.4,76.4,0,0,1-2.64,12.7q-7.71,25.47-15.77,50.83-3.93,12.41-8.41,24.64a43.36,43.36,0,0,1-4.58,8.57c-1.67,2.54-4.09,4.44-7.39,3.86-3.54-.62-6.64-2.17-7.53-6.11-1.33-5.91-3-11.8-3.7-17.79-2-16.85-3.58-33.76-5.27-50.65-.82-8.19-1.54-16.39-2.25-24.59a30.51,30.51,0,0,1,0-4.78,4.5,4.5,0,0,1,3.31-4.26c3.3-1,6.63-1.91,10-2.67s6,1.22,6.27,4.74c.45,5.85.55,11.73,1,17.59.92,12.41,2,24.8,3,37.21,0,.29.08.57.12.86Z"/><path class="cls-3" d="M164.48,258.61q-38,0-76.08,0c-3.64,0-7.28.14-10.91.32-2.26.11-4.15-.33-5.42-2.43-1.48-2.43-2.12-5-.18-7.31a53.5,53.5,0,0,1,7.37-7.45c5.88-4.7,12.08-9,18-13.66,6.2-4.86,5.74-3.91,1.16-9.3-8.17-9.64-16.68-19-25-28.5-1.66-1.89-3.42-3.82-2.13-6.63s3.77-3.19,6.43-3.23c13-.16,26.05-.34,39.08-.45,8.74-.08,17.49,0,26.24-.06,21.53-.1,43.05-.19,64.57-.38,10.86-.09,21.71-.4,32.57-.55a49.28,49.28,0,0,1,8.6.34,14.91,14.91,0,0,1,5.88,2.43c2.2,1.54,1.8,4.55-.36,6.44a314.61,314.61,0,0,0-27.35,27.06c-1,1.12-.69,1.89.15,2.77,5.75,6.06,11.47,12.15,17.27,18.17,3.36,3.5,6.89,6.84,10.27,10.32a11.45,11.45,0,0,1,2.12,3.16c1.36,3,.09,5.73-3,6.95a19.48,19.48,0,0,1-7.27,1.28c-22.67.09-45.34.28-68,.43-4.66,0-9.32,0-14,0ZM120.17,220h.67c0,7.4,0,14.8,0,22.2,0,4.69,4.43,7.65,8.65,5.5A47.45,47.45,0,0,0,140,240.81a37.13,37.13,0,0,0,12.26-26c.33-5.41-.18-10.79-2.88-15.59-4.45-7.92-12.84-11.2-22.61-9.14-4.91,1-6.6,3.24-6.57,8.32C120.2,205.62,120.17,212.83,120.17,220Zm49-.68a21.42,21.42,0,0,0-7.37,11.26c-2,7,.71,13.09,6.81,16.32,7.67,4.05,15.21,2.75,22.75-.16a4.19,4.19,0,0,0,2.38-5.4,4.44,4.44,0,0,0-5.21-2.85c-1.87.41-3.71.94-5.55,1.46a12.62,12.62,0,0,1-10.5-1.27,4.68,4.68,0,0,1-2-2.52c-.85-3.95,1.91-8.75,5.72-10.19,1.79-.68,3.66-1.1,5.49-1.67a5.58,5.58,0,0,0,4-5.23c-.07-2.26-1.53-3.83-4.23-4.51-.87-.21-1.75-.37-2.61-.59-6.67-1.67-7.42-5.51-3.4-10.82a8.54,8.54,0,0,1,.91-1c3.12-3,6.68-5,11.15-5.25a4.08,4.08,0,0,0,3.9-3.8,4,4,0,0,0-3.21-4.37,11,11,0,0,0-4.16-.13A25.46,25.46,0,0,0,167.55,199c-2.72,3.68-4.28,7.84-3.36,12.57A13.44,13.44,0,0,0,169.14,219.36Z"/><path class="cls-3" d="M129.79,237.47c-.13-2.61-.31-4.76-.35-6.91-.18-10-.29-20-.54-30.06,0-1.74.54-2.14,2.15-2.19,7.4-.19,11.29,3.24,12,11.06,1,10.55-2.7,19.28-10.6,26.26A30.12,30.12,0,0,1,129.79,237.47Z"/><path class="cls-5" d="M336.87,210a50.14,50.14,0,0,0,4.14-3.61c2.48-2.74,4.75-5.69,7.3-8.37a7.86,7.86,0,0,1,3.87-2.41c2.56-.46,4.65,2.32,4.05,4.94a3.76,3.76,0,0,1-.57,1.42c-4.61,6.22-9.25,12.43-16.36,16.09a2.31,2.31,0,0,0-1.43,2.68q1.25,17.77,2.39,35.54c0,.58.09,1.15.09,1.72,0,2.4-1.16,4-3.16,4.39a4,4,0,0,1-4.75-2.92,41.13,41.13,0,0,1-.93-7.19c-.69-9.8-1.31-19.61-2-29.42a10.23,10.23,0,0,0-.19-1,69.38,69.38,0,0,1-18.65,2.16c-.57,0-1.15,0-1.72,0-2.89-.18-2.92-.19-3.81,2.67q-4,13-8,26c-.24.79-.3,1.63-.5,2.43a4,4,0,0,1-4.09,3.33,3.8,3.8,0,0,1-3.68-3.53,12.88,12.88,0,0,1,.54-4.69c5-16,9.92-32.07,15.12-48,2.67-8.18,5.79-16.22,8.85-24.27a18.84,18.84,0,0,1,2.91-4.92c3.52-4.45,8.89-4.55,12.11.09a25,25,0,0,1,4,9c1.63,8.06,2.69,16.23,4,24.36C336.56,207.33,336.67,208.33,336.87,210Zm-28.09,5.6c6.74.26,12.93-.16,18.92-2.21.39-.13.78-1.12.7-1.65-1.28-9.22-2.58-18.43-4-27.62a27.33,27.33,0,0,0-1.71-4.89l-.64,0C316.33,190.74,313.27,203.25,308.78,215.55Z"/><path class="cls-5" d="M506.6,241.12c.27-6.7.56-13.39.8-20.09q.56-15.89,1.07-31.77a4.12,4.12,0,0,1,3.81-4.27,4,4,0,0,1,4.3,3.55,32.79,32.79,0,0,1,.08,5.52c-.28,10.28-.54,20.55-.91,30.83-.43,12.12-1,24.24-1.43,36.36a5.25,5.25,0,0,1-3.12,5.06,4.24,4.24,0,0,1-6.06-2.58q-2.67-6.87-4.93-13.89c-4.43-13.72-8.78-27.48-13.17-41.21a1.26,1.26,0,0,0-.78-.8c-.48,3.69-.95,7.38-1.45,11.07Q482.43,236.45,480,254c-.2,1.46-.31,2.92-.52,4.37a3.83,3.83,0,0,1-3.59,3.61,3.72,3.72,0,0,1-4.16-3.15,20.63,20.63,0,0,1,.12-5.49c2-15.45,3.95-30.89,6.05-46.32.55-4,1.45-8,2.29-12a5.56,5.56,0,0,1,3-4.24c2.36-1.12,5.1-.67,6.33,1.8a95.41,95.41,0,0,1,5.26,12.68c3.72,11.34,7.18,22.76,10.76,34.15.2.64.48,1.25.73,1.88Z"/><path class="cls-5" d="M657,207.35c2.26-1.89,4.25-3.5,6.18-5.18a4.43,4.43,0,0,1,5.46-.54,4.15,4.15,0,0,1,1.06,5.49,6,6,0,0,1-1,1.41c-2.88,2.83-6,5.44-9.86,6.77a2.25,2.25,0,0,0-1.75,2.65c.3,10.68,0,21.33-2.15,31.84a34,34,0,0,1-4.89,12.8c-3.6,5.27-8.54,5.71-13,1.16a16.81,16.81,0,0,1-4.63-8.89c-.92-5-2-10.08-2.11-15.14-.27-15-.22-30,0-45,.08-5.62,3.47-9.88,7.87-12.85,5.32-3.6,12.67-.63,15.3,6a48.63,48.63,0,0,1,2.24,9.46c.48,2.76.59,5.58.88,8.37C656.59,206,656.72,206.38,657,207.35Zm-14.43,50.38.83-.1a33.67,33.67,0,0,0,2-4.49c3.38-11.86,3.62-24,3.15-36.21a1.62,1.62,0,0,0-.66-1.21c-3.07-1.47-6.19-2.86-9.34-4.29a8.06,8.06,0,0,0-.11,1.08c0,8-.16,16,.18,23.91a140.31,140.31,0,0,0,1.9,15.91C640.75,254.19,641.82,255.93,642.53,257.73Zm5.72-51c-.42-3.76-.71-7.24-1.25-10.68a19.75,19.75,0,0,0-1.59-5.45c-1.07-2.24-3.15-2.24-4.36-.11a12.2,12.2,0,0,0-1.43,3.7C638.58,199.85,641.54,203.82,648.25,206.78Z"/><path class="cls-5" d="M397.59,228.22a70.76,70.76,0,0,1-4,22.16,24.06,24.06,0,0,1-6.5,10c-4.79,4.45-10.19,4.75-15.47.88a21.33,21.33,0,0,1-6.4-8,48.32,48.32,0,0,1-4.78-19.78c-.61-14.7.58-29.24,5.25-43.29a33.17,33.17,0,0,1,4.54-8.58,11.37,11.37,0,0,1,16.13-2.69,36.67,36.67,0,0,1,6.79,6.62,3.94,3.94,0,0,1-.68,5.92c-1.88,1.31-4.11.75-5.85-1.35a27.62,27.62,0,0,0-3.31-3.44c-3-2.53-5.35-2.07-7.39,1.28-2.48,4.05-3.62,8.57-4.52,13.15A124.39,124.39,0,0,0,369,234.63c.42,5.52,1.47,10.91,4.27,15.76a19.34,19.34,0,0,0,3.69,4.3c1.31,1.22,2.76.95,4.12-.24,3-2.66,4.48-6.17,5.52-9.89A62.65,62.65,0,0,0,389,224.87c-.06-1.47-.58-1.92-1.94-1.79-1.9.17-3.82.22-5.72.42a4.19,4.19,0,0,1-4.64-2.85,3.89,3.89,0,0,1,2-4.84,9.48,9.48,0,0,1,3.46-.94c2.55-.16,5.11-.19,7.66-.1,3.77.13,6.31,2.16,7,5.85A73.51,73.51,0,0,1,397.59,228.22Z"/><path class="cls-5" d="M547.22,239.35c-4.17.92-8.08,1.75-12,2.7-.41.1-.83.93-.91,1.47-1,6.82-2,13.64-2.87,20.47-.38,2.94-2,4.66-4.44,4.47s-4-2.17-3.65-5.12c.72-6.41,1.47-12.81,2.43-19.19q3.31-22,6.86-43.88a58.24,58.24,0,0,1,1.79-7.05,15.53,15.53,0,0,1,1.42-3.33c2.38-4.17,7.25-4.56,9.78-.5a28.45,28.45,0,0,1,3.74,8.94c1.7,8.1,3.12,16.28,4.3,24.48,1.78,12.39,3.26,24.81,4.86,37.22.13,1,.27,2,.35,3a4.39,4.39,0,0,1-3.54,4.94,4.05,4.05,0,0,1-4.76-3.66c-.73-4.47-1.21-9-1.82-13.47C548.3,247.17,547.79,243.46,547.22,239.35ZM541.54,201h-.66c-1.71,10.66-3.42,21.32-5.19,32.37l10.55-2.27C545,220.92,544.14,210.84,541.54,201Z"/><path class="cls-5" d="M623.09,208a82.8,82.8,0,0,1-7.75,34.54c-3.23,6.93-7,13.6-10.6,20.38-.27.5-.6,1-.92,1.46-1.18,1.73-2.49,3.45-4.88,3.06a6,6,0,0,1-4.82-4.45,30.24,30.24,0,0,1-1.09-7c-.7-12.23-1.52-24.47-1.85-36.72A51.78,51.78,0,0,1,596.34,195c.47-1,1-1.93,1.55-2.86,5.87-9.78,16.42-6.51,20.44-.42A31.6,31.6,0,0,1,623.09,208Zm-22.27,43.81.52.17c.85-1.68,1.65-3.38,2.54-5,6-11.28,10.23-23.06,10.67-36,.16-4.8-.35-9.45-2.67-13.72-2-3.6-5.14-3.67-7.11-.2a36.07,36.07,0,0,0-4.63,14.87C599,225.24,600.11,238.54,600.82,251.84Z"/><path class="cls-5" d="M420.43,251.69c.71-1.74,1.55-3.45,2.1-5.24a121,121,0,0,0,4.75-25.93c.84-10.11,1.55-20.23,2.33-30.35.22-2.92,1.86-4.61,4.37-4.56a4,4,0,0,1,4,4.41c-1.18,16-1.45,32-4.66,47.78a127.94,127.94,0,0,1-4.67,15.94,14,14,0,0,1-3.47,5,7.16,7.16,0,0,1-10.59-.12,21.65,21.65,0,0,1-5.69-11.32,130,130,0,0,1-2.54-19.7c-.39-12-.13-24.12-.09-36.18a17.79,17.79,0,0,1,.61-4.53,4,4,0,0,1,4.8-3.07c1.95.42,3,2.18,3,4.51-.35,16-.71,32.05.76,48,.42,4.64,1.11,9.27,3.34,13.48.32.61.67,1.2,1,1.8Z"/><path class="cls-5" d="M683.67,240.19a99.82,99.82,0,0,0-7.27-32.11c-2.08-5.16-4-10.38-3.85-16.09.08-4.27,1.73-7.63,5.7-9.41s7.59-.48,10.67,2.12c4.73,4,6.53,9.31,6.24,15.39a4,4,0,0,1-3.59,3.86,4.08,4.08,0,0,1-4.26-3.38c-.26-1.25-.28-2.54-.45-3.8a8.57,8.57,0,0,0-3.38-5.81,2.47,2.47,0,0,0-1.88-.49c-.33.08-.69,1.12-.58,1.64.75,3.66,1.19,7.48,2.54,10.92a119.55,119.55,0,0,1,8.34,33.12c.76,8.34-.36,16.35-5.09,23.49-2.55,3.85-6.13,6.17-10.94,5.81-3-.23-5.19-1.95-7-4.27-2.87-3.74-3.56-8.14-3.73-12.65a56.47,56.47,0,0,1,.12-8c.32-3,2.34-4.59,4.86-4.25s3.52,2.46,3.46,5.49a88,88,0,0,0,.66,11.23c.18,1.58.72,3.63,2.6,3.87s2.88-1.6,3.71-3.11C682.86,249.6,683.52,245.07,683.67,240.19Z"/><path class="cls-5" d="M560.56,193a51,51,0,0,1,0-5.53c.27-2.52,2-4,4.15-3.89a4.21,4.21,0,0,1,3.85,4.28c.33,5.42.5,10.85.93,16.26,1.35,16.92,2.8,33.84,4.18,50.76.13,1.66.78,2.39,2.5,2.24,1.52-.13,3.06-.08,4.6-.07,2.66,0,4.47,1.56,4.66,3.87a4.08,4.08,0,0,1-4,4.47,44.06,44.06,0,0,1-9.88-.44c-3.52-.64-5.28-3.47-5.81-6.86-.66-4.29-1.23-8.6-1.56-12.92-1.35-17.38-2.59-34.76-3.87-52.14Z"/><path class="cls-5" d="M461.6,205.22c-.77,17.48-1.42,33.36-2.23,49.24a13.25,13.25,0,0,1-1.73,5.53,3.68,3.68,0,0,1-4.74,1.34,4.26,4.26,0,0,1-2.4-4.21c.49-8,1.1-15.9,1.41-23.87.58-14.6,1-29.22,1.46-43.82a12,12,0,0,1,.34-2.46,4,4,0,0,1,4.54-3.2,4.12,4.12,0,0,1,3.35,4.28Z"/><path class="cls-6" d="M48.56,155.75c-.11-.86-.64-2.09-3.46-5.23l-1.28-1.38c1.38,0,2.64-.11,3.68-.2,3.92-.31,4.56-.87,4.84-1.4a.93.93,0,0,0-.47-1.39c-.66-.35-1.91-.56-5.84-.74l-2.77-.1c.76-.77,1.46-1.49,2.06-2.13,2.68-2.87,3.26-4.05,3.32-4.8s-.41-1.07-1.26-1-2.09.63-5.23,3.46c-.39.35-.8.74-1.24,1.15,0-1.25-.11-2.39-.19-3.34-.31-3.91-.87-4.56-1.4-4.84a.93.93,0,0,0-1.39.47c-.35.67-.56,1.92-.73,5.84,0,.7-.07,1.48-.09,2.31-1.09-1-2.11-1.93-3-2.65-3-2.55-3.84-2.61-4.42-2.43a.92.92,0,0,0-.64,1.31c.22.72.95,1.75,3.6,4.65l1.7,1.84c-1,0-2,0-2.81,0-3.93.13-5.17.55-5.75,1s-.47,1,.21,1.58,1.93,1,6.14,1.25c.5,0,1.05.05,1.62.06-.91,1-1.72,1.88-2.37,2.65-2.55,3-2.61,3.84-2.43,4.41a.92.92,0,0,0,1.31.65c.72-.22,1.75-1,4.65-3.61.59-.54,1.27-1.16,2-1.84,0,1.16,0,2.24,0,3.18.13,3.92.55,5.17,1,5.74s1.05.47,1.58-.21,1-1.92,1.25-6.14c0-.63.06-1.32.08-2.06.65.64,1.27,1.24,1.83,1.76,2.87,2.67,4,3.26,4.79,3.32S48.66,156.6,48.56,155.75Z"/><path class="cls-5" d="M731.93,146.4l.22,2.12a10.54,10.54,0,0,0,9.38,9.38l2.12.22-2.12.22a10.54,10.54,0,0,0-9.38,9.38l-.22,2.12-.22-2.12a10.54,10.54,0,0,0-9.38-9.38l-2.12-.22,2.12-.22a10.54,10.54,0,0,0,9.38-9.38Z"/><path class="cls-5" d="M67.84,32.22,67.65,34a8.64,8.64,0,0,1-7.7,7.7l-1.74.18L60,42a8.64,8.64,0,0,1,7.7,7.7l.19,1.75L68,49.73a8.65,8.65,0,0,1,7.7-7.7l1.74-.18-1.74-.18A8.65,8.65,0,0,1,68,34Z"/><polygon class="cls-7" points="554.54 140.93 537.56 114.62 550.03 114.62 533.88 89.59 547.18 89.59 522.94 52.04 498.69 89.59 512 89.59 495.84 114.62 508.32 114.62 491.33 140.93 518.3 140.93 518.3 152.34 527.57 152.34 527.57 140.93 554.54 140.93"/><polygon class="cls-8" points="523.11 15.76 527.35 28.79 541.06 28.79 529.97 36.85 534.21 49.89 523.11 41.83 512.02 49.89 516.26 36.85 505.17 28.79 518.88 28.79 523.11 15.76"/></g></g></svg>