<svg xmlns="http://www.w3.org/2000/svg" viewBox="0 0 309.35 132.63"><defs><style>.cls-1{isolation:isolate;}.cls-2{fill:#7abe31;opacity:0.36;}.cls-3{fill:#e6e6e6;}.cls-4{fill:none;stroke:#5da028;stroke-miterlimit:10;stroke-width:4px;}.cls-5{fill:#ccc;mix-blend-mode:multiply;opacity:0.3;}.cls-6{fill:#439555;}</style></defs><g class="cls-1"><g id="Capa_2" data-name="Capa 2"><g id="Capa_1-2" data-name="Capa 1"><rect class="cls-2" y="11.16" width="303.1" height="121.47" rx="60.74"/><rect class="cls-3" x="4.25" y="2" width="303.1" height="121.47" rx="60.74"/><rect class="cls-4" x="4.25" y="2" width="303.1" height="121.47" rx="60.74"/><path class="cls-5" d="M297.87,30.15s7.79,56.82-38.82,77.22c0,0-26.23,13.67-70.66,14.89l66.29,1.21L271.77,118l14.64-9.41,11.07-12.68,6.57-13.41,3.2-16.41-1-14.92-2.78-9.86Z"/><path class="cls-6" d="M93.52,82.06Q91,74.65,88.31,68.49T81.39,53c-1-2.16-1.6-3.5-1.84-4a3.87,3.87,0,0,1-.37-1.72,2.62,2.62,0,0,1,.95-1.87,3,3,0,0,1,2.11-.92,2.32,2.32,0,0,1,2,1.17l3,6.74Q93.33,66.68,96,73.18l1.11-4.29c.89-3.76,1.84-7.48,2.82-11.16q4.16-15.07,8.21-15.08a2,2,0,0,1,1.26.43,1.47,1.47,0,0,1,.52,1.17,5.13,5.13,0,0,1-.77,2.14,33.47,33.47,0,0,0-1.93,5.09q-1.17,3.68-1.44,4.32c-.18.43-1.17,3.87-2.94,10.33s-3.3,11.52-4.57,15.2a3.28,3.28,0,0,1-3.09,2.27C94.43,83.6,93.89,83.09,93.52,82.06Z"/><path class="cls-6" d="M123.06,54.67q4.43,0,7.27,4.23A17.69,17.69,0,0,1,133.18,69a17.17,17.17,0,0,1-2.91,10.08A9.21,9.21,0,0,1,114.79,79a16.31,16.31,0,0,1-2.94-9.47q0-6.68,2.69-10.66A9.64,9.64,0,0,1,123.06,54.67Zm-.73,5a4.87,4.87,0,0,0-4.23,2.7,10.77,10.77,0,0,0-1.66,5.7c0,3.11.62,5.48,1.84,7.11a5.24,5.24,0,0,0,4.17,2.45c2.78,0,4.56-1.2,5.33-3.62a15.72,15.72,0,0,0,.49-4.29Q128.27,59.69,122.33,59.69Z"/><path class="cls-6" d="M136.76,43.54a5.73,5.73,0,0,1,.74-3,2.29,2.29,0,0,1,1.87-.71c1.75,0,2.63.72,2.63,2.15q0,1.65-.27,8.64t-.28,12.5a74.7,74.7,0,0,0,.43,8.89c.49,3.92,1.19,5.89,2.09,5.89s1.57-.64,2-1.9a3.51,3.51,0,0,1,1-1.32,2.51,2.51,0,0,1,1.71-.58c1.43,0,2.15,1.2,2.15,3.61a5.39,5.39,0,0,1-2.11,3.89,6.31,6.31,0,0,1-4.2,1.94,6.79,6.79,0,0,1-3.34-.71,5.17,5.17,0,0,1-2-2.11A17.83,17.83,0,0,1,137.93,78a14.14,14.14,0,0,1-.65-3.22c-.24-2-.42-5.32-.52-9.84s-.15-8.82-.15-12.93S136.66,45.07,136.76,43.54Z"/><path class="cls-6" d="M173,54.3a1.47,1.47,0,0,1,1.28.58,2.07,2.07,0,0,1,.43,1.26l-.06.61q-2.56,6.55-3.8,10.66c-.53,1.93-.93,3.36-1.19,4.3s-.71,2.59-1.32,5-1,3.9-1.23,4.6a3,3,0,0,1-3,2.08q-1,0-1.47-1.35a104.39,104.39,0,0,0-5.76-13.85q-3.81-7.73-4.32-8.86a4.92,4.92,0,0,1-.52-2,2.58,2.58,0,0,1,.82-1.78,2.55,2.55,0,0,1,1.87-.86,2.11,2.11,0,0,1,1.78,1.11q.67,1.35,3.83,7.54A88.89,88.89,0,0,1,164.8,73c0-.24.19-.75.43-1.53A157.56,157.56,0,0,1,170.32,56,3.09,3.09,0,0,1,173,54.3Z"/><path class="cls-6" d="M186.56,54.85a11.19,11.19,0,0,1,6.19,1.9q3,1.91,2.95,4.69a7.91,7.91,0,0,1-2.4,5.39A10.2,10.2,0,0,1,186.93,70a40.42,40.42,0,0,1-5.15.24q.67,5.22,2.64,6.87a2.12,2.12,0,0,0,1.65.67,8.93,8.93,0,0,0,6.38-2.42c1.71-1.61,2.94-2.42,3.67-2.42.33,0,.82.31,1.48.92a2.54,2.54,0,0,1,1,1.72q0,1.59-3.86,4.59a15.3,15.3,0,0,1-4.14,2.36,12.3,12.3,0,0,1-4.51,1q-5.32,0-7.84-6.86a26.09,26.09,0,0,1-1.6-9.32A15.74,15.74,0,0,1,179,58.53Q181.42,54.86,186.56,54.85Zm.31,4.23q-2.33,0-4,2.63a13,13,0,0,0-1.17,4.17q8.58,0,8.58-4.23Q190.3,59.08,186.87,59.08Z"/><path class="cls-6" d="M210,74.28l.06,6.31a2.74,2.74,0,0,1-1,2,3,3,0,0,1-2,.92c-.94,0-1.54-.74-1.78-2.21,0-.33-.21-3.32-.49-9A71.71,71.71,0,0,0,203.17,59a20.21,20.21,0,0,1-.55-2.76c0-1.35.82-2,2.45-2a2,2,0,0,1,1.66.79,3.82,3.82,0,0,1,.76,1.63,21.4,21.4,0,0,1,.28,2.24q.12,1.41.18,1.77a9.38,9.38,0,0,1,3.87-4.59,10.71,10.71,0,0,1,5.63-1.54q5,0,5,2.58a2.57,2.57,0,0,1-.89,2.05,3.06,3.06,0,0,1-2.05.77q-5.22,0-7.36,3.31T210,74.28Z"/></g></g></g></svg>