<svg xmlns="http://www.w3.org/2000/svg" viewBox="0 0 192.56 245.45"><defs><style>.cls-1{fill:#fff;}.cls-2{fill:#69a556;}.cls-3{fill:#030202;}.cls-4{fill:#030302;}.cls-5{fill:#fcd89a;}.cls-6{fill:#030303;}.cls-7{fill:#050505;}.cls-8{fill:#fd5c5c;}.cls-9{fill:#060503;}</style></defs><g id="Capa_2" data-name="Capa 2"><g id="Capa_1-2" data-name="Capa 1"><rect class="cls-1" y="164.52" width="192.56" height="80.93" rx="7.64"/><rect class="cls-2" x="3.97" y="3.5" width="185.07" height="185.07" rx="14.53"/><path class="cls-1" d="M174.51,7a11.06,11.06,0,0,1,11,11V174a11.07,11.07,0,0,1-11,11H18.5a11.06,11.06,0,0,1-11-11V18a11.06,11.06,0,0,1,11-11h156m0-7H18.5a18.05,18.05,0,0,0-18,18V174a18.05,18.05,0,0,0,18,18h156a18.05,18.05,0,0,0,18-18V18a18.05,18.05,0,0,0-18-18Z"/><path class="cls-1" d="M37,32.17a44.92,44.92,0,0,1-1,8.35q-1.41,7.63-1.52,8.23,0,.11-2.65,21Q30.13,73,28.39,73a2.65,2.65,0,0,1-2.27-1.73,7,7,0,0,1-.71-3q0-3.3,1.9-14,.17-.64,2-7.75a28.34,28.34,0,0,0,1.14-7.69l-.06-.54c-1-1.41-2-2.83-3-4.28a14.31,14.31,0,0,1,2.06-4.77c1.23-1.8,2.58-2.7,4.07-2.7,1.15,0,2,.7,2.7,2.11A8.25,8.25,0,0,1,37,32.17Z"/><path class="cls-3" d="M111.67,51.84A36.68,36.68,0,0,1,115.31,53a13.54,13.54,0,0,1,6.84,16.74,30.42,30.42,0,0,1-7,10.68,71.35,71.35,0,0,1-11.3,9.51,2.44,2.44,0,0,1-3,.12c-5.71-4-11-8.36-15.13-14-2.5-3.44-4.29-7.16-4.13-11.58A13.22,13.22,0,0,1,92.15,52.07c.17,0,.39,0,.44-.23h3.59c1,.32,2,.62,3,1s2,1.5,3,1.54,2-1.1,3.12-1.57c.83-.36,1.82-.28,2.54-.93ZM118.44,65a8.49,8.49,0,0,0-5.17-7.91c-3.28-1.45-6.34-.77-9,1.66-1.62,1.48-2.45,1.43-4.24-.16a8.25,8.25,0,0,0-13.55,3.89c-1,3.28-.12,6.21,1.56,9,3.48,5.69,8.44,9.93,13.72,13.84a.7.7,0,0,0,1,0,54.37,54.37,0,0,0,12.94-12.61A13.47,13.47,0,0,0,118.44,65Z"/><path class="cls-4" d="M64.82,164.52c-.34,1.51-1.28,2.35-2.47,2.2s-2-1.11-2.05-2.64,0-2.85,0-4.27a10.69,10.69,0,0,0-3.52-8.4,29.89,29.89,0,0,1-7.92-11.52c-1.27-3.49-1.72-7.18-2.49-10.79-.52-2.48-1-5-1.43-7.48A7.55,7.55,0,0,1,57.77,115l.33.31c.29-.3.14-.65.14-1,0-5.46,0-10.92,0-16.38a7.42,7.42,0,0,1,6.85-7.64,5.81,5.81,0,0,1,2.65.29c.75.26.92.07.94-.7a7.25,7.25,0,0,1,3.59-6.44,7.42,7.42,0,0,1,11.3,5.92c0,.44,0,.89,0,1.45a8.44,8.44,0,0,1,5-.26c3.4,1,5.37,3.73,5.45,7.58,0,1.27,0,2.54,0,3.81,0,.73.22.78.84.6a7.15,7.15,0,0,1,6.82,1.35c.32.25.57.43,1,.1a7.38,7.38,0,0,1,7.45-1.33c.06,0,.13,0,.39-.06,0-1.83-.12-3.7,0-5.56A7.33,7.33,0,0,1,120,90.61c.25.07.5.11.83.17A8,8,0,0,1,122.64,85a7.4,7.4,0,0,1,7.91-2.3,7.31,7.31,0,0,1,5.16,6.38c.14,1.58.14,1.58,1.74,1.32a7.42,7.42,0,0,1,8.77,7.51c.05,5.76,0,11.52,0,17.33.45,0,.61-.42.86-.64,4.16-3.66,10.93-1.74,12.23,3.57a13.72,13.72,0,0,1-.27,6.1c-1,4.59-1.63,9.26-2.87,13.8a27.75,27.75,0,0,1-8,12.86,11.83,11.83,0,0,0-3.68,5.77,20.31,20.31,0,0,0-.31,4.8c0,.86,0,1.72,0,2.58,0,1.53-.78,2.49-2.05,2.64s-2.13-.69-2.47-2.2c0-1.72,0-3.44,0-5.16a15.51,15.51,0,0,1,.82-5.06,17.29,17.29,0,0,1,4.91-7,23.67,23.67,0,0,0,7.05-12.85c.87-4.39,1.72-8.79,2.58-13.19.4-2.06-.5-3.62-2.34-4a3.21,3.21,0,0,0-3.7,2.63c-.42,1.63-.85,3.25-1.18,4.9a3.92,3.92,0,0,1-2,2.7c-1.44.86-2.85,1.78-4.31,2.62a8.79,8.79,0,0,0-4.72,7.51,2.2,2.2,0,0,1-2.35,2.31,2.25,2.25,0,0,1-2.11-2.54,13.14,13.14,0,0,1,2.85-7.75c1.56-2,3.72-3.21,5.83-4.47a1.25,1.25,0,0,0,.72-1.22c0-8.64,0-17.28,0-25.92a3.28,3.28,0,0,0-.29-1.52,2.89,2.89,0,0,0-3.23-1.64,2.85,2.85,0,0,0-2.4,3.05c0,3.48,0,7,0,10.43,0,2.12-.81,3.23-2.29,3.2s-2.21-1.09-2.21-3.16V90.75a10,10,0,0,0-.06-1.34,2.91,2.91,0,0,0-4.59-2,3.25,3.25,0,0,0-1.32,2.92q0,13.35,0,26.7c0,1.67-.83,2.67-2.19,2.71s-2.29-1-2.29-2.72q0-9.25,0-18.51c0-.3,0-.6,0-.9A3,3,0,0,0,119,95a2.77,2.77,0,0,0-3.12.57,3.53,3.53,0,0,0-1,2.86q0,9,0,18.07a7.7,7.7,0,0,1-.11,1.44,2.1,2.1,0,0,1-2.45,1.74c-1.2-.16-1.89-1-1.92-2.48,0-2.43,0-4.86,0-7.29a3,3,0,0,0-1.23-2.62,2.72,2.72,0,0,0-3-.3,3,3,0,0,0-1.76,2.89q0,11.28,0,22.56a23.7,23.7,0,0,0,7.21,16.74,14,14,0,0,1,3.83,8.17c.3,2.39,0,4.78.19,7.17-.5,1.57-1.27,2.28-2.39,2.23a2.28,2.28,0,0,1-2.14-2.42c-.07-2,.09-4-.1-6a9.78,9.78,0,0,0-2.58-5.93,31.81,31.81,0,0,1-6.24-9.12c-.54,1-1,1.91-1.42,2.73a28.32,28.32,0,0,1-4.37,5.79,11.06,11.06,0,0,0-3.19,8.31c0,1.23,0,2.47,0,3.7,0,1.83-.59,2.72-1.92,2.94s-2.08-.52-2.61-2.19c0-1.23.09-2.47,0-3.7a16.19,16.19,0,0,1,4.79-12.58,22.92,22.92,0,0,0,6.42-16.7c0-6.55,0-13.1,0-19.64,0-.79,0-1.57,0-2.36a3,3,0,1,0-5.92.37c0,2.47,0,4.94,0,7.41a2.2,2.2,0,0,1-2.13,2.4,2.25,2.25,0,0,1-2.33-2.33c0-.34,0-.67,0-1q0-9,0-18a3.92,3.92,0,0,0-.31-2,2.86,2.86,0,0,0-3.35-1.57,2.92,2.92,0,0,0-2.27,3.05c0,4.61,0,9.21,0,13.81,0,1.87,0,3.74,0,5.61A2.19,2.19,0,0,1,81,119.66c-1.23-.21-1.85-1.12-1.85-2.77V90.63a10.42,10.42,0,0,0,0-1.12,3,3,0,0,0-4.64-2.12,3.43,3.43,0,0,0-1.31,3.15q0,13,0,25.92a8.69,8.69,0,0,1-.1,1.45,2.17,2.17,0,0,1-4.27.08,7,7,0,0,1-.12-1.45q0-9.2,0-18.4a3.13,3.13,0,0,0-1.19-2.76A2.72,2.72,0,0,0,64.54,95a3.12,3.12,0,0,0-1.81,3c0,7.67,0,15.34,0,23,0,1.23-.36,2.67.16,3.63s1.92,1.32,2.92,2a13,13,0,0,1,6.29,10.53c.12,1.61-.73,2.7-2.09,2.78s-2.26-.82-2.36-2.41a8.72,8.72,0,0,0-4.52-7.29c-1.51-.9-3-1.83-4.5-2.74a3.92,3.92,0,0,1-2-2.7c-.34-1.68-.78-3.34-1.22-5a3.16,3.16,0,0,0-3.65-2.53,3.13,3.13,0,0,0-2.37,3.93c.49,2.53,1,5.06,1.48,7.58a80.23,80.23,0,0,0,2,9.07,25,25,0,0,0,7,10.37,14.25,14.25,0,0,1,4.74,9.15C64.89,159.72,64.78,162.12,64.82,164.52Z"/><path class="cls-5" d="M115.72,164.51c-.15-2.39.11-4.78-.19-7.17a14,14,0,0,0-3.83-8.17,23.7,23.7,0,0,1-7.21-16.74q0-11.28,0-22.56a3,3,0,0,1,1.76-2.89,2.72,2.72,0,0,1,3,.3,3,3,0,0,1,1.23,2.62c0,2.43,0,4.86,0,7.29,0,1.47.72,2.32,1.92,2.48a2.1,2.1,0,0,0,2.45-1.74,7.7,7.7,0,0,0,.11-1.44q0-9,0-18.07a3.53,3.53,0,0,1,1-2.86A2.77,2.77,0,0,1,119,95a3,3,0,0,1,1.84,2.6c0,.3,0,.6,0,.9q0,9.26,0,18.51c0,1.72.88,2.75,2.29,2.72s2.19-1,2.19-2.71q0-13.35,0-26.7a3.25,3.25,0,0,1,1.32-2.92,2.91,2.91,0,0,1,4.59,2,10,10,0,0,1,.06,1.34v17.62c0,2.07.74,3.13,2.21,3.16s2.29-1.08,2.29-3.2c0-3.47,0-7,0-10.43a2.85,2.85,0,0,1,2.4-3.05,2.89,2.89,0,0,1,3.23,1.64,3.28,3.28,0,0,1,.29,1.52c0,8.64,0,17.28,0,25.92a1.25,1.25,0,0,1-.72,1.22c-2.11,1.26-4.27,2.47-5.83,4.47a13.14,13.14,0,0,0-2.85,7.75,2.25,2.25,0,0,0,2.11,2.54,2.2,2.2,0,0,0,2.35-2.31,8.79,8.79,0,0,1,4.72-7.51c1.46-.84,2.87-1.76,4.31-2.62a3.92,3.92,0,0,0,2-2.7c.33-1.65.76-3.27,1.18-4.9a3.21,3.21,0,0,1,3.7-2.63c1.84.42,2.74,2,2.34,4-.86,4.4-1.71,8.8-2.58,13.19a23.67,23.67,0,0,1-7.05,12.85,17.29,17.29,0,0,0-4.91,7,15.51,15.51,0,0,0-.82,5.06c0,1.72,0,3.44,0,5.16Zm17.8-49.21a2.19,2.19,0,0,0-2.17,2.21,2.21,2.21,0,1,0,4.41-.07A2.19,2.19,0,0,0,133.52,115.3Z"/><path class="cls-5" d="M64.82,164.52c0-2.4.07-4.8-.15-7.18a14.25,14.25,0,0,0-4.74-9.15,25,25,0,0,1-7-10.37,80.23,80.23,0,0,1-2-9.07c-.53-2.52-1-5-1.48-7.58a3.13,3.13,0,0,1,2.37-3.93,3.16,3.16,0,0,1,3.65,2.53c.44,1.66.88,3.32,1.22,5a3.92,3.92,0,0,0,2,2.7c1.5.91,3,1.84,4.5,2.74a8.72,8.72,0,0,1,4.52,7.29c.1,1.59,1,2.48,2.36,2.41s2.21-1.17,2.09-2.78a13,13,0,0,0-6.29-10.53c-1-.65-2.43-1-2.92-2s-.16-2.4-.16-3.63c0-7.67,0-15.34,0-23a3.12,3.12,0,0,1,1.81-3,2.72,2.72,0,0,1,2.95.37,3.13,3.13,0,0,1,1.19,2.76q0,9.19,0,18.4A7,7,0,0,0,68.8,118a2.17,2.17,0,0,0,4.27-.08,8.69,8.69,0,0,0,.1-1.45q0-13,0-25.92a3.43,3.43,0,0,1,1.31-3.15,3,3,0,0,1,4.64,2.12,10.42,10.42,0,0,1,0,1.12v26.26c0,1.65.62,2.56,1.85,2.77a2.19,2.19,0,0,0,2.63-2.31c0-1.87,0-3.74,0-5.61,0-4.6,0-9.2,0-13.81a2.92,2.92,0,0,1,2.27-3.05,2.86,2.86,0,0,1,3.35,1.57,3.92,3.92,0,0,1,.31,2q0,9,0,18c0,.34,0,.67,0,1a2.25,2.25,0,0,0,2.33,2.33,2.2,2.2,0,0,0,2.13-2.4c.06-2.47,0-4.94,0-7.41a3,3,0,1,1,5.92-.37c0,.79,0,1.57,0,2.36,0,6.54,0,13.09,0,19.64a22.92,22.92,0,0,1-6.42,16.7,16.19,16.19,0,0,0-4.79,12.58c.06,1.23,0,2.47,0,3.7Z"/><path class="cls-6" d="M138.71,68.43c-.52,0-1.05,0-1.57,0A2.27,2.27,0,0,1,135,66.22a2.24,2.24,0,0,1,2.1-2.23,21.89,21.89,0,0,1,3,0,2.22,2.22,0,0,1,0,4.43A11.84,11.84,0,0,1,138.71,68.43Z"/><path class="cls-7" d="M61.19,70.84c0,.52,0,1,0,1.56a2.19,2.19,0,0,1-2,2,2.13,2.13,0,0,1-2.28-1.7,8.87,8.87,0,0,1,0-3.87,2.11,2.11,0,0,1,2.2-1.66,2.19,2.19,0,0,1,2.08,2,15.49,15.49,0,0,1,0,1.67Z"/><path class="cls-7" d="M65.71,79.69a15.51,15.51,0,0,1-1.67,0,2.18,2.18,0,0,1-.23-4.3,9.54,9.54,0,0,1,3.65,0,2.07,2.07,0,0,1,1.81,2.29,2.14,2.14,0,0,1-2,2c-.51,0-1,0-1.56,0Z"/><path class="cls-7" d="M61.18,84.23a13.53,13.53,0,0,1,0,1.56,2.14,2.14,0,0,1-2,2,2.06,2.06,0,0,1-2.26-1.71,9.16,9.16,0,0,1,0-3.76,2.15,2.15,0,0,1,2.25-1.74,2.18,2.18,0,0,1,2.05,2A15.52,15.52,0,0,1,61.18,84.23Z"/><path class="cls-6" d="M147.55,59.56a11.75,11.75,0,0,1,0,1.57,2.18,2.18,0,0,1-2.18,2,2.13,2.13,0,0,1-2.21-2,18.45,18.45,0,0,1,0-3.24,2.21,2.21,0,0,1,2.18-2,2.27,2.27,0,0,1,2.24,2.1c0,.52,0,1,0,1.57Z"/><path class="cls-6" d="M152,68.47a13.41,13.41,0,0,1-1.68-.08,2.16,2.16,0,0,1-1.86-2.18A2.08,2.08,0,0,1,150.28,64a16.77,16.77,0,0,1,3.47,0,2.16,2.16,0,0,1,1.89,2.16,2.22,2.22,0,0,1-1.89,2.18,11.87,11.87,0,0,1-1.79,0Z"/><path class="cls-6" d="M147.56,72.92a14,14,0,0,1,0,1.45,2.28,2.28,0,0,1-2.19,2.15,2.24,2.24,0,0,1-2.24-2.09,19.24,19.24,0,0,1,0-3.13,2.16,2.16,0,0,1,2.17-2,2.2,2.2,0,0,1,2.24,2.06,13.68,13.68,0,0,1,0,1.57Z"/><path class="cls-7" d="M52.25,79.76c-.56,0-1.12,0-1.67-.09a2.23,2.23,0,0,1-1.91-2.14,2.19,2.19,0,0,1,1.75-2.15,9.57,9.57,0,0,1,3.77,0A2.2,2.2,0,0,1,56,77.52,2.25,2.25,0,0,1,54,79.67C53.45,79.75,52.85,79.73,52.25,79.76Z"/><path class="cls-8" d="M118.44,65a13.47,13.47,0,0,1-2.76,7.66,54.37,54.37,0,0,1-12.94,12.61.7.7,0,0,1-1,0C96.48,81.35,91.52,77.11,88,71.42c-1.68-2.75-2.57-5.68-1.56-9A8.25,8.25,0,0,1,100,58.57c1.79,1.59,2.62,1.64,4.24.16,2.66-2.43,5.72-3.11,9-1.66A8.49,8.49,0,0,1,118.44,65Z"/><path class="cls-9" d="M133.52,115.3a2.19,2.19,0,0,1,2.24,2.14,2.21,2.21,0,1,1-4.41.07A2.19,2.19,0,0,1,133.52,115.3Z"/><path d="M45.61,192.15a4.08,4.08,0,0,1,2.84,1.07q2.29,2.06,2.29,6.48a9.37,9.37,0,0,1-2.53,7,4.71,4.71,0,0,1-3,1.39,4.29,4.29,0,0,1-3.53-1.56A9.39,9.39,0,0,1,39.84,203a14.08,14.08,0,0,1-.53-3.71,8.29,8.29,0,0,1,1.45-5A5.59,5.59,0,0,1,45.61,192.15Zm-.17,2a3.73,3.73,0,0,0-4,3,7.92,7.92,0,0,0-.23,2.08,10.73,10.73,0,0,0,.47,2.93,5.69,5.69,0,0,0,1.91,3.16,2.86,2.86,0,0,0,1.79.57,2.51,2.51,0,0,0,1.89-.94,5.18,5.18,0,0,0,1.15-2.4,14.53,14.53,0,0,0,.31-2.94,8.78,8.78,0,0,0-.76-4.06A2.63,2.63,0,0,0,45.44,194.13Z"/><path d="M55.56,204.54l0,2.46a1,1,0,0,1-.4.78,1.16,1.16,0,0,1-.77.36c-.37,0-.6-.28-.69-.86,0-.12-.08-1.29-.2-3.49a27.78,27.78,0,0,0-.64-5.2,8.1,8.1,0,0,1-.21-1.07c0-.53.31-.79,1-.79a.76.76,0,0,1,.64.31,1.51,1.51,0,0,1,.3.63c0,.22.08.51.11.88s.06.59.07.69a3.68,3.68,0,0,1,1.51-1.79,4.17,4.17,0,0,1,2.19-.6c1.31,0,2,.33,2,1a1,1,0,0,1-.35.8,1.17,1.17,0,0,1-.8.3,3.15,3.15,0,0,0-2.86,1.29A8.21,8.21,0,0,0,55.56,204.54Z"/><path d="M68.34,196.87c.7,0,1,.6,1,1.79v.41l0,1.67c0,.53,0,1,0,1.55l.35,5.4c0,.4-.4.6-1.21.6h-.35a.4.4,0,0,1-.38-.22.75.75,0,0,1,0-.52,1.08,1.08,0,0,0-.06-.7A3.8,3.8,0,0,1,64.73,208c-2.24,0-3.37-1.73-3.37-5.2a7.37,7.37,0,0,1,1.09-4.37A3.63,3.63,0,0,1,65.57,197a5.86,5.86,0,0,1,1.91.33A1,1,0,0,1,68.34,196.87Zm-2.49,2.18a2.54,2.54,0,0,0-2,.78,4.66,4.66,0,0,0-.66,2.89c0,2.36.63,3.54,1.91,3.54a1.9,1.9,0,0,0,1.11-.46,2.5,2.5,0,0,0,.84-1,8.51,8.51,0,0,0,.46-2.82,5.05,5.05,0,0,0-.37-2.22A1.32,1.32,0,0,0,65.85,199.05Z"/><path d="M71.55,199.52a5.44,5.44,0,0,1,2.16-2,5.74,5.74,0,0,1,2.55-.65,5.54,5.54,0,0,1,2,.3q.75.3.75.78a1.9,1.9,0,0,1-.28,1,.81.81,0,0,1-.73.49,4.34,4.34,0,0,1-.91-.27,4.41,4.41,0,0,0-1-.28,3.15,3.15,0,0,0-2.36,1,3.66,3.66,0,0,0-1,2.68,4.72,4.72,0,0,0,.53,2.5,2,2,0,0,0,1.85.82,5.12,5.12,0,0,0,1.81-.61,6.15,6.15,0,0,1,1.58-.61.69.69,0,0,1,.51.2.65.65,0,0,1,.19.47,1.72,1.72,0,0,1-.73,1.21,6.28,6.28,0,0,1-1.8,1,5.4,5.4,0,0,1-1.94.42,3.47,3.47,0,0,1-3-1.51,6.83,6.83,0,0,1-1.09-4.1A5.25,5.25,0,0,1,71.55,199.52Z"/><path d="M81.87,192.94a1.09,1.09,0,0,1,.81.4,1.21,1.21,0,0,1,.39.85,1.33,1.33,0,0,1-.42.89,1.18,1.18,0,0,1-.87.46,1.15,1.15,0,0,1-.83-.38,1.36,1.36,0,0,1-.37-1c0-.77.42-1.18,1.24-1.24Zm1,12.51,0,1.67a.94.94,0,0,1-.36.75,1.16,1.16,0,0,1-.76.3.55.55,0,0,1-.62-.6q-.31-7.62-.32-8.43c0-.54,0-1.2.08-2,0-.29.21-.43.55-.43.84,0,1.32.34,1.43,1a6.1,6.1,0,0,1,.07.83l-.1,1.51Z"/><path d="M89.87,196.9a3.32,3.32,0,0,1,2.83,1.65,6.87,6.87,0,0,1,1.11,3.95,6.64,6.64,0,0,1-1.14,3.92,3.48,3.48,0,0,1-3,1.63,3.52,3.52,0,0,1-3-1.66,6.33,6.33,0,0,1-1.15-3.69,7.27,7.27,0,0,1,1-4.15A3.75,3.75,0,0,1,89.87,196.9Zm-.29,2a1.87,1.87,0,0,0-1.64,1,4.18,4.18,0,0,0-.65,2.22A4.55,4.55,0,0,0,88,204.9a2,2,0,0,0,1.62.95,2,2,0,0,0,2.08-1.41,6.45,6.45,0,0,0,.19-1.67Q91.9,198.86,89.58,198.86Zm.15-6.66a.56.56,0,0,1,.6-.41.94.94,0,0,1,.74.29.76.76,0,0,1,.28.46.85.85,0,0,1,0,.3,5.72,5.72,0,0,1-1.28,2c-.59.64-1,.95-1.37.95a1,1,0,0,1-.71-.23.78.78,0,0,1-.24-.57.76.76,0,0,1,.38-.6A5,5,0,0,0,89.73,192.2Z"/><path d="M96.17,207.28l-.26-9.69a1,1,0,0,1,.31-.74.93.93,0,0,1,.62-.29.77.77,0,0,1,.88.65,8.28,8.28,0,0,1,.1,1.34,3.9,3.9,0,0,1,3.22-1.7c2,0,3,2.25,3,6.76v1.87a8.78,8.78,0,0,1-.14,1.83.92.92,0,0,1-1,.71c-.38,0-.57-.25-.57-.76l0-1.34a25.88,25.88,0,0,0-.18-3.78,14.82,14.82,0,0,0-.34-1.61c-.27-.86-.71-1.29-1.31-1.29a1.75,1.75,0,0,0-1.68.86,5.29,5.29,0,0,0-.62,2.19C98,203.77,98,205.34,98,207a.92.92,0,0,1-.36.76,1.35,1.35,0,0,1-.86.29C96.37,208.05,96.17,207.79,96.17,207.28Z"/><path d="M115.32,208a2.38,2.38,0,0,1-1.51-.55l-.31-.26v7.16a1.68,1.68,0,0,1-.5.8,1.14,1.14,0,0,1-.76.32c-.42,0-.62-.28-.62-.83V198a2.42,2.42,0,0,1,.34-.89.79.79,0,0,1,.65-.26.66.66,0,0,1,.57.2,4.15,4.15,0,0,1,.32,1.11,1.49,1.49,0,0,1,.77-.88,3.41,3.41,0,0,1,1.79-.41,3.68,3.68,0,0,1,3.46,1.77,8.21,8.21,0,0,1,1,4.17,5.12,5.12,0,0,1-1.4,3.79A5.18,5.18,0,0,1,115.32,208Zm-1.82-7.16v4.44a1.81,1.81,0,0,1,.34.24,2.22,2.22,0,0,0,1.5.62q3.3,0,3.3-3.39c0-1.93-.5-3.15-1.48-3.66a3.26,3.26,0,0,0-1.53-.33,2.49,2.49,0,0,0-1.51.78A1.92,1.92,0,0,0,113.5,200.84Z"/><path d="M128.42,196.87c.7,0,1.05.6,1.05,1.79v.41l0,1.67c0,.53,0,1,0,1.55l.36,5.4c0,.4-.4.6-1.22.6h-.34a.39.39,0,0,1-.38-.22.7.7,0,0,1,0-.52,1.08,1.08,0,0,0-.06-.7,3.8,3.8,0,0,1-2.91,1.17q-3.37,0-3.37-5.2a7.37,7.37,0,0,1,1.09-4.37,3.62,3.62,0,0,1,3.12-1.48,5.76,5.76,0,0,1,1.9.33A1,1,0,0,1,128.42,196.87Zm-2.48,2.18a2.53,2.53,0,0,0-2,.78,4.65,4.65,0,0,0-.67,2.89c0,2.36.64,3.54,1.91,3.54a1.86,1.86,0,0,0,1.11-.46,2.45,2.45,0,0,0,.85-1,8.51,8.51,0,0,0,.45-2.82,4.91,4.91,0,0,0-.37-2.22A1.29,1.29,0,0,0,125.94,199.05Z"/><path d="M134.2,204.54l0,2.46a1.05,1.05,0,0,1-.4.78,1.16,1.16,0,0,1-.77.36c-.37,0-.6-.28-.7-.86,0-.12-.08-1.29-.19-3.49a27.78,27.78,0,0,0-.64-5.2,7.25,7.25,0,0,1-.22-1.07c0-.53.32-.79,1-.79a.76.76,0,0,1,.64.31,1.51,1.51,0,0,1,.3.63c0,.22.08.51.11.88s.05.59.07.69a3.66,3.66,0,0,1,1.5-1.79,4.2,4.2,0,0,1,2.2-.6c1.31,0,2,.33,2,1a1,1,0,0,1-.35.8,1.19,1.19,0,0,1-.8.3,3.14,3.14,0,0,0-2.86,1.29A8.21,8.21,0,0,0,134.2,204.54Z"/><path d="M147,196.87c.7,0,1.05.6,1.05,1.79v.41l0,1.67c0,.53,0,1,0,1.55l.36,5.4c0,.4-.41.6-1.22.6h-.34a.41.41,0,0,1-.39-.22.7.7,0,0,1,0-.52,1.08,1.08,0,0,0-.06-.7,3.8,3.8,0,0,1-2.91,1.17q-3.37,0-3.37-5.2a7.3,7.3,0,0,1,1.09-4.37A3.61,3.61,0,0,1,144.2,197a5.77,5.77,0,0,1,1.91.33A1,1,0,0,1,147,196.87Zm-2.48,2.18a2.53,2.53,0,0,0-2,.78,4.65,4.65,0,0,0-.67,2.89c0,2.36.64,3.54,1.91,3.54a1.86,1.86,0,0,0,1.11-.46,2.45,2.45,0,0,0,.85-1,8.51,8.51,0,0,0,.45-2.82,4.91,4.91,0,0,0-.37-2.22A1.29,1.29,0,0,0,144.49,199.05Z"/><path d="M40.13,222.45l1.19,0a3,3,0,0,0,.46,0v-4.9a.9.9,0,0,1,.4-.69,1.24,1.24,0,0,1,.72-.28.73.73,0,0,1,.54.21.88.88,0,0,1,.17.67c0,.3,0,2,0,5l2.79-.09c.48,0,.72.28.72.83a1.15,1.15,0,0,1-.37.94,1.41,1.41,0,0,1-.79.33c-.28,0-.55,0-.82,0l-1.46,0q0,1,.21,3.87c.13,1.92.24,3.17.32,3.73a3.69,3.69,0,0,1,.05,1.1.55.55,0,0,1-.27.35,2.07,2.07,0,0,1-.83.14.59.59,0,0,1-.62-.57,74.53,74.53,0,0,1-.65-8.6c-.14,0-.69,0-1.64,0s-1.44-.28-1.44-.84C38.79,222.85,39.24,222.45,40.13,222.45Z"/><path d="M52,222.47a3.3,3.3,0,0,1,2.83,1.65,6.89,6.89,0,0,1,1.11,3.95A6.72,6.72,0,0,1,54.78,232a3.59,3.59,0,0,1-6,0,6.28,6.28,0,0,1-1.15-3.69,7.29,7.29,0,0,1,1-4.15A3.76,3.76,0,0,1,52,222.47Zm-.29,2a1.9,1.9,0,0,0-1.64,1,4.18,4.18,0,0,0-.65,2.22,4.55,4.55,0,0,0,.72,2.77,2,2,0,0,0,1.62.95,2,2,0,0,0,2.08-1.4,6.14,6.14,0,0,0,.19-1.67Q54,224.44,51.68,224.43Z"/><path d="M63.07,222.42l0-4.6c0-.86.27-1.29.82-1.29s.86.24.92.71q0,.31.12,3.75c0,2.29.12,4.44.23,6.45s.15,3.87.15,5.61c0,.48-.36.71-1.07.71-.48,0-.72-.33-.72-1a3.79,3.79,0,0,1-2.43.81,3.58,3.58,0,0,1-2.9-1.33,5,5,0,0,1-1.11-3.3,8.43,8.43,0,0,1,.8-3.66,4.77,4.77,0,0,1,2.49-2.45,5,5,0,0,1,2.72-.41Zm.13,3.26a2.35,2.35,0,0,0-.42-.78.91.91,0,0,0-.51-.34,3.1,3.1,0,0,0-.66-.06,2.16,2.16,0,0,0-.93.29,2.44,2.44,0,0,0-.93.93,5.22,5.22,0,0,0-.76,2.71,4.29,4.29,0,0,0,.56,2.31,1.78,1.78,0,0,0,1.6.9,1.8,1.8,0,0,0,1.63-1,5.13,5.13,0,0,0,.6-2.62A9,9,0,0,0,63.2,225.68Z"/><path d="M70.9,222.47a3.3,3.3,0,0,1,2.83,1.65,6.89,6.89,0,0,1,1.11,3.95A6.72,6.72,0,0,1,73.71,232a3.59,3.59,0,0,1-6,0,6.28,6.28,0,0,1-1.15-3.69,7.29,7.29,0,0,1,1-4.15A3.76,3.76,0,0,1,70.9,222.47Zm-.28,2a1.9,1.9,0,0,0-1.65,1,4.18,4.18,0,0,0-.65,2.22,4.55,4.55,0,0,0,.72,2.77,2,2,0,0,0,1.62.95,1.94,1.94,0,0,0,2.08-1.4,6.14,6.14,0,0,0,.19-1.67Q72.93,224.44,70.62,224.43Z"/><path d="M77.71,223.24A3.49,3.49,0,0,1,80,222.4a6.92,6.92,0,0,1,2.55.48c.81.32,1.21.74,1.21,1.26a.77.77,0,0,1-.31.65A.91.91,0,0,1,83,225h-.36a5.52,5.52,0,0,1-1-.45,3.38,3.38,0,0,0-1.51-.43,2,2,0,0,0-1.18.35,1.15,1.15,0,0,0-.49,1,1.18,1.18,0,0,0,.56,1.05,5.46,5.46,0,0,0,2,.66,5.84,5.84,0,0,1,2.16.78,2.07,2.07,0,0,1,.75,1.86,3.37,3.37,0,0,1-1,2.8,3.92,3.92,0,0,1-2.52.83,7,7,0,0,1-2.52-.41c-.69-.27-1-.67-1-1.22a.82.82,0,0,1,.93-.93,3.77,3.77,0,0,1,1.05.34,4.22,4.22,0,0,0,1.61.33,1.49,1.49,0,0,0,1.22-.51A1.86,1.86,0,0,0,82,229.9a1,1,0,0,0-.55-1,5.61,5.61,0,0,0-1.67-.49,8,8,0,0,1-1.64-.41,2.43,2.43,0,0,1-1.44-2.55A2.75,2.75,0,0,1,77.71,223.24Z"/><path d="M90.92,218.14a2.15,2.15,0,0,1,.29-1.17.89.89,0,0,1,.72-.27c.69,0,1,.27,1,.83s0,1.55-.11,3.37-.1,3.43-.1,4.87a29.17,29.17,0,0,0,.16,3.46c.19,1.53.46,2.29.81,2.29s.62-.25.79-.74a1.42,1.42,0,0,1,.38-.51,1,1,0,0,1,.67-.23q.84,0,.84,1.41a2.1,2.1,0,0,1-.83,1.51,2.4,2.4,0,0,1-1.63.76,2.67,2.67,0,0,1-1.3-.28,2,2,0,0,1-.79-.82,7.46,7.46,0,0,1-.48-1.06,5.61,5.61,0,0,1-.25-1.26c-.09-.79-.16-2.07-.2-3.83s-.06-3.44-.06-5S90.88,218.74,90.92,218.14Z"/><path d="M101.55,222.47a3.3,3.3,0,0,1,2.83,1.65,6.89,6.89,0,0,1,1.11,3.95,6.72,6.72,0,0,1-1.13,3.93,3.59,3.59,0,0,1-6,0,6.34,6.34,0,0,1-1.14-3.69,7.29,7.29,0,0,1,1-4.15A3.73,3.73,0,0,1,101.55,222.47Zm-.28,2a1.9,1.9,0,0,0-1.65,1A4.17,4.17,0,0,0,99,227.7a4.55,4.55,0,0,0,.71,2.77,2,2,0,0,0,1.63.95,1.94,1.94,0,0,0,2.07-1.4,6.14,6.14,0,0,0,.19-1.67Q103.58,224.44,101.27,224.43Z"/><path d="M108.36,223.24a3.51,3.51,0,0,1,2.33-.84,6.86,6.86,0,0,1,2.54.48c.81.32,1.22.74,1.22,1.26a.8.8,0,0,1-.31.65,1,1,0,0,1-.54.24h-.36a5.25,5.25,0,0,1-.95-.45,3.42,3.42,0,0,0-1.52-.43,2,2,0,0,0-1.18.35,1.15,1.15,0,0,0-.49,1,1.18,1.18,0,0,0,.56,1.05,5.46,5.46,0,0,0,2,.66,5.84,5.84,0,0,1,2.16.78,2.07,2.07,0,0,1,.75,1.86,3.34,3.34,0,0,1-1,2.8,3.92,3.92,0,0,1-2.52.83,6.91,6.91,0,0,1-2.51-.41c-.7-.27-1-.67-1-1.22a.82.82,0,0,1,.93-.93,3.67,3.67,0,0,1,1,.34,4.25,4.25,0,0,0,1.61.33,1.49,1.49,0,0,0,1.22-.51,1.81,1.81,0,0,0,.42-1.18,1,1,0,0,0-.55-1,5.8,5.8,0,0,0-1.67-.49,8.1,8.1,0,0,1-1.65-.41,2.43,2.43,0,0,1-1.43-2.55A2.75,2.75,0,0,1,108.36,223.24Z"/><path d="M127.34,222.42l0-4.6c0-.86.28-1.29.83-1.29s.85.24.92.71q0,.31.12,3.75c0,2.29.12,4.44.22,6.45s.16,3.87.16,5.61c0,.48-.36.71-1.08.71-.47,0-.71-.33-.71-1a3.84,3.84,0,0,1-2.44.81,3.59,3.59,0,0,1-2.9-1.33,5,5,0,0,1-1.11-3.3,8.58,8.58,0,0,1,.8-3.66,4.78,4.78,0,0,1,2.5-2.45,5.12,5.12,0,0,1,2-.45A5.32,5.32,0,0,1,127.34,222.42Zm.13,3.26a2.35,2.35,0,0,0-.42-.78.94.94,0,0,0-.51-.34,3.16,3.16,0,0,0-.66-.06,2.16,2.16,0,0,0-.93.29,2.31,2.31,0,0,0-.93.93,5.23,5.23,0,0,0-.77,2.71,4.2,4.2,0,0,0,.57,2.31,1.77,1.77,0,0,0,1.6.9,1.81,1.81,0,0,0,1.63-1,5.13,5.13,0,0,0,.6-2.62A9,9,0,0,0,127.47,225.68Z"/><path d="M132.64,217.75a.58.58,0,0,1,.61-.41,1,1,0,0,1,.74.29.78.78,0,0,1,.27.46.85.85,0,0,1,0,.3,5.83,5.83,0,0,1-1.27,2c-.6.64-1.06,1-1.38,1a1,1,0,0,1-.71-.23.78.78,0,0,1-.24-.57.87.87,0,0,1,.38-.63A4.86,4.86,0,0,0,132.64,217.75Zm.88,13.27,0,1.67a1,1,0,0,1-.35.75,1.19,1.19,0,0,1-.77.3.55.55,0,0,1-.62-.6q-.31-7.6-.31-8.42c0-.54,0-1.2.07-2,0-.29.22-.43.55-.43.84,0,1.32.34,1.43,1a6.4,6.4,0,0,1,.08.84l-.1,1.5Z"/><path d="M143,222.45c.7,0,1.05.6,1.05,1.79v.41l-.05,1.67c0,.52,0,1,0,1.55l.36,5.39c0,.4-.41.6-1.22.6h-.35a.39.39,0,0,1-.38-.21.73.73,0,0,1,0-.53,1.2,1.2,0,0,0-.06-.69,3.81,3.81,0,0,1-2.91,1.17q-3.37,0-3.37-5.21a7.32,7.32,0,0,1,1.09-4.37,3.64,3.64,0,0,1,3.11-1.48,5.83,5.83,0,0,1,1.91.34A1,1,0,0,1,143,222.45Zm-2.48,2.17a2.49,2.49,0,0,0-2,.79,4.56,4.56,0,0,0-.67,2.89c0,2.35.64,3.53,1.91,3.53a2,2,0,0,0,1.11-.45,2.54,2.54,0,0,0,.85-1,8.51,8.51,0,0,0,.45-2.82,5,5,0,0,0-.37-2.22A1.3,1.3,0,0,0,140.47,224.62Z"/><path d="M147.06,223.24a3.51,3.51,0,0,1,2.32-.84,6.92,6.92,0,0,1,2.55.48c.81.32,1.21.74,1.21,1.26a.77.77,0,0,1-.31.65.91.91,0,0,1-.53.24h-.36a5.52,5.52,0,0,1-1-.45,3.38,3.38,0,0,0-1.51-.43,2,2,0,0,0-1.18.35,1.15,1.15,0,0,0-.49,1,1.18,1.18,0,0,0,.56,1.05,5.46,5.46,0,0,0,2,.66,5.84,5.84,0,0,1,2.16.78,2.07,2.07,0,0,1,.75,1.86,3.37,3.37,0,0,1-1,2.8,3.92,3.92,0,0,1-2.52.83,7,7,0,0,1-2.52-.41c-.69-.27-1-.67-1-1.22a.82.82,0,0,1,.93-.93,3.67,3.67,0,0,1,1.05.34,4.25,4.25,0,0,0,1.61.33,1.49,1.49,0,0,0,1.22-.51,1.86,1.86,0,0,0,.41-1.18,1,1,0,0,0-.55-1,5.61,5.61,0,0,0-1.67-.49,8.15,8.15,0,0,1-1.64-.41,2.43,2.43,0,0,1-1.44-2.55A2.75,2.75,0,0,1,147.06,223.24Z"/></g></g></svg>