<svg xmlns="http://www.w3.org/2000/svg" viewBox="0 0 192.07 192.07"><defs><style>.cls-1{fill:#69a556;}.cls-2{fill:#fff;}.cls-3{fill:#030202;}.cls-4{fill:#030302;}.cls-5{fill:#fcd89a;}.cls-6{fill:#030303;}.cls-7{fill:#050505;}.cls-8{fill:#fd5c5c;}.cls-9{fill:#060503;}</style></defs><g id="Capa_2" data-name="Capa 2"><g id="Capa_1-2" data-name="Capa 1"><rect class="cls-1" x="3.5" y="3.5" width="185.07" height="185.07" rx="14.53"/><path class="cls-2" d="M174,7a11.06,11.06,0,0,1,11,11V174a11.07,11.07,0,0,1-11,11H18A11.06,11.06,0,0,1,7,174V18A11.06,11.06,0,0,1,18,7H174m0-7H18A18.05,18.05,0,0,0,0,18V174a18.05,18.05,0,0,0,18,18H174a18.05,18.05,0,0,0,18-18V18A18.05,18.05,0,0,0,174,0Z"/><path class="cls-2" d="M36.48,32.17a44.92,44.92,0,0,1-1,8.35Q34.1,48.16,34,48.75q0,.11-2.65,21Q29.66,73,27.92,73a2.65,2.65,0,0,1-2.27-1.73,7,7,0,0,1-.71-3q0-3.3,1.9-14,.16-.64,1.95-7.75a28.34,28.34,0,0,0,1.14-7.69l-.06-.54c-1-1.41-2-2.83-3-4.28A14.31,14.31,0,0,1,29,29.19c1.23-1.8,2.58-2.7,4.07-2.7,1.15,0,2,.7,2.7,2.11A8.25,8.25,0,0,1,36.48,32.17Z"/><path class="cls-3" d="M111.2,51.84A36.68,36.68,0,0,1,114.84,53a13.54,13.54,0,0,1,6.84,16.74,30.42,30.42,0,0,1-7,10.68,71.35,71.35,0,0,1-11.3,9.51,2.44,2.44,0,0,1-3,.12c-5.71-4-11-8.36-15.13-14-2.5-3.44-4.29-7.16-4.13-11.58A13.22,13.22,0,0,1,91.68,52.07c.17,0,.39,0,.44-.23h3.59c1,.32,2,.62,3,1s2,1.5,3,1.54,2-1.1,3.12-1.57c.83-.36,1.82-.28,2.54-.93ZM118,65a8.49,8.49,0,0,0-5.17-7.91c-3.28-1.45-6.34-.77-9,1.66-1.62,1.48-2.45,1.43-4.24-.16A8.25,8.25,0,0,0,86,62.46c-1,3.28-.12,6.21,1.56,9,3.48,5.69,8.44,9.93,13.72,13.84a.7.7,0,0,0,1,0,54.37,54.37,0,0,0,12.94-12.61A13.47,13.47,0,0,0,118,65Z"/><path class="cls-4" d="M64.35,164.52c-.34,1.51-1.28,2.35-2.47,2.2s-2-1.11-2.05-2.64,0-2.85,0-4.27a10.69,10.69,0,0,0-3.52-8.4,29.89,29.89,0,0,1-7.92-11.52c-1.27-3.49-1.72-7.18-2.49-10.79-.52-2.48-1-5-1.43-7.48A7.55,7.55,0,0,1,57.3,115l.33.31c.29-.3.14-.65.14-1,0-5.46,0-10.92,0-16.38a7.42,7.42,0,0,1,6.85-7.64,5.81,5.81,0,0,1,2.65.29c.75.26.92.07.94-.7a7.25,7.25,0,0,1,3.59-6.44,7.42,7.42,0,0,1,11.3,5.92c0,.44,0,.89,0,1.45a8.44,8.44,0,0,1,5-.26c3.4,1,5.37,3.73,5.45,7.58,0,1.27,0,2.54,0,3.81,0,.73.22.78.84.6a7.15,7.15,0,0,1,6.82,1.35c.32.25.57.43,1,.1a7.38,7.38,0,0,1,7.45-1.33c.06,0,.13,0,.39-.06,0-1.83-.12-3.7,0-5.56a7.33,7.33,0,0,1,9.51-6.44c.25.07.5.11.83.17A8,8,0,0,1,122.17,85a7.4,7.4,0,0,1,7.91-2.3,7.31,7.31,0,0,1,5.16,6.38c.14,1.58.14,1.58,1.74,1.33a7.41,7.41,0,0,1,8.77,7.5c.05,5.76,0,11.52,0,17.33.45,0,.61-.42.86-.64,4.16-3.66,10.93-1.74,12.23,3.57a13.72,13.72,0,0,1-.27,6.1c-1,4.59-1.63,9.26-2.87,13.8a27.75,27.75,0,0,1-8,12.86A11.83,11.83,0,0,0,144,156.7a20.31,20.31,0,0,0-.31,4.8c0,.86,0,1.72,0,2.58,0,1.53-.78,2.49-2.05,2.64s-2.13-.69-2.47-2.2c0-1.72,0-3.44,0-5.16a15.51,15.51,0,0,1,.82-5.06,17.29,17.29,0,0,1,4.91-7A23.67,23.67,0,0,0,152,134.47c.87-4.39,1.72-8.79,2.58-13.19.4-2.06-.5-3.62-2.34-4a3.21,3.21,0,0,0-3.7,2.63c-.42,1.63-.85,3.25-1.18,4.9a3.92,3.92,0,0,1-2,2.7c-1.44.86-2.85,1.78-4.31,2.62a8.79,8.79,0,0,0-4.72,7.51,2.2,2.2,0,0,1-2.35,2.31,2.25,2.25,0,0,1-2.11-2.54,13.14,13.14,0,0,1,2.85-7.75c1.56-2,3.72-3.21,5.83-4.47a1.25,1.25,0,0,0,.72-1.22c0-8.64,0-17.28,0-25.92a3.28,3.28,0,0,0-.29-1.52,2.89,2.89,0,0,0-3.23-1.64,2.85,2.85,0,0,0-2.4,3.05c0,3.48,0,7,0,10.44,0,2.11-.81,3.22-2.29,3.19s-2.21-1.09-2.21-3.16V90.75a10,10,0,0,0-.06-1.34,2.91,2.91,0,0,0-4.59-2,3.25,3.25,0,0,0-1.32,2.92q0,13.35,0,26.7c0,1.67-.83,2.67-2.19,2.71s-2.29-1-2.29-2.72q0-9.25,0-18.51c0-.3,0-.6,0-.9a3,3,0,0,0-1.84-2.6,2.77,2.77,0,0,0-3.12.57,3.53,3.53,0,0,0-1,2.86q0,9,0,18.07a7.7,7.7,0,0,1-.11,1.44,2.1,2.1,0,0,1-2.45,1.74c-1.2-.16-1.89-1-1.92-2.48,0-2.43,0-4.86,0-7.29a3,3,0,0,0-1.23-2.62,2.72,2.72,0,0,0-3-.3,3,3,0,0,0-1.76,2.89q0,11.28,0,22.56a23.7,23.7,0,0,0,7.21,16.74,14,14,0,0,1,3.83,8.17c.3,2.39,0,4.78.19,7.17-.5,1.57-1.27,2.28-2.39,2.23a2.28,2.28,0,0,1-2.14-2.42c-.07-2,.09-4-.1-6a9.78,9.78,0,0,0-2.58-5.93,31.81,31.81,0,0,1-6.24-9.12c-.54,1-1,1.91-1.42,2.73A28.32,28.32,0,0,1,96,151.75a11.06,11.06,0,0,0-3.19,8.31c0,1.23,0,2.47,0,3.7,0,1.83-.59,2.72-1.92,2.94s-2.08-.52-2.61-2.19c0-1.23.09-2.47,0-3.7a16.19,16.19,0,0,1,4.79-12.58,22.92,22.92,0,0,0,6.42-16.7c0-6.55,0-13.09,0-19.64,0-.79,0-1.57,0-2.36a3,3,0,1,0-5.92.37c0,2.47,0,4.94,0,7.41a2.2,2.2,0,0,1-2.13,2.4,2.25,2.25,0,0,1-2.33-2.33c0-.34,0-.67,0-1q0-9,0-18a3.92,3.92,0,0,0-.31-2,2.86,2.86,0,0,0-3.35-1.57,2.92,2.92,0,0,0-2.27,3.05c0,4.61,0,9.21,0,13.81,0,1.87,0,3.74,0,5.61a2.19,2.19,0,0,1-2.63,2.31c-1.23-.21-1.85-1.12-1.85-2.77V90.63a10.42,10.42,0,0,0,0-1.12A3,3,0,0,0,74,87.39a3.44,3.44,0,0,0-1.31,3.15q0,13,0,25.92a8.69,8.69,0,0,1-.1,1.45,2.17,2.17,0,0,1-4.27.08,7,7,0,0,1-.12-1.45q0-9.2,0-18.4A3.13,3.13,0,0,0,67,95.38a2.72,2.72,0,0,0-3-.37,3.12,3.12,0,0,0-1.81,3c0,7.67,0,15.34,0,23,0,1.23-.36,2.67.16,3.63s1.92,1.32,2.92,2a13,13,0,0,1,6.29,10.53c.12,1.61-.73,2.7-2.09,2.78s-2.26-.82-2.36-2.41a8.72,8.72,0,0,0-4.52-7.29c-1.51-.9-3-1.83-4.5-2.74a3.92,3.92,0,0,1-2-2.7c-.34-1.68-.78-3.34-1.22-5a3.16,3.16,0,0,0-3.65-2.53,3.13,3.13,0,0,0-2.37,3.93c.49,2.53,1,5.06,1.48,7.58a80.23,80.23,0,0,0,2,9.07,25,25,0,0,0,7,10.37,14.25,14.25,0,0,1,4.74,9.15C64.42,159.72,64.31,162.12,64.35,164.52Z"/><path class="cls-5" d="M115.25,164.51c-.15-2.39.11-4.78-.19-7.17a14,14,0,0,0-3.83-8.17A23.7,23.7,0,0,1,104,132.43q0-11.28,0-22.56a3,3,0,0,1,1.76-2.89,2.72,2.72,0,0,1,3,.3A3,3,0,0,1,110,109.9c0,2.43,0,4.86,0,7.29,0,1.47.72,2.32,1.92,2.48a2.1,2.1,0,0,0,2.45-1.74,7.7,7.7,0,0,0,.11-1.44q0-9,0-18.07a3.53,3.53,0,0,1,1-2.86,2.77,2.77,0,0,1,3.12-.57,3,3,0,0,1,1.84,2.6c0,.3,0,.6,0,.9q0,9.26,0,18.51c0,1.72.88,2.75,2.29,2.72s2.19-1,2.19-2.71q0-13.35,0-26.7a3.25,3.25,0,0,1,1.32-2.92,2.91,2.91,0,0,1,4.59,2,10,10,0,0,1,.06,1.34v17.62c0,2.07.74,3.13,2.21,3.16s2.29-1.08,2.29-3.19c0-3.48,0-7,0-10.44a2.85,2.85,0,0,1,2.4-3.05A2.89,2.89,0,0,1,141,96.49a3.28,3.28,0,0,1,.29,1.52c0,8.64,0,17.28,0,25.92a1.25,1.25,0,0,1-.72,1.22c-2.11,1.26-4.27,2.47-5.83,4.47a13.14,13.14,0,0,0-2.85,7.75,2.25,2.25,0,0,0,2.11,2.54,2.2,2.2,0,0,0,2.35-2.31,8.79,8.79,0,0,1,4.72-7.51c1.46-.84,2.87-1.76,4.31-2.62a3.92,3.92,0,0,0,2-2.7c.33-1.65.76-3.27,1.18-4.9a3.21,3.21,0,0,1,3.7-2.63c1.84.42,2.74,2,2.34,4-.86,4.4-1.71,8.8-2.58,13.19A23.67,23.67,0,0,1,145,147.32a17.29,17.29,0,0,0-4.91,7,15.51,15.51,0,0,0-.82,5.06c0,1.72,0,3.44,0,5.16Zm17.8-49.21a2.19,2.19,0,0,0-2.17,2.21,2.21,2.21,0,1,0,4.41-.07A2.19,2.19,0,0,0,133.05,115.3Z"/><path class="cls-5" d="M64.35,164.52c0-2.4.07-4.8-.15-7.18a14.25,14.25,0,0,0-4.74-9.15,25,25,0,0,1-7-10.37,80.23,80.23,0,0,1-2-9.07c-.53-2.52-1-5-1.48-7.58a3.13,3.13,0,0,1,2.37-3.93A3.16,3.16,0,0,1,55,119.77c.44,1.66.88,3.32,1.22,5a3.92,3.92,0,0,0,2,2.7c1.5.91,3,1.84,4.5,2.74a8.72,8.72,0,0,1,4.52,7.29c.1,1.59,1,2.48,2.36,2.41s2.21-1.17,2.09-2.78a13,13,0,0,0-6.29-10.53c-1-.65-2.43-1-2.92-2s-.16-2.4-.16-3.63c0-7.67,0-15.34,0-23a3.12,3.12,0,0,1,1.81-3,2.72,2.72,0,0,1,3,.37,3.13,3.13,0,0,1,1.19,2.76q0,9.19,0,18.4a7,7,0,0,0,.12,1.45,2.17,2.17,0,0,0,4.27-.08,8.69,8.69,0,0,0,.1-1.45q0-13,0-25.92A3.44,3.44,0,0,1,74,87.39a3,3,0,0,1,4.64,2.12,10.42,10.42,0,0,1,0,1.12v26.26c0,1.65.62,2.56,1.85,2.77a2.19,2.19,0,0,0,2.63-2.31c0-1.87,0-3.74,0-5.61,0-4.6,0-9.2,0-13.81a2.92,2.92,0,0,1,2.27-3.05,2.86,2.86,0,0,1,3.35,1.57,3.92,3.92,0,0,1,.31,2q0,9,0,18c0,.34,0,.67,0,1a2.25,2.25,0,0,0,2.33,2.33,2.2,2.2,0,0,0,2.13-2.4c.06-2.47,0-4.94,0-7.41a3,3,0,1,1,5.92-.37c0,.79,0,1.57,0,2.36,0,6.55,0,13.09,0,19.64a22.92,22.92,0,0,1-6.42,16.7,16.19,16.19,0,0,0-4.79,12.58c.06,1.23,0,2.47,0,3.7Z"/><path class="cls-6" d="M138.24,68.43c-.52,0-1.05,0-1.57,0a2.27,2.27,0,0,1-2.12-2.21,2.24,2.24,0,0,1,2.1-2.23,21.89,21.89,0,0,1,3,0,2.22,2.22,0,0,1,0,4.43A11.84,11.84,0,0,1,138.24,68.43Z"/><path class="cls-7" d="M60.72,70.84c0,.52,0,1,0,1.56a2.19,2.19,0,0,1-2,2,2.13,2.13,0,0,1-2.28-1.7,8.87,8.87,0,0,1,0-3.87,2.11,2.11,0,0,1,2.2-1.66,2.19,2.19,0,0,1,2.08,2,15.49,15.49,0,0,1,0,1.67Z"/><path class="cls-7" d="M65.24,79.69a15.51,15.51,0,0,1-1.67,0,2.18,2.18,0,0,1-.23-4.3,9.54,9.54,0,0,1,3.65,0,2.07,2.07,0,0,1,1.81,2.29,2.14,2.14,0,0,1-2,2c-.51,0-1,0-1.56,0Z"/><path class="cls-7" d="M60.71,84.24a13.53,13.53,0,0,1,0,1.56,2.14,2.14,0,0,1-2.05,2,2.06,2.06,0,0,1-2.26-1.71,9.16,9.16,0,0,1,0-3.76,2.15,2.15,0,0,1,2.25-1.74,2.18,2.18,0,0,1,2.05,2A15.69,15.69,0,0,1,60.71,84.24Z"/><path class="cls-6" d="M147.08,59.56a11.75,11.75,0,0,1,0,1.57,2.18,2.18,0,0,1-2.18,2,2.13,2.13,0,0,1-2.21-2,18.45,18.45,0,0,1,0-3.24,2.21,2.21,0,0,1,2.18-2,2.27,2.27,0,0,1,2.24,2.1c0,.52,0,1,0,1.57Z"/><path class="cls-6" d="M151.49,68.47a13.41,13.41,0,0,1-1.68-.08A2.16,2.16,0,0,1,148,66.21,2.08,2.08,0,0,1,149.81,64a16.77,16.77,0,0,1,3.47,0,2.16,2.16,0,0,1,1.89,2.16,2.22,2.22,0,0,1-1.89,2.18,11.87,11.87,0,0,1-1.79,0Z"/><path class="cls-6" d="M147.09,72.92a14,14,0,0,1,0,1.45,2.28,2.28,0,0,1-2.19,2.15,2.24,2.24,0,0,1-2.24-2.09,19.24,19.24,0,0,1,0-3.13,2.16,2.16,0,0,1,2.17-2,2.2,2.2,0,0,1,2.24,2.06,13.68,13.68,0,0,1,0,1.57Z"/><path class="cls-7" d="M51.78,79.76c-.56,0-1.12,0-1.67-.09a2.23,2.23,0,0,1-1.91-2.14A2.19,2.19,0,0,1,50,75.38a9.57,9.57,0,0,1,3.77,0,2.2,2.2,0,0,1,1.76,2.15,2.25,2.25,0,0,1-1.91,2.14C53,79.75,52.38,79.73,51.78,79.76Z"/><path class="cls-8" d="M118,65a13.47,13.47,0,0,1-2.76,7.66,54.37,54.37,0,0,1-12.94,12.61.7.7,0,0,1-1,0C96,81.35,91.05,77.11,87.57,71.42c-1.68-2.75-2.57-5.68-1.56-9a8.25,8.25,0,0,1,13.55-3.89c1.79,1.59,2.62,1.64,4.24.16,2.66-2.43,5.72-3.11,9-1.66A8.49,8.49,0,0,1,118,65Z"/><path class="cls-9" d="M133.05,115.3a2.19,2.19,0,0,1,2.24,2.14,2.21,2.21,0,1,1-4.41.07A2.19,2.19,0,0,1,133.05,115.3Z"/></g></g></svg>