<svg xmlns="http://www.w3.org/2000/svg" xmlns:xlink="http://www.w3.org/1999/xlink" viewBox="0 0 192.56 245.45"><defs><style>.cls-1{fill:#fff;}.cls-2{fill:url(#linear-gradient);}.cls-3{fill:#030301;}.cls-4{fill:#fcd34e;}.cls-5{fill:#fbbe07;}.cls-6{fill:#030300;}</style><linearGradient id="linear-gradient" x1="3.75" y1="96.03" x2="188.81" y2="96.03" gradientUnits="userSpaceOnUse"><stop offset="0.07" stop-color="#b42122"/><stop offset="1" stop-color="#cf332a"/></linearGradient></defs><g id="Capa_2" data-name="Capa 2"><g id="Capa_1-2" data-name="Capa 1"><rect class="cls-1" y="164.52" width="192.56" height="80.93" rx="7.64"/><path d="M25.52,213.21l0-1.86.22-10a.52.52,0,0,1,.31-.46,1.68,1.68,0,0,1,.79-.16q1.14,0,1.14.81c0,.17-.09,1.51-.27,4s-.28,4-.28,4.49v2.53c0,1.19.08,1.84.24,2a2.67,2.67,0,0,0,.84.11l3.44-.23c.74,0,1.12.27,1.12.81a1,1,0,0,1-.61.94,3.3,3.3,0,0,1-1.21.34c-.39,0-.88,0-1.45,0a15.48,15.48,0,0,1-4.06-.24c-.11-.09-.18-.45-.19-1.08s0-1.07,0-1.33S25.52,213.42,25.52,213.21Z"/><path d="M38.1,205.47a4.37,4.37,0,0,1,2.41.74A2.16,2.16,0,0,1,41.66,208a3.11,3.11,0,0,1-.93,2.1,4,4,0,0,1-2.48,1.23,16.09,16.09,0,0,1-2,.1,4.18,4.18,0,0,0,1,2.67.79.79,0,0,0,.64.26,3.45,3.45,0,0,0,2.48-.94c.67-.63,1.15-.94,1.44-.94.12,0,.31.12.57.35a1,1,0,0,1,.38.67c0,.42-.5,1-1.5,1.79a5.76,5.76,0,0,1-1.62.92,4.71,4.71,0,0,1-1.75.37c-1.38,0-2.4-.89-3-2.67a10.1,10.1,0,0,1-.63-3.63,6.11,6.11,0,0,1,.93-3.41A3.26,3.26,0,0,1,38.1,205.47Zm.12,1.65a1.84,1.84,0,0,0-1.55,1,4.94,4.94,0,0,0-.45,1.62c2.22,0,3.34-.55,3.34-1.65C39.56,207.45,39.11,207.12,38.22,207.12Z"/><path d="M44.68,208a5.37,5.37,0,0,1,2.16-2,5.66,5.66,0,0,1,2.55-.66,5.51,5.51,0,0,1,2,.3c.5.2.75.46.75.79a1.93,1.93,0,0,1-.28,1,.82.82,0,0,1-.72.49,4.49,4.49,0,0,1-.92-.28,4,4,0,0,0-1-.27,3.18,3.18,0,0,0-2.36,1,3.68,3.68,0,0,0-1,2.69,4.6,4.6,0,0,0,.54,2.49,2,2,0,0,0,1.84.83,5.28,5.28,0,0,0,1.81-.61,5.76,5.76,0,0,1,1.58-.61.65.65,0,0,1,.7.67,1.73,1.73,0,0,1-.73,1.2,6.06,6.06,0,0,1-1.8,1,5.4,5.4,0,0,1-1.94.42,3.48,3.48,0,0,1-3-1.5,6.86,6.86,0,0,1-1.09-4.11A5.19,5.19,0,0,1,44.68,208Z"/><path d="M54,205.38l1.2,0a2.76,2.76,0,0,0,.45,0v-4.9a.91.91,0,0,1,.41-.69,1.19,1.19,0,0,1,.71-.28.7.7,0,0,1,.54.21.84.84,0,0,1,.18.67c0,.3,0,2,0,5l2.79-.09c.48,0,.72.28.72.83a1.16,1.16,0,0,1-.38.94,1.35,1.35,0,0,1-.78.33c-.28,0-.56,0-.83,0l-1.45,0c0,.65.06,1.94.2,3.87s.24,3.17.32,3.73a3.37,3.37,0,0,1,.05,1.1.53.53,0,0,1-.26.35,2.16,2.16,0,0,1-.84.14.59.59,0,0,1-.62-.57,74.93,74.93,0,0,1-.64-8.6c-.15,0-.69,0-1.65,0s-1.43-.28-1.43-.84C52.69,205.78,53.13,205.38,54,205.38Z"/><path d="M62,205.63a1,1,0,0,1,.63-.28.9.9,0,0,1,.5.12.64.64,0,0,1,.22.22,2.65,2.65,0,0,1,.08.33c-.1,1.24-.14,2.36-.14,3.36a19.61,19.61,0,0,0,.35,3.41c.24,1.28.51,1.92.79,1.92a3.11,3.11,0,0,0,1.64-.71,4.74,4.74,0,0,0,1.42-1.51q-.28-3.44-.29-5.89a1.25,1.25,0,0,1,.32-.86,1,1,0,0,1,.78-.36c.49,0,.74.33.74,1,0,1.13.08,2.81.25,5a29.17,29.17,0,0,0,.51,4.25,1.48,1.48,0,0,1,0,.44.62.62,0,0,1-.32.48,1.44,1.44,0,0,1-.84.22.68.68,0,0,1-.68-.57c0-.32-.11-.79-.23-1.43a4.78,4.78,0,0,1-3.37,1.74A2,2,0,0,1,63,216a4,4,0,0,1-1-1.62,12.58,12.58,0,0,1-.62-3.72c0-1.16.06-2.6.19-4.3A1.29,1.29,0,0,1,62,205.63Z"/><path d="M74.27,213l0,2.46a1.06,1.06,0,0,1-.39.79,1.16,1.16,0,0,1-.78.36c-.36,0-.59-.29-.69-.86,0-.13-.08-1.3-.19-3.5a28.52,28.52,0,0,0-.64-5.19,7.52,7.52,0,0,1-.22-1.08c0-.52.32-.78,1-.78a.76.76,0,0,1,.65.31,1.41,1.41,0,0,1,.3.63c0,.21.07.5.11.87s0,.6.07.69A3.65,3.65,0,0,1,75,206a4.2,4.2,0,0,1,2.2-.6c1.3,0,2,.34,2,1a1,1,0,0,1-.35.8,1.18,1.18,0,0,1-.8.29,3.17,3.17,0,0,0-2.87,1.29A8.35,8.35,0,0,0,74.27,213Z"/><path d="M87,205.38c.7,0,1,.6,1,1.79v.4l0,1.68c0,.52,0,1,0,1.55l.36,5.39c0,.4-.41.6-1.22.6h-.35a.38.38,0,0,1-.38-.22.7.7,0,0,1,0-.52,1.2,1.2,0,0,0-.06-.69,3.81,3.81,0,0,1-2.91,1.17q-3.37,0-3.37-5.21A7.32,7.32,0,0,1,81.16,207a3.64,3.64,0,0,1,3.11-1.48,5.83,5.83,0,0,1,1.91.34A1,1,0,0,1,87,205.38Zm-2.48,2.17a2.49,2.49,0,0,0-2,.79,4.56,4.56,0,0,0-.67,2.89c0,2.35.64,3.53,1.91,3.53a2,2,0,0,0,1.11-.45,2.54,2.54,0,0,0,.85-1,8.51,8.51,0,0,0,.45-2.82,4.94,4.94,0,0,0-.37-2.22A1.3,1.3,0,0,0,84.56,207.55Z"/><path d="M99,216.5a2.34,2.34,0,0,1-1.5-.55l-.31-.26v7.16a1.79,1.79,0,0,1-.5.8,1.13,1.13,0,0,1-.77.33c-.41,0-.62-.28-.62-.84V206.5a2.34,2.34,0,0,1,.35-.88.74.74,0,0,1,.64-.27c.3,0,.49.07.58.21a4.76,4.76,0,0,1,.32,1.11,1.45,1.45,0,0,1,.76-.89,3.44,3.44,0,0,1,1.79-.4,3.66,3.66,0,0,1,3.46,1.77,8,8,0,0,1,1,4.16A4.82,4.82,0,0,1,99,216.5Zm-1.81-7.16v4.44a2.19,2.19,0,0,1,.33.24,2.22,2.22,0,0,0,1.51.62q3.28,0,3.29-3.39c0-1.92-.49-3.14-1.48-3.65a3.21,3.21,0,0,0-1.53-.34,2.44,2.44,0,0,0-1.5.78A1.9,1.9,0,0,0,97.19,209.34Z"/><path d="M112.11,205.38c.7,0,1,.6,1,1.79v.4l0,1.68c0,.52,0,1,0,1.55l.35,5.39c0,.4-.4.6-1.21.6h-.35a.38.38,0,0,1-.38-.22.75.75,0,0,1,0-.52,1.05,1.05,0,0,0-.06-.69,3.8,3.8,0,0,1-2.91,1.17q-3.36,0-3.36-5.21a7.39,7.39,0,0,1,1.08-4.37,3.65,3.65,0,0,1,3.12-1.48,5.88,5.88,0,0,1,1.91.34A1,1,0,0,1,112.11,205.38Zm-2.49,2.17a2.52,2.52,0,0,0-2,.79,4.64,4.64,0,0,0-.66,2.89c0,2.35.63,3.53,1.91,3.53a2,2,0,0,0,1.11-.45,2.59,2.59,0,0,0,.84-1,8.26,8.26,0,0,0,.46-2.82,5.08,5.08,0,0,0-.37-2.22A1.32,1.32,0,0,0,109.62,207.55Z"/><path d="M117.88,213l0,2.46a1,1,0,0,1-.4.79,1.16,1.16,0,0,1-.77.36c-.37,0-.6-.29-.69-.86,0-.13-.08-1.3-.19-3.5a28.38,28.38,0,0,0-.65-5.19A8.42,8.42,0,0,1,115,206c0-.52.31-.78,1-.78a.74.74,0,0,1,.64.31,1.41,1.41,0,0,1,.3.63,8.4,8.4,0,0,1,.11.87c0,.37.06.6.07.69a3.72,3.72,0,0,1,1.51-1.79,4.19,4.19,0,0,1,2.19-.6c1.31,0,2,.34,2,1a1,1,0,0,1-.35.8,1.16,1.16,0,0,1-.8.29,3.15,3.15,0,0,0-2.86,1.29A8.23,8.23,0,0,0,117.88,213Z"/><path d="M130.66,205.38c.7,0,1.05.6,1.05,1.79v.4l-.05,1.68c0,.52,0,1,0,1.55l.35,5.39c0,.4-.4.6-1.21.6h-.35a.38.38,0,0,1-.38-.22.75.75,0,0,1,0-.52,1.05,1.05,0,0,0-.06-.69,3.8,3.8,0,0,1-2.91,1.17q-3.36,0-3.36-5.21a7.39,7.39,0,0,1,1.08-4.37,3.65,3.65,0,0,1,3.12-1.48,5.88,5.88,0,0,1,1.91.34A1,1,0,0,1,130.66,205.38Zm-2.49,2.17a2.52,2.52,0,0,0-2,.79,4.64,4.64,0,0,0-.66,2.89c0,2.35.63,3.53,1.91,3.53a2,2,0,0,0,1.11-.45,2.59,2.59,0,0,0,.84-1,8.26,8.26,0,0,0,.46-2.82,5.08,5.08,0,0,0-.37-2.22A1.32,1.32,0,0,0,128.17,207.55Z"/><path d="M141.4,208.79l.19,5.64a3.64,3.64,0,0,1-.1,1.21,1.11,1.11,0,0,1-.27.67,1.19,1.19,0,0,1-.87.24.56.56,0,0,1-.5-.39,2.34,2.34,0,0,1-.22-.9q-.16-4.2-.44-7.89t-.27-6.86a1,1,0,0,1,.33-.79,1.18,1.18,0,0,1,.79-.29c.44,0,.71.39.8,1.15s.14,1.72.16,2.87.06,2,.09,2.5a5.16,5.16,0,0,1,2.39-.62,3.29,3.29,0,0,1,3.51,2.44,12.45,12.45,0,0,1,.42,3.55c0,.48,0,1.23-.13,2.26s-.14,1.69-.15,2a.89.89,0,0,1-.4.71,1.43,1.43,0,0,1-.8.25q-.66,0-.66-.72l.16-4.15c0-.35,0-.93,0-1.75a4.11,4.11,0,0,0-.49-1.93,1.67,1.67,0,0,0-1.54-.72C142.05,207.26,141.4,207.77,141.4,208.79Z"/><path d="M153.1,205.4a3.32,3.32,0,0,1,2.83,1.65A6.89,6.89,0,0,1,157,211a6.65,6.65,0,0,1-1.14,3.93,3.59,3.59,0,0,1-6,0,6.34,6.34,0,0,1-1.14-3.69,7.29,7.29,0,0,1,1.05-4.15A3.75,3.75,0,0,1,153.1,205.4Zm-.29,2a1.9,1.9,0,0,0-1.65,1,4.17,4.17,0,0,0-.64,2.22,4.55,4.55,0,0,0,.72,2.77,2,2,0,0,0,1.62.95,2,2,0,0,0,2.08-1.4,6.56,6.56,0,0,0,.19-1.67C155.13,208.66,154.35,207.36,152.81,207.36Z"/><path d="M166.11,205.5a1.07,1.07,0,0,1,.61.21.63.63,0,0,1,.29.48,68.76,68.76,0,0,1-2,7.5q-2,6.8-3,9.55c-.15.42-.37.64-.67.64a.9.9,0,0,1-.72-.32,1.51,1.51,0,0,1-.26-.95,13.65,13.65,0,0,1,.8-3c.53-1.57.86-2.56,1-3q-.6-1-4-10a.87.87,0,0,1-.05-.31.88.88,0,0,1,.29-.5,1,1,0,0,1,.79-.31.92.92,0,0,1,.81.5c.22.57.59,1.57,1.1,3s.9,2.46,1.18,3.1.55,1.29.8,2c.22-.75.6-2.2,1.15-4.36s.85-3.39.93-3.69S165.47,205.5,166.11,205.5Z"/><rect class="cls-2" x="3.75" y="3.5" width="185.07" height="185.07" rx="14.53"/><path class="cls-1" d="M174.28,7a11.06,11.06,0,0,1,11,11V174a11.06,11.06,0,0,1-11,11h-156a11.06,11.06,0,0,1-11-11V18a11.06,11.06,0,0,1,11-11h156m0-7h-156a18.05,18.05,0,0,0-18,18V174a18.05,18.05,0,0,0,18,18h156a18.05,18.05,0,0,0,18-18V18a18.05,18.05,0,0,0-18-18Z"/><path class="cls-1" d="M59.76,60.36a3.94,3.94,0,0,1-1.22,2.79,6,6,0,0,1-2.73,1.7q-4.12,1-12.41,3.2l-6.93,2.27A27.44,27.44,0,0,1,30,72q-4.5,0-4.5-4.44A9.66,9.66,0,0,1,26.78,62L40.43,42.86q2.22-3.09,2.32-5l-.92-1.51a11.17,11.17,0,0,0-2.17-.22c-2,0-4.28.92-6.66,2.76q-.7.54-5.58,5.15-3,2.76-4.55,2.76-1.08,0-1.08-1.41,0-4.55,7.09-11.59a38.11,38.11,0,0,1,7.7-5.91,18.2,18.2,0,0,1,9-2.92,8.58,8.58,0,0,1,7.42,4A13.59,13.59,0,0,1,54,30.56a6.69,6.69,0,0,1,.05,1A10.25,10.25,0,0,1,52.5,37q-4.38,7.16-6.93,11Q43,51.64,38,59l-1.52,3,1.41.54q1.83-.48,16-4.93a7.5,7.5,0,0,1,2-.27,4.78,4.78,0,0,1,2.7.76A2.56,2.56,0,0,1,59.76,60.36Z"/><path class="cls-3" d="M153.8,65.76a8.54,8.54,0,0,1-2.25,2c-3.9,2.78-7.79,5.59-11.71,8.33a1.24,1.24,0,0,0-.58,1.72c1.66,4.81,3.24,9.64,4.85,14.46A2.93,2.93,0,0,1,144,95c-.87,1.34-2.36,1.5-3.87.39-4.08-3-8.17-6-12.19-9a1.58,1.58,0,0,0-2.3,0c-4,3-8,5.94-12,8.91a4.15,4.15,0,0,1-1.49.8A2.46,2.46,0,0,1,109.34,93c.2-.76.46-1.5.7-2.25l-.25-.19c-1,.83-2,1.63-3,2.5a67.36,67.36,0,0,0-10.14,12c-8.57,12.64-14.94,26.4-20.56,40.54-1.81,4.55-3.54,9.13-5.1,13.76a2.85,2.85,0,0,1-1.76,2.09,2.43,2.43,0,0,1-3.2-2.14c-.62-3.56-1.21-7.12-1.81-10.68-.84-5-1.7-10.05-2.49-15.07-.12-.77-.44-.71-1-.6-6.85,1.38-13.71,2.73-20.55,4.12a2.65,2.65,0,0,1-3-.93c-.69-.92-.61-1.92.25-3.16,12.67-18.17,26.73-35.13,43.56-49.64a106.46,106.46,0,0,1,21.27-14.66l.62-.35-1.65-1.21c-1.24-.9-1.68-1.9-1.33-3s1.27-1.77,2.87-1.75c5.1,0,10.2.06,15.3.15.9,0,1.32-.21,1.6-1.11,1.41-4.68,2.94-9.33,4.35-14a3.62,3.62,0,0,1,2.5-2.74h.46a3.66,3.66,0,0,1,2.53,2.85c1.36,4.5,2.88,8.95,4.19,13.46.38,1.28.92,1.59,2.19,1.56,4.83-.13,9.67-.09,14.51-.18,1.47,0,2.66.3,3.32,1.74ZM69.33,149.38c.29-.7.45-1.08.6-1.46,5.07-13.21,10.75-26.13,18-38.29,4.38-7.3,9.21-14.26,15.51-20.07,2.6-2.39,5.29-4.71,8.71-5.91.42-.15.42-.49.52-.8.59-1.77,1.15-3.54,1.8-5.29a.93.93,0,0,0-.46-1.28q-2.91-2-5.76-4.11a1.3,1.3,0,0,0-1.53-.17A77.28,77.28,0,0,0,98,76.88,145.67,145.67,0,0,0,73.6,97.06a291.73,291.73,0,0,0-24.49,28.3c-1.42,1.85-2.78,3.76-4.3,5.82.56-.08.86-.11,1.15-.17,5.55-1.11,11.1-2.24,16.66-3.32,2.09-.41,3.11.34,3.46,2.4C67.15,136.42,68.21,142.75,69.33,149.38Zm67.53-62.61a1.51,1.51,0,0,0-.16-1.11c-.94-2.85-1.89-5.7-2.81-8.55-.55-1.68-.28-2.51,1.16-3.54,2.53-1.82,5.07-3.62,7.6-5.45.25-.18.64-.25.67-.65-2.87,0-5.72,0-8.57,0-3.93,0-4,0-5.19-3.74-.86-2.73-1.74-5.45-2.64-8.26a1.93,1.93,0,0,0-.53,1.1c-.92,2.85-1.81,5.72-2.72,8.57-.59,1.86-1.3,2.36-3.25,2.34-3,0-6.09-.07-9.14-.09a1.45,1.45,0,0,0-1,.16l7.84,5.61c2.17,1.55,2.34,2.08,1.5,4.59-1,3-2,6-3,9,.55.07.79-.29,1.08-.5l6.88-5.08c2-1.48,2.6-1.48,4.56,0,2.13,1.59,4.26,3.18,6.41,4.76A3.51,3.51,0,0,0,136.86,86.77Z"/><path class="cls-4" d="M69.33,149.38c-1.12-6.63-2.18-13-3.25-19.29-.35-2.06-1.37-2.81-3.46-2.4C57.06,128.77,51.51,129.9,46,131c-.29.06-.59.09-1.15.17,1.52-2.06,2.88-4,4.3-5.82A291.73,291.73,0,0,1,73.6,97.06,145.67,145.67,0,0,1,98,76.88,77.28,77.28,0,0,1,106.77,72a1.3,1.3,0,0,1,1.53.17q2.85,2.1,5.76,4.11a.93.93,0,0,1,.46,1.28c-.65,1.75-1.21,3.52-1.8,5.29-.1.31-.1.65-.52.8-3.42,1.2-6.11,3.52-8.71,5.91-6.3,5.81-11.13,12.77-15.51,20.07-7.3,12.16-13,25.08-18,38.29C69.78,148.3,69.62,148.68,69.33,149.38ZM100.16,86.1a2.18,2.18,0,0,0-.45-1.5c-.88-1.15-2.21-1.28-3.65-.32a57.29,57.29,0,0,0-10.53,9.57c-6.94,7.7-12.71,16.3-18.81,24.64a4,4,0,0,0-.36.58,2.38,2.38,0,0,0,1.5,3.45c1.16.34,2,0,2.89-1.25,3.33-4.58,6.58-9.22,10-13.74C86.17,100.37,91.68,93.27,99.16,88A2.23,2.23,0,0,0,100.16,86.1Z"/><path class="cls-5" d="M136.86,86.77a3.51,3.51,0,0,1-1.34-.84c-2.15-1.58-4.28-3.17-6.41-4.76-2-1.45-2.56-1.45-4.56,0l-6.88,5.08c-.29.21-.53.57-1.08.5,1-3,2-6,3-9,.84-2.51.67-3-1.5-4.59l-7.84-5.61a1.45,1.45,0,0,1,1-.16c3,0,6.09,0,9.14.09,2,0,2.66-.48,3.25-2.34.91-2.85,1.8-5.72,2.72-8.57a1.93,1.93,0,0,1,.53-1.1c.9,2.81,1.78,5.53,2.64,8.26,1.2,3.77,1.26,3.79,5.19,3.74,2.85,0,5.7,0,8.57,0,0,.4-.42.47-.67.65-2.53,1.83-5.07,3.63-7.6,5.45-1.44,1-1.71,1.86-1.16,3.54.92,2.85,1.87,5.7,2.81,8.55A1.51,1.51,0,0,1,136.86,86.77Z"/><path class="cls-6" d="M100.16,86.1a2.23,2.23,0,0,1-1,1.94c-7.48,5.23-13,12.33-18.41,19.49-3.42,4.52-6.67,9.16-10,13.74-.9,1.24-1.73,1.59-2.89,1.25a2.38,2.38,0,0,1-1.5-3.45,4,4,0,0,1,.36-.58c6.1-8.34,11.87-16.94,18.81-24.64a57.29,57.29,0,0,1,10.53-9.57c1.44-1,2.77-.83,3.65.32A2.18,2.18,0,0,1,100.16,86.1Z"/></g></g></svg>