<svg xmlns="http://www.w3.org/2000/svg" xmlns:xlink="http://www.w3.org/1999/xlink" viewBox="0 0 192.07 192.07"><defs><style>.cls-1{fill:url(#linear-gradient);}.cls-2{fill:#fff;}.cls-3{fill:#030301;}.cls-4{fill:#fcd34e;}.cls-5{fill:#fbbe07;}.cls-6{fill:#030300;}</style><linearGradient id="linear-gradient" x1="3.5" y1="96.03" x2="188.57" y2="96.03" gradientUnits="userSpaceOnUse"><stop offset="0.07" stop-color="#b42122"/><stop offset="1" stop-color="#cf332a"/></linearGradient></defs><g id="Capa_2" data-name="Capa 2"><g id="Capa_1-2" data-name="Capa 1"><rect class="cls-1" x="3.5" y="3.5" width="185.07" height="185.07" rx="14.53"/><path class="cls-2" d="M174,7a11.06,11.06,0,0,1,11,11V174a11.07,11.07,0,0,1-11,11H18A11.06,11.06,0,0,1,7,174V18A11.06,11.06,0,0,1,18,7H174m0-7H18A18.05,18.05,0,0,0,0,18V174a18.05,18.05,0,0,0,18,18H174a18.05,18.05,0,0,0,18-18V18A18.05,18.05,0,0,0,174,0Z"/><path class="cls-2" d="M59.52,60.36a4,4,0,0,1-1.22,2.79,6,6,0,0,1-2.74,1.7q-4.11,1-12.4,3.2l-6.94,2.27A27.44,27.44,0,0,1,29.72,72q-4.5,0-4.5-4.44A9.64,9.64,0,0,1,26.53,62L40.18,42.86c1.48-2.06,2.25-3.74,2.33-5l-.93-1.51a11.07,11.07,0,0,0-2.16-.22q-3.09,0-6.66,2.76-.7.54-5.58,5.15-3,2.76-4.56,2.76-1.08,0-1.08-1.41,0-4.55,7.1-11.59a38.06,38.06,0,0,1,7.69-5.91,18.23,18.23,0,0,1,9.05-2.92,8.59,8.59,0,0,1,7.42,4,13.8,13.8,0,0,1,.92,1.62,6.69,6.69,0,0,1,.05,1A10.24,10.24,0,0,1,52.26,37q-4.4,7.16-6.94,11-2.59,3.63-7.58,11c0,.08-.54,1.07-1.52,3l1.41.54q1.84-.48,16-4.93a7.5,7.5,0,0,1,2-.27,4.82,4.82,0,0,1,2.71.76A2.56,2.56,0,0,1,59.52,60.36Z"/><path class="cls-3" d="M153.55,65.76a8.54,8.54,0,0,1-2.25,2c-3.9,2.78-7.78,5.59-11.71,8.33a1.24,1.24,0,0,0-.58,1.72c1.66,4.81,3.24,9.64,4.85,14.46a3,3,0,0,1-.07,2.73c-.88,1.34-2.36,1.5-3.88.39-4.07-3-8.16-6-12.19-9a1.56,1.56,0,0,0-2.29,0c-4,3-8,5.94-12,8.91a4.15,4.15,0,0,1-1.49.8A2.47,2.47,0,0,1,109.09,93c.2-.76.47-1.5.7-2.25l-.25-.19c-1,.83-2,1.63-3,2.5a66.9,66.9,0,0,0-10.13,12c-8.57,12.64-15,26.4-20.57,40.54-1.81,4.55-3.54,9.13-5.1,13.76A2.85,2.85,0,0,1,69,161.51a2.43,2.43,0,0,1-3.2-2.14c-.62-3.56-1.21-7.12-1.81-10.68-.84-5-1.69-10.05-2.49-15.07-.12-.77-.44-.71-1-.6-6.85,1.38-13.71,2.73-20.56,4.12a2.63,2.63,0,0,1-2.94-.93c-.69-.92-.62-1.92.24-3.16C49.93,114.88,64,97.92,80.82,83.41a106.46,106.46,0,0,1,21.27-14.66l.62-.35-1.65-1.21c-1.23-.9-1.67-1.9-1.32-3s1.26-1.77,2.86-1.75c5.1,0,10.21.06,15.31.15.9,0,1.32-.21,1.59-1.11,1.42-4.68,2.94-9.33,4.36-14a3.59,3.59,0,0,1,2.5-2.74h.45a3.66,3.66,0,0,1,2.53,2.85c1.36,4.5,2.88,8.95,4.2,13.46.37,1.28.92,1.59,2.18,1.56,4.84-.13,9.67-.09,14.51-.18,1.47,0,2.66.3,3.32,1.74ZM69.08,149.38c.29-.7.45-1.08.6-1.46,5.07-13.21,10.75-26.13,18-38.29,4.38-7.3,9.22-14.26,15.52-20.07,2.6-2.39,5.28-4.71,8.7-5.91.42-.15.42-.49.52-.8.6-1.77,1.15-3.54,1.8-5.29.24-.64,0-.93-.46-1.28q-2.91-2-5.75-4.11a1.3,1.3,0,0,0-1.53-.17,76.43,76.43,0,0,0-8.76,4.88A145.74,145.74,0,0,0,73.35,97.06a290.26,290.26,0,0,0-24.48,28.3c-1.43,1.85-2.79,3.76-4.31,5.82.56-.08.86-.11,1.15-.17,5.56-1.11,11.1-2.24,16.66-3.32,2.09-.41,3.11.34,3.46,2.4C66.9,136.42,68,142.75,69.08,149.38Zm67.53-62.61a1.51,1.51,0,0,0-.16-1.11q-1.41-4.27-2.81-8.55c-.55-1.68-.27-2.51,1.16-3.54,2.53-1.82,5.08-3.62,7.61-5.45.24-.18.64-.25.66-.65-2.87,0-5.72,0-8.57,0-3.93,0-4,0-5.18-3.74-.87-2.73-1.75-5.45-2.65-8.26a1.85,1.85,0,0,0-.52,1.1c-.92,2.85-1.82,5.72-2.73,8.57-.59,1.86-1.29,2.36-3.25,2.34-3,0-6.09-.07-9.13-.09a1.44,1.44,0,0,0-1,.16l7.83,5.61c2.17,1.55,2.34,2.08,1.5,4.59q-1.49,4.48-3,9c.55.07.78-.29,1.07-.5l6.89-5.08c2-1.48,2.6-1.48,4.55,0,2.14,1.59,4.27,3.18,6.42,4.76A3.4,3.4,0,0,0,136.61,86.77Z"/><path class="cls-4" d="M69.08,149.38c-1.11-6.63-2.18-13-3.25-19.29-.35-2.06-1.37-2.81-3.46-2.4-5.56,1.08-11.1,2.21-16.66,3.32-.29.06-.59.09-1.15.17,1.52-2.06,2.88-4,4.31-5.82a290.26,290.26,0,0,1,24.48-28.3A145.74,145.74,0,0,1,97.77,76.88,76.43,76.43,0,0,1,106.53,72a1.3,1.3,0,0,1,1.53.17q2.84,2.1,5.75,4.11c.51.35.7.64.46,1.28-.65,1.75-1.2,3.52-1.8,5.29-.1.31-.1.65-.52.8-3.42,1.2-6.1,3.52-8.7,5.91-6.3,5.81-11.14,12.77-15.52,20.07-7.3,12.16-13,25.08-18,38.29C69.53,148.3,69.37,148.68,69.08,149.38ZM99.91,86.1a2.13,2.13,0,0,0-.45-1.5c-.88-1.15-2.21-1.28-3.65-.32a56.91,56.91,0,0,0-10.52,9.57c-7,7.7-12.72,16.3-18.82,24.64a4,4,0,0,0-.36.58,2.38,2.38,0,0,0,1.5,3.45c1.16.34,2,0,2.9-1.25,3.33-4.58,6.58-9.22,10-13.74C85.92,100.37,91.43,93.27,98.91,88A2.19,2.19,0,0,0,99.91,86.1Z"/><path class="cls-5" d="M136.61,86.77a3.4,3.4,0,0,1-1.33-.84c-2.15-1.58-4.28-3.17-6.42-4.76-2-1.45-2.56-1.45-4.55,0l-6.89,5.08c-.29.21-.52.57-1.07.5q1.5-4.55,3-9c.84-2.51.67-3-1.5-4.59L110,67.56a1.44,1.44,0,0,1,1-.16c3,0,6.09,0,9.13.09,2,0,2.66-.48,3.25-2.34.91-2.85,1.81-5.72,2.73-8.57a1.85,1.85,0,0,1,.52-1.1c.9,2.81,1.78,5.53,2.65,8.26,1.19,3.77,1.25,3.79,5.18,3.74,2.85,0,5.7,0,8.57,0,0,.4-.42.47-.66.65-2.53,1.83-5.08,3.63-7.61,5.45-1.43,1-1.71,1.86-1.16,3.54q1.4,4.27,2.81,8.55A1.51,1.51,0,0,1,136.61,86.77Z"/><path class="cls-6" d="M99.91,86.1a2.19,2.19,0,0,1-1,1.94c-7.48,5.23-13,12.33-18.41,19.49-3.41,4.52-6.66,9.16-10,13.74-.91,1.24-1.74,1.59-2.9,1.25a2.38,2.38,0,0,1-1.5-3.45,4,4,0,0,1,.36-.58c6.1-8.34,11.87-16.94,18.82-24.64a56.91,56.91,0,0,1,10.52-9.57c1.44-1,2.77-.83,3.65.32A2.13,2.13,0,0,1,99.91,86.1Z"/></g></g></svg>