<svg xmlns="http://www.w3.org/2000/svg" viewBox="0 0 192.56 245.45"><defs><style>.cls-1{fill:#fff;}.cls-2{fill:#b1d0ba;}.cls-3{fill:#b4b691;}.cls-4{fill:#030303;}.cls-5{fill:#090909;}.cls-6{fill:#020202;}.cls-7{fill:#fd5159;}.cls-8{fill:#8dd5e8;}.cls-9{fill:#aadce9;}.cls-10{fill:#84657c;}.cls-11{fill:#fcf1c5;}.cls-12{fill:#f64f57;}.cls-13{fill:#f1b17e;}.cls-14{fill:#76576e;}.cls-15{fill:#795a72;}.cls-16{fill:#f0e5bb;}.cls-17{fill:#f9eec2;}</style></defs><g id="Capa_2" data-name="Capa 2"><g id="Capa_1-2" data-name="Capa 1"><rect class="cls-1" y="164.52" width="192.56" height="80.93" rx="7.64"/><path d="M49.39,192.15a4.06,4.06,0,0,1,2.84,1.07q2.3,2.06,2.3,6.48a9.38,9.38,0,0,1-2.54,7,4.69,4.69,0,0,1-3,1.39,4.29,4.29,0,0,1-3.53-1.56,9.51,9.51,0,0,1-1.8-3.47,13.7,13.7,0,0,1-.54-3.71,8.29,8.29,0,0,1,1.46-5A5.57,5.57,0,0,1,49.39,192.15Zm-.16,2a3.72,3.72,0,0,0-4,3,7.47,7.47,0,0,0-.24,2.08,10.78,10.78,0,0,0,.48,2.93,5.63,5.63,0,0,0,1.91,3.16,2.84,2.84,0,0,0,1.79.57,2.48,2.48,0,0,0,1.88-.94,5.18,5.18,0,0,0,1.15-2.4,13.85,13.85,0,0,0,.31-2.94,8.93,8.93,0,0,0-.75-4.06A2.64,2.64,0,0,0,49.23,194.13Z"/><path d="M59.35,204.54l0,2.46a1,1,0,0,1-.39.78,1.16,1.16,0,0,1-.78.36c-.36,0-.59-.28-.69-.86,0-.12-.08-1.29-.19-3.49a27.64,27.64,0,0,0-.65-5.2,8.1,8.1,0,0,1-.21-1.07c0-.53.32-.79.95-.79a.77.77,0,0,1,.65.31,1.51,1.51,0,0,1,.3.63c0,.22.07.51.1.88s.06.59.08.69a3.61,3.61,0,0,1,1.5-1.79,4.2,4.2,0,0,1,2.2-.6c1.3,0,1.95.33,1.95,1a1,1,0,0,1-.34.8,1.19,1.19,0,0,1-.8.3,3.17,3.17,0,0,0-2.87,1.29A8.33,8.33,0,0,0,59.35,204.54Z"/><path d="M72.12,196.87c.7,0,1,.6,1,1.79v.41l0,1.67c0,.53,0,1,0,1.55l.36,5.4c0,.4-.41.6-1.22.6h-.35a.4.4,0,0,1-.38-.22.7.7,0,0,1,0-.52,1.24,1.24,0,0,0-.06-.7A3.81,3.81,0,0,1,68.52,208q-3.37,0-3.37-5.2a7.3,7.3,0,0,1,1.09-4.37A3.61,3.61,0,0,1,69.35,197a5.82,5.82,0,0,1,1.91.33A1,1,0,0,1,72.12,196.87Zm-2.48,2.18a2.52,2.52,0,0,0-2,.78,4.58,4.58,0,0,0-.67,2.89c0,2.36.64,3.54,1.91,3.54A1.9,1.9,0,0,0,70,205.8a2.45,2.45,0,0,0,.85-1,8.51,8.51,0,0,0,.45-2.82,4.91,4.91,0,0,0-.37-2.22A1.3,1.3,0,0,0,69.64,199.05Z"/><path d="M75.33,199.52a5.58,5.58,0,0,1,2.16-2,5.81,5.81,0,0,1,2.56-.65,5.48,5.48,0,0,1,2,.3q.75.3.75.78a2,2,0,0,1-.27,1,.83.83,0,0,1-.73.49,4.35,4.35,0,0,1-.92-.27,4.13,4.13,0,0,0-1-.28,3.15,3.15,0,0,0-2.36,1,3.7,3.7,0,0,0-1,2.68,4.62,4.62,0,0,0,.54,2.5,2,2,0,0,0,1.85.82,5,5,0,0,0,1.8-.61,6,6,0,0,1,1.59-.61.69.69,0,0,1,.5.2.61.61,0,0,1,.19.47,1.69,1.69,0,0,1-.73,1.21,6,6,0,0,1-1.8,1,5.39,5.39,0,0,1-1.93.42,3.47,3.47,0,0,1-3-1.51,6.9,6.9,0,0,1-1.09-4.1A5.33,5.33,0,0,1,75.33,199.52Z"/><path d="M85.66,192.94a1.12,1.12,0,0,1,.81.4,1.24,1.24,0,0,1,.38.85,1.33,1.33,0,0,1-.42.89,1.18,1.18,0,0,1-.87.46,1.13,1.13,0,0,1-.82-.38,1.36,1.36,0,0,1-.37-1c0-.77.41-1.18,1.24-1.24Zm1,12.51,0,1.67a.94.94,0,0,1-.36.75,1.16,1.16,0,0,1-.76.3.55.55,0,0,1-.62-.6q-.31-7.62-.31-8.43c0-.54,0-1.2.07-2,0-.29.22-.43.55-.43.84,0,1.32.34,1.43,1a6.1,6.1,0,0,1,.07.83l-.09,1.51Z"/><path d="M93.65,196.9a3.3,3.3,0,0,1,2.83,1.65,6.87,6.87,0,0,1,1.11,3.95,6.71,6.71,0,0,1-1.13,3.92,3.59,3.59,0,0,1-6,0,6.4,6.4,0,0,1-1.15-3.69,7.27,7.27,0,0,1,1-4.15A3.76,3.76,0,0,1,93.65,196.9Zm-.28,2a1.9,1.9,0,0,0-1.65,1,4.18,4.18,0,0,0-.65,2.22,4.55,4.55,0,0,0,.72,2.77,2,2,0,0,0,1.62.95,2,2,0,0,0,2.08-1.41,6,6,0,0,0,.19-1.67Q95.68,198.86,93.37,198.86Zm.14-6.66a.58.58,0,0,1,.61-.41.94.94,0,0,1,.74.29.78.78,0,0,1,.27.46.87.87,0,0,1,0,.3,5.87,5.87,0,0,1-1.28,2c-.6.64-1.06.95-1.37.95a1,1,0,0,1-.72-.23.78.78,0,0,1-.24-.57.79.79,0,0,1,.38-.6A5,5,0,0,0,93.51,192.2Z"/><path d="M100,207.28l-.27-9.69a1,1,0,0,1,.31-.74,1,1,0,0,1,.62-.29.78.78,0,0,1,.89.65,9.62,9.62,0,0,1,.09,1.34,3.92,3.92,0,0,1,3.23-1.7q3,0,3,6.76v1.87a8,8,0,0,1-.15,1.83.91.91,0,0,1-1,.71c-.39,0-.58-.25-.58-.76l0-1.34a25.88,25.88,0,0,0-.18-3.78c-.12-.68-.24-1.22-.35-1.61-.27-.86-.71-1.29-1.31-1.29a1.73,1.73,0,0,0-1.67.86,5.15,5.15,0,0,0-.62,2.19c-.11,1.48-.17,3.05-.17,4.71a.92.92,0,0,1-.36.76,1.33,1.33,0,0,1-.86.29C100.15,208.05,100,207.79,100,207.28Z"/><path d="M122,196.87c.7,0,1.05.6,1.05,1.79v.41l-.05,1.67c0,.53,0,1,0,1.55l.36,5.4c0,.4-.41.6-1.22.6h-.35a.4.4,0,0,1-.38-.22.7.7,0,0,1,0-.52,1.24,1.24,0,0,0-.06-.7,3.81,3.81,0,0,1-2.91,1.17q-3.37,0-3.37-5.2a7.3,7.3,0,0,1,1.09-4.37,3.61,3.61,0,0,1,3.11-1.48,5.82,5.82,0,0,1,1.91.33A1,1,0,0,1,122,196.87Zm-2.48,2.18a2.52,2.52,0,0,0-2,.78,4.58,4.58,0,0,0-.67,2.89c0,2.36.64,3.54,1.91,3.54a1.9,1.9,0,0,0,1.11-.46,2.45,2.45,0,0,0,.85-1,8.51,8.51,0,0,0,.45-2.82,4.91,4.91,0,0,0-.37-2.22A1.3,1.3,0,0,0,119.51,199.05Z"/><path d="M130.12,192.57a2.15,2.15,0,0,1,.29-1.17.86.86,0,0,1,.72-.28c.69,0,1,.28,1,.84s0,1.55-.11,3.36-.1,3.44-.1,4.87a29.06,29.06,0,0,0,.16,3.46c.19,1.53.46,2.3.81,2.3s.62-.25.79-.74a1.45,1.45,0,0,1,.38-.52,1,1,0,0,1,.67-.22c.56,0,.84.47.84,1.4a2.12,2.12,0,0,1-.83,1.52,2.43,2.43,0,0,1-1.63.75,2.67,2.67,0,0,1-1.3-.27,2,2,0,0,1-.79-.83,7,7,0,0,1-.48-1.06,5.51,5.51,0,0,1-.25-1.25c-.09-.8-.16-2.07-.2-3.83s-.06-3.44-.06-5S130.08,193.16,130.12,192.57Z"/><path d="M143.19,196.87c.7,0,1.05.6,1.05,1.79v.41l-.05,1.67c0,.53,0,1,0,1.55l.36,5.4c0,.4-.41.6-1.22.6H143a.4.4,0,0,1-.38-.22.7.7,0,0,1,0-.52,1.24,1.24,0,0,0-.06-.7,3.82,3.82,0,0,1-2.92,1.17q-3.36,0-3.36-5.2a7.37,7.37,0,0,1,1.08-4.37,3.64,3.64,0,0,1,3.12-1.48,5.82,5.82,0,0,1,1.91.33A1,1,0,0,1,143.19,196.87Zm-2.48,2.18a2.52,2.52,0,0,0-2,.78,4.58,4.58,0,0,0-.67,2.89c0,2.36.64,3.54,1.91,3.54a1.9,1.9,0,0,0,1.11-.46,2.45,2.45,0,0,0,.85-1,8.51,8.51,0,0,0,.45-2.82,4.91,4.91,0,0,0-.37-2.22A1.3,1.3,0,0,0,140.71,199.05Z"/><path d="M28.05,217.79a6.06,6.06,0,0,1,2.64.53c.72.35,1.08.79,1.08,1.34a1.18,1.18,0,0,1-.17.62.61.61,0,0,1-.53.26,4.88,4.88,0,0,1-1.49-.54,5,5,0,0,0-2.09-.54,3.8,3.8,0,0,0-1.95.6,1.72,1.72,0,0,0-1,1.46,1.82,1.82,0,0,0,1.22,1.72,12,12,0,0,0,2.6.72,5.57,5.57,0,0,1,2.77,1.32,3.86,3.86,0,0,1,1.07,3,5.43,5.43,0,0,1-1.83,4.52,4.61,4.61,0,0,1-2.9.81,7.63,7.63,0,0,1-3.74-1c-.81-.43-1.22-.86-1.22-1.29a1,1,0,0,1,.2-.52,1.7,1.7,0,0,1,.57-.48.7.7,0,0,1,.65-.06c.2.09.52.24,1,.47s.77.37,1,.45a5.38,5.38,0,0,0,1.88.38,2.38,2.38,0,0,0,1.71-.87,3,3,0,0,0,.82-2.14,2.37,2.37,0,0,0-1.67-2.34,8.34,8.34,0,0,0-1.84-.5,6.75,6.75,0,0,1-3.19-1.28,3.31,3.31,0,0,1-1.08-2.71,3.27,3.27,0,0,1,1.55-2.85A7.08,7.08,0,0,1,28.05,217.79Z"/><path d="M40.23,222.45c.7,0,1.05.6,1.05,1.79v.41l-.05,1.67c0,.52,0,1,0,1.55l.36,5.39c0,.4-.4.6-1.21.6H40a.39.39,0,0,1-.38-.21.78.78,0,0,1,0-.53,1.05,1.05,0,0,0-.06-.69,3.8,3.8,0,0,1-2.91,1.17c-2.24,0-3.37-1.74-3.37-5.21A7.39,7.39,0,0,1,34.34,224a3.65,3.65,0,0,1,3.12-1.48,5.88,5.88,0,0,1,1.91.34A1,1,0,0,1,40.23,222.45Zm-2.49,2.17a2.52,2.52,0,0,0-2,.79,4.64,4.64,0,0,0-.66,2.89c0,2.35.63,3.53,1.9,3.53a2,2,0,0,0,1.12-.45,2.59,2.59,0,0,0,.84-1,8.51,8.51,0,0,0,.46-2.82,5.11,5.11,0,0,0-.37-2.22A1.32,1.32,0,0,0,37.74,224.62Z"/><path d="M43.83,232.86l-.26-9.7a1,1,0,0,1,.31-.74.9.9,0,0,1,.62-.28c.51,0,.8.21.88.64a8.37,8.37,0,0,1,.1,1.34,3.9,3.9,0,0,1,3.22-1.7c2,0,3,2.26,3,6.76v1.87a8.71,8.71,0,0,1-.14,1.83.92.92,0,0,1-1,.72c-.38,0-.57-.26-.57-.77l0-1.33a26,26,0,0,0-.18-3.79c-.12-.67-.23-1.21-.34-1.61q-.41-1.29-1.32-1.29a1.76,1.76,0,0,0-1.67.86,5.3,5.3,0,0,0-.62,2.2c-.11,1.48-.16,3-.16,4.7a.92.92,0,0,1-.36.76,1.3,1.3,0,0,1-.86.29C44,233.62,43.83,233.37,43.83,232.86Z"/><path d="M54.31,222.45l1.19,0a2.94,2.94,0,0,0,.46,0v-4.9a.9.9,0,0,1,.4-.69,1.24,1.24,0,0,1,.72-.28.73.73,0,0,1,.54.21.93.93,0,0,1,.18.67c0,.3,0,2,0,5l2.8-.09c.47,0,.71.28.71.83a1.15,1.15,0,0,1-.37.94,1.41,1.41,0,0,1-.79.33c-.28,0-.55,0-.82,0l-1.46,0q0,1,.21,3.87c.13,1.92.24,3.17.32,3.73a3.69,3.69,0,0,1,.05,1.1.55.55,0,0,1-.27.35,2.07,2.07,0,0,1-.83.14.59.59,0,0,1-.62-.57,74.53,74.53,0,0,1-.65-8.6c-.14,0-.69,0-1.64,0S53,224.2,53,223.64C53,222.85,53.42,222.45,54.31,222.45Z"/><path d="M63.62,217.75a.59.59,0,0,1,.61-.41,1,1,0,0,1,.74.29.78.78,0,0,1,.27.46.87.87,0,0,1,0,.3,5.87,5.87,0,0,1-1.28,2c-.6.64-1.06,1-1.37,1a1,1,0,0,1-.72-.23.78.78,0,0,1-.24-.57.87.87,0,0,1,.38-.63A4.72,4.72,0,0,0,63.62,217.75ZM64.5,231l0,1.67a.94.94,0,0,1-.36.75,1.16,1.16,0,0,1-.76.3.56.56,0,0,1-.63-.6c-.2-5.07-.31-7.88-.31-8.42s0-1.2.08-2c0-.29.21-.43.55-.43.84,0,1.32.34,1.43,1a8.26,8.26,0,0,1,.07.84l-.1,1.5Z"/><path d="M68.68,223.24A3.53,3.53,0,0,1,71,222.4a6.86,6.86,0,0,1,2.54.48c.81.32,1.22.74,1.22,1.26a.77.77,0,0,1-.31.65,1,1,0,0,1-.54.24h-.36a6,6,0,0,1-1-.45,3.42,3.42,0,0,0-1.52-.43,2,2,0,0,0-1.18.35,1.15,1.15,0,0,0-.49,1,1.2,1.2,0,0,0,.56,1.05,5.53,5.53,0,0,0,2,.66,5.84,5.84,0,0,1,2.16.78,2.07,2.07,0,0,1,.76,1.86,3.37,3.37,0,0,1-1,2.8,4,4,0,0,1-2.52.83,6.93,6.93,0,0,1-2.52-.41c-.69-.27-1-.67-1-1.22a.82.82,0,0,1,.93-.93,3.67,3.67,0,0,1,1,.34,4.25,4.25,0,0,0,1.61.33,1.48,1.48,0,0,0,1.22-.51A1.81,1.81,0,0,0,73,229.9a1,1,0,0,0-.55-1,5.7,5.7,0,0,0-1.67-.49,8.1,8.1,0,0,1-1.65-.41,2.44,2.44,0,0,1-1.43-2.55A2.75,2.75,0,0,1,68.68,223.24Z"/><path d="M78,218.51a1.1,1.1,0,0,1,.81.41,1.2,1.2,0,0,1,.38.84,1.36,1.36,0,0,1-.41.9,1.2,1.2,0,0,1-.87.45,1.15,1.15,0,0,1-.83-.38,1.33,1.33,0,0,1-.37-1c0-.76.41-1.18,1.24-1.24ZM79,231l0,1.67a.94.94,0,0,1-.36.75,1.16,1.16,0,0,1-.76.3.56.56,0,0,1-.63-.6c-.2-5.07-.31-7.88-.31-8.42s0-1.2.08-2c0-.29.21-.43.54-.43.85,0,1.32.34,1.44,1a8.26,8.26,0,0,1,.07.84l-.1,1.5Z"/><path d="M83.17,233.62a.71.71,0,0,1-.74-.69,58.08,58.08,0,0,0-.57-8.6,1.24,1.24,0,0,1,.35-.85,1,1,0,0,1,.78-.39.7.7,0,0,1,.66.5A2.84,2.84,0,0,1,86,222.42a3.22,3.22,0,0,1,2.92,1.82,3.66,3.66,0,0,1,3.16-1.72,3.25,3.25,0,0,1,3,1.58,6.68,6.68,0,0,1,.91,2.57,30.63,30.63,0,0,1,.26,4.54A5.22,5.22,0,0,1,96,233a1,1,0,0,1-1,.63c-.42,0-.62-.26-.62-.79l.07-3q0-5.37-2.8-5.37a1.32,1.32,0,0,0-1.24.62,3.77,3.77,0,0,0-.47,1.55c-.07,1-.1,1.82-.1,2.6v3.46a.78.78,0,0,1-.38.65,1.43,1.43,0,0,1-.79.26c-.35,0-.57-.23-.67-.69L88,228c0-1.75-.29-2.84-.88-3.27a2.21,2.21,0,0,0-1.3-.31,1.43,1.43,0,0,0-1.29.64,3.92,3.92,0,0,0-.42,2.08l.14,4.44C84.29,232.94,83.92,233.62,83.17,233.62Z"/><path d="M104.71,222.45c.7,0,1.05.6,1.05,1.79v.41l-.05,1.67c0,.52,0,1,0,1.55l.35,5.39c0,.4-.4.6-1.21.6h-.35a.39.39,0,0,1-.38-.21.78.78,0,0,1,0-.53,1.05,1.05,0,0,0-.06-.69,3.8,3.8,0,0,1-2.91,1.17q-3.36,0-3.36-5.21A7.39,7.39,0,0,1,98.82,224a3.65,3.65,0,0,1,3.12-1.48,5.88,5.88,0,0,1,1.91.34A1,1,0,0,1,104.71,222.45Zm-2.49,2.17a2.52,2.52,0,0,0-2,.79,4.64,4.64,0,0,0-.66,2.89c0,2.35.63,3.53,1.91,3.53a2,2,0,0,0,1.11-.45,2.59,2.59,0,0,0,.84-1,8.26,8.26,0,0,0,.46-2.82,5.11,5.11,0,0,0-.37-2.22A1.32,1.32,0,0,0,102.22,224.62Z"/><path d="M119,233.14q-1-2.88-2-5.28t-2.7-6l-.71-1.57a1.43,1.43,0,0,1-.15-.66,1.05,1.05,0,0,1,.37-.73,1.16,1.16,0,0,1,.83-.36.91.91,0,0,1,.76.45l1.15,2.63c1.6,3.71,2.75,6.41,3.43,8.09l.43-1.67c.35-1.46.72-2.91,1.1-4.34q1.62-5.88,3.2-5.88a.75.75,0,0,1,.49.17.53.53,0,0,1,.2.45,2.07,2.07,0,0,1-.29.84,13.68,13.68,0,0,0-.76,2c-.3,1-.49,1.52-.56,1.68s-.45,1.51-1.14,4-1.29,4.48-1.78,5.92a1.24,1.24,0,0,1-.46.63,1.19,1.19,0,0,1-.75.25Q119.24,233.74,119,233.14Z"/><path d="M127.89,218.51a1.14,1.14,0,0,1,.81.41,1.24,1.24,0,0,1,.38.84,1.33,1.33,0,0,1-.42.9,1.2,1.2,0,0,1-.87.45,1.13,1.13,0,0,1-.82-.38,1.33,1.33,0,0,1-.37-1c0-.76.41-1.18,1.24-1.24Zm1,12.51,0,1.67a1,1,0,0,1-.35.75,1.19,1.19,0,0,1-.77.3.55.55,0,0,1-.62-.6q-.32-7.6-.31-8.42c0-.54,0-1.2.07-2,0-.29.22-.43.55-.43.84,0,1.32.34,1.43,1a6.4,6.4,0,0,1,.08.84l-.1,1.5Z"/><path d="M134.74,230.11l0,2.46a1.06,1.06,0,0,1-.39.79,1.16,1.16,0,0,1-.78.36c-.36,0-.59-.29-.69-.86,0-.13-.08-1.3-.19-3.5a28.52,28.52,0,0,0-.64-5.19,7.52,7.52,0,0,1-.22-1.08c0-.52.32-.78,1-.78a.77.77,0,0,1,.65.31,1.41,1.41,0,0,1,.3.63c0,.21.07.5.11.87s0,.6.07.69a3.65,3.65,0,0,1,1.5-1.79,4.2,4.2,0,0,1,2.2-.6c1.3,0,2,.34,2,1a1,1,0,0,1-.34.8,1.19,1.19,0,0,1-.8.3,3.14,3.14,0,0,0-2.87,1.29A8.28,8.28,0,0,0,134.74,230.11Z"/><path d="M147.7,232.62a2.73,2.73,0,0,1-2.17,1,3.4,3.4,0,0,1-2.27-.81,5.62,5.62,0,0,1-2-4.75,5.74,5.74,0,0,1,1.38-4,4.44,4.44,0,0,1,3.41-1.52,2.83,2.83,0,0,1,2.77,1.39,8.08,8.08,0,0,1,.65,3.67l-.05,2c0,.92,0,2.2.13,3.83s.13,2.86.13,3.69a4,4,0,0,1-1,3,4.37,4.37,0,0,1-3.09,1,6.68,6.68,0,0,1-2.53-.53c-.86-.35-1.29-.76-1.29-1.22a1,1,0,0,1,.27-.76.87.87,0,0,1,.63-.26,5.9,5.9,0,0,1,1.62.52,5.48,5.48,0,0,0,1.8.53c1.14,0,1.72-.94,1.72-2.82S147.77,233.33,147.7,232.62Zm0-5.05a4.25,4.25,0,0,0-.52-2.44,1.85,1.85,0,0,0-1.61-.7,2,2,0,0,0-1.76,1,4.48,4.48,0,0,0-.67,2.55,4.2,4.2,0,0,0,.63,2.44,2.2,2.2,0,0,0,1.95.91,1.6,1.6,0,0,0,1.69-1.12A9.33,9.33,0,0,0,147.68,227.57Z"/><path d="M154.91,222.54a4.4,4.4,0,0,1,2.41.74,2.16,2.16,0,0,1,1.15,1.83,3.11,3.11,0,0,1-.93,2.1,4,4,0,0,1-2.49,1.23,15.79,15.79,0,0,1-2,.1,4.18,4.18,0,0,0,1,2.67.79.79,0,0,0,.64.26,3.47,3.47,0,0,0,2.48-.94c.67-.63,1.15-.94,1.44-.94q.18,0,.57.36a1,1,0,0,1,.38.66c0,.42-.5,1-1.5,1.79a5.76,5.76,0,0,1-1.62.92,4.71,4.71,0,0,1-1.75.37q-2.07,0-3.06-2.67a10.32,10.32,0,0,1-.62-3.63A6.11,6.11,0,0,1,152,224,3.26,3.26,0,0,1,154.91,222.54Zm.12,1.65a1.84,1.84,0,0,0-1.55,1,4.94,4.94,0,0,0-.45,1.62c2.22,0,3.34-.55,3.34-1.65C156.37,224.53,155.92,224.19,155,224.19Z"/><path d="M161.88,232.86l-.26-9.7a1,1,0,0,1,.31-.74.92.92,0,0,1,.62-.28c.51,0,.8.21.88.64a8.37,8.37,0,0,1,.1,1.34,3.9,3.9,0,0,1,3.22-1.7c2,0,3,2.26,3,6.76v1.87a8.71,8.71,0,0,1-.14,1.83.92.92,0,0,1-1,.72c-.38,0-.57-.26-.57-.77l0-1.33a26,26,0,0,0-.18-3.79,16,16,0,0,0-.34-1.61c-.27-.86-.71-1.29-1.31-1.29a1.77,1.77,0,0,0-1.68.86,5.3,5.3,0,0,0-.62,2.2c-.11,1.48-.16,3-.16,4.7a.92.92,0,0,1-.36.76,1.3,1.3,0,0,1-.86.29C162.08,233.62,161.88,233.37,161.88,232.86Z"/><rect class="cls-2" x="3.75" y="3.5" width="185.07" height="185.07" rx="14.53"/><path class="cls-1" d="M174.28,7a11.06,11.06,0,0,1,11,11V174a11.06,11.06,0,0,1-11,11h-156a11.06,11.06,0,0,1-11-11V18a11.06,11.06,0,0,1,11-11h156m0-7h-156a18.05,18.05,0,0,0-18,18V174a18.05,18.05,0,0,0,18,18h156a18.05,18.05,0,0,0,18-18V18a18.05,18.05,0,0,0-18-18Z"/><path class="cls-1" d="M54.34,24.53q0,2.38-4.28,6.45-4.83,4.6-5.47,6.23l1.19.54a23,23,0,0,1,10.34,2.06q5.43,2.65,5.42,8.18,0,4.93-4.06,9.59a27.36,27.36,0,0,1-8.34,6.55,33.28,33.28,0,0,1-15.66,4q-6.82,0-9.64-1.19-5-2.11-5-4.93a2.7,2.7,0,0,1,1.14-2.27A3.82,3.82,0,0,1,22.38,59a6.93,6.93,0,0,1,1.46.16q6.5,4.34,11.54,4.33a17.56,17.56,0,0,0,7.69-2.22,31.55,31.55,0,0,0,6.77-4.55A14.17,14.17,0,0,0,52.66,53a9.44,9.44,0,0,0,1.41-4.39A4.93,4.93,0,0,0,52.28,45a5.6,5.6,0,0,0-3.85-1.65,32.24,32.24,0,0,0-7.1,1.19,31.64,31.64,0,0,1-7.09,1.2,6.83,6.83,0,0,1-2.44-.38l-.54-1.79a13.45,13.45,0,0,1,3.57-4.88c2.75-2.52,4.21-3.9,4.39-4.11.8-.94,1.68-2,2.66-3.31l0-.76-1.3-.32c-.9.32-3.46.9-7.66,1.73a63.84,63.84,0,0,1-7.61,1.25,7,7,0,0,1-3.69-1A3.59,3.59,0,0,1,19.83,29q0-2,2.6-4a45.21,45.21,0,0,1,7-1c4.22-.32,6.6-.52,7.12-.6s2.61-.41,6.26-1a37.13,37.13,0,0,1,6.28-.71C52.58,21.77,54.34,22.69,54.34,24.53Z"/><polygon class="cls-3" points="92.22 72 92.22 72 92.22 72 92.22 72"/><path class="cls-3" d="M92.23,72a0,0,0,0,0,0,0h0Z"/><path class="cls-3" d="M92.37,71.88Z"/><path class="cls-3" d="M92.27,71.7h0Z"/><path class="cls-3" d="M92.26,71.59h0Z"/><path class="cls-3" d="M92.37,71.88l0,0Z"/><path class="cls-3" d="M92.24,72Z"/><polygon class="cls-3" points="92.41 71.97 92.41 71.97 92.43 71.98 92.41 71.97"/><path class="cls-3" d="M92.37,72l0,0h0Z"/><path class="cls-3" d="M92.26,72h0Z"/><path class="cls-3" d="M92.44,71.91h0Z"/><path class="cls-3" d="M91.82,72.18Z"/><polygon class="cls-3" points="91.8 72.1 91.8 72.1 91.8 72.1 91.8 72.1"/><path class="cls-3" d="M92.21,71.46Z"/><path class="cls-3" d="M91.69,71.93l.2.06Z"/><path class="cls-3" d="M92.24,72h0Z"/><polygon class="cls-3" points="91.89 71.99 91.89 71.99 91.9 71.99 91.89 71.99"/><path class="cls-3" d="M91.75,71.77h0Z"/><path class="cls-3" d="M92.17,71.62h0Z"/><path class="cls-3" d="M91.86,71.82h0S91.85,71.82,91.86,71.82Z"/><polygon class="cls-3" points="91.85 71.84 91.87 71.85 91.87 71.85 91.85 71.84"/><path class="cls-3" d="M91.84,72.3v0Z"/><path class="cls-3" d="M92.24,72Z"/><path class="cls-3" d="M92.58,72h0Z"/><path class="cls-3" d="M92.38,72.29h0Z"/><path class="cls-3" d="M92.58,72h0Z"/><path class="cls-3" d="M91.85,72.26Z"/><path class="cls-3" d="M91.83,72.3s0,0,0-.06l0,.06,0,0v0s0,0,0,0v0l0-.08s0,0,0,0v0h0l0,0s0,0,0,0a.49.49,0,0,1,0,.07v0l0,.08s0,0,0,0l0-.07s-.06.15,0,.08,0-.12,0-.07l0,.06,0,0v0l0,0,0,.07,0,0,0,.06s0,0,0,.07l0,0,0,0s0,0,0-.07l0,.06s.08-.1,0,0h0s.09-.12,0-.06h0s0,0-.06.08l.08-.08-.1.11h0l.58-.16-.07,0,.09,0-.09,0,.11,0h0l-.07,0,.11,0-.07,0,.07,0c-.09,0,.1,0,0,0l-.07,0c.05,0,.06,0,0,0l.06,0s0,0,0,0l-.16,0,.1,0-.11,0,.15,0,0,0,.09,0c-.06,0,.11,0,0,0h0s0,0,0,0l-.14,0,.1,0-.13,0,.13,0-.07,0-.08,0h.08c-.12-.05.26,0,.09,0h0l-.1,0,.12,0c-.14-.05,0,0-.07,0,.26.06,0,0,.16,0l-.06,0h0l-.09,0c-.07,0,.1,0,.15,0s-.31-.08-.17-.05l.12,0c-.14,0,0,0-.11-.06l.06,0c.08,0,0,0-.06,0l.09,0s-.1,0,0,0h0l-.08,0s-.05,0,0,0c-.1,0,0,0-.1,0,.15,0,.12,0,0,0l.11,0-.11,0c.18,0-.13,0,.09,0l-.09,0-.32.26v-.09a1,1,0,0,1,0,.17v-.13a1.63,1.63,0,0,1,0-.24v.22s0-.1,0-.07v0s0-.15,0-.1,0,0,0,0h0s0,0,0,0h0v0h0s0-.12,0-.1V72h0s0-.06,0,0l0,.06h0l0,0v0s0,0,0,0h0s0,0,0,0h0s0,0,0,0h0s0,0,0,0h0s.07,0,0,0h-.06c.08,0,0,0,.06,0l0,0s0,0,0,0h0s0,0,0,0,0,0,0,.05v0s0,0,0,0h0v0h0v0s0,0,0,0h0s0,0,0,0h0s0,0,0,0l0,0,0,0h0l0,0s0,0,0,0,0,0,0,0,0,0,0,0l0,0s0,0,0,0,0,0,0,0h.06s0,0,0,0l.06,0h0s0,0,0,0h0s0,0,0,0h0s0,0,0,0h0l.06,0h0s0,0,.06,0,0,0-.06,0l0,0s0,0-.06,0h0s0,0,0,0h0s0,0,0,0a.29.29,0,0,1,0-.06s0,0,0,0,0,0,0,0,0-.06,0,0,0-.07,0-.05l0,0s0,0,0,0l0-.07c0-.11-.1.13,0,0,0,0,0,0,0,.1l0-.14s0,.12,0,.08,0,.12,0,.14a1,1,0,0,1,0-.15s0,0,0,0,0,0,0-.06v0s0,0,0-.09a.2.2,0,0,0,0,.07s0,0,0,0a.2.2,0,0,1,0,.05s0,.06,0,.08,0-.13,0-.09a.36.36,0,0,1,0-.11c0,.06,0,0,0-.07v0h0v0l0,.17s0,0,0-.06,0-.09,0-.1h0v0c0-.09,0,.1,0,.1v-.09a.78.78,0,0,1,0,.13s0,0,0,0v0a.28.28,0,0,0,0,.06v0c0,.09,0-.11,0,0v-.13c0,.07,0-.08,0,0v.18s0,0,0,0v.11c0-.12,0,.06,0,0v-.18c0-.09,0,.09,0,0v.07h0l-.21.17h0l-.12,0,.12,0-.09,0,.16,0-.17,0h0s.09,0,0,0l.08,0h0l.12,0c-.21,0,0,0-.17,0l0,0s0,0,0,0,.19.06.12,0l-.1,0c-.22-.06,0,0-.1,0h0l.07,0h0l.18.06-.13,0,.16,0-.18,0h0c-.12,0,0,0,0,0l-.06,0,.14.05h0c.13,0-.07,0,0,0l-.13,0L92,72l-.21-.07.08,0h0L92,72c-.27-.07-.07,0-.28-.06.1,0,0,0,0,0l.22.06h0l-.12,0-.1,0-.14,0c.08,0,.11,0,.08,0l.09,0c.11,0-.17,0-.06,0l-.07,0s0,0,.17.06l-.1,0s.18.06.08,0h-.06s.08,0,0,0l0,0c-.06,0,.13.05.17.06l-.21,0h0l.17.07c-.15,0-.06,0-.14,0l.12,0s.09,0,0,0h0l-.09,0,.16,0c-.22,0,.09,0-.11,0h0l.58-.16h0l0,0,.05-.06s0,0,0,0l0,0-.16.18.07-.1s0-.08,0,0l0,0s0-.07-.07,0c.06-.08,0,0,0,0l0-.06-.09.11s0,0,0,0,0,0,0,0l0,0s0,0,0,0,0,0,0-.07L92,72l0,0s0,.06,0,0v0h0l.07-.13a.42.42,0,0,1-.07.1v0h0v0L92,72h0s0,0,0,0l0,.09.07-.16A.49.49,0,0,0,92,72s0,0,0,0v0a.14.14,0,0,0,0,.08s0-.06,0,0v0c0-.08-.08.15,0,0v0s0,0,0,0,0,0,0,0v0s0,0,0,0h0s0,0,0,0h0s0,0,0,0v0s0,0,0,0,0,0,0,0h0v0l0-.06,0,.08,0-.05,0,.05c0-.05,0,0,0,0s0,.06,0,0Zm0,0Zm0,0h0l0,0Zm.19-.38s0,0,0,0h0Z"/><polygon class="cls-3" points="92.03 71.99 92.03 71.99 92.02 72 92.03 71.98 92.03 71.99"/><polygon class="cls-3" points="92.37 71.89 92.37 71.88 92.36 71.89 92.37 71.89"/><polygon class="cls-3" points="92.41 72.3 92.39 72.3 92.41 72.3 92.41 72.3"/><path class="cls-3" d="M92.22,71.94Z"/><path class="cls-3" d="M92.22,71.94h0Z"/><polygon class="cls-3" points="92.22 71.94 92.22 71.94 92.22 71.94 92.22 71.94"/><path class="cls-3" d="M92.17,72.19h0Z"/><path class="cls-3" d="M92.2,72v0Z"/><polygon class="cls-3" points="92.58 72.02 92.58 72.02 92.58 72.02 92.58 72.02"/><path class="cls-3" d="M92.19,72Z"/><polygon class="cls-3" points="92.24 71.98 92.24 71.98 92.24 71.99 92.24 71.98"/><path class="cls-3" d="M92.24,72Z"/><path class="cls-3" d="M92.24,72Z"/><path class="cls-3" d="M92.24,72Z"/><polygon class="cls-3" points="92.24 71.97 92.24 71.97 92.24 71.97 92.24 71.97"/><path class="cls-3" d="M92.31,72h0a0,0,0,0,0,0,0S92.3,72,92.31,72Z"/><path class="cls-3" d="M92.34,72h0Z"/><path class="cls-3" d="M92.37,71.78l0,0Z"/><polygon class="cls-3" points="92.2 71.97 92.2 71.97 92.21 71.97 92.2 71.97"/><polygon class="cls-3" points="92.36 71.61 92.37 71.61 92.35 71.62 92.36 71.61"/><path class="cls-3" d="M91.77,71.82l.11,0Z"/><path class="cls-3" d="M91.85,71.91s-.09,0,0,0S91.86,71.92,91.85,71.91Z"/><polygon class="cls-3" points="91.67 72.09 91.64 72.08 91.67 72.09 91.67 72.09"/><path class="cls-4" d="M120,35.51a7.32,7.32,0,0,0,2.52.56,28.4,28.4,0,0,1,15.59,46.38c-1.17,1.41-.47,3-.24,4.53a9.46,9.46,0,0,0,1.33,2.89c2.53,4.78,4.63,9.71,5,15.18.13,1.75.19,3.5.2,5.25,0,9.11,0,18.21,0,27.32a12.32,12.32,0,0,1-4,9.6c-.22.2-.66.34-.28.79,1.26,1.47,1.08,3.27,1,5,0,.74.07,1.07,1,1.15,3.27.28,4.76,2,4.76,5.29v4.87c0,1.92-.62,2.54-2.52,2.54H89.2c-2.23,0-2.78-.55-2.78-2.8v-4.62c0-3.27,1.51-5,4.77-5.29.84-.08,1-.3,1-1.11,0-1.83-.27-3.71,1.15-5.23.33-.35-.07-.51-.26-.69a12.62,12.62,0,0,1-4.17-10.06c.07-8.72.15-17.44,0-26.16a40,40,0,0,1,5.15-20.72,11.13,11.13,0,0,0,1.82-5.65,2.74,2.74,0,0,0-.71-2,28.24,28.24,0,0,1,17.54-46.81c.23,0,.54.09.63-.27Zm12.29,122.57c-.51,0-1-.1-1.52-.1-5.13,0-10.26,0-15.39,0-1.47,0-2.14-.65-2.1-2s.75-1.87,2.37-1.89c3.59,0,7.18,0,10.77-.05l8.46,0c2.69,0,2.69,0,2.52-2.71v-.13c0-.74-.38-1.07-1.13-1.06l-9.86,0c-.51,0-1,0-1.54,0H98.74c-2.94,0-2.59-.41-2.67,2.68,0,.94.24,1.27,1.22,1.24,2.18-.07,4.36,0,6.54,0a1.89,1.89,0,0,1,2,1.17,2,2,0,0,1-.28,2.06,2.41,2.41,0,0,1-2.11.69c-3.93,0-7.86,0-11.79,0-1,0-1.42.33-1.34,1.34a12.73,12.73,0,0,1,0,2.31c-.12,1,.21,1.36,1.31,1.36,8.46-.05,16.92,0,25.38,0l15.38,0c2.39,0,4.78.07,7.17,0,1.18,0,2.78.55,3.42-.26s.18-2.28.21-3.47a2.26,2.26,0,0,0,0-.26.86.86,0,0,0-1-1.05C138.88,158,135.59,157.8,132.31,158.08ZM117.19,56l2.82,0c6.2,0,9.68,3.48,9.68,9.68q0,15.13,0,30.26c0,1.46-.42,3.14.18,4.29s2.21,1.77,3.39,2.61,1.55,1.89.85,2.9-1.77,1.13-3,.29c-1.62-1.1-3.22-2.22-4.91-3.38a6.87,6.87,0,0,1-1.16,3.73c-.57.69-.27,1,.3,1.35q4,2.76,8,5.59a1.82,1.82,0,0,1,.52,2.68,1.9,1.9,0,0,1-2.71.48c-.43-.24-.74-.72-1.32-.71a1.36,1.36,0,0,0-.1.37c0,6,0,12,0,17.95,0,.65.33.85.82,1.09a6.62,6.62,0,0,1,4,5.83,35,35,0,0,1,0,4.1c0,1,.33.93,1,.66a8,8,0,0,0,5.06-7.75q0-14.11,0-28.22c0-1.53-.07-3.07-.19-4.6-.42-5.1-2.49-9.63-4.86-14a17.65,17.65,0,0,1-1.47-3.53,21.73,21.73,0,0,1-.37-6.73c.15-4.69.09-9.4.08-14.1a16.22,16.22,0,0,0-1.14-6.39,2.1,2.1,0,0,1,.74-2.9c1.66-.37,2.23-.07,2.85,1.48a18.9,18.9,0,0,1,1.26,5.34c.3,3.5.07,7,.13,10.51,0,.39.05.79.08,1.35,6.19-9.9,4.13-23.26-5.48-31.34a24.6,24.6,0,0,0-33.72,2.25C89.57,56.67,90.9,70,95.84,76.76V75.4c0-3.34,0-6.67,0-10a18,18,0,0,1,2.65-9.11c5.86-9.72,19.53-12.81,29.67-6.72,1.57.95,1.74,1.43,1.11,3.13-1,1-1.94.86-3.09.19a18.2,18.2,0,0,0-14.76-1.78c-.28.07-.58.12-.86.21-6.87,2.32-10.82,7.84-10.89,15.36,0,5.25-.11,10.51,0,15.77a17.73,17.73,0,0,1-2.36,9.78,35,35,0,0,0-4.61,18.63c.16,8.85,0,17.69,0,26.54a10.46,10.46,0,0,0,.29,2.79c.79,3,3.56,5.58,6.08,5.77,0-1.58,0-3.16,0-4.74a6.35,6.35,0,0,1,3.7-6,1.37,1.37,0,0,0,.91-1.44c0-5.73,0-11.45,0-17.18,0-.26.17-.61-.26-.8-.37.24-.75.52-1.15.75a1.85,1.85,0,0,1-2.59-.52,1.77,1.77,0,0,1,.49-2.67c2.88-2.06,5.78-4.08,8.74-6.17a6.83,6.83,0,0,1-1.76-4.44c-1.78,1.23-3.37,2.37-5,3.46a1.87,1.87,0,0,1-2.8-.47,1.75,1.75,0,0,1,.57-2.65c1-.71,1.94-1.4,2.95-2a1.6,1.6,0,0,0,.83-1.56c-.05-1.93,0-3.85,0-5.77,0-9.4.13-18.81,0-28.21-.12-5.81,4.21-9.8,9.49-9.51C114.54,56.11,115.87,56,117.19,56Zm-.32,90.36c4.23,0,8.46,0,12.68,0,.79,0,1.17-.14,1.11-1-.07-1.28,0-2.56,0-3.84a3,3,0,0,0-2.58-3c-1.94-.41-2.19-.72-2.2-2.76,0-6.5-.15-13,.08-19.48a5.61,5.61,0,0,0-2.85-5.47c-1.94-1.33-4.16-1.9-6.11-3.08a.56.56,0,0,0-.47,0c-1.38,1.11-3.32,1-4.67,2.28a22.22,22.22,0,0,1-3.24,2.28,1.91,1.91,0,0,0-1,1.89c0,7.22,0,14.43,0,21.65,0,1.87-.39,2.34-2.16,2.69a2.66,2.66,0,0,0-2.43,2.95c0,1.19.1,2.39,0,3.58s.2,1.45,1.38,1.43C108.58,146.31,112.72,146.36,116.87,146.36Zm-.16-80.61a12.59,12.59,0,0,1-8.42,5c-.54.08-.68.33-.68.85a13.38,13.38,0,0,0,1.72,7A8.26,8.26,0,0,0,117,82.77a7.91,7.91,0,0,0,7.3-4.55,15.56,15.56,0,0,0,1.52-6.54c0-.75-.39-.83-.92-.92A12.65,12.65,0,0,1,116.71,65.75Zm-9,31.81c.87-.11,1.07-.71,1.24-1.34.39-1.52.73-3.07,1.18-4.58A4.3,4.3,0,0,1,116,88.82a1.57,1.57,0,0,0,1.31,0,4.3,4.3,0,0,1,6,3.07c.38,1.4.74,2.8,1.08,4.21a1.56,1.56,0,0,0,1.3,1.36V83.13c-6,4.72-12,4.72-18,0Zm9.05-37.65c-1.37,0-2.73,0-4.1,0-4,.08-5.43,3-5,6.59.08.68.57.38.87.32a8.4,8.4,0,0,0,4.8-3c2.23-2.74,4.6-2.72,6.87,0A8.23,8.23,0,0,0,125,66.83c.35.08.71.26.86-.37a5.21,5.21,0,0,0-5.12-6.55Zm-2,38.25V93.3c0-.39,0-.86-.45-.94s-.57.42-.66.76c-.82,3.13-1.63,6.25-2.41,9.38-.34,1.4.24,2.27,1.49,2.41s2-.58,2-2S114.81,99.73,114.81,98.16Zm7.47,4.88c-.87-3.35-1.77-6.8-2.67-10.25a.51.51,0,0,0-.56-.43c-.29,0-.38.34-.38.6,0,3.53,0,7.07.08,10.6,0,1,1,1.44,2,1.35S122.17,104.11,122.28,103Z"/><path class="cls-5" d="M70.28,62.61a2.13,2.13,0,0,1,1.65.71q6.75,6.75,13.49,13.5a1.92,1.92,0,0,1,0,2.94,1.85,1.85,0,0,1-2.74-.18Q75.92,72.82,69.14,66a1.77,1.77,0,0,1-.48-2.2A2,2,0,0,1,70.28,62.61Z"/><path class="cls-6" d="M70.36,90.94c-3.11,0-6.22,0-9.34,0-1.45,0-2.34-.78-2.31-2S59.6,87.1,61,87.09q9.41,0,18.81,0c1.41,0,2.21.72,2.23,1.91s-.81,1.92-2.2,1.93C76.68,91,73.52,90.94,70.36,90.94Z"/><path class="cls-6" d="M163.07,90.94c-3.11,0-6.23,0-9.34,0-1.48,0-2.37-.73-2.38-1.9s.89-1.94,2.36-2q9.33,0,18.68,0c1.48,0,2.3.74,2.27,2s-.81,1.85-2.25,1.86C169.3,91,166.18,90.94,163.07,90.94Z"/><path class="cls-4" d="M165,64.83c0,.39-.35.85-.78,1.28q-6.7,6.7-13.41,13.41a1.88,1.88,0,0,1-2.92.11c-.84-.87-.81-1.82.17-2.81q6.73-6.76,13.49-13.5a1.86,1.86,0,0,1,2.2-.55A2.07,2.07,0,0,1,165,64.83Z"/><path class="cls-7" d="M116.87,146.36c-4.15,0-8.29-.05-12.43,0-1.18,0-1.45-.34-1.38-1.43s0-2.39,0-3.58a2.66,2.66,0,0,1,2.43-2.95c1.77-.35,2.16-.82,2.16-2.69,0-7.22,0-14.43,0-21.65a1.91,1.91,0,0,1,1-1.89,22.22,22.22,0,0,0,3.24-2.28c1.35-1.24,3.29-1.17,4.67-2.28a.56.56,0,0,1,.47,0c2,1.18,4.17,1.75,6.11,3.08a5.61,5.61,0,0,1,2.85,5.47c-.23,6.48-.08,13-.08,19.48,0,2,.26,2.35,2.2,2.76a3,3,0,0,1,2.58,3c.06,1.28,0,2.56,0,3.84.06.9-.32,1-1.11,1C125.33,146.35,121.1,146.36,116.87,146.36Z"/><path class="cls-8" d="M111.44,51.1a18.2,18.2,0,0,1,14.76,1.78c1.15.67,2.11.8,3.09-.19a14.79,14.79,0,0,1,4.1,4.86,2.1,2.1,0,0,0-.74,2.9,16.22,16.22,0,0,1,1.14,6.39c0,4.7.07,9.41-.08,14.1a21.73,21.73,0,0,0,.37,6.73,17.65,17.65,0,0,0,1.47,3.53c2.37,4.42,4.44,9,4.86,14,.12,1.53.19,3.07.19,4.6q0,14.12,0,28.22a8,8,0,0,1-5.06,7.75c-.71.27-1.08.32-1-.66a35,35,0,0,0,0-4.1,6.62,6.62,0,0,0-4-5.83c-.49-.24-.83-.44-.82-1.09,0-6,0-12,0-17.95a1.36,1.36,0,0,1,.1-.37c.58,0,.89.47,1.32.71a1.9,1.9,0,0,0,2.71-.48,1.82,1.82,0,0,0-.52-2.68q-4-2.84-8-5.59c-.57-.39-.87-.66-.3-1.35a6.87,6.87,0,0,0,1.16-3.73c1.69,1.16,3.29,2.28,4.91,3.38,1.24.84,2.3.73,3-.29s.41-2-.85-2.9-2.8-1.46-3.39-2.61-.18-2.83-.18-4.29q0-15.12,0-30.26c0-6.2-3.48-9.68-9.68-9.68l-2.82,0A12.87,12.87,0,0,0,111.44,51.1Z"/><path class="cls-9" d="M111.44,51.1a12.87,12.87,0,0,1,5.75,4.9c-1.32,0-2.65.11-4,0-5.28-.29-9.61,3.7-9.49,9.51.18,9.4,0,18.81,0,28.21,0,1.92,0,3.84,0,5.77a1.6,1.6,0,0,1-.83,1.56c-1,.64-2,1.33-2.95,2a1.75,1.75,0,0,0-.57,2.65,1.87,1.87,0,0,0,2.8.47c1.63-1.09,3.22-2.23,5-3.46a6.83,6.83,0,0,0,1.76,4.44c-3,2.09-5.86,4.11-8.74,6.17a1.77,1.77,0,0,0-.49,2.67,1.85,1.85,0,0,0,2.59.52c.4-.23.78-.51,1.15-.75.43.19.26.54.26.8,0,5.73,0,11.45,0,17.18a1.37,1.37,0,0,1-.91,1.44,6.35,6.35,0,0,0-3.7,6c0,1.58,0,3.16,0,4.74-2.52-.19-5.29-2.8-6.08-5.77a10.46,10.46,0,0,1-.29-2.79c0-8.85.12-17.69,0-26.54a35,35,0,0,1,4.61-18.63,17.73,17.73,0,0,0,2.36-9.78c-.16-5.26-.1-10.52,0-15.77.07-7.52,4-13,10.89-15.36C110.86,51.22,111.16,51.17,111.44,51.1Z"/><path class="cls-10" d="M132.33,163,117,163c-8.46,0-16.92,0-25.38,0-1.1,0-1.43-.32-1.31-1.36a12.73,12.73,0,0,0,0-2.31c-.08-1,.35-1.35,1.34-1.34,3.93,0,7.86,0,11.79,0a2.41,2.41,0,0,0,2.11-.69,2,2,0,0,0,.28-2.06,1.89,1.89,0,0,0-2-1.17c-2.18,0-4.36-.06-6.54,0-1,0-1.24-.3-1.22-1.24.08-3.09-.27-2.68,2.67-2.68h26.15c.51,0,1,0,1.54,0v3.81c-3.59,0-7.18,0-10.77.05-1.62,0-2.34.62-2.37,1.89s.63,2,2.1,2c5.13,0,10.26,0,15.39,0,.5,0,1,.06,1.52.1C132.32,159.71,132.32,161.35,132.33,163Z"/><path class="cls-11" d="M116.71,65.75a12.65,12.65,0,0,0,8.23,5c.53.09,1,.17.92.92a15.56,15.56,0,0,1-1.52,6.54,7.91,7.91,0,0,1-7.3,4.55,8.26,8.26,0,0,1-7.71-4.14,13.38,13.38,0,0,1-1.72-7c0-.52.14-.77.68-.85A12.59,12.59,0,0,0,116.71,65.75Z"/><path class="cls-12" d="M107.71,97.56V83.16c6,4.69,12,4.69,18,0V97.5a1.56,1.56,0,0,1-1.3-1.36c-.34-1.41-.7-2.81-1.08-4.21a4.3,4.3,0,0,0-6-3.07,1.57,1.57,0,0,1-1.31,0,4.3,4.3,0,0,0-5.89,2.82c-.45,1.51-.79,3.06-1.18,4.58C108.78,96.85,108.58,97.45,107.71,97.56Z"/><path class="cls-13" d="M116.76,59.91h4a5.21,5.21,0,0,1,5.12,6.55c-.15.63-.51.45-.86.37a8.23,8.23,0,0,1-4.81-2.93c-2.27-2.77-4.64-2.79-6.87,0a8.4,8.4,0,0,1-4.8,3c-.3.06-.79.36-.87-.32-.41-3.62,1-6.51,5-6.59C114,59.88,115.39,59.91,116.76,59.91Z"/><path class="cls-14" d="M132.33,163c0-1.63,0-3.27,0-4.9,3.28-.28,6.57-.07,9.85-.11a.86.86,0,0,1,1,1.05,2.26,2.26,0,0,1,0,.26c0,1.19.38,2.72-.21,3.47s-2.24.24-3.42.26C137.11,163.05,134.72,163,132.33,163Z"/><path class="cls-15" d="M126.44,154.07v-3.81l9.86,0c.75,0,1.12.32,1.13,1.06v.13c.17,2.71.17,2.72-2.52,2.71Z"/><path class="cls-16" d="M114.81,98.16c0,1.57,0,3.15,0,4.73s-.78,2.16-2,2-1.83-1-1.49-2.41c.78-3.13,1.59-6.25,2.41-9.38.09-.34.15-.86.66-.76s.45.55.45.94Z"/><path class="cls-17" d="M122.28,103c-.11,1.07-.55,1.79-1.54,1.87s-2-.31-2-1.35c-.12-3.53-.08-7.07-.08-10.6,0-.26.09-.55.38-.6a.51.51,0,0,1,.56.43C120.51,96.24,121.41,99.69,122.28,103Z"/></g></g></svg>