<svg xmlns="http://www.w3.org/2000/svg" viewBox="0 0 192.07 192.07"><defs><style>.cls-1{fill:#b1d0ba;}.cls-2{fill:#fff;}.cls-3{fill:#b4b691;}.cls-4{fill:#030303;}.cls-5{fill:#090909;}.cls-6{fill:#020202;}.cls-7{fill:#fd5159;}.cls-8{fill:#8dd5e8;}.cls-9{fill:#aadce9;}.cls-10{fill:#84657c;}.cls-11{fill:#fcf1c5;}.cls-12{fill:#f64f57;}.cls-13{fill:#f1b17e;}.cls-14{fill:#76576e;}.cls-15{fill:#795a72;}.cls-16{fill:#f0e5bb;}.cls-17{fill:#f9eec2;}</style></defs><g id="Capa_2" data-name="Capa 2"><g id="Capa_1-2" data-name="Capa 1"><rect class="cls-1" x="3.5" y="3.5" width="185.07" height="185.07" rx="14.53"/><path class="cls-2" d="M174,7a11.06,11.06,0,0,1,11,11V174a11.07,11.07,0,0,1-11,11H18A11.06,11.06,0,0,1,7,174V18A11.06,11.06,0,0,1,18,7H174m0-7H18A18.05,18.05,0,0,0,0,18V174a18.05,18.05,0,0,0,18,18H174a18.05,18.05,0,0,0,18-18V18A18.05,18.05,0,0,0,174,0Z"/><path class="cls-2" d="M54.09,24.53q0,2.38-4.28,6.45c-3.21,3.07-5,5.15-5.47,6.23l1.19.54a23.12,23.12,0,0,1,10.35,2.06Q61.3,42.47,61.29,48q0,4.93-4.06,9.59a27.51,27.51,0,0,1-8.34,6.55,33.22,33.22,0,0,1-15.66,4q-6.82,0-9.64-1.19-5-2.11-5-4.93a2.73,2.73,0,0,1,1.14-2.28A3.88,3.88,0,0,1,22.13,59a6.8,6.8,0,0,1,1.46.16q6.51,4.34,11.54,4.33a17.52,17.52,0,0,0,7.69-2.22,31.31,31.31,0,0,0,6.77-4.55A14.17,14.17,0,0,0,52.41,53a9.44,9.44,0,0,0,1.41-4.39A4.93,4.93,0,0,0,52,45a5.58,5.58,0,0,0-3.85-1.65,32.18,32.18,0,0,0-7.09,1.19A31.56,31.56,0,0,1,34,45.71a6.79,6.79,0,0,1-2.43-.37L31,43.55a13.37,13.37,0,0,1,3.58-4.88c2.74-2.52,4.21-3.9,4.39-4.11.79-.94,1.68-2,2.65-3.31l0-.76-1.3-.32q-1.35.48-7.66,1.73a63.84,63.84,0,0,1-7.61,1.25,7.07,7.07,0,0,1-3.69-1A3.61,3.61,0,0,1,19.58,29q0-2,2.6-4a45.39,45.39,0,0,1,7-1q6.34-.48,7.12-.6c.53-.07,2.61-.41,6.26-1a37.23,37.23,0,0,1,6.29-.71Q54.09,21.77,54.09,24.53Z"/><polygon class="cls-3" points="91.97 72 91.98 72 91.98 72 91.97 72"/><path class="cls-3" d="M92,72a0,0,0,0,0,0,0h0Z"/><path class="cls-3" d="M92.13,71.88h0Z"/><path class="cls-3" d="M92,71.7h0Z"/><path class="cls-3" d="M92,71.59h0Z"/><path class="cls-3" d="M92.13,71.88v0S92.13,71.87,92.13,71.88Z"/><path class="cls-3" d="M92,72Z"/><polygon class="cls-3" points="92.16 71.97 92.16 71.97 92.18 71.98 92.16 71.97"/><path class="cls-3" d="M92.12,72l0,0h0Z"/><path class="cls-3" d="M92,72h0Z"/><path class="cls-3" d="M92.19,71.91h0Z"/><path class="cls-3" d="M91.58,72.18Z"/><polygon class="cls-3" points="91.56 72.1 91.56 72.1 91.56 72.1 91.56 72.1"/><path class="cls-3" d="M92,71.46Z"/><path class="cls-3" d="M91.44,71.94l.21,0Z"/><path class="cls-3" d="M92,72h0Z"/><polygon class="cls-3" points="91.64 71.99 91.65 71.99 91.66 71.99 91.64 71.99"/><path class="cls-3" d="M91.5,71.77h0Z"/><path class="cls-3" d="M91.93,71.62h0Z"/><path class="cls-3" d="M91.62,71.82h0S91.6,71.82,91.62,71.82Z"/><polygon class="cls-3" points="91.61 71.84 91.62 71.85 91.62 71.85 91.61 71.84"/><path class="cls-3" d="M91.59,72.3l0,0Z"/><path class="cls-3" d="M92,72Z"/><path class="cls-3" d="M92.33,72h0Z"/><path class="cls-3" d="M92.13,72.29h0Z"/><path class="cls-3" d="M92.34,72h0Z"/><path class="cls-3" d="M91.61,72.26Z"/><path class="cls-3" d="M91.58,72.3s0,0,0-.06l0,.06,0,0v0s0,0,0,0v0l0-.08s0,0,0,0v0h0l0,0s0,0,0,0a.25.25,0,0,0,0,.07v0l0,.08s0,0,0,0l0-.07,0,.08s0-.12,0-.07l0,.06s0-.09,0,0v0l0,0,0,.07,0,0,0,.06,0,.07,0,0,0,0s0,0,0-.07l0,.06,0,0v0l0-.07h0s0,0-.05.08c.06-.07,0,0,.07-.07l-.1.1h0l.57-.16-.07,0,.09,0-.09,0,.11,0h0l-.07,0,.12,0-.07,0,.07,0c-.09,0,.1,0,0,0l-.07,0c.06,0,.06,0,0,0l.06,0s0,0,0,0l-.16,0,.11,0-.12,0,.15,0,0,0,.08,0c-.06,0,.11,0,0,0h0s0,0,0,0l-.14,0,.1,0-.13,0,.14,0-.08,0-.08,0h.09c-.13-.05.26,0,.08,0h0l-.09,0,.12,0c-.15-.05,0,0-.07,0,.26.06,0,0,.15,0l-.06,0h0l-.09,0c-.07,0,.1,0,.16,0s-.32-.08-.17-.05l.11,0c-.13,0,0,0-.11-.06l.06,0c.08,0,0,0-.06,0l.09,0s-.1,0,0,0h0l-.08,0s0,0,0,0,0,0-.09,0c.15,0,.12,0,0,0l.1,0-.1,0c.17,0-.14,0,.08,0l-.08,0-.33.26v0c0-.07,0,0,0-.07v0c0-.09,0-.19,0-.24v.22s0-.1,0-.07v0s0-.15,0-.1,0,0,0,0h0s0,0,0,0h0v0h0s0-.12,0-.1L92,72h0s0-.06,0,0L92,72h0v0s0,0,0,0h0s0,0,0,0h0l0,0h0c-.06,0,.07,0,0,0H92L92,72l0,0s0,0,0,0h0A.17.17,0,0,1,92,72v0h0v0s0,0,0,0h0s0,0,0,0v0s0,0,0,0h0s0,0,0,0h0s0,0,0,0l0,0,0,0h0v0l0,0s0,0,0,0,0,0,0,0l0,0s0,0,0,0,0,0,0,0h.06s0,0,0,0l.06,0h0s0,0,0,0h0s0,0,0,0h0s0,0,0,0h.06l0,0h0s0,0,.06,0,0,0,0,0l0,0s0,0-.07,0h0s0,0,0,0h0s0,0-.06,0l0-.06s0,0,0,0,0,0,0,0,0-.06,0,0,0-.07,0-.05l0,0a0,0,0,0,1,0,0l0-.07c0-.11-.11.13,0,0,0,0,0,0,0,.1a.89.89,0,0,0,0-.14s0,.12,0,.08a.57.57,0,0,1,0,.14,1.13,1.13,0,0,1,0-.15v0a.35.35,0,0,0,0-.06v0s0,0,0-.09a.2.2,0,0,0,0,.07s0,0,0,0a.2.2,0,0,1,0,.05s0,.06,0,.08,0-.13,0-.09a.36.36,0,0,1,0-.11c0,.06,0,0,0-.07v0h0v.07s0,0,0,0,0,.11,0,.17,0,0,0-.06,0-.09,0-.1,0,0,0,0v0c0-.09,0,.1,0,.1a.18.18,0,0,0,0-.09s0,.09,0,.13,0,0,0,0v0c0,.06,0,0,0,.06v0c0,.09,0-.1,0,0v-.13c0,.07,0-.08,0,0v.15a.45.45,0,0,0,0,.11c0-.12,0,.06,0,0v-.18c0-.09,0,.09,0,0v.07h0l-.21.17h0l-.13,0,.12,0-.08,0,.15,0-.16,0h0s.08,0,0,0l.09,0h0l.11,0c-.2,0,0,0-.17,0l0,0h0l.12,0-.1,0c-.22-.06,0,0-.1,0h0l.06,0h0l.17.06-.13,0,.17,0-.19,0h0c-.12,0,0,0,0,0l0,0,.13.05h.07l-.14,0,.15,0-.2-.07.07,0s0,0,0,0l.15,0c-.26-.07-.07,0-.27-.06.09,0,0,0,0,0l.21.06h0l-.13,0-.09,0-.15,0c.08,0,.11,0,.08,0l.1,0c.11,0-.18,0-.07,0l-.06,0s0,0,.16.06l-.09,0s.17.06.07,0h-.06s.09,0,.06,0l-.06,0c-.06,0,.14.05.17.06l-.21,0h0l.17.07c-.15,0-.06,0-.14,0l.12,0s.1,0,0,0h0l-.09,0,.16,0c-.23,0,.08,0-.12,0h0L92,72h0l0,0,.06-.06s0,0,0,0l0,0s-.16.17-.17.18L92,72s0-.08,0,0l0,0s0-.07-.06,0c0-.07,0,0,0,0l0-.06-.09.11,0,0s0,0,0,0l0,0s0,0,0,0,0,0,0-.07l0,.06,0,0s0,.06,0,0l0,0h0a1.17,1.17,0,0,1,.08-.13l-.08.1v0h0s0,0,0,0l0,.08h0s0,0,0,0l0,.09.06-.16a.33.33,0,0,0-.07.11s0,0,0,0v0s0,0,0,.08,0-.06,0,0v0c0-.08-.07.15,0,0v0s0,0,0,0v0s0,0,0,0h0s0,0,0,0h0s0,0,0,0h0s0,0,0,0h0s0,0,0,0v0s0,0,0,0,0,0,0,0h0v0l0-.06,0,.08,0-.05v.05c0-.05,0,0,0,0s0,.06,0,0Zm0,0Zm0,0h0l0,0Zm.19-.38s0,0,0,0h0Z"/><polygon class="cls-3" points="91.78 71.99 91.78 71.99 91.77 72 91.78 71.99 91.78 71.99"/><polygon class="cls-3" points="92.12 71.89 92.12 71.88 92.11 71.89 92.12 71.89"/><polygon class="cls-3" points="92.16 72.3 92.14 72.3 92.16 72.3 92.16 72.3"/><path class="cls-3" d="M92,71.94Z"/><path class="cls-3" d="M92,71.94h0Z"/><polygon class="cls-3" points="91.97 71.94 91.98 71.94 91.98 71.95 91.97 71.94"/><path class="cls-3" d="M91.92,72.19h0Z"/><path class="cls-3" d="M92,72v0Z"/><polygon class="cls-3" points="92.33 72.02 92.33 72.02 92.33 72.02 92.33 72.02"/><path class="cls-3" d="M91.94,72Z"/><polygon class="cls-3" points="91.99 71.98 91.99 71.98 91.99 71.99 91.99 71.98"/><path class="cls-3" d="M92,72Z"/><path class="cls-3" d="M92,72Z"/><path class="cls-3" d="M92,72Z"/><polygon class="cls-3" points="91.99 71.97 92 71.97 92 71.97 91.99 71.97"/><path class="cls-3" d="M92.06,72h0l0,0S92.05,72,92.06,72Z"/><path class="cls-3" d="M92.1,72s0,0,0,0Z"/><path class="cls-3" d="M92.12,71.78l0,0Z"/><polygon class="cls-3" points="91.96 71.98 91.96 71.97 91.96 71.97 91.96 71.98"/><polygon class="cls-3" points="92.11 71.61 92.12 71.61 92.1 71.62 92.11 71.61"/><path class="cls-3" d="M91.53,71.82l.1,0Z"/><path class="cls-3" d="M91.6,71.91s-.09,0,0,0S91.62,71.92,91.6,71.91Z"/><polygon class="cls-3" points="91.43 72.09 91.39 72.08 91.42 72.09 91.43 72.09"/><path class="cls-4" d="M119.78,35.51a7.27,7.27,0,0,0,2.52.56,28.39,28.39,0,0,1,15.58,46.38c-1.17,1.41-.47,3-.24,4.53A9.71,9.71,0,0,0,139,89.87c2.53,4.78,4.63,9.71,5.05,15.18.13,1.75.19,3.5.19,5.25,0,9.11,0,18.21,0,27.32a12.29,12.29,0,0,1-4,9.6c-.22.2-.66.34-.28.79,1.27,1.48,1.08,3.27,1.05,5,0,.74.07,1.07,1,1.15,3.27.28,4.76,2,4.76,5.29,0,1.62,0,3.25,0,4.87,0,1.92-.62,2.54-2.51,2.54H89c-2.24,0-2.78-.55-2.79-2.8v-4.62c0-3.27,1.52-5,4.77-5.29.84-.08,1.06-.3,1-1.11,0-1.83-.27-3.71,1.15-5.23.32-.35-.07-.51-.27-.69a12.69,12.69,0,0,1-4.17-10.06c.07-8.72.15-17.44,0-26.16a40,40,0,0,1,5.15-20.72,11,11,0,0,0,1.82-5.65,2.74,2.74,0,0,0-.71-2,28.23,28.23,0,0,1,17.55-46.81c.22,0,.53.09.62-.27Zm12.28,122.57c-.5,0-1-.1-1.52-.1-5.13,0-10.26,0-15.38,0-1.48,0-2.15-.65-2.11-2s.76-1.87,2.38-1.89c3.59,0,7.18,0,10.76-.05l8.46,0c2.7,0,2.7,0,2.52-2.71v-.13c0-.74-.38-1.07-1.12-1.06l-9.87,0c-.51,0-1,0-1.53,0H98.5c-3,0-2.6-.41-2.67,2.68,0,.94.24,1.27,1.21,1.24,2.18-.07,4.36,0,6.54,0a1.89,1.89,0,0,1,2,1.17,2,2,0,0,1-.28,2.06,2.41,2.41,0,0,1-2.11.69c-3.93,0-7.86,0-11.79,0-1,0-1.42.33-1.34,1.34a12.73,12.73,0,0,1,0,2.31c-.12,1,.22,1.36,1.31,1.36,8.46-.05,16.92,0,25.38,0l15.38,0c2.39,0,4.79.07,7.18,0,1.17,0,2.78.55,3.41-.26s.18-2.28.22-3.47a2.26,2.26,0,0,1,0-.26.87.87,0,0,0-1-1.05C138.63,158,135.34,157.8,132.06,158.08ZM117,56l2.81,0c6.2,0,9.69,3.48,9.69,9.68q0,15.13,0,30.26c0,1.46-.41,3.14.18,4.29s2.22,1.77,3.39,2.62,1.55,1.88.85,2.89-1.76,1.13-3,.29L126,102.7a6.7,6.7,0,0,1-1.16,3.73c-.56.69-.27,1,.3,1.35q4,2.76,8,5.6a1.81,1.81,0,0,1,.52,2.67,1.9,1.9,0,0,1-2.71.48c-.42-.24-.73-.72-1.32-.71a1.33,1.33,0,0,0-.09.37c0,6,0,12,0,17.95,0,.66.33.85.82,1.09a6.6,6.6,0,0,1,4,5.83,37.39,37.39,0,0,1,0,4.1c0,1,.33.93,1,.66a8.06,8.06,0,0,0,5.06-7.75q0-14.11,0-28.22c0-1.53-.07-3.07-.19-4.6-.42-5.1-2.49-9.63-4.85-14a17.12,17.12,0,0,1-1.48-3.53,22,22,0,0,1-.36-6.73c.14-4.69.08-9.4.07-14.1a15.9,15.9,0,0,0-1.14-6.39,2.11,2.11,0,0,1,.74-2.9c1.66-.37,2.23-.07,2.85,1.48a18.57,18.57,0,0,1,1.26,5.34c.3,3.5.07,7,.14,10.51,0,.39,0,.79.07,1.35,6.2-9.9,4.13-23.26-5.47-31.34a24.61,24.61,0,0,0-33.73,2.25c-8.93,9.53-7.6,22.9-2.67,29.62V75.4c0-3.34,0-6.67,0-10a17.81,17.81,0,0,1,2.65-9.11c5.85-9.72,19.52-12.81,29.66-6.72,1.57.95,1.74,1.43,1.11,3.13-1,1-1.94.86-3.09.19A18.18,18.18,0,0,0,111.2,51.1c-.29.07-.59.12-.87.21-6.87,2.32-10.82,7.84-10.89,15.36,0,5.25-.1,10.51.06,15.77a17.82,17.82,0,0,1-2.36,9.78,34.88,34.88,0,0,0-4.61,18.63c.16,8.85,0,17.69,0,26.54a10.46,10.46,0,0,0,.29,2.79c.8,3,3.56,5.58,6.08,5.77,0-1.58,0-3.16,0-4.74a6.34,6.34,0,0,1,3.71-6,1.38,1.38,0,0,0,.91-1.44c0-5.73,0-11.45,0-17.18,0-.26.17-.61-.25-.8-.37.24-.75.52-1.16.75a1.85,1.85,0,0,1-2.59-.52,1.78,1.78,0,0,1,.49-2.67c2.88-2.06,5.79-4.08,8.74-6.17a6.77,6.77,0,0,1-1.75-4.44c-1.78,1.23-3.38,2.37-5,3.46a1.85,1.85,0,0,1-2.79-.47,1.75,1.75,0,0,1,.56-2.65c1-.71,1.94-1.4,2.95-2a1.59,1.59,0,0,0,.84-1.56c0-1.93,0-3.85,0-5.77,0-9.4.13-18.81,0-28.21-.11-5.81,4.21-9.8,9.5-9.51C114.29,56.11,115.62,56,117,56Zm-.33,90.36c4.23,0,8.46,0,12.69,0,.78,0,1.16-.14,1.11-1-.08-1.28,0-2.56,0-3.84a3,3,0,0,0-2.59-3c-1.94-.41-2.19-.72-2.19-2.76,0-6.5-.15-13,.07-19.48a5.59,5.59,0,0,0-2.85-5.47c-1.94-1.33-4.15-1.9-6.1-3.08a.56.56,0,0,0-.47,0c-1.39,1.11-3.32,1-4.68,2.28a21.69,21.69,0,0,1-3.24,2.28,1.92,1.92,0,0,0-1,1.89c0,7.22,0,14.43,0,21.65,0,1.87-.4,2.34-2.17,2.69a2.66,2.66,0,0,0-2.42,2.95c0,1.19.1,2.39,0,3.58s.19,1.45,1.37,1.43C108.33,146.31,112.48,146.36,116.62,146.36Zm-.15-80.61a12.63,12.63,0,0,1-8.43,5c-.54.08-.68.33-.67.85a13.28,13.28,0,0,0,1.72,7,8.25,8.25,0,0,0,7.7,4.14,7.9,7.9,0,0,0,7.3-4.55,15.41,15.41,0,0,0,1.52-6.54c0-.75-.39-.83-.91-.92A12.6,12.6,0,0,1,116.47,65.75Zm-9,31.81c.87-.11,1.07-.71,1.23-1.34.39-1.52.73-3.07,1.18-4.58a4.3,4.3,0,0,1,5.89-2.82,1.58,1.58,0,0,0,1.31,0,4.31,4.31,0,0,1,6,3.07c.37,1.4.73,2.8,1.08,4.21a1.55,1.55,0,0,0,1.29,1.36V83.13c-6,4.72-12,4.72-18,0Zm9-37.65c-1.36,0-2.73,0-4.09,0-4,.08-5.44,3-5,6.59.08.68.57.38.88.32a8.38,8.38,0,0,0,4.79-3c2.23-2.74,4.6-2.72,6.87,0a8.26,8.26,0,0,0,4.81,2.93c.35.08.71.26.86-.37a5.21,5.21,0,0,0-5.12-6.55Zm-2,38.25c0-1.62,0-3.24,0-4.86,0-.39,0-.86-.46-.94s-.57.42-.66.76c-.82,3.13-1.63,6.25-2.4,9.38-.35,1.4.23,2.27,1.48,2.41s2-.58,2-2S114.56,99.73,114.56,98.16ZM122,103c-.88-3.35-1.77-6.8-2.68-10.25a.51.51,0,0,0-.56-.43c-.29,0-.38.34-.38.6,0,3.53,0,7.07.08,10.6,0,1,1,1.44,2,1.35S121.92,104.11,122,103Z"/><path class="cls-5" d="M70,62.61a2.1,2.1,0,0,1,1.65.71q6.75,6.75,13.49,13.5a1.92,1.92,0,0,1,0,2.94,1.84,1.84,0,0,1-2.73-.18Q75.68,72.82,68.9,66a1.76,1.76,0,0,1-.49-2.2A2,2,0,0,1,70,62.61Z"/><path class="cls-6" d="M70.12,90.94c-3.12,0-6.23,0-9.34,0-1.46,0-2.35-.78-2.31-2s.88-1.87,2.28-1.87q9.41,0,18.81,0c1.4,0,2.21.72,2.22,1.91s-.81,1.92-2.2,1.93C76.43,91,73.27,90.94,70.12,90.94Z"/><path class="cls-6" d="M162.82,90.94c-3.11,0-6.22,0-9.34,0-1.48,0-2.37-.73-2.38-1.9s.9-1.94,2.36-2q9.34,0,18.68,0c1.49,0,2.3.74,2.27,2s-.8,1.85-2.25,1.86C169.05,91,165.94,90.94,162.82,90.94Z"/><path class="cls-4" d="M164.71,64.83c0,.39-.35.85-.78,1.28q-6.7,6.7-13.41,13.41a1.88,1.88,0,0,1-2.92.11c-.83-.87-.8-1.82.18-2.81q6.74-6.76,13.49-13.5a1.85,1.85,0,0,1,2.19-.55A2.06,2.06,0,0,1,164.71,64.83Z"/><path class="cls-7" d="M116.62,146.36c-4.14,0-8.29-.05-12.43,0-1.18,0-1.45-.34-1.37-1.43s0-2.39,0-3.58a2.66,2.66,0,0,1,2.42-2.95c1.77-.35,2.17-.82,2.17-2.69,0-7.22,0-14.43,0-21.65a1.92,1.92,0,0,1,1-1.89,21.69,21.69,0,0,0,3.24-2.28c1.36-1.24,3.29-1.17,4.68-2.28a.56.56,0,0,1,.47,0c2,1.18,4.16,1.75,6.1,3.08a5.59,5.59,0,0,1,2.85,5.47c-.22,6.48-.08,13-.07,19.48,0,2,.25,2.35,2.19,2.76a3,3,0,0,1,2.59,3c.05,1.28,0,2.56,0,3.84.05.9-.33,1-1.11,1C125.08,146.35,120.85,146.36,116.62,146.36Z"/><path class="cls-8" d="M111.2,51.1A18.18,18.18,0,0,1,126,52.88c1.15.67,2.11.8,3.09-.19a14.56,14.56,0,0,1,4.1,4.86,2.11,2.11,0,0,0-.74,2.9,15.9,15.9,0,0,1,1.14,6.39c0,4.7.07,9.41-.07,14.1a22,22,0,0,0,.36,6.73,17.12,17.12,0,0,0,1.48,3.53c2.36,4.42,4.43,9,4.85,14,.12,1.53.19,3.07.19,4.6q0,14.12,0,28.22a8.06,8.06,0,0,1-5.06,7.75c-.71.27-1.09.32-1-.66a37.39,37.39,0,0,0,0-4.1,6.6,6.6,0,0,0-4-5.83c-.49-.24-.82-.43-.82-1.09,0-6,0-12,0-17.95a1.33,1.33,0,0,1,.09-.37c.59,0,.9.47,1.32.71a1.9,1.9,0,0,0,2.71-.48,1.81,1.81,0,0,0-.52-2.67q-4-2.85-8-5.6c-.57-.39-.86-.66-.3-1.35A6.7,6.7,0,0,0,126,102.7l4.91,3.38c1.25.84,2.31.73,3-.29s.41-2-.85-2.89-2.79-1.47-3.39-2.62-.18-2.83-.18-4.29q0-15.12,0-30.26c0-6.2-3.49-9.68-9.69-9.68L117,56A12.93,12.93,0,0,0,111.2,51.1Z"/><path class="cls-9" d="M111.2,51.1A12.93,12.93,0,0,1,117,56c-1.33,0-2.66.11-4,0-5.29-.29-9.61,3.7-9.5,9.51.18,9.4,0,18.81,0,28.21,0,1.92,0,3.84,0,5.77a1.59,1.59,0,0,1-.84,1.56c-1,.64-2,1.33-2.95,2a1.75,1.75,0,0,0-.56,2.65,1.85,1.85,0,0,0,2.79.47c1.63-1.09,3.23-2.23,5-3.46a6.77,6.77,0,0,0,1.75,4.44c-3,2.09-5.86,4.11-8.74,6.17a1.78,1.78,0,0,0-.49,2.67,1.85,1.85,0,0,0,2.59.52c.41-.23.79-.51,1.16-.75.42.19.25.54.25.8,0,5.73,0,11.45,0,17.18a1.38,1.38,0,0,1-.91,1.44,6.34,6.34,0,0,0-3.71,6c0,1.58,0,3.16,0,4.74-2.52-.19-5.28-2.8-6.08-5.77a10.46,10.46,0,0,1-.29-2.79c0-8.85.13-17.69,0-26.54a34.88,34.88,0,0,1,4.61-18.63,17.82,17.82,0,0,0,2.36-9.78c-.16-5.26-.11-10.52-.06-15.77.07-7.52,4-13,10.89-15.36C110.61,51.22,110.91,51.17,111.2,51.1Z"/><path class="cls-10" d="M132.08,163l-15.38,0c-8.46,0-16.92,0-25.38,0-1.09,0-1.43-.32-1.31-1.36a12.73,12.73,0,0,0,0-2.31c-.08-1,.35-1.35,1.34-1.34,3.93,0,7.86,0,11.79,0a2.41,2.41,0,0,0,2.11-.69,2,2,0,0,0,.28-2.06,1.89,1.89,0,0,0-2-1.17c-2.18,0-4.36-.06-6.54,0-1,0-1.23-.3-1.21-1.24.07-3.09-.28-2.68,2.67-2.68h26.15c.51,0,1,0,1.53,0v3.81c-3.58,0-7.17,0-10.76.05-1.62,0-2.34.62-2.38,1.89s.63,2,2.11,2c5.12,0,10.25,0,15.38,0,.51,0,1,.06,1.52.1C132.07,159.71,132.08,161.35,132.08,163Z"/><path class="cls-11" d="M116.47,65.75a12.6,12.6,0,0,0,8.23,5c.52.09,1,.17.91.92a15.41,15.41,0,0,1-1.52,6.54,7.9,7.9,0,0,1-7.3,4.55,8.25,8.25,0,0,1-7.7-4.14,13.28,13.28,0,0,1-1.72-7c0-.52.13-.77.67-.85A12.63,12.63,0,0,0,116.47,65.75Z"/><path class="cls-12" d="M107.47,97.56V83.16c6,4.69,12,4.69,18,0V97.5a1.55,1.55,0,0,1-1.29-1.36c-.35-1.41-.71-2.81-1.08-4.21a4.31,4.31,0,0,0-6-3.07,1.58,1.58,0,0,1-1.31,0,4.3,4.3,0,0,0-5.89,2.82c-.45,1.51-.79,3.06-1.18,4.58C108.54,96.85,108.34,97.45,107.47,97.56Z"/><path class="cls-13" d="M116.51,59.91h4a5.21,5.21,0,0,1,5.12,6.55c-.15.63-.51.45-.86.37a8.26,8.26,0,0,1-4.81-2.93c-2.27-2.77-4.64-2.79-6.87,0a8.38,8.38,0,0,1-4.79,3c-.31.06-.8.36-.88-.32-.41-3.62,1.06-6.51,5-6.59C113.78,59.88,115.15,59.91,116.51,59.91Z"/><path class="cls-14" d="M132.08,163c0-1.63,0-3.27,0-4.9,3.28-.28,6.57-.07,9.85-.11a.87.87,0,0,1,1,1.05,2.26,2.26,0,0,0,0,.26c0,1.19.37,2.72-.22,3.47s-2.24.24-3.41.26C136.87,163.05,134.47,163,132.08,163Z"/><path class="cls-15" d="M126.19,154.07v-3.81l9.87,0c.74,0,1.11.32,1.12,1.06v.13c.18,2.71.18,2.72-2.52,2.71Z"/><path class="cls-16" d="M114.56,98.16c0,1.57,0,3.15,0,4.73s-.79,2.16-2,2-1.83-1-1.48-2.41c.77-3.13,1.58-6.25,2.4-9.38.09-.34.15-.86.66-.76s.46.55.46.94C114.56,94.92,114.56,96.54,114.56,98.16Z"/><path class="cls-17" d="M122,103c-.12,1.07-.55,1.79-1.55,1.87s-1.95-.31-2-1.35c-.12-3.53-.07-7.07-.08-10.6,0-.26.09-.55.38-.6a.51.51,0,0,1,.56.43C120.27,96.24,121.16,99.69,122,103Z"/></g></g></svg>