<svg xmlns="http://www.w3.org/2000/svg" xmlns:xlink="http://www.w3.org/1999/xlink" viewBox="0 0 192.56 245.45"><defs><style>.cls-1{fill:#fff;}.cls-2{fill:url(#linear-gradient);}.cls-3{fill:#030303;}.cls-4{fill:#c68569;}.cls-5{fill:#b06d55;}.cls-6{fill:#2fcb9a;}.cls-7{fill:#fdb156;}.cls-8{fill:#fccc70;}.cls-9{fill:#fcbf63;}.cls-10{fill:#fabd62;}.cls-11{fill:#f7c5b8;}.cls-12{fill:#ecada1;}.cls-13{fill:#030302;}.cls-14{fill:#040302;}.cls-15{fill:#fddbcd;}.cls-16{fill:#fcc9bc;}</style><linearGradient id="linear-gradient" x1="3.75" y1="96.03" x2="188.81" y2="96.03" gradientUnits="userSpaceOnUse"><stop offset="0.07" stop-color="#b42122"/><stop offset="1" stop-color="#cf332a"/></linearGradient></defs><g id="Capa_2" data-name="Capa 2"><g id="Capa_1-2" data-name="Capa 1"><rect class="cls-1" y="164.52" width="192.56" height="80.93" rx="7.64"/><path d="M62.74,192.15a4.08,4.08,0,0,1,2.84,1.07q2.3,2.06,2.29,6.48a9.37,9.37,0,0,1-2.53,7,4.73,4.73,0,0,1-3,1.39,4.32,4.32,0,0,1-3.54-1.56A9.51,9.51,0,0,1,57,203a13.68,13.68,0,0,1-.53-3.71,8.29,8.29,0,0,1,1.45-5A5.57,5.57,0,0,1,62.74,192.15Zm-.17,2a3.73,3.73,0,0,0-4,3,7.47,7.47,0,0,0-.24,2.08,10.78,10.78,0,0,0,.48,2.93,5.69,5.69,0,0,0,1.91,3.16,2.86,2.86,0,0,0,1.79.57,2.51,2.51,0,0,0,1.89-.94,5.07,5.07,0,0,0,1.14-2.4,13.85,13.85,0,0,0,.31-2.94,8.93,8.93,0,0,0-.75-4.06A2.64,2.64,0,0,0,62.57,194.13Z"/><path d="M72.69,204.54l0,2.46a1.05,1.05,0,0,1-.4.78,1.16,1.16,0,0,1-.77.36c-.37,0-.6-.28-.7-.86,0-.12-.08-1.29-.19-3.49a27.78,27.78,0,0,0-.64-5.2,9.1,9.1,0,0,1-.22-1.07c0-.53.32-.79,1-.79a.76.76,0,0,1,.64.31,1.51,1.51,0,0,1,.3.63c0,.22.08.51.11.88s0,.59.07.69a3.71,3.71,0,0,1,1.5-1.79,4.2,4.2,0,0,1,2.2-.6c1.31,0,2,.33,2,1a1,1,0,0,1-.35.8,1.19,1.19,0,0,1-.8.3,3.14,3.14,0,0,0-2.86,1.29A8.21,8.21,0,0,0,72.69,204.54Z"/><path d="M85.46,196.87c.7,0,1.06.6,1.06,1.79v.41l0,1.67c0,.53,0,1,0,1.55l.36,5.4c0,.4-.4.6-1.22.6h-.34a.4.4,0,0,1-.38-.22.7.7,0,0,1,0-.52,1.08,1.08,0,0,0-.06-.7A3.8,3.8,0,0,1,81.86,208c-2.24,0-3.37-1.73-3.37-5.2a7.37,7.37,0,0,1,1.09-4.37A3.62,3.62,0,0,1,82.7,197a5.86,5.86,0,0,1,1.91.33A1,1,0,0,1,85.46,196.87ZM83,199.05a2.53,2.53,0,0,0-2,.78,4.65,4.65,0,0,0-.67,2.89c0,2.36.64,3.54,1.91,3.54a1.86,1.86,0,0,0,1.11-.46,2.45,2.45,0,0,0,.85-1,8.51,8.51,0,0,0,.46-2.82,4.88,4.88,0,0,0-.38-2.22A1.29,1.29,0,0,0,83,199.05Z"/><path d="M88.68,199.52a5.44,5.44,0,0,1,2.16-2,5.74,5.74,0,0,1,2.55-.65,5.45,5.45,0,0,1,2,.3c.51.2.76.46.76.78a2,2,0,0,1-.28,1,.81.81,0,0,1-.73.49,4.53,4.53,0,0,1-.92-.27,4.24,4.24,0,0,0-1-.28,3.17,3.17,0,0,0-2.37,1,3.69,3.69,0,0,0-1,2.68,4.63,4.63,0,0,0,.53,2.5,2,2,0,0,0,1.85.82,5.12,5.12,0,0,0,1.81-.61,6.15,6.15,0,0,1,1.58-.61.65.65,0,0,1,.5.2.61.61,0,0,1,.19.47,1.71,1.71,0,0,1-.72,1.21,6.2,6.2,0,0,1-1.81,1,5.35,5.35,0,0,1-1.93.42,3.5,3.5,0,0,1-3-1.51,6.9,6.9,0,0,1-1.08-4.1A5.25,5.25,0,0,1,88.68,199.52Z"/><path d="M99,192.94a1.09,1.09,0,0,1,.81.4,1.2,1.2,0,0,1,.38.85,1.36,1.36,0,0,1-.41.89,1.18,1.18,0,0,1-.88.46,1.14,1.14,0,0,1-.82-.38,1.36,1.36,0,0,1-.37-1c0-.77.41-1.18,1.24-1.24Zm1,12.51,0,1.67a.94.94,0,0,1-.36.75,1.17,1.17,0,0,1-.77.3.56.56,0,0,1-.62-.6c-.2-5.08-.31-7.89-.31-8.43s0-1.2.08-2c0-.29.21-.43.54-.43.85,0,1.32.34,1.44,1,0,.35.07.63.07.83l-.1,1.51Z"/><path d="M107,196.9a3.32,3.32,0,0,1,2.83,1.65,6.87,6.87,0,0,1,1.11,3.95,6.64,6.64,0,0,1-1.14,3.92,3.49,3.49,0,0,1-3,1.63,3.55,3.55,0,0,1-3-1.66,6.39,6.39,0,0,1-1.14-3.69,7.27,7.27,0,0,1,1.05-4.15A3.75,3.75,0,0,1,107,196.9Zm-.29,2a1.9,1.9,0,0,0-1.65,1,4.17,4.17,0,0,0-.64,2.22,4.55,4.55,0,0,0,.72,2.77,2,2,0,0,0,1.62.95,2,2,0,0,0,2.08-1.41,6.45,6.45,0,0,0,.19-1.67C109,200.16,108.25,198.86,106.71,198.86Zm.14-6.66a.58.58,0,0,1,.61-.41.94.94,0,0,1,.74.29.76.76,0,0,1,.28.46.85.85,0,0,1,0,.3,5.72,5.72,0,0,1-1.28,2c-.59.64-1.05.95-1.37.95a1,1,0,0,1-.72-.23.71.71,0,0,1,.15-1.17A4.93,4.93,0,0,0,106.85,192.2Z"/><path d="M113.3,207.28l-.26-9.69a1,1,0,0,1,.31-.74.91.91,0,0,1,.62-.29.77.77,0,0,1,.88.65,8.28,8.28,0,0,1,.1,1.34,3.9,3.9,0,0,1,3.22-1.7q3,0,3,6.76v1.87a8.78,8.78,0,0,1-.14,1.83.92.92,0,0,1-1,.71c-.38,0-.57-.25-.57-.76l0-1.34a25.88,25.88,0,0,0-.18-3.78c-.12-.68-.23-1.22-.34-1.61q-.4-1.29-1.32-1.29a1.74,1.74,0,0,0-1.67.86,5.29,5.29,0,0,0-.62,2.19c-.11,1.48-.17,3.05-.17,4.71a.91.91,0,0,1-.35.76,1.35,1.35,0,0,1-.86.29C113.5,208.05,113.3,207.79,113.3,207.28Z"/><path d="M135.33,196.87c.7,0,1.06.6,1.06,1.79v.41l0,1.67c0,.53,0,1,0,1.55l.36,5.4c0,.4-.4.6-1.22.6h-.34a.4.4,0,0,1-.38-.22.7.7,0,0,1,0-.52,1.08,1.08,0,0,0-.06-.7,3.8,3.8,0,0,1-2.91,1.17c-2.24,0-3.37-1.73-3.37-5.2a7.37,7.37,0,0,1,1.09-4.37,3.62,3.62,0,0,1,3.12-1.48,5.86,5.86,0,0,1,1.91.33A1,1,0,0,1,135.33,196.87Zm-2.48,2.18a2.53,2.53,0,0,0-2,.78,4.65,4.65,0,0,0-.67,2.89c0,2.36.64,3.54,1.91,3.54a1.86,1.86,0,0,0,1.11-.46,2.45,2.45,0,0,0,.85-1,8.51,8.51,0,0,0,.46-2.82,5.05,5.05,0,0,0-.37-2.22A1.32,1.32,0,0,0,132.85,199.05Z"/><path d="M65.76,217.79a6.06,6.06,0,0,1,2.64.53c.72.35,1.08.79,1.08,1.34a1.1,1.1,0,0,1-.18.62.6.6,0,0,1-.52.26,5,5,0,0,1-1.5-.54,4.94,4.94,0,0,0-2.08-.54,3.8,3.8,0,0,0-2,.6,1.72,1.72,0,0,0-1,1.46,1.8,1.8,0,0,0,1.22,1.72,12,12,0,0,0,2.6.72,5.57,5.57,0,0,1,2.77,1.32,3.9,3.9,0,0,1,1.07,3,5.41,5.41,0,0,1-1.84,4.52,4.57,4.57,0,0,1-2.9.81,7.59,7.59,0,0,1-3.73-1c-.82-.43-1.22-.86-1.22-1.29a1,1,0,0,1,.2-.52,1.66,1.66,0,0,1,.56-.48.72.72,0,0,1,.66-.06c.2.09.52.24,1,.47s.77.37,1,.45a5.43,5.43,0,0,0,1.89.38,2.38,2.38,0,0,0,1.71-.87,3,3,0,0,0,.82-2.14,2.38,2.38,0,0,0-1.67-2.34,8.34,8.34,0,0,0-1.84-.5,6.79,6.79,0,0,1-3.2-1.28,3.33,3.33,0,0,1-1.07-2.71,3.27,3.27,0,0,1,1.55-2.85A7,7,0,0,1,65.76,217.79Z"/><path d="M77.93,222.45c.7,0,1,.6,1,1.79v.41l0,1.67c0,.52,0,1,0,1.55l.36,5.39c0,.4-.41.6-1.22.6h-.34a.4.4,0,0,1-.39-.21.73.73,0,0,1,0-.53,1.05,1.05,0,0,0-.06-.69,3.8,3.8,0,0,1-2.91,1.17q-3.37,0-3.37-5.21A7.32,7.32,0,0,1,72.05,224a3.64,3.64,0,0,1,3.11-1.48,5.79,5.79,0,0,1,1.91.34A1,1,0,0,1,77.93,222.45Zm-2.48,2.17a2.5,2.5,0,0,0-2,.79,4.63,4.63,0,0,0-.67,2.89c0,2.35.64,3.53,1.91,3.53a1.9,1.9,0,0,0,1.11-.45,2.54,2.54,0,0,0,.85-1,8.51,8.51,0,0,0,.45-2.82,5,5,0,0,0-.37-2.22A1.29,1.29,0,0,0,75.45,224.62Z"/><path d="M81.54,232.86l-.27-9.7a1,1,0,0,1,.32-.74.9.9,0,0,1,.62-.28c.51,0,.8.21.88.64a9.71,9.71,0,0,1,.1,1.34,3.89,3.89,0,0,1,3.22-1.7c2,0,3,2.26,3,6.76v1.87a8.71,8.71,0,0,1-.14,1.83.93.93,0,0,1-1,.72c-.38,0-.57-.26-.57-.77l0-1.33a26,26,0,0,0-.18-3.79c-.12-.67-.24-1.21-.35-1.61-.27-.86-.7-1.29-1.31-1.29a1.76,1.76,0,0,0-1.67.86,5.15,5.15,0,0,0-.62,2.2c-.11,1.48-.17,3-.17,4.7a.92.92,0,0,1-.36.76,1.26,1.26,0,0,1-.86.29C81.74,233.62,81.54,233.37,81.54,232.86Z"/><path d="M101.71,218.43c0-.17.13-.34.38-.52a1.39,1.39,0,0,1,.75-.26.91.91,0,0,1,.58.17.56.56,0,0,1,.22.4q.51,6.45.51,8.16c0,1.13,0,2-.05,2.56a14.69,14.69,0,0,1-.24,1.85,4.77,4.77,0,0,1-.55,1.57,2.72,2.72,0,0,1-2.53,1.33,3.71,3.71,0,0,1-2.84-1.16,4.66,4.66,0,0,1-1.1-3.33.84.84,0,0,1,.37-.65,1.25,1.25,0,0,1,.8-.3c.35,0,.56.33.64,1,.21,1.84.9,2.77,2.08,2.77a1.12,1.12,0,0,0,.78-.3A2,2,0,0,0,102,231a4.79,4.79,0,0,0,.26-1.11,16.58,16.58,0,0,0,.14-2.4c0-.93-.11-2.63-.34-5.09S101.71,218.59,101.71,218.43Z"/><path d="M110,222.47a3.3,3.3,0,0,1,2.83,1.65,6.89,6.89,0,0,1,1.11,3.95,6.65,6.65,0,0,1-1.14,3.93,3.58,3.58,0,0,1-6,0,6.28,6.28,0,0,1-1.15-3.69,7.29,7.29,0,0,1,1.05-4.15A3.76,3.76,0,0,1,110,222.47Zm-.29,2a1.9,1.9,0,0,0-1.64,1,4.18,4.18,0,0,0-.65,2.22,4.55,4.55,0,0,0,.72,2.77,2,2,0,0,0,1.62.95,2,2,0,0,0,2.08-1.4,6.14,6.14,0,0,0,.19-1.67Q112,224.44,109.68,224.43Z"/><path d="M116.77,223.24a3.53,3.53,0,0,1,2.33-.84,6.86,6.86,0,0,1,2.54.48c.81.32,1.22.74,1.22,1.26a.77.77,0,0,1-.31.65,1,1,0,0,1-.54.24h-.35a5.52,5.52,0,0,1-1-.45,3.39,3.39,0,0,0-1.52-.43,2,2,0,0,0-1.18.35,1.18,1.18,0,0,0-.49,1,1.2,1.2,0,0,0,.56,1.05,5.61,5.61,0,0,0,2,.66,5.84,5.84,0,0,1,2.16.78,2,2,0,0,1,.76,1.86,3.37,3.37,0,0,1-1,2.8,3.92,3.92,0,0,1-2.52.83,6.93,6.93,0,0,1-2.52-.41c-.69-.27-1-.67-1-1.22a.82.82,0,0,1,.93-.93,3.67,3.67,0,0,1,1,.34,4.27,4.27,0,0,0,1.62.33,1.47,1.47,0,0,0,1.21-.51,1.81,1.81,0,0,0,.42-1.18,1,1,0,0,0-.55-1,5.7,5.7,0,0,0-1.67-.49,8.1,8.1,0,0,1-1.65-.41,2.44,2.44,0,0,1-1.43-2.55A2.77,2.77,0,0,1,116.77,223.24Z"/><path d="M128,222.54a4.37,4.37,0,0,1,2.41.74,2.16,2.16,0,0,1,1.15,1.83,3.11,3.11,0,0,1-.93,2.1,4,4,0,0,1-2.48,1.23,16.09,16.09,0,0,1-2,.1,4.24,4.24,0,0,0,1,2.67.8.8,0,0,0,.64.26,3.49,3.49,0,0,0,2.49-.94c.66-.63,1.14-.94,1.43-.94q.19,0,.57.36a.94.94,0,0,1,.38.66c0,.42-.5,1-1.5,1.79a5.7,5.7,0,0,1-1.61.92,4.79,4.79,0,0,1-1.76.37c-1.38,0-2.4-.89-3-2.67a10.1,10.1,0,0,1-.62-3.63,6.11,6.11,0,0,1,.93-3.41A3.24,3.24,0,0,1,128,222.54Zm.12,1.65a1.84,1.84,0,0,0-1.55,1,4.94,4.94,0,0,0-.45,1.62c2.23,0,3.34-.55,3.34-1.65C129.45,224.53,129,224.19,128.11,224.19Zm.17-6.35a.58.58,0,0,1,.61-.4,1,1,0,0,1,.74.28.8.8,0,0,1,.27.47.87.87,0,0,1,0,.3,6,6,0,0,1-1.28,2c-.6.63-1.06.95-1.37.95a1,1,0,0,1-.72-.24.77.77,0,0,1-.24-.56.84.84,0,0,1,.36-.63A4.78,4.78,0,0,0,128.28,217.84Z"/><rect class="cls-2" x="3.75" y="3.5" width="185.07" height="185.07" rx="14.53"/><path class="cls-1" d="M174.28,7a11.06,11.06,0,0,1,11,11V174a11.06,11.06,0,0,1-11,11h-156a11.06,11.06,0,0,1-11-11V18a11.06,11.06,0,0,1,11-11h156m0-7h-156a18.05,18.05,0,0,0-18,18V174a18.05,18.05,0,0,0,18,18h156a18.05,18.05,0,0,0,18-18V18a18.05,18.05,0,0,0-18-18Z"/><path class="cls-1" d="M51.7,42.32l-1,2.06-3.25,1.35a8.2,8.2,0,0,0-2.82,1.9q-1.41,3.9-3.68,11.21c-.62,2.46-1.21,4.93-1.79,7.42-.9,3.29-2,5.42-3.31,6.39a.84.84,0,0,1-.54.22q-.7,0-1.41-1.35a5.12,5.12,0,0,1-.7-2.17,53.62,53.62,0,0,1,1.14-9.59q.11-.6,1.41-5.52a23.39,23.39,0,0,0,.86-5.53,2.81,2.81,0,0,0-.11-.92L35.17,47a63.58,63.58,0,0,1-9.8,1.3c-2.75,0-4.53-1.15-5.36-3.47q0-4.92,3.08-14.62a2.43,2.43,0,0,1,2.17-1.84c.87.32,1.3,1.22,1.3,2.71,0,.61,0,1.54-.14,2.78s-.13,2.2-.13,2.85a18.21,18.21,0,0,0,.38,3.63,7.86,7.86,0,0,0,5.25,1.79q4.71,0,6.77-2.82A68.46,68.46,0,0,0,41.4,33a13.67,13.67,0,0,1,5-6.45l2.22-.16,2,.87a8.09,8.09,0,0,1,.16,1.62,13.08,13.08,0,0,1-1.08,4.72q-1,2.26-1.9,4.55a4,4,0,0,0,.49,1.57,1.88,1.88,0,0,0,1.52.49C50.65,40.21,51.3,40.91,51.7,42.32Z"/><path class="cls-3" d="M83.36,164.13c-.2-.44-.67-.39-1-.55a6.62,6.62,0,0,1-3.91-7.24A31,31,0,0,1,88.23,139c.26-.24.63-.38.74-.84a35.39,35.39,0,0,1-8.2-3.82c-6.48-4.22-9.7-10.36-10.59-17.9a39.87,39.87,0,0,1-.27-5.35,1,1,0,0,0-.69-1.09c-7.41-3.84-8.22-13.26-1.55-18.24A1.74,1.74,0,0,0,68.31,90,40.58,40.58,0,0,1,81.75,59.67c1.1-1,2.31-1.92,3.5-2.83.45-.35.59-.54.1-1-3.3-3-3.32-7.52.85-10.77a25.33,25.33,0,0,1,10.67-4.47A55.13,55.13,0,0,1,126.3,42a18.49,18.49,0,0,1,6.27,3.4c3.59,3.07,3.86,7,.59,10.36-.77.8-.16,1,.29,1.3a40.78,40.78,0,0,1,16.64,33.1,1.85,1.85,0,0,0,.84,1.7,10.56,10.56,0,0,1-1.41,17.93,1.65,1.65,0,0,0-1,1.76,30.37,30.37,0,0,1-2.78,13.83c-3.08,6.22-8.35,9.87-14.69,12.2l-1.57.57c.12.48.53.64.82.91a30.87,30.87,0,0,1,9.71,17.3,6.45,6.45,0,0,1-5.19,7.57c-.09,0-.15.15-.22.23Zm21.19-21.7a4.37,4.37,0,0,0-3.77-2.14,36.2,36.2,0,0,1-6.62-.89,1.22,1.22,0,0,0-1.17.46c-.32.32.1.5.26.67l7.41,7.52c2.79,2.89,5.57,5.79,8.37,8.67,1.21,1.25,2.26,2.95,3.74,3.57s3.43.17,5.18.18h4l.19-.39c-1.25-1.16-2.54-2.28-3.74-3.49C113.79,151.89,109.18,147.16,104.55,142.43Zm-7.78,18h10.57l.26-.42-8.66-8.31c-2.84-2.94-5.7-5.87-8.52-8.84-.55-.58-.8-.19-1.13.17a27.32,27.32,0,0,0-7.21,13.67,3,3,0,0,0,2.9,3.75C88.91,160.49,92.84,160.44,96.77,160.43Zm0-24.38c.47.1,1,.23,1.43.29a86,86,0,0,0,20.78.17,39.42,39.42,0,0,0,15-4.3,19,19,0,0,0,9.66-11.67c1.7-6,1.37-12,.57-18a83.36,83.36,0,0,0-2-10c-.47-1.77.31-2.74,2.13-2.79a4.5,4.5,0,0,1,1,0c.94.17,1.16-.18,1.12-1.11a37.29,37.29,0,0,0-35-35.9,32.54,32.54,0,0,0-13.88,1.92,7.43,7.43,0,0,0-.93.23A37.24,37.24,0,0,0,72.07,88.05c-.07,1.7-.07,1.7,1.6,1.69,2.42,0,3.09.82,2.49,3.14a69.41,69.41,0,0,0-2.55,20.22c.16,3.92.73,7.8,2.73,11.24C80.88,132.16,88.48,134.75,96.78,136.05ZM109.9,42.93a54,54,0,0,0-12.34,1.25c-3.32.78-6.61,1.74-9.3,4-2.17,1.8-2.13,3.51-.06,5.4a1.4,1.4,0,0,0,1.9.25A39.78,39.78,0,0,1,108.64,49a40.55,40.55,0,0,1,19.77,4.78c.33.18.62.5,1.11.29a3.3,3.3,0,0,0,1.11-5.51,12.74,12.74,0,0,0-4.42-2.73A45,45,0,0,0,109.9,42.93ZM114,146.67a3,3,0,0,0,.3.44L126.89,160a1.19,1.19,0,0,0,.93.46c1.91,0,3.82.05,5.72,0a3,3,0,0,0,2.84-3.5,27.42,27.42,0,0,0-11-17.17c-.51-.38-4.71,0-5.12.45a1.26,1.26,0,0,0-.18.32A11.9,11.9,0,0,1,114,146.67Zm34.33-40.51a6.81,6.81,0,0,0,3.07-7.39,6.51,6.51,0,0,0-5.16-5A86,86,0,0,1,148.34,106.16ZM72.19,93.56a7,7,0,0,0-2.84,12.18c.4.29.75.62.82-.26A81.15,81.15,0,0,1,72.19,93.56Zm36.14,47.08-.21.42c.81.73,1.62,1.46,2.42,2.2.27.25.49.54.93.4a7.75,7.75,0,0,0,4.3-3Z"/><path class="cls-4" d="M97.51,54.67a32.54,32.54,0,0,1,13.88-1.92,37.29,37.29,0,0,1,35,35.9c0,.93-.18,1.28-1.12,1.11a4.5,4.5,0,0,0-1,0c-1.82.05-2.6,1-2.13,2.79a83.36,83.36,0,0,1,2,10c.8,6,1.13,12-.57,18A19,19,0,0,1,134,132.21a39.42,39.42,0,0,1-15,4.3,86,86,0,0,1-20.78-.17c-.48-.06-1-.19-1.43-.29-.34-1-1.29-1.51-2-2.26A16.15,16.15,0,0,1,91,122.37a14.09,14.09,0,0,1,2.64-7.9,12.27,12.27,0,0,0,4.28-.81,29.4,29.4,0,0,1,22.65,0c6.42,2.51,12.89-1,14.51-7.73A77.91,77.91,0,0,0,137,91.07a2.05,2.05,0,0,0-1.78-2.49,32.31,32.31,0,0,1-5.44-2.09c-7.67-3.81-13.69-9.51-18.69-16.37-1.23-1.68-2.46-1.7-3.65,0a54.47,54.47,0,0,1-6.24,7.32A44,44,0,0,1,87,87.19a23.32,23.32,0,0,1-1.37-13.67A29.75,29.75,0,0,1,96.21,56C96.67,55.62,97.42,55.44,97.51,54.67ZM109,120.44a7.47,7.47,0,0,0,5.52-2.36,1.82,1.82,0,0,0,0-2.62,1.78,1.78,0,0,0-2.52,0c-2.22,1.79-3.28,1.79-5.53,0a1.82,1.82,0,0,0-2.51,2.64A7,7,0,0,0,109,120.44Z"/><path class="cls-5" d="M97.51,54.67c-.09.77-.84.95-1.3,1.34A29.75,29.75,0,0,0,85.67,73.52,23.32,23.32,0,0,0,87,87.19a20.45,20.45,0,0,1-3.88,1.41,2.08,2.08,0,0,0-1.72,2.3,75.66,75.66,0,0,0,1.81,14.45c1.4,5.72,4.55,8.48,10.36,9.12a14.09,14.09,0,0,0-2.64,7.9,16.15,16.15,0,0,0,3.86,11.42c.66.75,1.61,1.24,2,2.26-8.3-1.3-15.9-3.89-20.44-11.71-2-3.44-2.57-7.32-2.73-11.24a69.41,69.41,0,0,1,2.55-20.22c.6-2.32-.07-3.16-2.49-3.14-1.67,0-1.67,0-1.6-1.69A37.24,37.24,0,0,1,96.58,54.9,7.43,7.43,0,0,1,97.51,54.67Z"/><path class="cls-6" d="M114,146.67a11.9,11.9,0,0,0,6-6.13,1.26,1.26,0,0,1,.18-.32c.41-.43,4.61-.83,5.12-.45a27.42,27.42,0,0,1,11,17.17,3,3,0,0,1-2.84,3.5c-1.9.08-3.81,0-5.72,0a1.19,1.19,0,0,1-.93-.46l-12.58-12.9A3,3,0,0,1,114,146.67Z"/><path class="cls-7" d="M96.77,160.43c-3.93,0-7.86.06-11.79,0a3,3,0,0,1-2.9-3.75A27.32,27.32,0,0,1,89.29,143c.33-.36.58-.75,1.13-.17,2.82,3,5.68,5.9,8.52,8.84-.14.14-.34.26-.4.42A31,31,0,0,0,96.77,160.43Z"/><path class="cls-8" d="M104.55,142.43c4.63,4.73,9.24,9.46,13.89,14.16,1.2,1.21,2.49,2.33,3.74,3.49l-.19.39h-4c-1.75,0-3.69.45-5.18-.18s-2.53-2.32-3.74-3.57c-2.8-2.88-5.58-5.78-8.37-8.67C101.34,145.75,103,144.12,104.55,142.43Z"/><path class="cls-9" d="M96.77,160.43a31,31,0,0,1,1.77-8.31c.06-.16.26-.28.4-.42L107.6,160l-.26.42Z"/><path class="cls-10" d="M104.55,142.43c-1.57,1.69-3.21,3.32-3.89,5.62l-7.41-7.52c-.16-.17-.58-.35-.26-.67a1.22,1.22,0,0,1,1.17-.46,36.2,36.2,0,0,0,6.62.89A4.37,4.37,0,0,1,104.55,142.43Z"/><path class="cls-11" d="M148.34,106.16a86,86,0,0,0-2.09-12.43,6.51,6.51,0,0,1,5.16,5A6.81,6.81,0,0,1,148.34,106.16Z"/><path class="cls-12" d="M72.19,93.56a81.15,81.15,0,0,0-2,11.92c-.07.88-.42.55-.82.26a7,7,0,0,1,2.84-12.18Z"/><path class="cls-11" d="M108.33,140.64h7.44a7.75,7.75,0,0,1-4.3,3c-.44.14-.66-.15-.93-.4-.8-.74-1.61-1.47-2.42-2.2Z"/><path class="cls-13" d="M93.61,114.47c-5.81-.64-9-3.4-10.36-9.12A75.66,75.66,0,0,1,81.44,90.9a2.08,2.08,0,0,1,1.72-2.3A20.45,20.45,0,0,0,87,87.19a44,44,0,0,0,14.12-9.78,54.47,54.47,0,0,0,6.24-7.32c1.19-1.67,2.42-1.65,3.65,0,5,6.86,11,12.56,18.69,16.37a32.31,32.31,0,0,0,5.44,2.09A2.05,2.05,0,0,1,137,91.07a77.91,77.91,0,0,1-1.91,14.83c-1.62,6.69-8.09,10.24-14.51,7.73a29.4,29.4,0,0,0-22.65,0A12.27,12.27,0,0,1,93.61,114.47ZM98.45,84.8a47.36,47.36,0,0,1-12.67,6.84.71.71,0,0,0-.56.88,60.26,60.26,0,0,0,1.87,13.1,6.87,6.87,0,0,0,9.2,4.64c.27-.08.55-.13.81-.23a35.1,35.1,0,0,1,9.18-2.23,33,33,0,0,1,15.25,2.32c4.62,1.81,8.72-.32,9.94-5.11a64.68,64.68,0,0,0,1.72-12.15,1.13,1.13,0,0,0-.91-1.38,40.07,40.07,0,0,1-10.13-5.18,56.54,56.54,0,0,1-12.33-11.69c-.31-.39-.51-.94-1.11-.16A62.4,62.4,0,0,1,98.45,84.8Z"/><path class="cls-14" d="M109,120.44a7,7,0,0,1-5-2.36,1.82,1.82,0,0,1,2.51-2.64c2.25,1.79,3.31,1.79,5.53,0a1.78,1.78,0,0,1,2.52,0,1.82,1.82,0,0,1,0,2.62A7.47,7.47,0,0,1,109,120.44Z"/><path class="cls-15" d="M98.45,84.8a62.4,62.4,0,0,0,10.26-10.35c.6-.78.8-.23,1.11.16A56.54,56.54,0,0,0,122.15,86.3a40.07,40.07,0,0,0,10.13,5.18,1.13,1.13,0,0,1,.91,1.38A64.68,64.68,0,0,1,131.47,105c-1.22,4.79-5.32,6.92-9.94,5.11a33,33,0,0,0-15.25-2.32A35.1,35.1,0,0,0,97.1,110c-.26.1-.54.15-.81.23a43.52,43.52,0,0,1-1-5.66c.71-2,1-3.92-.24-5.81A34.68,34.68,0,0,1,97.29,88,17.87,17.87,0,0,0,98.45,84.8Zm27.82,17c0-.53,0-1,0-1.57a1.82,1.82,0,0,0-1.83-1.73,1.77,1.77,0,0,0-1.8,1.75,23.65,23.65,0,0,0,0,3.15,1.72,1.72,0,0,0,1.75,1.67,1.79,1.79,0,0,0,1.86-1.7C126.31,102.87,126.27,102.34,126.27,101.82Z"/><path class="cls-16" d="M95.3,104.6a43.52,43.52,0,0,0,1,5.66,6.87,6.87,0,0,1-9.2-4.64,60.26,60.26,0,0,1-1.87-13.1.71.71,0,0,1,.56-.88A47.36,47.36,0,0,0,98.45,84.8,17.87,17.87,0,0,1,97.29,88a34.68,34.68,0,0,0-2.23,10.83c-1.9-.64-2.9,0-2.92,2,0,.64,0,1.29,0,1.93C92.15,104.89,93.39,105.62,95.3,104.6Z"/><path class="cls-3" d="M126.27,101.82c0,.52,0,1.05,0,1.57a1.79,1.79,0,0,1-1.86,1.7,1.72,1.72,0,0,1-1.75-1.67,23.65,23.65,0,0,1,0-3.15,1.77,1.77,0,0,1,1.8-1.75,1.82,1.82,0,0,1,1.83,1.73C126.31,100.77,126.27,101.29,126.27,101.82Z"/><path class="cls-3" d="M95.3,104.6c-1.91,1-3.15.29-3.16-1.86,0-.64,0-1.29,0-1.93,0-2,1-2.66,2.92-2C96.29,100.68,96,102.63,95.3,104.6Z"/></g></g></svg>