<svg xmlns="http://www.w3.org/2000/svg" xmlns:xlink="http://www.w3.org/1999/xlink" viewBox="0 0 192.07 192.07"><defs><style>.cls-1{fill:url(#linear-gradient);}.cls-2{fill:#fff;}.cls-3{fill:#030303;}.cls-4{fill:#c68569;}.cls-5{fill:#b06d55;}.cls-6{fill:#2fcb9a;}.cls-7{fill:#fdb156;}.cls-8{fill:#fccc70;}.cls-9{fill:#fcbf63;}.cls-10{fill:#fabd62;}.cls-11{fill:#f7c5b8;}.cls-12{fill:#ecada1;}.cls-13{fill:#030302;}.cls-14{fill:#040302;}.cls-15{fill:#fddbcd;}.cls-16{fill:#fcc9bc;}</style><linearGradient id="linear-gradient" x1="3.5" y1="96.03" x2="188.57" y2="96.03" gradientUnits="userSpaceOnUse"><stop offset="0.07" stop-color="#b42122"/><stop offset="1" stop-color="#cf332a"/></linearGradient></defs><g id="Capa_2" data-name="Capa 2"><g id="Capa_1-2" data-name="Capa 1"><rect class="cls-1" x="3.5" y="3.5" width="185.07" height="185.07" rx="14.53"/><path class="cls-2" d="M174,7a11.06,11.06,0,0,1,11,11V174a11.07,11.07,0,0,1-11,11H18A11.06,11.06,0,0,1,7,174V18A11.06,11.06,0,0,1,18,7H174m0-7H18A18.05,18.05,0,0,0,0,18V174a18.05,18.05,0,0,0,18,18H174a18.05,18.05,0,0,0,18-18V18A18.05,18.05,0,0,0,174,0Z"/><path class="cls-2" d="M51.45,42.32l-1,2.06-3.25,1.35a8.2,8.2,0,0,0-2.82,1.9q-1.41,3.9-3.68,11.21c-.62,2.46-1.21,4.93-1.79,7.42q-1.35,4.93-3.3,6.39a.84.84,0,0,1-.54.22q-.7,0-1.41-1.35a5.17,5.17,0,0,1-.71-2.17,53.62,53.62,0,0,1,1.14-9.59q.11-.6,1.41-5.52a22.89,22.89,0,0,0,.86-5.53,3.16,3.16,0,0,0-.1-.92L34.93,47a63.81,63.81,0,0,1-9.81,1.3c-2.74,0-4.53-1.15-5.36-3.47q0-4.92,3.09-14.62A2.41,2.41,0,0,1,25,28.4c.87.32,1.3,1.22,1.3,2.71,0,.61,0,1.54-.13,2.78S26,36.09,26,36.74a18.21,18.21,0,0,0,.38,3.63,7.87,7.87,0,0,0,5.26,1.79q4.71,0,6.77-2.82.38-.54,2.71-6.34a13.6,13.6,0,0,1,5-6.45l2.22-.16,2,.87a8.09,8.09,0,0,1,.16,1.62,13.08,13.08,0,0,1-1.08,4.72q-1,2.26-1.9,4.55A4,4,0,0,0,48,39.72a1.88,1.88,0,0,0,1.52.49C50.4,40.21,51.05,40.91,51.45,42.32Z"/><path class="cls-3" d="M83.11,164.13c-.2-.44-.66-.39-1-.55a6.61,6.61,0,0,1-3.91-7.24A30.89,30.89,0,0,1,88,139c.25-.24.63-.38.74-.84a35.66,35.66,0,0,1-8.21-3.82c-6.48-4.22-9.7-10.36-10.58-17.9a39.88,39.88,0,0,1-.28-5.35A1,1,0,0,0,69,110c-7.42-3.84-8.23-13.26-1.55-18.24A1.73,1.73,0,0,0,68.06,90,40.59,40.59,0,0,1,81.51,59.67c1.09-1,2.3-1.92,3.49-2.83.45-.35.59-.54.1-1-3.29-3-3.32-7.52.85-10.77a25.39,25.39,0,0,1,10.67-4.47A55.17,55.17,0,0,1,126.06,42a18.54,18.54,0,0,1,6.26,3.4c3.59,3.07,3.86,7,.6,10.36-.78.8-.16,1,.29,1.3a40.8,40.8,0,0,1,16.63,33.1,1.85,1.85,0,0,0,.84,1.7,10.56,10.56,0,0,1-1.4,17.93,1.66,1.66,0,0,0-1,1.76,30.24,30.24,0,0,1-2.78,13.83c-3.08,6.22-8.35,9.87-14.68,12.2l-1.58.57c.12.48.53.64.82.91a30.87,30.87,0,0,1,9.71,17.3,6.44,6.44,0,0,1-5.19,7.57c-.08,0-.14.15-.22.23Zm21.19-21.7a4.36,4.36,0,0,0-3.77-2.14,36,36,0,0,1-6.61-.89,1.21,1.21,0,0,0-1.17.46c-.33.32.09.5.26.67q3.69,3.76,7.41,7.52c2.78,2.89,5.57,5.79,8.36,8.67,1.22,1.25,2.26,2.95,3.75,3.57s3.43.17,5.17.18h4l.2-.39c-1.25-1.16-2.55-2.28-3.74-3.49Q111.23,149.54,104.3,142.43Zm-7.77,18H107.1l.25-.42-8.66-8.31c-2.84-2.94-5.7-5.87-8.51-8.84-.56-.58-.8-.19-1.14.17a27.48,27.48,0,0,0-7.21,13.67,3,3,0,0,0,2.9,3.75C88.66,160.49,92.6,160.44,96.53,160.43Zm0-24.38c.48.1,1,.23,1.43.29a86,86,0,0,0,20.78.17,39.42,39.42,0,0,0,15-4.3,19,19,0,0,0,9.67-11.67c1.7-6,1.37-12,.56-18a81.45,81.45,0,0,0-2-10c-.47-1.77.32-2.74,2.13-2.79a4.48,4.48,0,0,1,1,0c.94.18,1.16-.18,1.12-1.11a37.29,37.29,0,0,0-35-35.9,32.54,32.54,0,0,0-13.88,1.92,7.43,7.43,0,0,0-.93.23,37.21,37.21,0,0,0-24.5,33.15c-.07,1.7-.07,1.7,1.6,1.69,2.42,0,3.08.82,2.48,3.14a69.75,69.75,0,0,0-2.55,20.22c.16,3.92.73,7.8,2.73,11.24C80.63,132.16,88.23,134.75,96.53,136.05Zm13.12-93.12a54,54,0,0,0-12.33,1.25c-3.33.78-6.61,1.74-9.31,4-2.17,1.8-2.13,3.51-.05,5.4a1.4,1.4,0,0,0,1.9.25A39.72,39.72,0,0,1,108.4,49a40.51,40.51,0,0,1,19.76,4.78c.33.18.62.5,1.11.29a3.29,3.29,0,0,0,1.11-5.51A12.74,12.74,0,0,0,126,45.86,44.93,44.93,0,0,0,109.65,42.93Zm4.11,103.74a4.09,4.09,0,0,0,.3.44L126.64,160a1.19,1.19,0,0,0,.94.46c1.9,0,3.81.05,5.72,0a3,3,0,0,0,2.83-3.5,27.42,27.42,0,0,0-11-17.17c-.5-.38-4.71,0-5.12.45a1.26,1.26,0,0,0-.18.32A11.87,11.87,0,0,1,113.76,146.67Zm34.34-40.51a6.78,6.78,0,0,0,3.06-7.39,6.49,6.49,0,0,0-5.16-5A87.4,87.4,0,0,1,148.1,106.16ZM71.94,93.56a7,7,0,0,0-2.83,12.18c.39.29.75.62.81-.26A82.5,82.5,0,0,1,71.94,93.56Zm36.15,47.08-.22.42c.81.73,1.63,1.46,2.43,2.2.27.25.49.54.93.4a7.76,7.76,0,0,0,4.29-3Z"/><path class="cls-4" d="M97.26,54.67a32.54,32.54,0,0,1,13.88-1.92,37.29,37.29,0,0,1,35,35.9c0,.93-.18,1.29-1.12,1.11a4.48,4.48,0,0,0-1,0c-1.81.05-2.6,1-2.13,2.79a81.45,81.45,0,0,1,2,10c.81,6,1.14,12-.56,18a19,19,0,0,1-9.67,11.67,39.42,39.42,0,0,1-15,4.3A86,86,0,0,1,98,136.34c-.48-.06-.95-.19-1.43-.29-.34-1-1.29-1.51-2-2.26a16.14,16.14,0,0,1-3.85-11.42,14.15,14.15,0,0,1,2.63-7.9,12.37,12.37,0,0,0,4.29-.81,29.37,29.37,0,0,1,22.64,0c6.43,2.51,12.89-1,14.51-7.73a77.11,77.11,0,0,0,1.91-14.83,2,2,0,0,0-1.77-2.49,31.67,31.67,0,0,1-5.44-2.09c-7.67-3.81-13.7-9.51-18.7-16.37-1.22-1.68-2.46-1.7-3.65,0a54.4,54.4,0,0,1-6.23,7.32,44,44,0,0,1-14.13,9.78,23.24,23.24,0,0,1-1.36-13.67A29.73,29.73,0,0,1,96,56C96.42,55.62,97.17,55.44,97.26,54.67Zm11.48,65.77a7.51,7.51,0,0,0,5.52-2.36,1.83,1.83,0,0,0,0-2.62,1.79,1.79,0,0,0-2.53,0c-2.22,1.79-3.28,1.79-5.53,0a1.82,1.82,0,0,0-2.5,2.64A7,7,0,0,0,108.74,120.44Z"/><path class="cls-5" d="M97.26,54.67c-.09.77-.84.95-1.3,1.34A29.73,29.73,0,0,0,85.43,73.52a23.24,23.24,0,0,0,1.36,13.67,20.61,20.61,0,0,1-3.87,1.41,2.07,2.07,0,0,0-1.72,2.3A74.86,74.86,0,0,0,83,105.35c1.4,5.72,4.56,8.48,10.36,9.12a14.15,14.15,0,0,0-2.63,7.9,16.14,16.14,0,0,0,3.85,11.42c.66.75,1.61,1.24,2,2.26-8.3-1.3-15.9-3.89-20.44-11.71-2-3.44-2.57-7.32-2.73-11.24a69.75,69.75,0,0,1,2.55-20.22c.6-2.32-.06-3.16-2.48-3.14-1.67,0-1.67,0-1.6-1.69A37.21,37.21,0,0,1,96.33,54.9,7.43,7.43,0,0,1,97.26,54.67Z"/><path class="cls-6" d="M113.76,146.67a11.87,11.87,0,0,0,6-6.13,1.26,1.26,0,0,1,.18-.32c.41-.43,4.62-.83,5.12-.45a27.42,27.42,0,0,1,11,17.17,3,3,0,0,1-2.83,3.5c-1.91.08-3.82,0-5.72,0a1.19,1.19,0,0,1-.94-.46l-12.58-12.9A4.09,4.09,0,0,1,113.76,146.67Z"/><path class="cls-7" d="M96.53,160.43c-3.93,0-7.87.06-11.8,0a3,3,0,0,1-2.9-3.75A27.48,27.48,0,0,1,89,143c.34-.36.58-.75,1.14-.17,2.81,3,5.67,5.9,8.51,8.84-.13.14-.34.26-.4.42A31.42,31.42,0,0,0,96.53,160.43Z"/><path class="cls-8" d="M104.3,142.43q6.95,7.09,13.9,14.16c1.19,1.21,2.49,2.33,3.74,3.49l-.2.39h-4c-1.74,0-3.69.45-5.17-.18s-2.53-2.32-3.75-3.57c-2.79-2.88-5.58-5.78-8.36-8.67C101.09,145.75,102.74,144.12,104.3,142.43Z"/><path class="cls-9" d="M96.53,160.43a31.42,31.42,0,0,1,1.76-8.31c.06-.16.27-.28.4-.42l8.66,8.31-.25.42Z"/><path class="cls-10" d="M104.3,142.43c-1.56,1.69-3.21,3.32-3.88,5.62Q96.7,144.3,93,140.53c-.17-.17-.59-.35-.26-.67a1.21,1.21,0,0,1,1.17-.46,36,36,0,0,0,6.61.89A4.36,4.36,0,0,1,104.3,142.43Z"/><path class="cls-11" d="M148.1,106.16A87.4,87.4,0,0,0,146,93.73a6.49,6.49,0,0,1,5.16,5A6.78,6.78,0,0,1,148.1,106.16Z"/><path class="cls-12" d="M71.94,93.56a82.5,82.5,0,0,0-2,11.92c-.06.88-.42.55-.81.26a7,7,0,0,1,2.83-12.18Z"/><path class="cls-11" d="M108.09,140.64h7.43a7.76,7.76,0,0,1-4.29,3c-.44.14-.66-.15-.93-.4-.8-.74-1.62-1.47-2.43-2.2Z"/><path class="cls-13" d="M93.36,114.47c-5.8-.64-9-3.4-10.36-9.12A74.86,74.86,0,0,1,81.2,90.9a2.07,2.07,0,0,1,1.72-2.3,20.61,20.61,0,0,0,3.87-1.41,44,44,0,0,0,14.13-9.78,54.4,54.4,0,0,0,6.23-7.32c1.19-1.67,2.43-1.65,3.65,0,5,6.86,11,12.56,18.7,16.37a31.67,31.67,0,0,0,5.44,2.09,2,2,0,0,1,1.77,2.49,77.11,77.11,0,0,1-1.91,14.83c-1.62,6.69-8.08,10.24-14.51,7.73a29.37,29.37,0,0,0-22.64,0A12.37,12.37,0,0,1,93.36,114.47ZM98.2,84.8a47.45,47.45,0,0,1-12.66,6.84c-.51.17-.59.42-.57.88a60.26,60.26,0,0,0,1.87,13.1,6.87,6.87,0,0,0,9.2,4.64c.27-.08.55-.13.81-.23A35.08,35.08,0,0,1,106,107.8a33,33,0,0,1,15.24,2.32c4.62,1.81,8.73-.32,9.94-5.11a64.68,64.68,0,0,0,1.72-12.15,1.13,1.13,0,0,0-.91-1.38A40.24,40.24,0,0,1,121.9,86.3a57,57,0,0,1-12.33-11.69c-.31-.39-.51-.94-1.11-.16A62,62,0,0,1,98.2,84.8Z"/><path class="cls-14" d="M108.74,120.44a7,7,0,0,1-5-2.36,1.82,1.82,0,0,1,2.5-2.64c2.25,1.79,3.31,1.79,5.53,0a1.79,1.79,0,0,1,2.53,0,1.83,1.83,0,0,1,0,2.62A7.51,7.51,0,0,1,108.74,120.44Z"/><path class="cls-15" d="M98.2,84.8a62,62,0,0,0,10.26-10.35c.6-.78.8-.23,1.11.16A57,57,0,0,0,121.9,86.3,40.24,40.24,0,0,0,132,91.48a1.13,1.13,0,0,1,.91,1.38A64.68,64.68,0,0,1,131.22,105c-1.21,4.79-5.32,6.92-9.94,5.11A33,33,0,0,0,106,107.8,35.08,35.08,0,0,0,96.85,110c-.26.1-.54.15-.81.23a45.28,45.28,0,0,1-1-5.66c.71-2,1-3.92-.24-5.81A34.68,34.68,0,0,1,97,88,17.11,17.11,0,0,0,98.2,84.8Zm27.83,17c0-.53,0-1,0-1.57a1.82,1.82,0,0,0-1.83-1.73,1.78,1.78,0,0,0-1.8,1.75,25.47,25.47,0,0,0,0,3.15,1.72,1.72,0,0,0,1.75,1.67,1.81,1.81,0,0,0,1.87-1.7C126.07,102.87,126,102.34,126,101.82Z"/><path class="cls-16" d="M95.05,104.6a45.28,45.28,0,0,0,1,5.66,6.87,6.87,0,0,1-9.2-4.64A60.26,60.26,0,0,1,85,92.52c0-.46.06-.71.57-.88A47.45,47.45,0,0,0,98.2,84.8,17.11,17.11,0,0,1,97,88a34.68,34.68,0,0,0-2.23,10.83c-1.89-.64-2.9,0-2.92,2v1.93C91.91,104.89,93.15,105.62,95.05,104.6Z"/><path class="cls-3" d="M126,101.82c0,.52,0,1.05,0,1.57a1.81,1.81,0,0,1-1.87,1.7,1.72,1.72,0,0,1-1.75-1.67,25.47,25.47,0,0,1,0-3.15,1.78,1.78,0,0,1,1.8-1.75,1.82,1.82,0,0,1,1.83,1.73C126.06,100.77,126,101.29,126,101.82Z"/><path class="cls-3" d="M95.05,104.6c-1.9,1-3.14.29-3.16-1.86v-1.93c0-2,1-2.66,2.92-2C96,100.68,95.76,102.63,95.05,104.6Z"/></g></g></svg>