<svg xmlns="http://www.w3.org/2000/svg" viewBox="0 0 192.56 246.65"><defs><style>.cls-1{fill:#fff;}.cls-2{fill:#b1d0ba;}.cls-3{fill:#040303;}.cls-4{fill:#fcc060;}.cls-5{fill:#faddd4;}.cls-6{fill:#eae8ea;}.cls-7{fill:#fdc160;}.cls-8{fill:#a6c1d8;}.cls-9{fill:#faa555;}.cls-10{fill:#f9bfab;}.cls-11{fill:#d0d0d0;}.cls-12{fill:#f7bda9;}.cls-13{fill:#f0af99;}.cls-14{fill:#91aabe;}.cls-15{fill:#f8a454;}.cls-16{fill:#fdfdfd;}.cls-17{fill:#050405;}.cls-18{fill:#f68083;}</style></defs><g id="Capa_2" data-name="Capa 2"><g id="Capa_1-2" data-name="Capa 1"><rect class="cls-1" y="165.71" width="192.56" height="80.93" rx="7.64"/><path d="M55.28,217.2l0-1.86.22-10a.49.49,0,0,1,.31-.45,1.64,1.64,0,0,1,.78-.17c.77,0,1.15.27,1.15.81,0,.18-.09,1.52-.28,4s-.27,4-.27,4.49v2.53c0,1.2.08,1.85.24,2a2.64,2.64,0,0,0,.83.12l3.44-.24c.75,0,1.12.27,1.12.81a1,1,0,0,1-.6,1,3.09,3.09,0,0,1-1.21.33c-.4,0-.88,0-1.46,0a15.37,15.37,0,0,1-4-.24c-.12-.1-.18-.46-.2-1.09s0-1.07,0-1.32S55.28,217.41,55.28,217.2Z"/><path d="M68.65,209.4A3.31,3.31,0,0,1,71.47,211a6.86,6.86,0,0,1,1.12,4,6.64,6.64,0,0,1-1.14,3.92,3.59,3.59,0,0,1-6,0,6.39,6.39,0,0,1-1.14-3.69,7.32,7.32,0,0,1,1-4.16A3.77,3.77,0,0,1,68.65,209.4Zm-.29,2a1.88,1.88,0,0,0-1.65,1,4.17,4.17,0,0,0-.64,2.22,4.62,4.62,0,0,0,.71,2.77,2,2,0,0,0,1.63.95,2,2,0,0,0,2.07-1.41,6,6,0,0,0,.2-1.67C70.68,212.66,69.9,211.36,68.36,211.36Z"/><path d="M75.45,210.16a3.5,3.5,0,0,1,2.33-.83,7.06,7.06,0,0,1,2.54.47c.81.32,1.22.74,1.22,1.27a.78.78,0,0,1-.31.64,1,1,0,0,1-.54.24h-.36a6.06,6.06,0,0,1-1-.44,3.3,3.3,0,0,0-1.52-.43,2,2,0,0,0-1.18.34,1.17,1.17,0,0,0-.49,1,1.21,1.21,0,0,0,.56,1,5.88,5.88,0,0,0,2,.66,6,6,0,0,1,2.16.77,2.09,2.09,0,0,1,.75,1.86,3.36,3.36,0,0,1-1,2.81,3.9,3.9,0,0,1-2.51.82,6.94,6.94,0,0,1-2.52-.4c-.7-.27-1-.68-1-1.22a.82.82,0,0,1,.93-.93,3.87,3.87,0,0,1,1,.33,4.09,4.09,0,0,0,1.61.34,1.47,1.47,0,0,0,1.22-.52,1.8,1.8,0,0,0,.42-1.18,1,1,0,0,0-.55-1,5.5,5.5,0,0,0-1.67-.49,8.83,8.83,0,0,1-1.65-.41,2.43,2.43,0,0,1-1.43-2.55A2.78,2.78,0,0,1,75.45,210.16Z"/><path d="M95.72,204.67a5.06,5.06,0,0,1,2.28.57c.75.39,1.13.82,1.13,1.29,0,.73-.3,1.1-.91,1.1a3.08,3.08,0,0,1-1.16-.43,3.21,3.21,0,0,0-1.41-.43,4.13,4.13,0,0,0-3.43,1.84,7.66,7.66,0,0,0-1.37,4.68,7.23,7.23,0,0,0,.93,3.72,2.63,2.63,0,0,0,2.21,1.6,2.47,2.47,0,0,0,2-.85,2.83,2.83,0,0,0,.73-1.92,5.42,5.42,0,0,0-.08-1,1.42,1.42,0,0,0-.42-.71,1.2,1.2,0,0,0-.88-.33,2.3,2.3,0,0,1-1-.24.7.7,0,0,1-.49-.64,1.34,1.34,0,0,1,.24-.76.91.91,0,0,1,.64-.43,4.89,4.89,0,0,1,2.19.33c.37.22.65.41.84.55a1.56,1.56,0,0,1,.48.72c.13.33.23.61.3.83a5,5,0,0,1,.15,1.08c0,.82,0,1.79,0,2.9a5,5,0,0,1-.24,2,.82.82,0,0,1-.71.32.85.85,0,0,1-.69-.2,1.73,1.73,0,0,1-.24-1,5,5,0,0,1-1.45.85,4.26,4.26,0,0,1-1.54.35,4.15,4.15,0,0,1-3.53-2.24,9.69,9.69,0,0,1-1.43-5.38,10,10,0,0,1,.55-3.28,7.91,7.91,0,0,1,1.48-2.71A6.12,6.12,0,0,1,95.72,204.67Z"/><path d="M104.41,209.4a3.33,3.33,0,0,1,2.83,1.64,6.93,6.93,0,0,1,1.11,4,6.64,6.64,0,0,1-1.14,3.92,3.49,3.49,0,0,1-3,1.63,3.55,3.55,0,0,1-3-1.66A6.39,6.39,0,0,1,100,215.2a7.32,7.32,0,0,1,1-4.16A3.77,3.77,0,0,1,104.41,209.4Zm-.29,2a1.88,1.88,0,0,0-1.65,1,4.17,4.17,0,0,0-.64,2.22,4.55,4.55,0,0,0,.72,2.77,2,2,0,0,0,1.62.95,2,2,0,0,0,2.08-1.41,6.45,6.45,0,0,0,.19-1.67C106.44,212.66,105.66,211.36,104.12,211.36Z"/><path d="M114.17,211.33l-3.41.31c-.75,0-1.12-.32-1.12-1s.39-1,1.17-1.1c.23,0,1.77,0,4.6,0a3.68,3.68,0,0,1,1.77.48,1.93,1.93,0,0,1,1,1.81,4,4,0,0,1-1.72,2.72c-.48.42-1,.83-1.53,1.25-1.77,1.33-2.65,2.18-2.65,2.53s.3.35.9.35a11.94,11.94,0,0,0,1.64-.1l1.61-.24a9.45,9.45,0,0,1,1.08-.13c.67,0,1,.24,1,.71q0,1.64-4.87,1.63a5.87,5.87,0,0,1-2.52-.39,1.92,1.92,0,0,1-1-1.36,1.32,1.32,0,0,1,0-.28,2.82,2.82,0,0,1,.76-1.63,13.13,13.13,0,0,1,2.75-2.46,9.06,9.06,0,0,0,2.24-1.88A.85.85,0,0,0,116,212C115.91,211.55,115.3,211.33,114.17,211.33Z"/><path d="M124.25,209.4a3.31,3.31,0,0,1,2.82,1.64,6.93,6.93,0,0,1,1.11,4,6.64,6.64,0,0,1-1.13,3.92,3.59,3.59,0,0,1-6,0,6.39,6.39,0,0,1-1.14-3.69,7.32,7.32,0,0,1,1.05-4.16A3.77,3.77,0,0,1,124.25,209.4Zm-.29,2a1.88,1.88,0,0,0-1.65,1,4.17,4.17,0,0,0-.64,2.22,4.62,4.62,0,0,0,.71,2.77,2,2,0,0,0,1.63.95,2,2,0,0,0,2.07-1.41,6,6,0,0,0,.19-1.67Q126.27,211.36,124,211.36Z"/><path d="M131.05,210.16a3.5,3.5,0,0,1,2.33-.83,7.06,7.06,0,0,1,2.54.47c.81.32,1.22.74,1.22,1.27a.78.78,0,0,1-.31.64,1,1,0,0,1-.54.24h-.36a6.06,6.06,0,0,1-1-.44,3.3,3.3,0,0,0-1.52-.43,2,2,0,0,0-1.18.34,1.17,1.17,0,0,0-.49,1,1.21,1.21,0,0,0,.56,1,5.88,5.88,0,0,0,2,.66,6,6,0,0,1,2.16.77,2.09,2.09,0,0,1,.75,1.86,3.36,3.36,0,0,1-1,2.81,3.9,3.9,0,0,1-2.51.82,6.94,6.94,0,0,1-2.52-.4c-.7-.27-1-.68-1-1.22a.82.82,0,0,1,.93-.93,3.87,3.87,0,0,1,1,.33,4.09,4.09,0,0,0,1.61.34,1.47,1.47,0,0,0,1.22-.52,1.8,1.8,0,0,0,.42-1.18,1,1,0,0,0-.55-1,5.5,5.5,0,0,0-1.67-.49,8.83,8.83,0,0,1-1.65-.41,2.43,2.43,0,0,1-1.43-2.55A2.78,2.78,0,0,1,131.05,210.16Z"/><rect class="cls-2" x="3.75" y="3.5" width="185.07" height="185.07" rx="14.53"/><path class="cls-1" d="M174.28,7a11.06,11.06,0,0,1,11,11V174a11.06,11.06,0,0,1-11,11h-156a11.06,11.06,0,0,1-11-11V18a11.06,11.06,0,0,1,11-11h156m0-7h-156a18.05,18.05,0,0,0-18,18V174a18.05,18.05,0,0,0,18,18h156a18.05,18.05,0,0,0,18-18V18a18.05,18.05,0,0,0-18-18Z"/><path class="cls-1" d="M58.79,32q-1.41,5.58-15.33,6.07c-1.15,0-2.87.11-5.14.32A5.64,5.64,0,0,0,35.12,40a9,9,0,0,0-1.35,3.31L34,45.07l1.36.75q3.36-.69,6.66-1.4a34.49,34.49,0,0,1,6.77-.82,19.4,19.4,0,0,1,9.81,2.28,8.86,8.86,0,0,1,4.93,8.18q0,4.94-4.28,10.24a27.1,27.1,0,0,1-8.67,7.31,27.45,27.45,0,0,1-12.62,2.87q-6.93,0-14.63-5.31c-1.37-1-2.06-1.84-2.06-2.6,0-1.48.83-2.22,2.5-2.22A21.18,21.18,0,0,1,28,65.6a31.77,31.77,0,0,0,10.34,2.16A24.73,24.73,0,0,0,45,66.68a21,21,0,0,0,6-2.55,12.78,12.78,0,0,0,3.3-3.3,7.68,7.68,0,0,0,1.63-4.33q0-3.9-6-6.61a17.84,17.84,0,0,0-1.84-.76,8.61,8.61,0,0,0-2-.16,19.57,19.57,0,0,0-8.4,2.11,28.63,28.63,0,0,1-7,2.49,7.65,7.65,0,0,1-2.06-4.39c-.18-1.66-.34-3.3-.49-4.93-.1-.61-.27-1.55-.48-2.81-.08-.33-.37-1.34-.87-3a10.21,10.21,0,0,1-.6-3q0-2.92,4.34-3.47l23.89-3.09a4.36,4.36,0,0,1,2.87.57A5.64,5.64,0,0,1,58.79,32Z"/><path class="cls-3" d="M130.89,158.61c.29,1.62.08,2-1.38,2.78A47.39,47.39,0,0,1,98.87,166a45.62,45.62,0,0,1-29.46-18,4.39,4.39,0,0,1-.9-4.1,61.62,61.62,0,0,1,3.66-10.42c.14-.32.42-.6.33-1.06a6.24,6.24,0,0,1-4.72-2.2c-.3-.34-.47-.22-.77,0-3.41,2.71-6.19,2.65-9.44-.25-.65-.57-.82,0-1.13.25A6.56,6.56,0,0,1,46.11,128a5.7,5.7,0,0,1-.23-4.69c2.45-5.84,5.61-11.21,10.61-15.27,5.5-4.46,11.7-5.52,18.46-3.46.29.09.56.33,1,.16a37.14,37.14,0,0,1-3.35-7.78c-.14-.44-.42-.52-.8-.56A9.84,9.84,0,0,1,63,87a9.33,9.33,0,0,1,1.94-6.3,4.66,4.66,0,0,0,1-2A41.65,41.65,0,0,1,79.23,55.07,42.1,42.1,0,0,1,128,49.79a41.67,41.67,0,0,1,19.84,25,18.86,18.86,0,0,1,.66,2.56A9.52,9.52,0,0,0,150,81.18a9.86,9.86,0,0,1-7,15.17c-.51.07-.89.12-1.06.73a40.82,40.82,0,0,1-3.12,7.41l-.1.26.3,0a20.26,20.26,0,0,1,11.84-.51c5.23,1.46,9.07,4.81,12.24,9.05a44.21,44.21,0,0,1,6,10.86v2.41a18.17,18.17,0,0,1-1.64,3,6.4,6.4,0,0,1-9.23.66c-.59-.53-.86-.51-1.4,0a6.43,6.43,0,0,1-9,.16c-.41-.37-.63-.55-1.12,0-1.46,1.48-2.36,1.84-4.68,2.07.83,2.06,1.78,4,2.51,6.09a58.17,58.17,0,0,1,1.81,6.48,2.2,2.2,0,0,1-.33,1.83A43.82,43.82,0,0,1,136.35,157c-1,.78-1.87.41-2.7-.31-.58-1.25-.07-2.13.91-2.92a40.41,40.41,0,0,0,7.55-7.74c.23-.31.58-.59.48-1.05a37,37,0,0,0-2.09-6.7,54.56,54.56,0,0,1-5.79,6.13A41.58,41.58,0,0,1,89.91,151c-1.48-.69-1.76-1.26-1.41-2.84a2.17,2.17,0,0,1,2.91-.46A35.22,35.22,0,0,0,104.63,151c14.18.77,25.33-4.82,33.81-16.06a1,1,0,0,0,.06-1.27c-1.05-1.9-2-3.83-3.25-5.62a113,113,0,0,0-7.43-10.23,1.18,1.18,0,0,0-1.83-.3,25,25,0,0,1-3.39,1.8,1.5,1.5,0,0,0-1,1.55,8.24,8.24,0,0,1-1.31,4.2c-2.65,4.44-9,6-12.43,2.71-.44-.42-.74-.29-1.11.06a6.11,6.11,0,0,1-2.27,1.32c-5,1.68-11-2.47-11.42-7.89,0-.52.22-1.14-.37-1.54-1.44-.79-2.89-1.54-4.31-2.37-.49-.28-.7,0-1,.26a74.77,74.77,0,0,0-11.3,16.13,1,1,0,0,0,.1,1.18,34.79,34.79,0,0,0,3.8,4.5,34.32,34.32,0,0,0,4.73,4.2,2,2,0,0,1,.8,2.71c-1.17,1-1.88,1.07-3.06.12-1.38-1.1-2.71-2.25-4.07-3.38l-4.3-4.75a40,40,0,0,0-2,6.45,1.12,1.12,0,0,0,.25,1,26,26,0,0,0,3.61,4.16,18.2,18.2,0,0,0,3,2.91c8.28,7.12,18,10.33,28.82,10.28a42.59,42.59,0,0,0,20.13-5A2.11,2.11,0,0,1,130.89,158.61Zm13.93-32.48a2.44,2.44,0,0,0-.16-1.41c-.28-1.24.1-2.16,1.05-2.48s1.83.13,2.38,1.31c.45.94.84,1.91,1.28,2.85a3.08,3.08,0,0,0,3.89,1.93c1.5-.56,2.14-2.05,1.69-3.89a1.91,1.91,0,0,1,.94-2.44,1.85,1.85,0,0,1,2.45,1.15c.5,1,.93,2.13,1.43,3.18a3,3,0,0,0,3.89,1.66,3,3,0,0,0,1.47-4.06c-2.1-4.59-4.62-8.92-8.42-12.35a15.44,15.44,0,0,0-11.5-4.38,21.11,21.11,0,0,0-11.12,4.16c-1.56.8-2.55,2.29-3.94,3.3-.56.4-.07.69.17,1a81,81,0,0,1,8.74,11.62,3.36,3.36,0,0,0,3.58,1.42A2.56,2.56,0,0,0,144.82,126.13Zm-75-.29a2.85,2.85,0,0,0,2,2.82,3.7,3.7,0,0,0,3.65-1.26,83.09,83.09,0,0,1,9-11.9c.26-.29.5-.54,0-.86-1.4-1-2.38-2.49-4-3.29-.67-.44-1.33-.89-2-1.31-7.25-4.38-14.93-3.73-21,1.85-3.73,3.44-6.12,7.81-8.15,12.38a2.9,2.9,0,0,0,1.44,3.67,3,3,0,0,0,3.84-1.27c.6-1.13,1.06-2.33,1.62-3.49A1.84,1.84,0,0,1,58.69,122a1.88,1.88,0,0,1,1,2.42c-.46,1.92.19,3.41,1.74,4s3.06-.28,3.85-2c.47-1,.89-2.06,1.38-3.07A1.8,1.8,0,0,1,70,124.55,2.72,2.72,0,0,0,69.81,125.84Zm34.35-77.71c-1,.1-1.93.15-2.87.31-12.64,2.25-22,9-28.19,20.28A33,33,0,0,0,70.22,76c-.08.31-.55,1,.37.86,2.54-.3,5.13-.33,7.51-1.44a27.07,27.07,0,0,0,5.66-2c5.35-2.28,10.2-5.24,13.7-10.05a18.91,18.91,0,0,1,1.38-1.82,3,3,0,0,1,4.3-.44c1,.73,1.83,1.56,2.75,2.34a54.93,54.93,0,0,0,23.83,12c4.86,1.11,9.81,1,14.72,1.41,0,0,.11.13.12.12s.09-.16,0-.24c0-.23-.06-.47-.12-.7A38.58,38.58,0,0,0,104.16,48.13ZM80.44,78.6c-1.47.4-2.93.82-4.4,1.2a1,1,0,0,0-.84,1,33.5,33.5,0,0,0,0,10.9A32.07,32.07,0,0,0,91.48,115c1.83,1.06,1.86,1,2.59-1a11.61,11.61,0,0,1,8.91-6.23c1.54-.21,2.93.71,4.27.74s2.81-1,4.39-.74a11.18,11.18,0,0,1,9.31,7.39c.24.62.37.84,1.06.48A32.77,32.77,0,0,0,139.49,81.3c-.13-.83-.37-1.11-1.25-1.14a49.79,49.79,0,0,1-8.6-1.06,58.58,58.58,0,0,1-27.59-14.22c-.67-.61-.93-.54-1.39.17a26.71,26.71,0,0,1-7,7.08A48,48,0,0,1,80.44,78.6Zm25.07,39.21c0-1.44,0-2.89,0-4.34,0-1.87-.61-2.36-2.44-2a9.06,9.06,0,0,0-1.17.28c-3.63,1.19-5.52,4.31-5.28,8.72a5.41,5.41,0,0,0,3.12,4.81c3,1.5,6,.21,5.79-3.48C105.45,120.47,105.51,119.14,105.51,117.81Zm3.63-.18h0c0,1.77-.09,3.54,0,5.3a3.1,3.1,0,0,0,3.43,2.94,5.57,5.57,0,0,0,5-3.82,9.65,9.65,0,0,0,.17-4.53,7.7,7.7,0,0,0-6.84-6.15c-1.38-.08-1.87.39-1.88,1.8S109.14,116.15,109.14,117.63ZM143,92.68a6.32,6.32,0,0,0,5.05-6.39,6.16,6.16,0,0,0-5-5.82A37.62,37.62,0,0,1,143,92.68Zm-71.37,0a36.78,36.78,0,0,1,0-12.25,6.24,6.24,0,0,0,0,12.25Z"/><path class="cls-4" d="M88.5,148.14c-.35,1.58-.07,2.15,1.41,2.84a41.58,41.58,0,0,0,44.8-6.58,54.56,54.56,0,0,0,5.79-6.13,37,37,0,0,1,2.09,6.7c.1.46-.25.74-.48,1.05a40.41,40.41,0,0,1-7.55,7.74c-1,.79-1.49,1.67-.91,2.92l-2.76,1.93a2.11,2.11,0,0,0-3-.48,42.59,42.59,0,0,1-20.13,5C97,163.17,87.24,160,79,152.84a18.2,18.2,0,0,1-3-2.91c.82-2.28,1.64-4.57,2.45-6.85,1.36,1.13,2.69,2.28,4.07,3.38,1.18.95,1.89.9,3.06-.12A10.65,10.65,0,0,0,88.5,148.14Z"/><path class="cls-5" d="M80.44,78.6a48,48,0,0,0,13.24-6.47,26.71,26.71,0,0,0,7-7.08c.46-.71.72-.78,1.39-.17A58.58,58.58,0,0,0,129.64,79.1a49.79,49.79,0,0,0,8.6,1.06c.88,0,1.12.31,1.25,1.14A32.77,32.77,0,0,1,122,115.65c-.69.36-.82.14-1.06-.48a11.18,11.18,0,0,0-9.31-7.39c-1.58-.24-3,.78-4.39.74s-2.73-1-4.27-.74A11.61,11.61,0,0,0,94.07,114a1.25,1.25,0,0,1-.45-.14A39,39,0,0,1,87,107.12a34.92,34.92,0,0,1-6.4-15,39,39,0,0,1-.45-6.2C80.1,83.47,80.32,81,80.44,78.6ZM107.36,95a5.76,5.76,0,0,0,4.35-1.8,1.83,1.83,0,0,0,.26-2.58,1.76,1.76,0,0,0-2.57-.24c-1.92,1.3-2.31,1.3-4.16,0a1.75,1.75,0,0,0-2.57.18,1.79,1.79,0,0,0,.2,2.58A5.88,5.88,0,0,0,107.36,95ZM89.12,91.54c-.8,0-1.61,0-2.41,0a1.8,1.8,0,1,0,0,3.6c1.53,0,3.06,0,4.58,0a1.81,1.81,0,1,0,0-3.6C90.57,91.52,89.85,91.54,89.12,91.54Zm36.33,3.61c.81,0,1.61,0,2.42,0a1.8,1.8,0,1,0,0-3.6c-1.57,0-3.14,0-4.71,0a1.78,1.78,0,0,0-1.81,1.86,1.8,1.8,0,0,0,1.82,1.73C123.93,95.19,124.69,95.15,125.45,95.15Zm1.88-8.75h0a17.34,17.34,0,0,0,0-2,1.62,1.62,0,0,0-1.59-1.52,1.55,1.55,0,0,0-1.82,1.23,11.56,11.56,0,0,0,0,4.54,1.55,1.55,0,0,0,1.89,1.27,1.6,1.6,0,0,0,1.55-1.55A17.74,17.74,0,0,0,127.33,86.4Zm-40.07,0c0,.6,0,1.21,0,1.8a1.67,1.67,0,0,0,1.67,1.71,1.58,1.58,0,0,0,1.85-1.49,21.39,21.39,0,0,0,0-4.08,1.59,1.59,0,0,0-1.87-1.48,1.68,1.68,0,0,0-1.65,1.73C87.22,85.17,87.26,85.78,87.26,86.38Z"/><path class="cls-6" d="M88.5,148.14a10.65,10.65,0,0,1-3-1.8,2,2,0,0,0-.8-2.71,34.32,34.32,0,0,1-4.73-4.2c.06-.19.1-.39.17-.57a64.25,64.25,0,0,1,8.6-14.64,25.07,25.07,0,0,1,3.92-4.49c.59.4.33,1,.37,1.54.45,5.42,6.43,9.57,11.42,7.89a6.11,6.11,0,0,0,2.27-1.32c.37-.35.67-.48,1.11-.06,3.39,3.24,9.78,1.73,12.43-2.71a8.24,8.24,0,0,0,1.31-4.2,1.5,1.5,0,0,1,1-1.55,25,25,0,0,0,3.39-1.8,1.18,1.18,0,0,1,1.83.3,113,113,0,0,1,7.43,10.23c1.22,1.79,2.2,3.72,3.25,5.62a1,1,0,0,1-.06,1.27C130,146.18,118.81,151.77,104.63,151a35.22,35.22,0,0,1-13.22-3.32A2.17,2.17,0,0,0,88.5,148.14Z"/><path class="cls-7" d="M144.43,76.84c-4.9-.42-9.85-.3-14.71-1.41a54.93,54.93,0,0,1-23.83-12c-.92-.78-1.8-1.61-2.75-2.34a3,3,0,0,0-4.3.44,18.91,18.91,0,0,0-1.38,1.82c-3.5,4.81-8.35,7.77-13.7,10.05a27.07,27.07,0,0,1-5.66,2c.18-.53.37-1.06.54-1.59a35.2,35.2,0,0,1,4-8.57A39.2,39.2,0,0,1,91,55.59a53.68,53.68,0,0,1,4.86-3.48,58.65,58.65,0,0,1,8.31-4A38.58,38.58,0,0,1,144.43,76c.06.23.08.47.12.7Z"/><path class="cls-8" d="M69.81,125.84a2.72,2.72,0,0,1,.2-1.29,1.8,1.8,0,0,0-3.36-1.28c-.49,1-.91,2-1.38,3.07-.79,1.74-2.33,2.54-3.85,2s-2.2-2-1.74-4a1.88,1.88,0,0,0-1-2.42,1.84,1.84,0,0,0-2.42,1.19c-.56,1.16-1,2.36-1.62,3.49a3,3,0,0,1-3.84,1.27,2.9,2.9,0,0,1-1.44-3.67c2-4.57,4.42-8.94,8.15-12.38,6-5.58,13.71-6.23,21-1.85.69.42,1.35.87,2,1.31a5.69,5.69,0,0,1-1.45,2A91,91,0,0,0,70.56,125C70.35,125.29,70.24,125.7,69.81,125.84Z"/><path class="cls-8" d="M134.09,111.36a21.11,21.11,0,0,1,11.12-4.16,15.44,15.44,0,0,1,11.5,4.38c3.8,3.43,6.32,7.76,8.42,12.35a3,3,0,0,1-1.47,4.06,3,3,0,0,1-3.89-1.66c-.5-1-.93-2.13-1.43-3.18a1.85,1.85,0,0,0-2.45-1.15,1.91,1.91,0,0,0-.94,2.44c.45,1.84-.19,3.33-1.69,3.89a3.08,3.08,0,0,1-3.89-1.93c-.44-.94-.83-1.91-1.28-2.85-.55-1.18-1.4-1.64-2.38-1.31s-1.33,1.24-1.05,2.48a2.44,2.44,0,0,1,.16,1.41,3.24,3.24,0,0,1-.4-.43,78.06,78.06,0,0,0-7.89-11.13A13.23,13.23,0,0,1,134.09,111.36Z"/><path class="cls-9" d="M104.16,48.13a58.65,58.65,0,0,0-8.31,4A53.68,53.68,0,0,0,91,55.59a39.2,39.2,0,0,0-8.37,9.65,35.2,35.2,0,0,0-4,8.57c-.17.53-.36,1.06-.54,1.59-2.38,1.11-5,1.14-7.51,1.44-.92.1-.45-.55-.37-.86a33,33,0,0,1,2.88-7.26c6.16-11.24,15.55-18,28.19-20.28C102.23,48.28,103.2,48.23,104.16,48.13Z"/><path class="cls-10" d="M80.44,78.6c-.12,2.43-.34,4.87-.32,7.3a39,39,0,0,0,.45,6.2,34.92,34.92,0,0,0,6.4,15,39,39,0,0,0,6.65,6.75,1.25,1.25,0,0,0,.45.14c-.73,2-.76,2-2.59,1a32.07,32.07,0,0,1-16.3-23.32,33.5,33.5,0,0,1,0-10.9,1,1,0,0,1,.84-1C77.51,79.42,79,79,80.44,78.6Z"/><path class="cls-11" d="M92.66,119.73a25.07,25.07,0,0,0-3.92,4.49,64.25,64.25,0,0,0-8.6,14.64c-.07.18-.11.38-.17.57a34.79,34.79,0,0,1-3.8-4.5,1,1,0,0,1-.1-1.18,74.77,74.77,0,0,1,11.3-16.13c.28-.31.49-.54,1-.26C89.77,118.19,91.22,118.94,92.66,119.73Z"/><path class="cls-12" d="M105.51,117.81c0,1.33-.06,2.66,0,4,.21,3.69-2.77,5-5.79,3.48a5.41,5.41,0,0,1-3.12-4.81c-.24-4.41,1.65-7.53,5.28-8.72a9.06,9.06,0,0,1,1.17-.28c1.83-.35,2.44.14,2.44,2C105.52,114.92,105.51,116.37,105.51,117.81Z"/><path class="cls-13" d="M109.14,117.63c0-1.48,0-3,0-4.46s.5-1.88,1.88-1.8a7.7,7.7,0,0,1,6.84,6.15,9.65,9.65,0,0,1-.17,4.53,5.57,5.57,0,0,1-5,3.82,3.1,3.1,0,0,1-3.43-2.94c-.11-1.76,0-3.53,0-5.3Z"/><path class="cls-14" d="M69.81,125.84c.43-.14.54-.55.75-.88a91,91,0,0,1,8.49-11.6,5.69,5.69,0,0,0,1.45-2c1.57.8,2.55,2.29,4,3.29.45.32.21.57,0,.86a83.09,83.09,0,0,0-9,11.9,3.7,3.7,0,0,1-3.65,1.26A2.85,2.85,0,0,1,69.81,125.84Z"/><path class="cls-14" d="M134.09,111.36a13.23,13.23,0,0,0,2.44,3.21,78.06,78.06,0,0,1,7.89,11.13,3.24,3.24,0,0,0,.4.43,2.56,2.56,0,0,1-2.18,2.52,3.36,3.36,0,0,1-3.58-1.42,81,81,0,0,0-8.74-11.62c-.24-.26-.73-.55-.17-1C131.54,113.65,132.53,112.16,134.09,111.36Z"/><path class="cls-12" d="M143,92.68a37.62,37.62,0,0,0,0-12.21,6.16,6.16,0,0,1,5,5.82A6.32,6.32,0,0,1,143,92.68Z"/><path class="cls-12" d="M71.63,92.68a6.24,6.24,0,0,1,0-12.25A36.78,36.78,0,0,0,71.63,92.68Z"/><path class="cls-15" d="M78.37,143.08c-.81,2.28-1.63,4.57-2.45,6.85a26,26,0,0,1-3.61-4.16,1.12,1.12,0,0,1-.25-1,40,40,0,0,1,2-6.45Z"/><path class="cls-7" d="M144.55,76.72c.1.08.11.16,0,.24s-.08-.08-.12-.12Z"/><path class="cls-16" d="M139,104.72l-.3,0,.1-.26Z"/><path class="cls-17" d="M107.36,95a5.88,5.88,0,0,1-4.49-1.83,1.79,1.79,0,0,1-.2-2.58,1.75,1.75,0,0,1,2.57-.18c1.85,1.27,2.24,1.27,4.16,0a1.76,1.76,0,0,1,2.57.24,1.83,1.83,0,0,1-.26,2.58A5.76,5.76,0,0,1,107.36,95Z"/><path class="cls-18" d="M89.12,91.54c.73,0,1.45,0,2.17,0a1.81,1.81,0,1,1,0,3.6c-1.52,0-3,0-4.58,0a1.8,1.8,0,1,1,0-3.6C87.51,91.51,88.32,91.54,89.12,91.54Z"/><path class="cls-18" d="M125.45,95.15c-.76,0-1.52,0-2.29,0a1.8,1.8,0,0,1-1.82-1.73,1.78,1.78,0,0,1,1.81-1.86c1.57,0,3.14,0,4.71,0a1.8,1.8,0,1,1,0,3.6C127.06,95.19,126.26,95.15,125.45,95.15Z"/><path class="cls-17" d="M127.33,86.4a17.74,17.74,0,0,1,0,1.93,1.6,1.6,0,0,1-1.55,1.55,1.55,1.55,0,0,1-1.89-1.27,11.56,11.56,0,0,1,0-4.54,1.55,1.55,0,0,1,1.82-1.23,1.62,1.62,0,0,1,1.59,1.52,17.34,17.34,0,0,1,0,2Z"/><path class="cls-3" d="M87.26,86.38c0-.6,0-1.21,0-1.81a1.68,1.68,0,0,1,1.65-1.73,1.59,1.59,0,0,1,1.87,1.48,21.39,21.39,0,0,1,0,4.08,1.58,1.58,0,0,1-1.85,1.49,1.67,1.67,0,0,1-1.67-1.71C87.22,87.59,87.26,87,87.26,86.38Z"/></g></g></svg>