<svg xmlns="http://www.w3.org/2000/svg" viewBox="0 0 192.07 192.07"><defs><style>.cls-1{fill:#b1d0ba;}.cls-2{fill:#fff;}.cls-3{fill:#040303;}.cls-4{fill:#fcc060;}.cls-5{fill:#faddd4;}.cls-6{fill:#eae8ea;}.cls-7{fill:#fdc160;}.cls-8{fill:#a6c1d8;}.cls-9{fill:#faa555;}.cls-10{fill:#f9bfab;}.cls-11{fill:#d0d0d0;}.cls-12{fill:#f7bda9;}.cls-13{fill:#f0af99;}.cls-14{fill:#91aabe;}.cls-15{fill:#f8a454;}.cls-16{fill:#fdfdfd;}.cls-17{fill:#050405;}.cls-18{fill:#f68083;}</style></defs><g id="Capa_2" data-name="Capa 2"><g id="Capa_1-2" data-name="Capa 1"><rect class="cls-1" x="3.5" y="3.5" width="185.07" height="185.07" rx="14.53"/><path class="cls-2" d="M174,7a11.06,11.06,0,0,1,11,11V174a11.07,11.07,0,0,1-11,11H18A11.06,11.06,0,0,1,7,174V18A11.06,11.06,0,0,1,18,7H174m0-7H18A18.05,18.05,0,0,0,0,18V174a18.05,18.05,0,0,0,18,18H174a18.05,18.05,0,0,0,18-18V18A18.05,18.05,0,0,0,174,0Z"/><path class="cls-2" d="M58.55,32q-1.41,5.58-15.33,6.07c-1.16,0-2.87.11-5.15.32A5.67,5.67,0,0,0,34.87,40a9.19,9.19,0,0,0-1.35,3.31l.22,1.79,1.35.75q3.36-.69,6.66-1.4a34.58,34.58,0,0,1,6.78-.82,19.36,19.36,0,0,1,9.8,2.28,8.85,8.85,0,0,1,4.93,8.18Q63.26,59,59,64.3a26.89,26.89,0,0,1-8.67,7.31,27.42,27.42,0,0,1-12.62,2.87q-6.93,0-14.62-5.31c-1.38-1-2.06-1.84-2.06-2.6q0-2.22,2.49-2.22a21.18,21.18,0,0,1,4.28,1.25,31.77,31.77,0,0,0,10.35,2.16,24.79,24.79,0,0,0,6.58-1.08,20.9,20.9,0,0,0,6-2.55A12.81,12.81,0,0,0,54,60.83a7.73,7.73,0,0,0,1.62-4.33q0-3.9-6-6.61a16.94,16.94,0,0,0-1.84-.76,8.55,8.55,0,0,0-2-.16,19.56,19.56,0,0,0-8.39,2.11,28.52,28.52,0,0,1-7,2.49,7.71,7.71,0,0,1-2.06-4.39c-.18-1.66-.34-3.3-.48-4.93-.11-.61-.27-1.55-.49-2.81-.07-.33-.36-1.34-.87-3a10.14,10.14,0,0,1-.59-3q0-2.92,4.33-3.47l23.89-3.09a4.35,4.35,0,0,1,2.87.57A5.64,5.64,0,0,1,58.55,32Z"/><path class="cls-3" d="M130.64,158.61c.29,1.62.09,2-1.37,2.78A47.4,47.4,0,0,1,98.63,166a45.62,45.62,0,0,1-29.46-18,4.39,4.39,0,0,1-.91-4.1,62.5,62.5,0,0,1,3.66-10.42c.15-.32.42-.6.33-1.06a6.24,6.24,0,0,1-4.72-2.2c-.29-.34-.47-.22-.77,0-3.4,2.71-6.18,2.65-9.44-.25-.64-.57-.81,0-1.13.25A6.56,6.56,0,0,1,45.86,128a5.78,5.78,0,0,1-.23-4.69c2.45-5.84,5.62-11.21,10.61-15.27,5.51-4.46,11.7-5.52,18.46-3.46.29.09.56.33,1,.16a37.71,37.71,0,0,1-3.36-7.78c-.13-.44-.42-.52-.8-.56A9.85,9.85,0,0,1,62.73,87a9.34,9.34,0,0,1,2-6.3,4.64,4.64,0,0,0,.95-2A41.67,41.67,0,0,1,79,55.07a42.09,42.09,0,0,1,48.74-5.28,41.72,41.72,0,0,1,19.85,25,20.42,20.42,0,0,1,.65,2.56,9.4,9.4,0,0,0,1.57,3.82,9.87,9.87,0,0,1-7,15.17c-.51.07-.88.12-1.06.73a40.82,40.82,0,0,1-3.12,7.41l-.1.26.31,0a20.23,20.23,0,0,1,11.83-.51c5.23,1.46,9.08,4.81,12.25,9.05a44.88,44.88,0,0,1,6,10.86v2.41a18.94,18.94,0,0,1-1.64,3,6.41,6.41,0,0,1-9.23.66c-.6-.53-.86-.51-1.41,0a6.42,6.42,0,0,1-9,.16c-.41-.37-.63-.55-1.12,0-1.46,1.48-2.36,1.84-4.68,2.07.82,2.06,1.78,4,2.51,6.09a58.17,58.17,0,0,1,1.81,6.48,2.24,2.24,0,0,1-.34,1.83A43.82,43.82,0,0,1,136.1,157c-1,.78-1.87.41-2.7-.31-.58-1.25-.07-2.13.92-2.92a40.71,40.71,0,0,0,7.55-7.74c.23-.31.57-.59.47-1.05a37,37,0,0,0-2.09-6.7,54.48,54.48,0,0,1-5.78,6.13A41.6,41.6,0,0,1,89.66,151c-1.48-.69-1.76-1.26-1.41-2.84a2.17,2.17,0,0,1,2.91-.46A35,35,0,0,0,104.38,151c14.18.78,25.33-4.81,33.81-16.05a1,1,0,0,0,.06-1.27c-1.05-1.9-2-3.83-3.25-5.62a111.08,111.08,0,0,0-7.43-10.23,1.17,1.17,0,0,0-1.82-.3,25.08,25.08,0,0,1-3.4,1.8,1.51,1.51,0,0,0-1,1.55,8.15,8.15,0,0,1-1.31,4.2c-2.65,4.44-9,6-12.43,2.71-.44-.42-.74-.29-1.1.06a6.15,6.15,0,0,1-2.28,1.32c-5,1.68-11-2.47-11.42-7.89,0-.52.22-1.14-.36-1.54-1.44-.79-2.9-1.54-4.31-2.37-.5-.28-.7,0-1,.26a74.38,74.38,0,0,0-11.29,16.13,1,1,0,0,0,.09,1.18,34.79,34.79,0,0,0,3.8,4.5,35.52,35.52,0,0,0,4.73,4.2,2.06,2.06,0,0,1,.81,2.71c-1.18,1-1.89,1.07-3.07.12-1.37-1.1-2.71-2.25-4.06-3.38l-4.3-4.75a40.08,40.08,0,0,0-2,6.45,1.09,1.09,0,0,0,.26,1,26,26,0,0,0,3.61,4.16,18.14,18.14,0,0,0,3,2.91c8.29,7.12,18,10.33,28.82,10.28a42.63,42.63,0,0,0,20.14-5A2.1,2.1,0,0,1,130.64,158.61Zm13.94-32.48a2.61,2.61,0,0,0-.16-1.41c-.28-1.24.09-2.16,1.05-2.48s1.82.13,2.38,1.31c.44.94.84,1.91,1.27,2.85.8,1.72,2.37,2.5,3.9,1.93s2.14-2.05,1.68-3.89a1.91,1.91,0,0,1,1-2.44,1.84,1.84,0,0,1,2.44,1.15c.51,1,.93,2.13,1.43,3.18a3,3,0,0,0,3.89,1.66,3,3,0,0,0,1.48-4.06c-2.1-4.59-4.63-8.92-8.42-12.35A15.46,15.46,0,0,0,145,107.2a21,21,0,0,0-11.12,4.16c-1.57.8-2.56,2.29-3.95,3.3-.55.4-.06.69.18,1a80.91,80.91,0,0,1,8.73,11.62,3.36,3.36,0,0,0,3.58,1.42A2.57,2.57,0,0,0,144.58,126.13Zm-75-.29a2.86,2.86,0,0,0,2,2.82,3.72,3.72,0,0,0,3.66-1.26,82.28,82.28,0,0,1,9-11.9c.26-.29.51-.54,0-.86-1.39-1-2.38-2.49-3.94-3.29-.68-.44-1.34-.89-2-1.31-7.25-4.38-14.93-3.73-21,1.85-3.73,3.44-6.12,7.81-8.15,12.38a2.9,2.9,0,0,0,1.45,3.67,3,3,0,0,0,3.84-1.27c.6-1.13,1.06-2.33,1.61-3.49A1.84,1.84,0,0,1,58.44,122a1.88,1.88,0,0,1,1,2.42c-.47,1.92.19,3.41,1.73,4s3.06-.28,3.86-2c.46-1,.89-2.06,1.38-3.07a1.79,1.79,0,0,1,3.35,1.28A2.72,2.72,0,0,0,69.56,125.84Zm34.35-77.71c-1,.1-1.92.15-2.87.31-12.64,2.25-22,9-28.19,20.28A33,33,0,0,0,70,76c-.08.31-.55,1,.38.86,2.53-.3,5.12-.33,7.5-1.44a27.15,27.15,0,0,0,5.67-2c5.34-2.28,10.19-5.24,13.69-10.05a20.8,20.8,0,0,1,1.39-1.82,3,3,0,0,1,4.29-.44c1,.73,1.83,1.56,2.75,2.34a54.91,54.91,0,0,0,23.84,12c4.86,1.11,9.8,1,14.71,1.41,0,0,.11.13.12.12s.09-.16,0-.24c0-.23-.06-.47-.12-.7A38.58,38.58,0,0,0,103.91,48.13ZM80.19,78.6c-1.46.4-2.93.82-4.4,1.2a1,1,0,0,0-.84,1,33.78,33.78,0,0,0,0,10.9A32.1,32.1,0,0,0,91.23,115c1.84,1.06,1.86,1,2.6-1a11.61,11.61,0,0,1,8.9-6.23c1.54-.21,2.93.71,4.28.74s2.8-1,4.38-.74a11.17,11.17,0,0,1,9.31,7.39c.24.62.38.84,1.07.48A32.77,32.77,0,0,0,139.25,81.3c-.13-.83-.38-1.11-1.26-1.14a49.91,49.91,0,0,1-8.6-1.06A58.63,58.63,0,0,1,101.8,64.88c-.67-.61-.93-.54-1.38.17a26.6,26.6,0,0,1-7,7.08A48,48,0,0,1,80.19,78.6Zm25.08,39.21v-4.34c0-1.87-.61-2.36-2.45-2a8.92,8.92,0,0,0-1.16.28c-3.64,1.19-5.53,4.31-5.29,8.72a5.42,5.42,0,0,0,3.12,4.81c3,1.5,6,.21,5.79-3.48C105.2,120.47,105.27,119.14,105.27,117.81Zm3.62-.18h0c0,1.77-.08,3.54,0,5.3a3.1,3.1,0,0,0,3.44,2.94,5.59,5.59,0,0,0,5-3.82,9.52,9.52,0,0,0,.16-4.53,7.69,7.69,0,0,0-6.84-6.15c-1.38-.08-1.87.39-1.87,1.8S108.89,116.15,108.89,117.63Zm33.86-24.95a6.32,6.32,0,0,0,5.06-6.39,6.17,6.17,0,0,0-5-5.82A37.62,37.62,0,0,1,142.75,92.68Zm-71.36,0a36.51,36.51,0,0,1,0-12.25,6.24,6.24,0,0,0,0,12.25Z"/><path class="cls-4" d="M88.25,148.14c-.35,1.58-.07,2.15,1.41,2.84a41.6,41.6,0,0,0,44.81-6.58,54.48,54.48,0,0,0,5.78-6.13,37,37,0,0,1,2.09,6.7c.1.46-.24.74-.47,1.05a40.71,40.71,0,0,1-7.55,7.74c-1,.79-1.5,1.67-.92,2.92l-2.76,1.93a2.1,2.1,0,0,0-3-.48,42.63,42.63,0,0,1-20.14,5C96.7,163.17,87,160,78.71,152.84a18.14,18.14,0,0,1-3-2.91c.81-2.28,1.63-4.57,2.45-6.85,1.35,1.13,2.69,2.28,4.06,3.38,1.18.95,1.89.9,3.07-.12A10.59,10.59,0,0,0,88.25,148.14Z"/><path class="cls-5" d="M80.19,78.6a48,48,0,0,0,13.24-6.47,26.6,26.6,0,0,0,7-7.08c.45-.71.71-.78,1.38-.17A58.63,58.63,0,0,0,129.39,79.1a49.91,49.91,0,0,0,8.6,1.06c.88,0,1.13.31,1.26,1.14a32.77,32.77,0,0,1-17.48,34.35c-.69.36-.83.14-1.07-.48a11.17,11.17,0,0,0-9.31-7.39c-1.58-.24-3,.78-4.38.74s-2.74-1-4.28-.74a11.61,11.61,0,0,0-8.9,6.23,1.31,1.31,0,0,1-.46-.14,39.33,39.33,0,0,1-6.65-6.75,35,35,0,0,1-6.39-15,39,39,0,0,1-.46-6.2C79.85,83.47,80.08,81,80.19,78.6ZM107.11,95a5.76,5.76,0,0,0,4.35-1.8,1.82,1.82,0,0,0,.26-2.58,1.76,1.76,0,0,0-2.57-.24c-1.91,1.3-2.31,1.3-4.16,0a1.75,1.75,0,0,0-2.57.18,1.8,1.8,0,0,0,.2,2.58A5.88,5.88,0,0,0,107.11,95ZM88.88,91.54c-.81,0-1.61,0-2.42,0a1.8,1.8,0,1,0,.05,3.6c1.52,0,3,0,4.58,0a1.81,1.81,0,1,0,0-3.6C90.32,91.52,89.6,91.54,88.88,91.54Zm36.33,3.61c.8,0,1.61,0,2.41,0a1.8,1.8,0,1,0,0-3.6c-1.57,0-3.14,0-4.7,0a1.78,1.78,0,0,0-1.82,1.86,1.81,1.81,0,0,0,1.83,1.73C123.68,95.19,124.44,95.15,125.21,95.15Zm1.88-8.75h0a17.34,17.34,0,0,0,0-2,1.61,1.61,0,0,0-1.59-1.52,1.55,1.55,0,0,0-1.82,1.23,11.56,11.56,0,0,0,0,4.54,1.56,1.56,0,0,0,1.89,1.27,1.6,1.6,0,0,0,1.55-1.55A17.73,17.73,0,0,0,127.09,86.4ZM87,86.38c0,.6,0,1.21,0,1.8a1.68,1.68,0,0,0,1.68,1.71,1.59,1.59,0,0,0,1.85-1.49,22.24,22.24,0,0,0,0-4.08,1.59,1.59,0,0,0-1.86-1.48A1.68,1.68,0,0,0,87,84.57C87,85.17,87,85.78,87,86.38Z"/><path class="cls-6" d="M88.25,148.14a10.59,10.59,0,0,1-3-1.8,2.06,2.06,0,0,0-.81-2.71,35.52,35.52,0,0,1-4.73-4.2,5.4,5.4,0,0,1,.18-.57,63.88,63.88,0,0,1,8.6-14.64,24.3,24.3,0,0,1,3.92-4.49c.58.4.32,1,.36,1.54.45,5.42,6.43,9.57,11.42,7.89a6.15,6.15,0,0,0,2.28-1.32c.36-.35.66-.48,1.1-.06,3.39,3.24,9.78,1.73,12.43-2.71a8.15,8.15,0,0,0,1.31-4.2,1.51,1.51,0,0,1,1-1.55,25.08,25.08,0,0,0,3.4-1.8,1.17,1.17,0,0,1,1.82.3A111.08,111.08,0,0,1,135,128.05c1.22,1.79,2.2,3.72,3.25,5.62a1,1,0,0,1-.06,1.27c-8.48,11.24-19.63,16.83-33.81,16.05a35,35,0,0,1-13.22-3.31A2.17,2.17,0,0,0,88.25,148.14Z"/><path class="cls-7" d="M144.19,76.84c-4.91-.42-9.85-.3-14.71-1.41a54.91,54.91,0,0,1-23.84-12c-.92-.78-1.79-1.61-2.75-2.34a3,3,0,0,0-4.29.44,20.8,20.8,0,0,0-1.39,1.82c-3.5,4.81-8.35,7.77-13.69,10.05a27.15,27.15,0,0,1-5.67,2c.18-.53.37-1.06.54-1.59a34.86,34.86,0,0,1,4-8.57,38.78,38.78,0,0,1,8.37-9.65,52.31,52.31,0,0,1,4.86-3.48,58,58,0,0,1,8.3-4A38.58,38.58,0,0,1,144.18,76c.06.23.08.47.12.7Z"/><path class="cls-8" d="M69.56,125.84a2.72,2.72,0,0,1,.2-1.29,1.79,1.79,0,0,0-3.35-1.28c-.49,1-.92,2-1.38,3.07-.8,1.74-2.33,2.54-3.86,2s-2.2-2-1.73-4a1.88,1.88,0,0,0-1-2.42A1.84,1.84,0,0,0,56,123.18c-.55,1.16-1,2.36-1.61,3.49a3,3,0,0,1-3.84,1.27,2.9,2.9,0,0,1-1.45-3.67c2-4.57,4.42-8.94,8.15-12.38,6-5.58,13.72-6.23,21-1.85.68.42,1.34.87,2,1.31a5.72,5.72,0,0,1-1.46,2A90,90,0,0,0,70.32,125C70.11,125.29,70,125.7,69.56,125.84Z"/><path class="cls-8" d="M133.85,111.36A21,21,0,0,1,145,107.2a15.46,15.46,0,0,1,11.5,4.38c3.79,3.43,6.32,7.76,8.42,12.35a3,3,0,0,1-1.48,4.06,3,3,0,0,1-3.89-1.66c-.5-1-.92-2.13-1.43-3.18a1.84,1.84,0,0,0-2.44-1.15,1.91,1.91,0,0,0-1,2.44c.46,1.84-.19,3.33-1.68,3.89s-3.1-.21-3.9-1.93c-.43-.94-.83-1.91-1.27-2.85-.56-1.18-1.41-1.64-2.38-1.31s-1.33,1.24-1.05,2.48a2.61,2.61,0,0,1,.16,1.41,2.69,2.69,0,0,1-.4-.43,79.69,79.69,0,0,0-7.89-11.13A12.74,12.74,0,0,1,133.85,111.36Z"/><path class="cls-9" d="M103.91,48.13a58,58,0,0,0-8.3,4,52.31,52.31,0,0,0-4.86,3.48,38.78,38.78,0,0,0-8.37,9.65,34.86,34.86,0,0,0-4,8.57c-.17.53-.36,1.06-.54,1.59-2.38,1.11-5,1.14-7.5,1.44-.93.1-.46-.55-.38-.86a33,33,0,0,1,2.88-7.26C79,57.48,88.4,50.69,101,48.44,102,48.28,103,48.23,103.91,48.13Z"/><path class="cls-10" d="M80.19,78.6c-.11,2.43-.34,4.87-.32,7.3a39,39,0,0,0,.46,6.2,35,35,0,0,0,6.39,15,39.33,39.33,0,0,0,6.65,6.75,1.31,1.31,0,0,0,.46.14c-.74,2-.76,2-2.6,1a32.1,32.1,0,0,1-16.3-23.32,33.78,33.78,0,0,1,0-10.9,1,1,0,0,1,.84-1C77.26,79.42,78.73,79,80.19,78.6Z"/><path class="cls-11" d="M92.42,119.73a24.3,24.3,0,0,0-3.92,4.49,63.88,63.88,0,0,0-8.6,14.64,5.4,5.4,0,0,0-.18.57,34.79,34.79,0,0,1-3.8-4.5,1,1,0,0,1-.09-1.18,74.38,74.38,0,0,1,11.29-16.13c.29-.31.49-.54,1-.26C89.52,118.19,91,118.94,92.42,119.73Z"/><path class="cls-12" d="M105.27,117.81c0,1.33-.07,2.66,0,4,.21,3.69-2.77,5-5.79,3.48a5.42,5.42,0,0,1-3.12-4.81c-.24-4.41,1.65-7.53,5.29-8.72a8.92,8.92,0,0,1,1.16-.28c1.84-.35,2.44.14,2.45,2Z"/><path class="cls-13" d="M108.89,117.63c0-1.48,0-3,0-4.46s.49-1.88,1.87-1.8a7.69,7.69,0,0,1,6.84,6.15,9.52,9.52,0,0,1-.16,4.53,5.59,5.59,0,0,1-5,3.82,3.1,3.1,0,0,1-3.44-2.94c-.1-1.76,0-3.53,0-5.3Z"/><path class="cls-14" d="M69.56,125.84c.44-.14.55-.55.76-.88a90,90,0,0,1,8.48-11.6,5.72,5.72,0,0,0,1.46-2c1.56.8,2.55,2.29,3.94,3.29.46.32.21.57,0,.86a82.28,82.28,0,0,0-9,11.9,3.72,3.72,0,0,1-3.66,1.26A2.86,2.86,0,0,1,69.56,125.84Z"/><path class="cls-14" d="M133.85,111.36a12.74,12.74,0,0,0,2.44,3.21,79.69,79.69,0,0,1,7.89,11.13,2.69,2.69,0,0,0,.4.43,2.57,2.57,0,0,1-2.19,2.52,3.36,3.36,0,0,1-3.58-1.42,80.91,80.91,0,0,0-8.73-11.62c-.24-.26-.73-.55-.18-1C131.29,113.65,132.28,112.16,133.85,111.36Z"/><path class="cls-12" d="M142.75,92.68a37.62,37.62,0,0,0,0-12.21,6.17,6.17,0,0,1,5,5.82A6.32,6.32,0,0,1,142.75,92.68Z"/><path class="cls-12" d="M71.39,92.68a6.24,6.24,0,0,1,0-12.25A36.51,36.51,0,0,0,71.39,92.68Z"/><path class="cls-15" d="M78.13,143.08c-.82,2.28-1.64,4.57-2.45,6.85a26,26,0,0,1-3.61-4.16,1.09,1.09,0,0,1-.26-1,40.08,40.08,0,0,1,2-6.45Z"/><path class="cls-7" d="M144.3,76.72c.1.08.12.16,0,.24s-.08-.08-.12-.12Z"/><path class="cls-16" d="M138.79,104.72l-.31,0,.1-.26Z"/><path class="cls-17" d="M107.11,95a5.88,5.88,0,0,1-4.49-1.83,1.8,1.8,0,0,1-.2-2.58,1.75,1.75,0,0,1,2.57-.18c1.85,1.27,2.25,1.27,4.16,0a1.76,1.76,0,0,1,2.57.24,1.82,1.82,0,0,1-.26,2.58A5.76,5.76,0,0,1,107.11,95Z"/><path class="cls-18" d="M88.88,91.54c.72,0,1.44,0,2.17,0a1.81,1.81,0,1,1,0,3.6c-1.53,0-3.06,0-4.58,0a1.8,1.8,0,1,1-.05-3.6C87.27,91.51,88.07,91.54,88.88,91.54Z"/><path class="cls-18" d="M125.21,95.15c-.77,0-1.53,0-2.29,0a1.81,1.81,0,0,1-1.83-1.73,1.78,1.78,0,0,1,1.82-1.86c1.56,0,3.13,0,4.7,0a1.8,1.8,0,1,1,0,3.6C126.82,95.19,126,95.15,125.21,95.15Z"/><path class="cls-17" d="M127.09,86.4a17.73,17.73,0,0,1,0,1.93,1.6,1.6,0,0,1-1.55,1.55,1.56,1.56,0,0,1-1.89-1.27,11.56,11.56,0,0,1,0-4.54,1.55,1.55,0,0,1,1.82-1.23,1.61,1.61,0,0,1,1.59,1.52,17.34,17.34,0,0,1,0,2Z"/><path class="cls-3" d="M87,86.38c0-.6,0-1.21,0-1.81a1.68,1.68,0,0,1,1.66-1.73,1.59,1.59,0,0,1,1.86,1.48,22.24,22.24,0,0,1,0,4.08,1.59,1.59,0,0,1-1.85,1.49A1.68,1.68,0,0,1,87,88.18C87,87.59,87,87,87,86.38Z"/></g></g></svg>