<svg xmlns="http://www.w3.org/2000/svg" viewBox="0 0 192.79 246.65"><defs><style>.cls-1{fill:#fff;}.cls-2{fill:#69a556;}.cls-3{fill:#040302;}.cls-4{fill:#fdb156;}.cls-5{fill:#fdcc70;}.cls-6{fill:#040303;}.cls-7{fill:#faaf55;}.cls-8{fill:#fddcce;}.cls-9{fill:#acd6fd;}.cls-10{fill:#87c3fb;}.cls-11{fill:#fcc9bc;}.cls-12{fill:#abd5fc;}.cls-13{fill:#fbc8bb;}.cls-14{fill:#fb8d9c;}.cls-15{fill:#f6c4b7;}.cls-16{fill:#040403;}</style></defs><g id="Capa_2" data-name="Capa 2"><g id="Capa_1-2" data-name="Capa 1"><rect class="cls-1" y="165.71" width="192.56" height="80.93" rx="7.64"/><rect class="cls-2" x="4.23" y="3.5" width="185.07" height="185.07" rx="14.53"/><path class="cls-1" d="M174.76,7a11.06,11.06,0,0,1,11,11V174a11.06,11.06,0,0,1-11,11h-156a11.06,11.06,0,0,1-11-11V18a11.06,11.06,0,0,1,11-11h156m0-7h-156a18.05,18.05,0,0,0-18,18V174a18.05,18.05,0,0,0,18,18h156a18.05,18.05,0,0,0,18-18V18a18.05,18.05,0,0,0-18-18Z"/><path class="cls-1" d="M63.88,55.25a12.8,12.8,0,0,1-.65,2.28,20.59,20.59,0,0,1-7.69,11,28.86,28.86,0,0,1-16.85,5.3,21.42,21.42,0,0,1-12.51-3.79,9.87,9.87,0,0,1-1.68-1.51,16.94,16.94,0,0,1-4.93-12.41q0-9,6.15-17.31T40.53,28.11a12.27,12.27,0,0,1,2-.43,10.92,10.92,0,0,1,3.9.76c1.73.65,2.6,1.49,2.6,2.54a6.2,6.2,0,0,1-1.58,3.41q-10.29,2.93-14,5.42-6.39,4.34-6.72,12.68l1.73-.22,5.26-3.57a31.28,31.28,0,0,1,8.07-3.85,28.71,28.71,0,0,1,8.78-1.68q9.25,0,13.16,8.5C63.83,53.84,63.88,55,63.88,55.25Zm-8.34.6q-2.92-3.09-8.13-3.09a22,22,0,0,0-10.72,3Q30.84,59,29.1,63.65,33.28,67,40.81,67a19.63,19.63,0,0,0,9.75-2.28q5-2.72,5-8Z"/><path class="cls-3" d="M49.56,118.76a23.63,23.63,0,0,0,.87-4.4c.57-3,1.53-5.61,4.29-7.22.36-.2.28-.45.22-.76-.52-3,.66-5.46,2.32-7.77a1.71,1.71,0,0,1,2.37-.41,1.66,1.66,0,0,1,.39,2.33c-.35.64-.71,1.27-1.05,1.91a4.76,4.76,0,0,0-.28,4.4c.67,1.46.3,2.26-1.23,2.82a4.45,4.45,0,0,0-3,2.93,32.32,32.32,0,0,0-1.22,13.15,4.28,4.28,0,0,0,2.11,3.36c1.63.93,1.79,1.67.74,3.24a4.29,4.29,0,0,0-.67,3.82,22.38,22.38,0,0,0,3.7,7.32,7.69,7.69,0,0,0,6.34,3.11c1.62,0,2.24.6,2.22,2.23a7.77,7.77,0,0,0,3.2,6.42A25.19,25.19,0,0,0,77,158.5a5,5,0,0,0,5.2-.52,1.66,1.66,0,0,1,2.7.56c1.11,2.06,2.9,2.69,5.07,2.67A36.69,36.69,0,0,0,101.22,160a4.76,4.76,0,0,0,3.42-3.24c.51-1.42,1.32-1.8,2.66-1.19a4.87,4.87,0,0,0,4.31-.11,16.15,16.15,0,0,0,3.35-2.2c2-1.61,3.7-3.43,5.55-5.15a5.48,5.48,0,0,0,1.9-4.57,1.66,1.66,0,0,1,2-1.91,4.69,4.69,0,0,0,4-1.53q7-7,14-14a10.11,10.11,0,0,0,.85-1.08,3.83,3.83,0,0,0,.74-2.58c-.11-1.85.44-2.44,2.29-2.41a4.7,4.7,0,0,0,3.79-1.54c.8-.88,1.68-1.68,2.49-2.54a30.17,30.17,0,0,0,5-6.25,5,5,0,0,0,.4-4.61c-.69-1.56-.34-2.3,1.28-2.89a4.37,4.37,0,0,0,2.93-2.86,32.06,32.06,0,0,0,1.21-13.38,4.18,4.18,0,0,0-2.13-3.22c-1.57-.89-1.74-1.66-.73-3.15a4.34,4.34,0,0,0,.69-3.93,22.38,22.38,0,0,0-3.72-7.31,7.67,7.67,0,0,0-6.25-3.06c-1.68,0-2.24-.58-2.27-2.29a7.23,7.23,0,0,0-1.2-4.11A5.21,5.21,0,0,0,146,56.64a24.4,24.4,0,0,0-7.14-3.57,4.7,4.7,0,0,0-4.35.7,1.66,1.66,0,0,1-2.77-.57,5.14,5.14,0,0,0-4.64-2.65A42.27,42.27,0,0,0,116,51.69a5.09,5.09,0,0,0-3.92,3.47,1.68,1.68,0,0,1-2.6,1.13,5.06,5.06,0,0,0-4.52.17,15.93,15.93,0,0,0-3.14,2.1c-2,1.6-3.7,3.44-5.55,5.15a5.38,5.38,0,0,0-1.93,4.56,1.68,1.68,0,0,1-2,2,4.54,4.54,0,0,0-3.86,1.36c-4.9,4.67-9.64,9.51-14.37,14.35a4.56,4.56,0,0,0-1.43,3.94,1.64,1.64,0,0,1-1.83,2A5.4,5.4,0,0,0,66,93.94c-.42.5-.94.91-1.37,1.4a1.86,1.86,0,0,1-2.73.4c-.79-1.26-.75-1.78.26-2.82a19.7,19.7,0,0,1,4.1-3.63c.89-.51,2.13-.37,2.75-1s.48-1.86,1-2.71a14.64,14.64,0,0,1,2-2.51c4.31-4.34,8.61-8.69,13-13,1.54-1.53,3.16-3,5.48-3.29.43,0,.43-.37.48-.66a8.92,8.92,0,0,1,2.91-4.94,78.67,78.67,0,0,1,6.16-5.66c2.65-2,5.42-3.76,9-3a.44.44,0,0,0,.54-.27c1.64-2.81,4.35-3.75,7.33-4.31a30.16,30.16,0,0,0,4.53-.86h7.12c1.88.57,3.74,1.2,5,2.81.21.26.45.17.72.06,2.63-1.12,5.16-.61,7.66.47a32.38,32.38,0,0,1,5.42,3,11,11,0,0,1,4.84,7.36A1.3,1.3,0,0,0,153.53,62a10.58,10.58,0,0,1,6.7,4.06,26.27,26.27,0,0,1,4.4,8.62,7.36,7.36,0,0,1-.26,5.06c-.17.44-.23.73.18,1.08a8.12,8.12,0,0,1,2.58,6,41.51,41.51,0,0,1-1.38,12.84,8,8,0,0,1-3.4,4.73.94.94,0,0,0-.55,1.15,8.62,8.62,0,0,1-1.15,5.73,29,29,0,0,1-4.6,6c-1.11,1.17-2.28,2.27-3.37,3.45a7.78,7.78,0,0,1-4.41,2.48.92.92,0,0,0-.88.94,7,7,0,0,1-1.67,3.34,54.58,54.58,0,0,1-4.18,4.42c-3.42,3.4-6.82,6.82-10.26,10.2a8.56,8.56,0,0,1-5,2.84c-.49.06-.5.38-.56.72a8.8,8.8,0,0,1-2.76,4.77,65.71,65.71,0,0,1-7.25,6.5c-2.39,1.69-4.93,3-8,2.32-.25-.05-.43-.05-.57.21-1.69,3-4.56,3.87-7.65,4.42a38.34,38.34,0,0,1-11.41.62,7.34,7.34,0,0,1-4.72-2.35,1,1,0,0,0-1.28-.24,7.73,7.73,0,0,1-5.6,0A28.88,28.88,0,0,1,69,158.13a11.11,11.11,0,0,1-4.58-7.27c-.08-.51-.16-.88-.83-1-3.75-.56-6.37-2.76-8.33-5.88a33.26,33.26,0,0,1-3-6.3,7.72,7.72,0,0,1,0-5.5,1,1,0,0,0-.27-1.37,7,7,0,0,1-2.14-3.71c-.07-.26,0-.64-.34-.78Z"/><path class="cls-4" d="M61.94,95.74a1.86,1.86,0,0,0,2.73-.4c.43-.49,1-.9,1.37-1.4a5.4,5.4,0,0,1,4.82-2.1,1.64,1.64,0,0,0,1.83-2,4.56,4.56,0,0,1,1.43-3.94c4.73-4.84,9.47-9.68,14.37-14.35a4.54,4.54,0,0,1,3.86-1.36,1.68,1.68,0,0,0,2-2,5.38,5.38,0,0,1,1.93-4.56c1.85-1.71,3.59-3.55,5.55-5.15a15.93,15.93,0,0,1,3.14-2.1,5.06,5.06,0,0,1,4.52-.17,1.68,1.68,0,0,0,2.6-1.13A5.09,5.09,0,0,1,116,51.69a42.27,42.27,0,0,1,11.15-1.14,5.14,5.14,0,0,1,4.64,2.65,1.66,1.66,0,0,0,2.77.57,4.7,4.7,0,0,1,4.35-.7A24.4,24.4,0,0,1,146,56.64a5.21,5.21,0,0,1,1.83,2.16,4.22,4.22,0,0,0-.8,0,37.37,37.37,0,0,0-11.59,4.73,25.55,25.55,0,0,0-8-3.7c-4.91-1.07-7.73,1.69-6.69,6.6a1.87,1.87,0,0,0,.07.22c.32.79.09,1-.79,1a25.11,25.11,0,0,0-11.63,2.62,1.2,1.2,0,0,1-1.43-.07A7.87,7.87,0,0,0,96,81.18a1.19,1.19,0,0,1,.16,1.42,25.72,25.72,0,0,0-2.33,15.84c.11.65-.09.89-.71,1a18.37,18.37,0,0,0-10.33,5.27,147.86,147.86,0,0,0-10.43,10.52c-5.27,6-6.32,12.84-3.31,20.19,2.23,5.47,6.55,8.79,12.06,10.64-.39.2-.23.5-.12.78.37,1,.71,1.93,1.12,2.87A39.89,39.89,0,0,0,90,161.21c-2.17,0-4-.61-5.07-2.67a1.66,1.66,0,0,0-2.7-.56,5,5,0,0,1-5.2.52,25.19,25.19,0,0,1-6.15-3.26,7.77,7.77,0,0,1-3.2-6.42c0-1.63-.6-2.25-2.22-2.23a7.69,7.69,0,0,1-6.34-3.11,22.38,22.38,0,0,1-3.7-7.32,4.29,4.29,0,0,1,.67-3.82c1.05-1.57.89-2.31-.74-3.24a4.28,4.28,0,0,1-2.11-3.36,32.32,32.32,0,0,1,1.22-13.15,4.45,4.45,0,0,1,3-2.93c1.53-.56,1.9-1.36,1.23-2.82a4.76,4.76,0,0,1,.28-4.4c.34-.64.7-1.27,1.05-1.91a1.66,1.66,0,0,0-.39-2.33A26.88,26.88,0,0,1,61.94,95.74Z"/><path class="cls-5" d="M135.47,63.56a37.37,37.37,0,0,1,11.59-4.73,4.22,4.22,0,0,1,.8,0,7.23,7.23,0,0,1,1.2,4.11c0,1.71.59,2.3,2.27,2.29a7.67,7.67,0,0,1,6.25,3.06,22.38,22.38,0,0,1,3.72,7.31,4.34,4.34,0,0,1-.69,3.93c-1,1.49-.84,2.26.73,3.15a4.18,4.18,0,0,1,2.13,3.22,32.06,32.06,0,0,1-1.21,13.38,4.37,4.37,0,0,1-2.93,2.86c-1.62.59-2,1.33-1.28,2.89a5,5,0,0,1-.4,4.61,30.17,30.17,0,0,1-5,6.25c-.81.86-1.69,1.66-2.49,2.54a4.7,4.7,0,0,1-3.79,1.54c-1.85,0-2.4.56-2.29,2.41a3.83,3.83,0,0,1-.74,2.58,10.11,10.11,0,0,1-.85,1.08q-7,7-14,14a4.69,4.69,0,0,1-4,1.53,1.66,1.66,0,0,0-2,1.91,5.48,5.48,0,0,1-1.9,4.57c-1.85,1.72-3.6,3.54-5.55,5.15a16.15,16.15,0,0,1-3.35,2.2,4.87,4.87,0,0,1-4.31.11c-1.34-.61-2.15-.23-2.66,1.19a4.76,4.76,0,0,1-3.42,3.24A36.69,36.69,0,0,1,90,161.21a39.89,39.89,0,0,1-7.86-11.54c-.41-.94-.75-1.91-1.12-2.87-.11-.28-.27-.58.12-.78l.79.17c6.23,1.49,11.92.31,16.71-3.92a137.07,137.07,0,0,0,11.7-11.67,17.23,17.23,0,0,0,4.52-9.46c.09-.73.4-.82,1.06-.72a25.61,25.61,0,0,0,15.51-2.23,1.6,1.6,0,0,1,1.84.14,7.84,7.84,0,0,0,11.13-10.5,2.18,2.18,0,0,1-.12-2.74,2.21,2.21,0,0,0,.18-.42,26.25,26.25,0,0,0,2.12-11.33c1,.19,1.84.41,2.74.53a4.58,4.58,0,0,0,4.92-2.18,7,7,0,0,0-.12-6.19,1.62,1.62,0,0,0-2.17-1,1.73,1.73,0,0,0-1,2.27,8.57,8.57,0,0,1,.43,2.13c0,1.26-.38,1.66-1.66,1.53a11.62,11.62,0,0,1-2.87-.77,1.24,1.24,0,0,1-.86-1.06,25.59,25.59,0,0,0-3.07-7.86A26.92,26.92,0,0,0,128.8,69.11c.66-1.62,2.08-2.41,3.49-3.21a43.25,43.25,0,0,1,7.81,6,53.42,53.42,0,0,1,7.72,8.92,1.72,1.72,0,1,0,2.84-1.91c-.31-.48-.64-1-1-1.41A65.82,65.82,0,0,0,135.47,63.56Z"/><path class="cls-6" d="M135.47,63.56a65.82,65.82,0,0,1,14.21,13.92c.34.46.67.93,1,1.41a1.72,1.72,0,1,1-2.84,1.91,53.42,53.42,0,0,0-7.72-8.92,43.25,43.25,0,0,0-7.81-6,16.42,16.42,0,0,0-6.44-2.83c-.65-.11-1.41-.13-1.67.62-.46,1.37.25,2.6.62,3.88.23.82.94.65,1.47.83.83.28,1.69.48,2.53.71a26.92,26.92,0,0,1,14.13,11.66A25.59,25.59,0,0,1,146,88.63a1.24,1.24,0,0,0,.86,1.06,11.62,11.62,0,0,0,2.87.77c1.28.13,1.69-.27,1.66-1.53A8.57,8.57,0,0,0,151,86.8a1.73,1.73,0,0,1,1-2.27,1.62,1.62,0,0,1,2.17,1,7,7,0,0,1,.12,6.19,4.58,4.58,0,0,1-4.92,2.18c-.9-.12-1.78-.34-2.74-.53a26.25,26.25,0,0,1-2.12,11.33,2.21,2.21,0,0,1-.18.42,2.18,2.18,0,0,0,.12,2.74,7.84,7.84,0,0,1-11.13,10.5,1.6,1.6,0,0,0-1.84-.14,25.61,25.61,0,0,1-15.51,2.23c-.66-.1-1,0-1.06.72a17.23,17.23,0,0,1-4.52,9.46,137.07,137.07,0,0,1-11.7,11.67c-4.79,4.23-10.48,5.41-16.71,3.92l-.79-.17c-5.51-1.85-9.83-5.17-12.06-10.64-3-7.35-2-14.23,3.31-20.19a147.86,147.86,0,0,1,10.43-10.52A18.37,18.37,0,0,1,93.14,99.4c.62-.07.82-.31.71-1A25.72,25.72,0,0,1,96.18,82.6,1.19,1.19,0,0,0,96,81.18a7.87,7.87,0,0,1,11-10.92,1.2,1.2,0,0,0,1.43.07,25.11,25.11,0,0,1,11.63-2.62c.88,0,1.11-.24.79-1a1.87,1.87,0,0,1-.07-.22c-1-4.91,1.78-7.67,6.69-6.6A25.55,25.55,0,0,1,135.47,63.56Zm-37.19,23a16.69,16.69,0,0,0-1.22,6,19.3,19.3,0,0,0,.77,8c2.55,9.23,11.5,16.43,20.65,16.65a8.83,8.83,0,0,0,3.2,0,17.61,17.61,0,0,0,6-1.24c.14,0,.29-.06.43-.11A23.2,23.2,0,0,0,142,87.07c-3.3-10-13.4-16.89-23.32-15.85C110.27,71.07,100.67,78.31,98.28,86.59ZM86.77,143.3a15.59,15.59,0,0,0,4.93-.87c.91-.28,1-.58.43-1.37a31.93,31.93,0,0,1-.56-37.48s0-.12,0-.18A12.07,12.07,0,0,0,85.41,107c-3.27,3.17-6.45,6.42-9.69,9.62A16,16,0,0,0,71,126.17C69.8,135.15,77.7,143.76,86.77,143.3Zm2.76-24.76a4.42,4.42,0,0,0-.23,1.58,29,29,0,0,0,5.86,19.33c.5.68.79.72,1.36.16,3.91-3.87,8-7.59,11.6-11.76a13.91,13.91,0,0,0,3.39-7.39c.06-.49.3-1-.5-1.28A27,27,0,0,1,98.66,110a33.56,33.56,0,0,1-3.26-5.8c-.52.72-1,1.29-1.36,1.89A26.59,26.59,0,0,0,89.53,118.54Zm15-45.83a4.42,4.42,0,0,0-5.28,1,4.08,4.08,0,0,0-.61,4.92A27.33,27.33,0,0,1,104.48,72.71Zm37.07,37.07a26.8,26.8,0,0,1-5.89,5.9,4.14,4.14,0,0,0,5-.64A4.42,4.42,0,0,0,141.55,109.78Z"/><path class="cls-7" d="M128.8,69.11c-.84-.23-1.7-.43-2.53-.71-.53-.18-1.24,0-1.47-.83-.37-1.28-1.08-2.51-.62-3.88.26-.75,1-.73,1.67-.62a16.42,16.42,0,0,1,6.44,2.83C130.88,66.7,129.46,67.49,128.8,69.11Z"/><path class="cls-8" d="M118.7,71.22c9.92-1,20,5.82,23.32,15.85a23.2,23.2,0,0,1-13.92,28.8c-.14,0-.29.07-.43.11a4.63,4.63,0,0,0,.15-2.55A24,24,0,0,0,127,111c.27,0,.53,0,.8.06,1.29,0,2-.57,2.06-1.64s-.56-1.68-1.86-1.82c-1.77-.19-2.47-.9-2.62-2.7-.09-1.18-.72-1.81-1.78-1.8s-1.59.65-1.67,1.78a6.71,6.71,0,0,0,1.23,4,6.67,6.67,0,0,0-2,.19c-2.16.9-2.88,3.47-1.6,5.72a11.89,11.89,0,0,0,2.2,2.44,8.83,8.83,0,0,1-3.2,0c-.15-.36-.51-.44-.81-.59a24,24,0,0,1-8.58-6.67,23.32,23.32,0,0,1-5.55-14.87,3.88,3.88,0,0,0,1.85-4,6.67,6.67,0,0,0,3.86,1.24c1.21-.06,1.87-.62,1.89-1.68s-.63-1.68-1.82-1.78c-1.78-.14-2.53-.83-2.67-2.63a2,2,0,0,0-1-1.78c.89-3.2,3-5.65,5.2-7.93A25,25,0,0,1,118.7,71.22Zm-5.13,27a2.81,2.81,0,0,0-2.71,2.7,2.46,2.46,0,0,0,2.48,2.44,2.8,2.8,0,0,0,2.65-2.64A2.45,2.45,0,0,0,113.57,98.26Z"/><path class="cls-9" d="M98.66,110A27,27,0,0,0,111,119.18c.8.28.56.79.5,1.28a13.91,13.91,0,0,1-3.39,7.39c-3.62,4.17-7.69,7.89-11.6,11.76-.57.56-.86.52-1.36-.16a29,29,0,0,1-5.86-19.33,4.42,4.42,0,0,1,.23-1.58l7.39-7.28A4.29,4.29,0,0,1,98.66,110Z"/><path class="cls-10" d="M86.77,143.3c-9.07.46-17-8.15-15.77-17.13a16,16,0,0,1,4.72-9.56c3.24-3.2,6.42-6.45,9.69-9.62a12.07,12.07,0,0,1,6.12-3.59c0,.06.06.15,0,.18a32.35,32.35,0,0,0-5.77,19.77A6.54,6.54,0,0,0,84,126.57,17.49,17.49,0,0,0,86.77,143.3Z"/><path class="cls-11" d="M103.54,95.1A23.32,23.32,0,0,0,109.09,110a24,24,0,0,0,8.58,6.67c.3.15.66.23.81.59-9.15-.22-18.1-7.42-20.65-16.65a19.3,19.3,0,0,1-.77-8C98.72,94.67,100.7,96,103.54,95.1Z"/><path class="cls-12" d="M86.77,143.3A17.49,17.49,0,0,1,84,126.57a6.54,6.54,0,0,1,1.79-3.22,32.21,32.21,0,0,0,6.33,17.71c.57.79.48,1.09-.43,1.37A15.59,15.59,0,0,1,86.77,143.3Z"/><path class="cls-13" d="M118.7,71.22a25,25,0,0,0-7.89,5.36c-2.23,2.28-4.31,4.73-5.2,7.93-1.67-.15-2.35.34-2.42,1.76a8.78,8.78,0,0,0,0,1,1.74,1.74,0,0,1-1-.3,5,5,0,0,0-4-.4C100.67,78.31,110.27,71.07,118.7,71.22Z"/><path class="cls-14" d="M127,111a24,24,0,0,1,.87,2.41,4.63,4.63,0,0,1-.15,2.55,17.61,17.61,0,0,1-6,1.24,11.89,11.89,0,0,1-2.2-2.44c-1.28-2.25-.56-4.82,1.6-5.72a6.67,6.67,0,0,1,2-.19A6.8,6.8,0,0,0,127,111Z"/><path class="cls-14" d="M98.28,86.59a5,5,0,0,1,4,.4,1.74,1.74,0,0,0,1,.3,6.78,6.78,0,0,0,2.16,3.85,3.88,3.88,0,0,1-1.85,4c-2.84.87-4.82-.43-6.48-2.55A16.69,16.69,0,0,1,98.28,86.59Z"/><path class="cls-10" d="M98.66,110a4.29,4.29,0,0,0-1.74,1.23l-7.39,7.28A26.59,26.59,0,0,1,94,106.12c.4-.6.84-1.17,1.36-1.89A33.56,33.56,0,0,0,98.66,110Z"/><path class="cls-15" d="M104.48,72.71a27.33,27.33,0,0,0-5.89,5.87,4.08,4.08,0,0,1,.61-4.92A4.42,4.42,0,0,1,104.48,72.71Z"/><path class="cls-15" d="M141.55,109.78a4.42,4.42,0,0,1-.93,5.26,4.14,4.14,0,0,1-5,.64A26.8,26.8,0,0,0,141.55,109.78Z"/><path class="cls-16" d="M127,111a6.8,6.8,0,0,1-3.84-2.15,6.71,6.71,0,0,1-1.23-4c.08-1.13.65-1.76,1.67-1.78s1.69.62,1.78,1.8c.15,1.8.85,2.51,2.62,2.7,1.3.14,1.91.73,1.86,1.82s-.77,1.65-2.06,1.64C127.48,111.07,127.22,111,127,111Z"/><path class="cls-16" d="M105.39,91.14a6.78,6.78,0,0,1-2.16-3.85,8.78,8.78,0,0,1,0-1c.07-1.42.75-1.91,2.42-1.76a2,2,0,0,1,1,1.78c.14,1.8.89,2.49,2.67,2.63,1.19.1,1.83.72,1.82,1.78s-.68,1.62-1.89,1.68A6.67,6.67,0,0,1,105.39,91.14Z"/><path class="cls-16" d="M113.57,98.26a2.45,2.45,0,0,1,2.42,2.5,2.8,2.8,0,0,1-2.65,2.64,2.46,2.46,0,0,1-2.48-2.44A2.81,2.81,0,0,1,113.57,98.26Z"/><path d="M59.56,195a4,4,0,0,1,2.84,1.07q2.29,2.06,2.3,6.48a9.44,9.44,0,0,1-2.53,7,4.73,4.73,0,0,1-3,1.39,4.29,4.29,0,0,1-3.53-1.56,9.51,9.51,0,0,1-1.8-3.47,13.7,13.7,0,0,1-.54-3.71,8.29,8.29,0,0,1,1.46-5A5.54,5.54,0,0,1,59.56,195Zm-.16,2a3.72,3.72,0,0,0-4,3,7.47,7.47,0,0,0-.24,2.08,10.78,10.78,0,0,0,.48,2.93,5.57,5.57,0,0,0,1.91,3.15,2.79,2.79,0,0,0,1.79.58,2.49,2.49,0,0,0,1.89-.95,5.18,5.18,0,0,0,1.14-2.39,13.92,13.92,0,0,0,.31-2.94,8.9,8.9,0,0,0-.75-4.06A2.63,2.63,0,0,0,59.4,197Z"/><path d="M69.52,207.39l0,2.46a1.05,1.05,0,0,1-.39.78,1.16,1.16,0,0,1-.78.36c-.36,0-.59-.29-.69-.86,0-.13-.08-1.29-.19-3.5a28.64,28.64,0,0,0-.64-5.19,7.25,7.25,0,0,1-.22-1.07c0-.53.32-.79,1-.79a.76.76,0,0,1,.65.31,1.51,1.51,0,0,1,.3.63c0,.22.07.51.11.87s0,.6.07.7a3.57,3.57,0,0,1,1.5-1.79,4.2,4.2,0,0,1,2.2-.6c1.3,0,2,.33,2,1a1,1,0,0,1-.34.8,1.19,1.19,0,0,1-.8.3,3.17,3.17,0,0,0-2.87,1.29A8.33,8.33,0,0,0,69.52,207.39Z"/><path d="M82.29,199.72c.7,0,1,.6,1,1.79v.41l0,1.67c0,.53,0,1,0,1.55l.36,5.4c0,.4-.41.59-1.22.59h-.35a.39.39,0,0,1-.38-.21.73.73,0,0,1,0-.53,1.21,1.21,0,0,0-.06-.69,3.8,3.8,0,0,1-2.91,1.17q-3.37,0-3.37-5.2a7.3,7.3,0,0,1,1.09-4.37,3.61,3.61,0,0,1,3.11-1.48,5.82,5.82,0,0,1,1.91.33A1,1,0,0,1,82.29,199.72Zm-2.48,2.18a2.52,2.52,0,0,0-2,.78,4.58,4.58,0,0,0-.67,2.89c0,2.36.64,3.54,1.91,3.54a2,2,0,0,0,1.11-.46,2.42,2.42,0,0,0,.85-1,8.41,8.41,0,0,0,.45-2.81,4.91,4.91,0,0,0-.37-2.22A1.29,1.29,0,0,0,79.81,201.9Z"/><path d="M85.5,202.37a5.58,5.58,0,0,1,2.16-2,5.81,5.81,0,0,1,2.56-.65,5.48,5.48,0,0,1,2,.3c.5.19.75.46.75.78a2,2,0,0,1-.27,1,.83.83,0,0,1-.73.49A4.35,4.35,0,0,1,91,202a3.66,3.66,0,0,0-1-.28,3.15,3.15,0,0,0-2.36,1,3.7,3.7,0,0,0-1,2.68,4.62,4.62,0,0,0,.54,2.5,2,2,0,0,0,1.85.82,5,5,0,0,0,1.8-.61,6,6,0,0,1,1.59-.61.7.7,0,0,1,.5.19.65.65,0,0,1,.19.48,1.71,1.71,0,0,1-.73,1.21,6,6,0,0,1-1.8,1,5.39,5.39,0,0,1-1.93.42,3.5,3.5,0,0,1-3-1.51,6.9,6.9,0,0,1-1.09-4.1A5.33,5.33,0,0,1,85.5,202.37Z"/><path d="M95.83,195.78a1.14,1.14,0,0,1,.81.41A1.24,1.24,0,0,1,97,197a1.33,1.33,0,0,1-.42.89,1.18,1.18,0,0,1-.87.46,1.1,1.1,0,0,1-.82-.39,1.32,1.32,0,0,1-.37-1c0-.77.41-1.18,1.24-1.25Zm1,12.51,0,1.67a.94.94,0,0,1-.36.76,1.15,1.15,0,0,1-.76.3.55.55,0,0,1-.62-.6q-.31-7.62-.31-8.43c0-.54,0-1.2.07-2,0-.29.22-.43.55-.43.84,0,1.32.34,1.43,1a6.1,6.1,0,0,1,.07.83L96.83,203Z"/><path d="M103.82,199.75a3.31,3.31,0,0,1,2.83,1.64,6.93,6.93,0,0,1,1.11,4,6.71,6.71,0,0,1-1.13,3.92,3.59,3.59,0,0,1-6,0,6.4,6.4,0,0,1-1.15-3.69,7.32,7.32,0,0,1,1.06-4.16A3.75,3.75,0,0,1,103.82,199.75Zm-.28,1.95a1.9,1.9,0,0,0-1.65,1.05,4.23,4.23,0,0,0-.64,2.23,4.5,4.5,0,0,0,.71,2.76,2,2,0,0,0,1.62,1,2,2,0,0,0,2.08-1.41,6,6,0,0,0,.19-1.67Q105.85,201.71,103.54,201.7Zm.14-6.66a.58.58,0,0,1,.61-.4,1,1,0,0,1,.74.28.83.83,0,0,1,.27.47.87.87,0,0,1,0,.3,5.87,5.87,0,0,1-1.28,2c-.6.63-1.06.95-1.37.95a1,1,0,0,1-.72-.24.74.74,0,0,1-.24-.56.8.8,0,0,1,.38-.61A4.89,4.89,0,0,0,103.68,195Z"/><path d="M110.13,210.13l-.27-9.69a1,1,0,0,1,.31-.74,1,1,0,0,1,.62-.29.78.78,0,0,1,.89.65,9.58,9.58,0,0,1,.09,1.33A3.91,3.91,0,0,1,115,199.7q3,0,3,6.75v1.88a8.06,8.06,0,0,1-.15,1.83.91.91,0,0,1-1,.71c-.39,0-.58-.25-.58-.76l0-1.34a25.7,25.7,0,0,0-.18-3.78c-.12-.68-.24-1.22-.35-1.61-.27-.86-.71-1.29-1.31-1.29a1.73,1.73,0,0,0-1.67.86,5.15,5.15,0,0,0-.62,2.19c-.11,1.48-.17,3.05-.17,4.71a.93.93,0,0,1-.36.76,1.33,1.33,0,0,1-.86.29C110.32,210.9,110.13,210.64,110.13,210.13Z"/><path d="M132.16,199.72c.7,0,1.05.6,1.05,1.79v.41l-.05,1.67c0,.53,0,1,0,1.55l.36,5.4c0,.4-.41.59-1.22.59h-.35a.39.39,0,0,1-.38-.21.73.73,0,0,1,0-.53,1.21,1.21,0,0,0-.06-.69,3.8,3.8,0,0,1-2.91,1.17q-3.37,0-3.37-5.2a7.3,7.3,0,0,1,1.09-4.37,3.61,3.61,0,0,1,3.11-1.48,5.82,5.82,0,0,1,1.91.33A1,1,0,0,1,132.16,199.72Zm-2.48,2.18a2.52,2.52,0,0,0-2,.78,4.58,4.58,0,0,0-.67,2.89c0,2.36.64,3.54,1.91,3.54a2,2,0,0,0,1.11-.46,2.42,2.42,0,0,0,.85-1,8.41,8.41,0,0,0,.45-2.81,4.91,4.91,0,0,0-.37-2.22A1.29,1.29,0,0,0,129.68,201.9Z"/><path d="M134.8,195.41a2.21,2.21,0,0,1,.29-1.17.89.89,0,0,1,.72-.27c.69,0,1,.28,1,.84s0,1.55-.11,3.36-.1,3.44-.1,4.87a29.06,29.06,0,0,0,.16,3.46c.19,1.53.46,2.29.81,2.29s.62-.24.79-.74a1.42,1.42,0,0,1,.38-.51,1,1,0,0,1,.67-.22c.56,0,.84.46.84,1.4a2.12,2.12,0,0,1-.83,1.52,2.43,2.43,0,0,1-1.63.75,2.67,2.67,0,0,1-1.3-.27,2,2,0,0,1-.79-.83,7,7,0,0,1-.48-1.06,5.51,5.51,0,0,1-.25-1.25c-.09-.8-.16-2.08-.2-3.83s-.06-3.44-.06-5S134.76,196,134.8,195.41Z"/><path d="M61.89,220.64a.93.93,0,0,1,.69.32,1.06,1.06,0,0,1,.31.76q0,9.33.09,11.28c.05,1.29.08,2,.08,2a1.86,1.86,0,0,1-.28,1c-.2.31-.41.47-.64.47a3.12,3.12,0,0,1-.52,0l-.33-.08a.93.93,0,0,1-.28-.19l-.24-.24a2.26,2.26,0,0,1-.25-.37l-.25-.44c-.07-.12-.16-.31-.3-.59s-.43-.85-.88-1.71l-1.23-2.31A37.46,37.46,0,0,0,54.35,225a90.93,90.93,0,0,1-.43,10.77c-.05.38-.34.57-.89.57a1,1,0,0,1-.63-.19.76.76,0,0,1-.25-.62c0-.29.06-1.86.18-4.73s.18-4.65.18-5.36V224.1c0-1.14.09-1.79.26-1.93a.9.9,0,0,1,.55-.22c.88,0,2.21,1.44,4,4.3.35.56,1,1.73,2,3.5s1.57,2.87,1.76,3.28l-.28-9.91q0-2,.45-2.34A1.26,1.26,0,0,1,61.89,220.64Z"/><path d="M66.36,221.36a1.12,1.12,0,0,1,.81.4,1.26,1.26,0,0,1,.38.85,1.35,1.35,0,0,1-.42.9,1.2,1.2,0,0,1-.87.45,1.13,1.13,0,0,1-.82-.38,1.34,1.34,0,0,1-.37-1c0-.76.41-1.18,1.24-1.24Zm1,12.51,0,1.67a.94.94,0,0,1-.36.75,1.16,1.16,0,0,1-.76.3.55.55,0,0,1-.62-.6q-.31-7.61-.31-8.42c0-.55,0-1.21.07-2,0-.28.22-.43.55-.43.84,0,1.32.35,1.43,1a6.11,6.11,0,0,1,.07.84l-.09,1.5Z"/><path d="M71,235.71l-.26-9.7a1,1,0,0,1,.31-.74.94.94,0,0,1,.62-.28c.51,0,.81.21.89.64a9.73,9.73,0,0,1,.09,1.34,3.92,3.92,0,0,1,3.22-1.7c2,0,3,2.26,3,6.76v1.87a8.07,8.07,0,0,1-.14,1.83.92.92,0,0,1-1,.72c-.38,0-.57-.26-.57-.77l0-1.33a26,26,0,0,0-.18-3.79c-.12-.67-.24-1.21-.35-1.61-.27-.86-.71-1.29-1.31-1.29a1.74,1.74,0,0,0-1.67.86,5.15,5.15,0,0,0-.62,2.2c-.12,1.48-.17,3-.17,4.7a.92.92,0,0,1-.36.76,1.33,1.33,0,0,1-.86.29C71.23,236.47,71,236.22,71,235.71ZM71.39,223A1.54,1.54,0,0,1,72.1,222a2.16,2.16,0,0,1,1.33-.57,2.26,2.26,0,0,1,1,.19A1.15,1.15,0,0,1,75,222c.26.41.49.62.7.62s.43-.19.68-.58.47-.57.69-.57a.73.73,0,0,1,.56.29.92.92,0,0,1,.24.59,1.47,1.47,0,0,1-.71,1.32,2.53,2.53,0,0,1-1.36.45,1.66,1.66,0,0,1-1-.27,5.87,5.87,0,0,1-.62-.55.82.82,0,0,0-.57-.28q-.15,0-.6.54c-.3.36-.56.54-.77.54a.74.74,0,0,1-.56-.3A1.22,1.22,0,0,1,71.39,223Z"/><path d="M85.14,225.32A3.3,3.3,0,0,1,88,227a6.89,6.89,0,0,1,1.11,3.95A6.74,6.74,0,0,1,88,234.85a3.59,3.59,0,0,1-6,0,6.37,6.37,0,0,1-1.14-3.69,7.29,7.29,0,0,1,1-4.15A3.73,3.73,0,0,1,85.14,225.32Zm-.28,2a1.9,1.9,0,0,0-1.65,1.05,4.17,4.17,0,0,0-.64,2.22,4.55,4.55,0,0,0,.71,2.77,2,2,0,0,0,1.62,1A2,2,0,0,0,87,232.86a6,6,0,0,0,.19-1.67Q87.17,227.28,84.86,227.28Z"/><path d="M100.83,221.27c0-.16.13-.33.38-.51a1.36,1.36,0,0,1,.75-.26.85.85,0,0,1,.58.17.56.56,0,0,1,.22.4c.34,4.3.5,7,.5,8.15s0,2,0,2.57a17.11,17.11,0,0,1-.24,1.85,4.62,4.62,0,0,1-.55,1.56,2.71,2.71,0,0,1-2.53,1.34,3.71,3.71,0,0,1-2.84-1.16,4.62,4.62,0,0,1-1.1-3.33.83.83,0,0,1,.37-.65,1.23,1.23,0,0,1,.8-.3c.35,0,.56.32.64,1,.21,1.84.9,2.77,2.08,2.77a1.12,1.12,0,0,0,.78-.3,2,2,0,0,0,.48-.72,4.74,4.74,0,0,0,.27-1.11,18.25,18.25,0,0,0,.14-2.4c0-.93-.12-2.63-.35-5.09S100.83,221.44,100.83,221.27Z"/><path d="M108.3,225.39a4.4,4.4,0,0,1,2.41.74,2.16,2.16,0,0,1,1.15,1.83,3.11,3.11,0,0,1-.93,2.1,4,4,0,0,1-2.49,1.23,16.21,16.21,0,0,1-2,.09,4.19,4.19,0,0,0,1,2.68.82.82,0,0,0,.64.26,3.47,3.47,0,0,0,2.48-.94c.67-.63,1.15-.94,1.44-.94.12,0,.31.11.57.35a1,1,0,0,1,.38.67c0,.42-.5,1-1.5,1.79a6,6,0,0,1-1.62.92,4.71,4.71,0,0,1-1.75.37q-2.07,0-3.06-2.67a10.32,10.32,0,0,1-.62-3.63,6.17,6.17,0,0,1,.93-3.42A3.27,3.27,0,0,1,108.3,225.39Zm.12,1.65a1.84,1.84,0,0,0-1.55,1,5.13,5.13,0,0,0-.46,1.62c2.23,0,3.35-.55,3.35-1.65C109.76,227.37,109.31,227,108.42,227Z"/><path d="M115.77,226.08a3.58,3.58,0,0,1,2.33-.83,6.86,6.86,0,0,1,2.54.48c.81.32,1.22.74,1.22,1.26a.77.77,0,0,1-.31.65,1,1,0,0,1-.54.24l-.36,0a4.73,4.73,0,0,1-1-.44,3.39,3.39,0,0,0-1.52-.43,2,2,0,0,0-1.18.35,1.18,1.18,0,0,0-.49,1,1.2,1.2,0,0,0,.56,1.05,5.53,5.53,0,0,0,2,.66,5.84,5.84,0,0,1,2.16.78,2.07,2.07,0,0,1,.76,1.86,3.38,3.38,0,0,1-1,2.8,3.94,3.94,0,0,1-2.52.83,6.93,6.93,0,0,1-2.52-.41c-.69-.27-1-.68-1-1.22a.82.82,0,0,1,.93-.93,3.67,3.67,0,0,1,1,.34,4.25,4.25,0,0,0,1.61.33,1.48,1.48,0,0,0,1.22-.51,1.81,1.81,0,0,0,.42-1.18,1,1,0,0,0-.55-1,5.7,5.7,0,0,0-1.67-.49,8.1,8.1,0,0,1-1.65-.41,2.44,2.44,0,0,1-1.43-2.55A2.78,2.78,0,0,1,115.77,226.08Z"/><path d="M123.91,225.55a.94.94,0,0,1,.64-.28.9.9,0,0,1,.5.12.47.47,0,0,1,.21.22,2.23,2.23,0,0,1,.09.33q-.15,1.86-.15,3.36a18.77,18.77,0,0,0,.36,3.41c.24,1.28.5,1.92.79,1.92a3.09,3.09,0,0,0,1.63-.71,4.63,4.63,0,0,0,1.42-1.51q-.28-3.43-.28-5.9a1.23,1.23,0,0,1,.32-.85,1,1,0,0,1,.78-.36c.49,0,.74.33.74,1,0,1.13.08,2.81.25,5a26.47,26.47,0,0,0,.51,4.25,1.84,1.84,0,0,1,.05.44c0,.17-.11.32-.33.48a1.4,1.4,0,0,1-.83.22.68.68,0,0,1-.68-.57,14.41,14.41,0,0,0-.24-1.43,4.76,4.76,0,0,1-3.37,1.74,2,2,0,0,1-1.4-.6,4,4,0,0,1-1-1.62,12.27,12.27,0,0,1-.62-3.72c0-1.17.06-2.6.19-4.3A1.28,1.28,0,0,1,123.91,225.55Zm3.49-4.86a.58.58,0,0,1,.61-.41,1,1,0,0,1,.74.29.8.8,0,0,1,.27.47.63.63,0,0,1-.05.29,5.75,5.75,0,0,1-1.27,2q-.9,1-1.38,1a1,1,0,0,1-.71-.24.77.77,0,0,1-.24-.56.84.84,0,0,1,.38-.63A4.86,4.86,0,0,0,127.4,220.69Z"/><path d="M134.51,226.08a3.58,3.58,0,0,1,2.33-.83,6.86,6.86,0,0,1,2.54.48c.81.32,1.22.74,1.22,1.26a.77.77,0,0,1-.31.65,1,1,0,0,1-.54.24l-.35,0a4.43,4.43,0,0,1-1-.44,3.39,3.39,0,0,0-1.52-.43,2,2,0,0,0-1.18.35,1.18,1.18,0,0,0-.49,1,1.2,1.2,0,0,0,.56,1.05,5.53,5.53,0,0,0,2,.66,5.84,5.84,0,0,1,2.16.78,2.07,2.07,0,0,1,.76,1.86,3.38,3.38,0,0,1-1,2.8,3.94,3.94,0,0,1-2.52.83,6.93,6.93,0,0,1-2.52-.41c-.69-.27-1-.68-1-1.22a.82.82,0,0,1,.93-.93,3.67,3.67,0,0,1,1.05.34,4.25,4.25,0,0,0,1.61.33,1.48,1.48,0,0,0,1.22-.51,1.81,1.81,0,0,0,.42-1.18,1,1,0,0,0-.55-1,5.7,5.7,0,0,0-1.67-.49,8.1,8.1,0,0,1-1.65-.41,2.44,2.44,0,0,1-1.43-2.55A2.78,2.78,0,0,1,134.51,226.08Z"/></g></g></svg>