<svg xmlns="http://www.w3.org/2000/svg" viewBox="0 0 192.07 192.07"><defs><style>.cls-1{fill:#69a556;}.cls-2{fill:#fff;}.cls-3{fill:#040302;}.cls-4{fill:#fdb156;}.cls-5{fill:#fdcc70;}.cls-6{fill:#040303;}.cls-7{fill:#faaf55;}.cls-8{fill:#fddcce;}.cls-9{fill:#acd6fd;}.cls-10{fill:#87c3fb;}.cls-11{fill:#fcc9bc;}.cls-12{fill:#abd5fc;}.cls-13{fill:#fbc8bb;}.cls-14{fill:#fb8d9c;}.cls-15{fill:#f6c4b7;}.cls-16{fill:#040403;}</style></defs><g id="Capa_2" data-name="Capa 2"><g id="Capa_1-2" data-name="Capa 1"><rect class="cls-1" x="3.5" y="3.5" width="185.07" height="185.07" rx="14.53"/><path class="cls-2" d="M174,7a11.06,11.06,0,0,1,11,11V174a11.07,11.07,0,0,1-11,11H18A11.06,11.06,0,0,1,7,174V18A11.06,11.06,0,0,1,18,7H174m0-7H18A18.05,18.05,0,0,0,0,18V174a18.05,18.05,0,0,0,18,18H174a18.05,18.05,0,0,0,18-18V18A18.05,18.05,0,0,0,174,0Z"/><path class="cls-2" d="M63.16,55.25a13.85,13.85,0,0,1-.65,2.28,20.6,20.6,0,0,1-7.7,11A28.84,28.84,0,0,1,38,73.89a21.44,21.44,0,0,1-12.52-3.8,9.87,9.87,0,0,1-1.68-1.51,17,17,0,0,1-4.93-12.41q0-9,6.15-17.31T39.81,28.11a12,12,0,0,1,1.95-.43,10.92,10.92,0,0,1,3.9.76c1.73.65,2.6,1.49,2.6,2.54a6.19,6.19,0,0,1-1.57,3.42q-10.29,2.91-14,5.41Q26.32,44.15,26,52.49l1.74-.22L33,48.7a31.61,31.61,0,0,1,8.07-3.85,28.76,28.76,0,0,1,8.78-1.68q9.27,0,13.16,8.5C63.1,53.84,63.16,55,63.16,55.25Zm-8.35.6c-2-2.06-4.65-3.09-8.12-3.09a22.05,22.05,0,0,0-10.73,3Q30.11,59,28.38,63.65,32.55,67,40.08,67a19.63,19.63,0,0,0,9.75-2.28q5-2.72,5-8Z"/><path class="cls-3" d="M48.83,118.76a22.11,22.11,0,0,0,.87-4.4c.57-3,1.53-5.61,4.3-7.22.36-.2.27-.45.22-.76-.53-3,.65-5.46,2.32-7.77a1.7,1.7,0,0,1,2.36-.41,1.64,1.64,0,0,1,.39,2.33c-.35.64-.71,1.27-1,1.91a4.73,4.73,0,0,0-.27,4.4c.66,1.46.3,2.26-1.24,2.82a4.45,4.45,0,0,0-3,2.93,32.32,32.32,0,0,0-1.21,13.15,4.23,4.23,0,0,0,2.11,3.36c1.62.93,1.79,1.67.74,3.24a4.27,4.27,0,0,0-.68,3.82,22.77,22.77,0,0,0,3.7,7.32,7.71,7.71,0,0,0,6.35,3.11c1.61,0,2.23.6,2.21,2.23a7.8,7.8,0,0,0,3.2,6.42,25.08,25.08,0,0,0,6.16,3.26,5,5,0,0,0,5.2-.52,1.66,1.66,0,0,1,2.7.56c1.1,2.06,2.89,2.69,5.06,2.67A36.78,36.78,0,0,0,100.5,160a4.78,4.78,0,0,0,3.42-3.24c.51-1.42,1.31-1.8,2.66-1.19a4.87,4.87,0,0,0,4.31-.11,16.08,16.08,0,0,0,3.34-2.2c2-1.61,3.7-3.43,5.55-5.15a5.46,5.46,0,0,0,1.91-4.57,1.65,1.65,0,0,1,2-1.91,4.72,4.72,0,0,0,4-1.53q7-7,14-14a9,9,0,0,0,.85-1.08,3.77,3.77,0,0,0,.74-2.58c-.1-1.85.45-2.44,2.29-2.41a4.7,4.7,0,0,0,3.79-1.54c.8-.88,1.68-1.68,2.5-2.54a30.45,30.45,0,0,0,5-6.25,5,5,0,0,0,.41-4.61c-.7-1.56-.35-2.3,1.27-2.89a4.37,4.37,0,0,0,2.93-2.86,31.9,31.9,0,0,0,1.21-13.38,4.16,4.16,0,0,0-2.13-3.22c-1.56-.89-1.73-1.66-.72-3.15a4.4,4.4,0,0,0,.69-3.93,22.77,22.77,0,0,0-3.72-7.31,7.68,7.68,0,0,0-6.26-3.06c-1.68,0-2.24-.58-2.27-2.29a7.16,7.16,0,0,0-1.2-4.11,5.21,5.21,0,0,0-1.83-2.16,24.4,24.4,0,0,0-7.14-3.57,4.68,4.68,0,0,0-4.34.7A1.67,1.67,0,0,1,131,53.2a5.13,5.13,0,0,0-4.64-2.65,42.27,42.27,0,0,0-11.15,1.14,5.09,5.09,0,0,0-3.92,3.47,1.68,1.68,0,0,1-2.6,1.13,5.06,5.06,0,0,0-4.52.17,16.54,16.54,0,0,0-3.14,2.1c-2,1.6-3.69,3.44-5.55,5.15a5.41,5.41,0,0,0-1.93,4.56,1.68,1.68,0,0,1-2,2,4.52,4.52,0,0,0-3.85,1.36c-4.9,4.67-9.64,9.51-14.38,14.35A4.58,4.58,0,0,0,72,89.87a1.63,1.63,0,0,1-1.82,2,5.42,5.42,0,0,0-4.83,2.1c-.41.5-.94.91-1.36,1.4a1.87,1.87,0,0,1-2.74.4c-.78-1.26-.75-1.78.27-2.82a19.45,19.45,0,0,1,4.1-3.63c.88-.51,2.13-.37,2.75-1s.47-1.86,1-2.71a15.15,15.15,0,0,1,2-2.51c4.31-4.34,8.61-8.69,13-13,1.55-1.53,3.16-3,5.49-3.29.43,0,.42-.37.47-.66a9,9,0,0,1,2.91-4.94,82.43,82.43,0,0,1,6.16-5.66c2.65-2,5.43-3.76,9-3a.45.45,0,0,0,.55-.27c1.64-2.81,4.34-3.75,7.33-4.31a30,30,0,0,0,4.52-.86h7.12c1.89.57,3.74,1.2,5.05,2.81.22.26.46.17.72.06,2.63-1.12,5.17-.61,7.66.47a32,32,0,0,1,5.42,3,11,11,0,0,1,4.84,7.36A1.3,1.3,0,0,0,152.8,62a10.58,10.58,0,0,1,6.71,4.06,26.25,26.25,0,0,1,4.39,8.62,7.41,7.41,0,0,1-.25,5.06c-.18.44-.23.73.17,1.08a8.17,8.17,0,0,1,2.59,6A42.13,42.13,0,0,1,165,99.7a7.94,7.94,0,0,1-3.41,4.73,1,1,0,0,0-.55,1.15,8.56,8.56,0,0,1-1.15,5.73,29,29,0,0,1-4.6,6c-1.1,1.17-2.28,2.27-3.37,3.45a7.78,7.78,0,0,1-4.41,2.48.93.93,0,0,0-.88.94A6.84,6.84,0,0,1,145,127.5a52.89,52.89,0,0,1-4.18,4.42c-3.41,3.4-6.81,6.82-10.26,10.2a8.56,8.56,0,0,1-5,2.84c-.49.06-.49.38-.56.72a8.84,8.84,0,0,1-2.75,4.77A66.73,66.73,0,0,1,115,157c-2.39,1.69-4.93,3-8,2.32-.24-.05-.42-.05-.57.21-1.69,3-4.56,3.87-7.65,4.42a38.34,38.34,0,0,1-11.41.62,7.36,7.36,0,0,1-4.72-2.35,1,1,0,0,0-1.27-.24,7.76,7.76,0,0,1-5.61,0,28.88,28.88,0,0,1-7.52-3.84,11.09,11.09,0,0,1-4.57-7.28c-.08-.5-.17-.87-.84-1-3.75-.56-6.37-2.76-8.33-5.88a32.62,32.62,0,0,1-3-6.3,7.67,7.67,0,0,1,0-5.5,1,1,0,0,0-.27-1.37,7,7,0,0,1-2.15-3.71c-.06-.26,0-.64-.34-.78Z"/><path class="cls-4" d="M61.21,95.74a1.87,1.87,0,0,0,2.74-.4c.42-.49,1-.9,1.36-1.4a5.42,5.42,0,0,1,4.83-2.1,1.63,1.63,0,0,0,1.82-2,4.58,4.58,0,0,1,1.43-3.94c4.74-4.84,9.48-9.68,14.38-14.35a4.52,4.52,0,0,1,3.85-1.36,1.68,1.68,0,0,0,2-2,5.41,5.41,0,0,1,1.93-4.56c1.86-1.71,3.59-3.55,5.55-5.15a16.54,16.54,0,0,1,3.14-2.1,5.06,5.06,0,0,1,4.52-.17,1.68,1.68,0,0,0,2.6-1.13,5.09,5.09,0,0,1,3.92-3.47,42.27,42.27,0,0,1,11.15-1.14A5.13,5.13,0,0,1,131,53.2a1.67,1.67,0,0,0,2.78.57,4.68,4.68,0,0,1,4.34-.7,24.4,24.4,0,0,1,7.14,3.57,5.21,5.21,0,0,1,1.83,2.16,4.22,4.22,0,0,0-.8,0,37.41,37.41,0,0,0-11.58,4.73,25.65,25.65,0,0,0-8-3.7c-4.92-1.07-7.74,1.69-6.69,6.6a.9.9,0,0,0,.06.22c.32.79.1,1-.78,1a25,25,0,0,0-11.63,2.62,1.22,1.22,0,0,1-1.44-.07,7.87,7.87,0,0,0-11,10.92,1.22,1.22,0,0,1,.16,1.42,25.65,25.65,0,0,0-2.34,15.84c.11.65-.08.89-.7,1-4.09.5-7.39,2.54-10.34,5.27-3.62,3.36-7.16,6.82-10.43,10.52-5.27,6-6.31,12.84-3.31,20.19,2.24,5.47,6.55,8.79,12.07,10.64-.4.2-.24.5-.13.78.37,1,.72,1.93,1.13,2.87a39.85,39.85,0,0,0,7.85,11.54c-2.17,0-4-.61-5.06-2.67a1.66,1.66,0,0,0-2.7-.56,5,5,0,0,1-5.2.52,25.08,25.08,0,0,1-6.16-3.26,7.8,7.8,0,0,1-3.2-6.42c0-1.63-.6-2.25-2.21-2.23a7.71,7.71,0,0,1-6.35-3.11,22.77,22.77,0,0,1-3.7-7.32,4.27,4.27,0,0,1,.68-3.82c1-1.57.88-2.31-.74-3.24a4.23,4.23,0,0,1-2.11-3.36,32.32,32.32,0,0,1,1.21-13.15,4.45,4.45,0,0,1,3-2.93c1.54-.56,1.9-1.36,1.24-2.82a4.73,4.73,0,0,1,.27-4.4c.34-.64.7-1.27,1-1.91a1.64,1.64,0,0,0-.39-2.33A28.34,28.34,0,0,1,61.21,95.74Z"/><path class="cls-5" d="M134.75,63.56a37.41,37.41,0,0,1,11.58-4.73,4.22,4.22,0,0,1,.8,0,7.16,7.16,0,0,1,1.2,4.11c0,1.71.59,2.3,2.27,2.29a7.68,7.68,0,0,1,6.26,3.06,22.77,22.77,0,0,1,3.72,7.31,4.4,4.4,0,0,1-.69,3.93c-1,1.49-.84,2.26.72,3.15a4.16,4.16,0,0,1,2.13,3.22,31.9,31.9,0,0,1-1.21,13.38,4.37,4.37,0,0,1-2.93,2.86c-1.62.59-2,1.33-1.27,2.89a5,5,0,0,1-.41,4.61,30.45,30.45,0,0,1-5,6.25c-.82.86-1.7,1.66-2.5,2.54a4.7,4.7,0,0,1-3.79,1.54c-1.84,0-2.39.56-2.29,2.41a3.77,3.77,0,0,1-.74,2.58,9,9,0,0,1-.85,1.08q-7,7-14,14a4.72,4.72,0,0,1-4,1.53,1.65,1.65,0,0,0-2,1.91,5.46,5.46,0,0,1-1.91,4.57c-1.85,1.72-3.6,3.54-5.55,5.15a16.08,16.08,0,0,1-3.34,2.2,4.87,4.87,0,0,1-4.31.11c-1.35-.61-2.15-.23-2.66,1.19A4.78,4.78,0,0,1,100.5,160a36.78,36.78,0,0,1-11.24,1.26,39.85,39.85,0,0,1-7.85-11.54c-.41-.94-.76-1.91-1.13-2.87-.11-.28-.27-.58.13-.78l.78.17c6.23,1.49,11.93.31,16.71-3.92a137.07,137.07,0,0,0,11.7-11.67,17.1,17.1,0,0,0,4.52-9.46c.09-.73.41-.82,1.06-.72a25.63,25.63,0,0,0,15.52-2.23,1.58,1.58,0,0,1,1.83.14,7.84,7.84,0,0,0,11.13-10.5,2.16,2.16,0,0,1-.11-2.74,3.12,3.12,0,0,0,.18-.42,26.1,26.1,0,0,0,2.11-11.33c1,.19,1.85.41,2.74.53a4.6,4.6,0,0,0,4.93-2.18,6.92,6.92,0,0,0-.13-6.19,1.61,1.61,0,0,0-2.17-1,1.73,1.73,0,0,0-1,2.27,9,9,0,0,1,.42,2.13c0,1.26-.38,1.66-1.66,1.53a11.43,11.43,0,0,1-2.86-.77,1.25,1.25,0,0,1-.87-1.06,25.34,25.34,0,0,0-3.07-7.86,26.9,26.9,0,0,0-14.12-11.66c.66-1.62,2.08-2.41,3.49-3.21a43.18,43.18,0,0,1,7.8,6,53.42,53.42,0,0,1,7.72,8.92,1.73,1.73,0,1,0,2.85-1.91c-.31-.48-.65-1-1-1.41A65.78,65.78,0,0,0,134.75,63.56Z"/><path class="cls-6" d="M134.75,63.56A65.78,65.78,0,0,1,149,77.48c.34.46.68.93,1,1.41a1.73,1.73,0,1,1-2.85,1.91,53.42,53.42,0,0,0-7.72-8.92,43.18,43.18,0,0,0-7.8-6,16.48,16.48,0,0,0-6.44-2.83c-.66-.11-1.42-.13-1.67.62-.47,1.37.25,2.6.61,3.88.23.82,1,.65,1.48.83.83.28,1.68.48,2.53.71A26.9,26.9,0,0,1,142.2,80.77a25.34,25.34,0,0,1,3.07,7.86,1.25,1.25,0,0,0,.87,1.06,11.43,11.43,0,0,0,2.86.77c1.28.13,1.69-.27,1.66-1.53a9,9,0,0,0-.42-2.13,1.73,1.73,0,0,1,1-2.27,1.61,1.61,0,0,1,2.17,1,6.92,6.92,0,0,1,.13,6.19,4.6,4.6,0,0,1-4.93,2.18c-.89-.12-1.78-.34-2.74-.53a26.1,26.1,0,0,1-2.11,11.33,3.12,3.12,0,0,1-.18.42,2.16,2.16,0,0,0,.11,2.74,7.84,7.84,0,0,1-11.13,10.5,1.58,1.58,0,0,0-1.83-.14,25.63,25.63,0,0,1-15.52,2.23c-.65-.1-1,0-1.06.72a17.1,17.1,0,0,1-4.52,9.46,137.07,137.07,0,0,1-11.7,11.67c-4.78,4.23-10.48,5.41-16.71,3.92l-.78-.17c-5.52-1.85-9.83-5.17-12.07-10.64-3-7.35-2-14.23,3.31-20.19,3.27-3.7,6.81-7.16,10.43-10.52,3-2.73,6.25-4.77,10.34-5.27.62-.07.81-.31.7-1A25.65,25.65,0,0,1,95.46,82.6a1.22,1.22,0,0,0-.16-1.42,7.87,7.87,0,0,1,11-10.92,1.22,1.22,0,0,0,1.44.07,25,25,0,0,1,11.63-2.62c.88,0,1.1-.24.78-1a.9.9,0,0,1-.06-.22c-1-4.91,1.77-7.67,6.69-6.6A25.65,25.65,0,0,1,134.75,63.56Zm-37.19,23a16.27,16.27,0,0,0-1.22,6,19.3,19.3,0,0,0,.76,8c2.55,9.23,11.5,16.43,20.65,16.65a8.82,8.82,0,0,0,3.2,0,17.56,17.56,0,0,0,6-1.24c.15,0,.3-.06.44-.11a23.19,23.19,0,0,0,13.91-28.8C138,77,127.9,70.18,118,71.22,109.55,71.07,99.94,78.31,97.56,86.59ZM86.05,143.3a15.58,15.58,0,0,0,4.92-.87c.91-.28,1-.59.43-1.37a31.93,31.93,0,0,1-.56-37.48s0-.12,0-.18A12.11,12.11,0,0,0,84.68,107c-3.27,3.17-6.45,6.42-9.69,9.62a16,16,0,0,0-4.72,9.56C69.07,135.15,77,143.76,86.05,143.3Zm2.75-24.76a4.42,4.42,0,0,0-.23,1.58,29.09,29.09,0,0,0,5.86,19.33c.5.68.8.72,1.36.16,3.92-3.87,8-7.59,11.6-11.76a13.83,13.83,0,0,0,3.39-7.39c.07-.49.3-1-.5-1.28A27,27,0,0,1,97.93,110a33.56,33.56,0,0,1-3.26-5.8c-.51.72-1,1.29-1.35,1.89A26.49,26.49,0,0,0,88.8,118.54Zm15-45.83a4.42,4.42,0,0,0-5.29,1,4.09,4.09,0,0,0-.61,4.92A27.15,27.15,0,0,1,103.76,72.71Zm37.06,37.07a26.8,26.8,0,0,1-5.89,5.9,4.13,4.13,0,0,0,5-.64A4.42,4.42,0,0,0,140.82,109.78Z"/><path class="cls-7" d="M128.08,69.11c-.85-.23-1.7-.43-2.53-.71-.53-.18-1.25,0-1.48-.83-.36-1.28-1.08-2.51-.61-3.88.25-.75,1-.73,1.67-.62a16.48,16.48,0,0,1,6.44,2.83C130.16,66.7,128.74,67.49,128.08,69.11Z"/><path class="cls-8" d="M118,71.22c9.93-1,20,5.82,23.32,15.85a23.19,23.19,0,0,1-13.91,28.8c-.14,0-.29.07-.44.11a4.63,4.63,0,0,0,.15-2.55,21.72,21.72,0,0,0-.87-2.41l.8.06c1.29,0,2-.57,2.07-1.64s-.56-1.68-1.87-1.82c-1.77-.19-2.46-.9-2.61-2.7-.1-1.18-.73-1.81-1.79-1.8s-1.59.65-1.66,1.78a6.64,6.64,0,0,0,1.23,4,6.7,6.7,0,0,0-2,.19c-2.16.9-2.88,3.47-1.6,5.72a11.89,11.89,0,0,0,2.2,2.44,8.82,8.82,0,0,1-3.2,0c-.15-.36-.51-.44-.81-.59a23.88,23.88,0,0,1-8.57-6.67,23.28,23.28,0,0,1-5.56-14.87,3.9,3.9,0,0,0,1.86-4,6.64,6.64,0,0,0,3.85,1.24c1.21-.06,1.88-.62,1.89-1.68s-.63-1.68-1.82-1.78c-1.78-.14-2.52-.83-2.66-2.63a2.06,2.06,0,0,0-1.05-1.78c.9-3.2,3-5.65,5.21-7.93A24.92,24.92,0,0,1,118,71.22Zm-5.13,27a2.82,2.82,0,0,0-2.71,2.7,2.48,2.48,0,0,0,2.49,2.44,2.82,2.82,0,0,0,2.65-2.64A2.46,2.46,0,0,0,112.84,98.26Z"/><path class="cls-9" d="M97.93,110a27,27,0,0,0,12.35,9.15c.8.28.57.79.5,1.28a13.83,13.83,0,0,1-3.39,7.39c-3.61,4.17-7.68,7.89-11.6,11.76-.56.56-.86.52-1.36-.16a29.09,29.09,0,0,1-5.86-19.33,4.42,4.42,0,0,1,.23-1.58l7.39-7.28A4.36,4.36,0,0,1,97.93,110Z"/><path class="cls-10" d="M86.05,143.3c-9.07.46-17-8.15-15.78-17.13A16,16,0,0,1,75,116.61c3.24-3.2,6.42-6.45,9.69-9.62a12.11,12.11,0,0,1,6.12-3.59c0,.06.07.15,0,.18a32.48,32.48,0,0,0-5.77,19.77,6.54,6.54,0,0,0-1.79,3.22A17.47,17.47,0,0,0,86.05,143.3Z"/><path class="cls-11" d="M102.81,95.1A23.28,23.28,0,0,0,108.37,110a23.88,23.88,0,0,0,8.57,6.67c.3.15.66.23.81.59-9.15-.22-18.1-7.42-20.65-16.65a19.3,19.3,0,0,1-.76-8C98,94.67,100,96,102.81,95.1Z"/><path class="cls-12" d="M86.05,143.3a17.47,17.47,0,0,1-2.77-16.73,6.54,6.54,0,0,1,1.79-3.22,32.31,32.31,0,0,0,6.33,17.71c.58.78.48,1.09-.43,1.37A15.58,15.58,0,0,1,86.05,143.3Z"/><path class="cls-13" d="M118,71.22a24.92,24.92,0,0,0-7.88,5.36c-2.24,2.28-4.31,4.73-5.21,7.93-1.67-.15-2.34.34-2.41,1.76,0,.33,0,.68,0,1a1.76,1.76,0,0,1-1-.3,4.93,4.93,0,0,0-4-.4C99.94,78.31,109.55,71.07,118,71.22Z"/><path class="cls-14" d="M126.22,111a21.72,21.72,0,0,1,.87,2.41,4.63,4.63,0,0,1-.15,2.55,17.56,17.56,0,0,1-6,1.24,11.89,11.89,0,0,1-2.2-2.44c-1.28-2.25-.56-4.82,1.6-5.72a6.7,6.7,0,0,1,2-.19A6.77,6.77,0,0,0,126.22,111Z"/><path class="cls-14" d="M97.56,86.59a4.93,4.93,0,0,1,4,.4,1.76,1.76,0,0,0,1,.3,6.8,6.8,0,0,0,2.17,3.85,3.9,3.9,0,0,1-1.86,4C100,96,98,94.67,96.34,92.55A16.27,16.27,0,0,1,97.56,86.59Z"/><path class="cls-10" d="M97.93,110a4.36,4.36,0,0,0-1.74,1.23l-7.39,7.28a26.49,26.49,0,0,1,4.52-12.42c.39-.6.84-1.17,1.35-1.89A33.56,33.56,0,0,0,97.93,110Z"/><path class="cls-15" d="M103.76,72.71a27.15,27.15,0,0,0-5.9,5.87,4.09,4.09,0,0,1,.61-4.92A4.42,4.42,0,0,1,103.76,72.71Z"/><path class="cls-15" d="M140.82,109.78a4.42,4.42,0,0,1-.93,5.26,4.13,4.13,0,0,1-5,.64A26.8,26.8,0,0,0,140.82,109.78Z"/><path class="cls-16" d="M126.22,111a6.77,6.77,0,0,1-3.83-2.15,6.64,6.64,0,0,1-1.23-4c.07-1.13.64-1.76,1.66-1.78s1.69.62,1.79,1.8c.15,1.8.84,2.51,2.61,2.7,1.31.14,1.91.73,1.87,1.82s-.78,1.65-2.07,1.64Z"/><path class="cls-16" d="M104.67,91.14a6.8,6.8,0,0,1-2.17-3.85c0-.34,0-.69,0-1,.07-1.42.74-1.91,2.41-1.76a2.06,2.06,0,0,1,1.05,1.78c.14,1.8.88,2.49,2.66,2.63,1.19.1,1.83.72,1.82,1.78s-.68,1.62-1.89,1.68A6.64,6.64,0,0,1,104.67,91.14Z"/><path class="cls-16" d="M112.84,98.26a2.46,2.46,0,0,1,2.43,2.5,2.82,2.82,0,0,1-2.65,2.64,2.48,2.48,0,0,1-2.49-2.44A2.82,2.82,0,0,1,112.84,98.26Z"/></g></g></svg>