<svg xmlns="http://www.w3.org/2000/svg" viewBox="0 0 192.07 192.07"><defs><style>.cls-1{fill:#e9ae3d;}.cls-2{fill:#fff;}.cls-3{fill:#010202;}.cls-4{fill:#010101;}.cls-5{fill:#fbd66f;}.cls-6{fill:#68d4f2;}.cls-7{fill:#fec629;}.cls-8{fill:#68d3f1;}.cls-9{fill:#67d1ee;}.cls-10{fill:#040404;}.cls-11{fill:#b3dc7e;}.cls-12{fill:#b3db7e;}.cls-13{fill:#b2da7d;}</style></defs><g id="Capa_2" data-name="Capa 2"><g id="Capa_1-2" data-name="Capa 1"><rect class="cls-1" x="3.5" y="3.5" width="185.07" height="185.07" rx="14.53"/><path class="cls-2" d="M174,7a11.06,11.06,0,0,1,11,11V174a11.07,11.07,0,0,1-11,11H18A11.06,11.06,0,0,1,7,174V18A11.06,11.06,0,0,1,18,7H174m0-7H18A18.05,18.05,0,0,0,0,18V174a18.05,18.05,0,0,0,18,18H174a18.05,18.05,0,0,0,18-18V18A18.05,18.05,0,0,0,174,0Z"/><path class="cls-2" d="M59.66,34.12c-.22,1-1.21,2.78-3,5.31q-1.91,2.72-3.79,5.37a129.85,129.85,0,0,0-9.21,16.9q-1.47,3.9-4.5,11.21a4.6,4.6,0,0,1-1.46,1.46,3.6,3.6,0,0,1-1.84.82c-1,0-1.47-.93-1.47-2.77q0-3.63,2.93-11.92Q39.5,54.28,42,48.8q1.29-2.27,3.36-7c.1-.62.27-1.5.48-2.66L44,38.73q-2.93.38-8.78,1.41l-4.71,1.19a21.45,21.45,0,0,1-4.77.65c-2.38,0-3.57-.69-3.57-2.06q0-1.79,3.73-5.52a71.16,71.16,0,0,1,12-3.42,62.85,62.85,0,0,1,12.29-1.62,18.4,18.4,0,0,1,5.8.7A5.23,5.23,0,0,1,59.66,34.12Z"/><path class="cls-3" d="M120.77,120v29.35c0,3.66-2.12,5.76-5.8,5.76H64.13c-3.74,0-5.81-2.09-5.81-5.85V79.46c0-5.71,3.62-9.33,9.33-9.34q18.69,0,37.4,0a1.83,1.83,0,0,0,1.61-.78c8.58-10.68,19.74-15.16,33.1-12.29C153.38,60,162,68.81,165.11,82.39c4.22,18.23-8.7,36.71-27.15,39.38a33.42,33.42,0,0,1-16.41-1.63L121,120A.91.91,0,0,0,120.77,120Zm-59-34.3v63.46c0,2,.5,2.48,2.51,2.48h50.51c2,0,2.49-.51,2.49-2.5V96.8c0-5.7-3.63-9.33-9.34-9.33-13,0-26,0-39,0C66.45,87.49,64,87.4,61.79,85.72ZM162.4,89.21a30.33,30.33,0,0,0-.41-4.85c-2.71-17.43-21-28.7-37.81-23.33-.83.26-.87.56-.56,1.28,1.12,2.58,2.2,5.17,3.23,7.79.29.74.61.86,1.35.65a17.93,17.93,0,0,1,9.2-.09A19,19,0,0,1,151.35,94c-.15.61-.14.94.55,1.21Q156,96.83,160,98.56c.67.29.85.09,1-.51A30.16,30.16,0,0,0,162.4,89.21ZM132.91,73.59a15.6,15.6,0,0,0-15.24,12.32c-.25,1.1-.36,2.09.61,2.94a4.47,4.47,0,0,1,.74,1.06A13.45,13.45,0,0,1,120.76,98a2.14,2.14,0,0,0,.66,1.73,15.2,15.2,0,0,0,13.69,4.88,15.6,15.6,0,0,0-2.2-31Zm-29,0H81.8c-4.92,0-9.83,0-14.75,0A5.2,5.2,0,1,0,67.17,84q13.6,0,27.21,0c1.77,0,3.54,0,5.31,0,.46,0,.73-.06.82-.59A32.9,32.9,0,0,1,103.86,73.59ZM120.77,104c0,4,0,7.8,0,11.61,0,.5.32.58.64.72a28.88,28.88,0,0,0,20.4,1c.55-.17.76-.33.48-1q-1.77-4.12-3.43-8.28c-.21-.54-.43-.59-.95-.45A19.17,19.17,0,0,1,120.77,104ZM124,72.14l-.15-.41c-1.17-2.83-2.35-5.65-3.5-8.49-.22-.54-.46-.49-.88-.27a32.88,32.88,0,0,0-5.49,3.64c-.53.42-.54.65-.05,1.13,2,1.91,4,3.82,5.81,5.83.79.85,1.32.93,2.14.14a10.13,10.13,0,0,1,1.71-1.13C123.72,72.46,123.94,72.39,124,72.14Zm-13.13-2.52-.34.46a30.27,30.27,0,0,0-3.84,5.74c-.32.6.06.65.42.8,2.76,1.15,5.52,2.29,8.28,3.45.45.19.75.22,1-.3a16.86,16.86,0,0,1,1.49-2.25c.3-.4.31-.62-.06-1-2.18-2.15-4.34-4.33-6.51-6.5C111.17,69.92,111,69.81,110.82,69.62Zm41.64,41.58c-2.32-2.32-4.62-4.61-6.91-6.91-.3-.3-.5-.39-.89-.09a26.26,26.26,0,0,1-2.33,1.56.61.61,0,0,0-.31.93c1.19,2.82,2.35,5.64,3.51,8.47.17.43.35.51.77.29A29.17,29.17,0,0,0,152.46,111.2Zm2.45-2.44a31.31,31.31,0,0,0,4.15-6c.33-.61.22-.81-.4-1.05-2.47-1-4.92-2-7.37-3-1.46-.6-1.45-.6-2.26.67a17.5,17.5,0,0,1-1.05,1.5c-.3.36-.38.6,0,1C150.3,104.12,152.58,106.43,154.91,108.76Zm-40.78-23.4c.69-1.78.69-1.78-.89-2.43s-3.44-1.47-5.18-2.14c-1-.38-2.17-1.42-2.92-1s-.69,2-1,3.06.05,1.15,1,1.14C108.16,84,111.29,83.73,114.13,85.36Z"/><path class="cls-4" d="M162.4,150.85c0-3.66,0-7.2,0-10.74,0-.47-.13-.61-.6-.61q-10.68,0-21.36,0c-.85,0-.59.54-.59.94,0,5.49,0,11,0,16.47a6.87,6.87,0,0,1-7.13,6.87,6.57,6.57,0,0,1-6.2-4.31,6.49,6.49,0,0,1,1.43-7.41,6.59,6.59,0,0,1,7.35-1.69c.17.06.33.14.5.21l.59.28V134.74c0-3.46,2.15-5.63,5.59-5.63q9.15,0,18.32,0a5.2,5.2,0,0,1,5.58,5.52c0,7.45,0,14.89,0,22.33a6.92,6.92,0,0,1-13.5,2.06,6.92,6.92,0,0,1,9-8.63C161.66,150.49,162,150.65,162.4,150.85ZM151.05,136c3.5,0,7,0,10.5,0,.29,0,.71.27.86-.32.47-1.92-.44-3.13-2.39-3.13H142.49c-2.2,0-2.64.48-2.66,2.66,0,.67.17.84.84.83C144.13,136,147.59,136,151.05,136Zm-14.67,20.85a3.47,3.47,0,1,0-3.55,3.44A3.5,3.5,0,0,0,136.38,156.89Zm22.59-3.5A3.47,3.47,0,1,0,162.4,157,3.48,3.48,0,0,0,159,153.39Z"/><path class="cls-5" d="M61.79,85.72c2.24,1.68,4.66,1.77,7.14,1.77,13,0,26,0,39,0,5.71,0,9.34,3.63,9.34,9.33v52.36c0,2-.5,2.5-2.49,2.5H64.3c-2,0-2.51-.5-2.51-2.48V85.72Zm41.47,27.75a1.44,1.44,0,0,0-.1-.34c-4.38-5.83-8.77-11.65-13.11-17.51-.63-.84-.8-.23-1.1.16L76.28,112.69c-.16.21-.44.37-.37.81h3.55L70.8,127.38h3.46l-8.61,13.79h47.79l-8.65-13.85h3.46l-8.64-13.85Z"/><path class="cls-6" d="M162.4,89.21A30.16,30.16,0,0,1,161,98.05c-.18.6-.36.8-1,.51q-4-1.74-8.09-3.34c-.69-.27-.7-.6-.55-1.21A19,19,0,0,0,137.4,70.66a17.93,17.93,0,0,0-9.2.09c-.74.21-1.06.09-1.35-.65-1-2.62-2.11-5.21-3.23-7.79-.31-.72-.27-1,.56-1.28,16.82-5.37,35.1,5.9,37.81,23.33A30.33,30.33,0,0,1,162.4,89.21Z"/><path class="cls-7" d="M103.86,73.59a32.9,32.9,0,0,0-3.35,9.83c-.09.53-.36.6-.82.59-1.77,0-3.54,0-5.31,0q-13.6,0-27.21,0a5.2,5.2,0,1,1-.12-10.4c4.92,0,9.83,0,14.75,0Z"/><path class="cls-6" d="M120.77,104a19.17,19.17,0,0,0,17.13,3.63c.52-.14.74-.09.95.45q1.67,4.16,3.43,8.28c.28.63.07.79-.48,1a28.88,28.88,0,0,1-20.4-1c-.32-.14-.64-.22-.64-.72C120.78,111.78,120.77,108,120.77,104Z"/><path class="cls-8" d="M124,72.14c0,.25-.23.32-.41.44a10.13,10.13,0,0,0-1.71,1.13c-.82.79-1.35.71-2.14-.14-1.86-2-3.84-3.92-5.81-5.83-.49-.48-.48-.71.05-1.13A32.88,32.88,0,0,1,119.42,63c.42-.22.66-.27.88.27,1.15,2.84,2.33,5.66,3.5,8.49Z"/><path class="cls-8" d="M110.82,69.62c.21.19.35.3.47.42,2.17,2.17,4.33,4.35,6.51,6.5.37.36.36.58.06,1a16.86,16.86,0,0,0-1.49,2.25c-.28.52-.58.49-1,.3-2.76-1.16-5.52-2.3-8.28-3.45-.36-.15-.74-.2-.42-.8a30.27,30.27,0,0,1,3.84-5.74Z"/><path class="cls-8" d="M152.46,111.2a29.17,29.17,0,0,1-6.16,4.25c-.42.22-.6.14-.77-.29-1.16-2.83-2.32-5.65-3.51-8.47a.61.61,0,0,1,.31-.93,26.26,26.26,0,0,0,2.33-1.56c.39-.3.59-.21.89.09C147.84,106.59,150.14,108.88,152.46,111.2Z"/><path class="cls-8" d="M154.91,108.76c-2.33-2.33-4.61-4.64-6.92-6.91-.39-.38-.31-.62,0-1a17.5,17.5,0,0,0,1.05-1.5c.81-1.27.8-1.27,2.26-.67,2.45,1,4.9,2.06,7.37,3,.62.24.73.44.4,1.05A31.31,31.31,0,0,1,154.91,108.76Z"/><path class="cls-9" d="M114.13,85.36c-2.84-1.63-6-1.38-9-1.33-.93,0-1.31-.14-1-1.14s.24-2.58,1-3.06,1.93.58,2.92,1c1.74.67,3.45,1.42,5.18,2.14S114.82,83.58,114.13,85.36Z"/><path class="cls-4" d="M103.26,113.47H99.61l8.64,13.85h-3.46l8.65,13.85H65.65l8.61-13.79H70.8l8.66-13.88H75.91c-.07-.44.21-.6.37-.81L89,95.78c.3-.39.47-1,1.1-.16,4.34,5.86,8.73,11.68,13.11,17.51A1.44,1.44,0,0,1,103.26,113.47ZM107,137.73c0-.11,0-.2,0-.25-2-3.21-4-6.42-6-9.64-.29-.47-.65-.47-1.09-.47-6.93,0-13.86,0-20.79,0A1.22,1.22,0,0,0,78,128c-1.87,3-3.78,6.06-5.66,9.09-.11.19-.39.36-.2.63Zm-5-13.88c-2.13-3.4-4.19-6.69-6.23-10-.27-.45-.65-.36-1-.36-3.46,0-6.93,0-10.39,0a1.21,1.21,0,0,0-1.2.67c-1.1,1.82-2.24,3.62-3.37,5.42l-2.67,4.28ZM96.44,110c-2.25-3-4.38-5.82-6.48-8.66-.45-.62-.63-.25-.91.12-1.94,2.61-3.89,5.2-5.83,7.8-.16.21-.46.37-.35.74Z"/><path class="cls-10" d="M124.24,89.2a8.67,8.67,0,1,1,8.66,8.68A8.7,8.7,0,0,1,124.24,89.2Zm8.7,5.21a5.2,5.2,0,1,0-5.23-5.23A5.23,5.23,0,0,0,132.94,94.41Z"/><path class="cls-11" d="M107,137.73H72.09c-.19-.27.09-.44.2-.63,1.88-3,3.79-6,5.66-9.09a1.22,1.22,0,0,1,1.21-.65c6.93,0,13.86,0,20.79,0,.44,0,.8,0,1.09.47,2,3.22,4,6.43,6,9.64C107.06,137.53,107,137.62,107,137.73Z"/><path class="cls-12" d="M102,123.85H77.1l2.67-4.28c1.13-1.8,2.27-3.6,3.37-5.42a1.21,1.21,0,0,1,1.2-.67c3.46,0,6.93,0,10.39,0,.38,0,.76-.09,1,.36C97.8,117.16,99.86,120.45,102,123.85Z"/><path class="cls-13" d="M96.44,110H82.87c-.11-.37.19-.53.35-.74,1.94-2.6,3.89-5.19,5.83-7.8.28-.37.46-.74.91-.12C92.06,104.15,94.19,107,96.44,110Z"/></g></g></svg>