<svg xmlns="http://www.w3.org/2000/svg" viewBox="0 0 165.7 165.7"><defs><style>.cls-1{fill:#fff;}.cls-2{fill:#010101;}.cls-3{fill:#c1272d;}</style></defs><g id="Capa_2" data-name="Capa 2"><g id="Capa_1-2" data-name="Capa 1"><rect class="cls-1" width="165.7" height="165.7" rx="10.27"/><path class="cls-2" d="M108.81,26.58h1.7a3.85,3.85,0,0,1,2.61,4.27c-.09,1.27,0,2.54,0,3.81,0,.79.2,1,1,1,3.21,0,6.42-.11,9.62,0,4.94.19,8.49,2.63,10.78,7a37,37,0,0,1,1.24,3.63V124.7c-.28.08-.2.33-.25.52-1.78,6.45-6.29,9.86-13,9.86H40.15c-7.54,0-12.93-5.39-12.93-12.93V48.52c0-7.5,5.36-12.86,12.86-12.88,3,0,5.93,0,8.9,0,.71,0,.91-.21.88-.9,0-1.2.07-2.41,0-3.6a4.18,4.18,0,0,1,2.4-4.58h1.91a4.21,4.21,0,0,1,2.5,4.61c-.09,1.15,0,2.33,0,3.49-.06.81.22,1,1,1,7.16,0,14.33,0,21.49,0,8.72,0,17.44,0,26.15,0,.9,0,1.15-.25,1.09-1.11-.07-1.13,0-2.26,0-3.39C106.15,29.07,106.81,27.47,108.81,26.58Zm-27.32,43q-23.2,0-46.4,0c-.84,0-1.11.14-1.11,1.06q0,25.74,0,51.48c0,3.93,2.3,6.23,6.25,6.23h82.41c4,0,6.27-2.29,6.27-6.31q0-25.63,0-51.27c0-1-.23-1.2-1.2-1.19Q104.64,69.58,81.49,69.55Zm-.12-6.78q23.25,0,46.51,0c.77,0,1.1-.12,1.09-1-.06-4.55,0-9.11,0-13.67a5.56,5.56,0,0,0-5.63-5.66c-3.11,0-6.21,0-9.32,0-.69,0-.92.19-.91.89,0,2.26,0,4.52,0,6.78a3.45,3.45,0,0,1-.69,2.28,3.32,3.32,0,0,1-3.68,1.18,3.4,3.4,0,0,1-2.4-3.37q-.06-3.39,0-6.78c0-.7-.13-1-.91-1q-23.94,0-47.89,0c-.78,0-.93.28-.91,1,0,2.19,0,4.38,0,6.57a3.46,3.46,0,0,1-3.45,3.75A3.42,3.42,0,0,1,49.85,50c0-2.23,0-4.45,0-6.68,0-.7-.21-.89-.9-.89-3,0-6,0-9,0a5.61,5.61,0,0,0-5.94,6q0,6.46,0,12.93c0,1.42,0,1.42,1.38,1.42Z"/><path class="cls-3" d="M81.37,62.77h-46c-1.38,0-1.38,0-1.38-1.42q0-6.47,0-12.93a5.61,5.61,0,0,1,5.94-6c3,0,6,0,9,0,.69,0,.92.19.9.89,0,2.23,0,4.45,0,6.68a3.42,3.42,0,0,0,3.33,3.73A3.46,3.46,0,0,0,56.63,50c0-2.19,0-4.38,0-6.57,0-.7.13-1,.91-1q23.94,0,47.89,0c.78,0,.92.28.91,1q-.06,3.39,0,6.78a3.4,3.4,0,0,0,2.4,3.37,3.32,3.32,0,0,0,3.68-1.18,3.45,3.45,0,0,0,.69-2.28c0-2.26,0-4.52,0-6.78,0-.7.22-.89.91-.89,3.11,0,6.21,0,9.32,0a5.56,5.56,0,0,1,5.63,5.66c0,4.56,0,9.12,0,13.67,0,.9-.32,1-1.09,1Q104.62,62.76,81.37,62.77Z"/><path class="cls-3" d="M65.66,85.41a37.75,37.75,0,0,1-.82,7q-1.19,6.45-1.28,7,0,.11-2.24,17.76c-1,1.8-1.91,2.7-2.89,2.7q-1.14,0-1.92-1.47a6,6,0,0,1-.59-2.51A88.35,88.35,0,0,1,57.52,104q.13-.56,1.65-6.55a23.94,23.94,0,0,0,1-6.49l-.05-.46q-1.32-1.79-2.51-3.62a11.82,11.82,0,0,1,1.73-4c1-1.53,2.18-2.29,3.44-2.29A2.53,2.53,0,0,1,65,82.39,7.05,7.05,0,0,1,65.66,85.41Z"/><path class="cls-3" d="M107.21,104.4a11,11,0,0,1-.55,1.92,17.36,17.36,0,0,1-6.5,9.34,24.37,24.37,0,0,1-14.23,4.48,18.15,18.15,0,0,1-10.57-3.2A8.56,8.56,0,0,1,74,115.66a14.3,14.3,0,0,1-4.17-10.48A24.15,24.15,0,0,1,75,90.56a23.67,23.67,0,0,1,12.52-9.08,9.81,9.81,0,0,1,1.65-.37,9.45,9.45,0,0,1,3.29.64c1.46.55,2.2,1.27,2.2,2.15a5.27,5.27,0,0,1-1.33,2.89q-8.7,2.46-11.81,4.57a12.78,12.78,0,0,0-5.67,10.71l1.46-.18,4.44-3a26.42,26.42,0,0,1,6.82-3.25A24.18,24.18,0,0,1,96,94.2q7.83,0,11.12,7.18C107.16,103.21,107.21,104.22,107.21,104.4Zm-7,.5a9,9,0,0,0-6.86-2.6,18.58,18.58,0,0,0-9.06,2.56q-4.93,2.74-6.41,6.63,3.53,2.85,9.89,2.84A16.61,16.61,0,0,0,96,112.41a7.27,7.27,0,0,0,4.21-6.73Z"/></g></g></svg>