<svg xmlns="http://www.w3.org/2000/svg" viewBox="0 0 165.7 165.7"><defs><style>.cls-1{fill:#fff;}.cls-2{fill:#010101;}.cls-3{fill:#008069;}</style></defs><g id="Capa_2" data-name="Capa 2"><g id="Capa_1-2" data-name="Capa 1"><rect class="cls-1" width="165.7" height="165.7" rx="10.27"/><path class="cls-2" d="M108.81,26.58h1.7a3.85,3.85,0,0,1,2.61,4.27c-.09,1.27,0,2.54,0,3.81,0,.79.2,1,1,1,3.21,0,6.42-.11,9.62,0,4.94.19,8.49,2.63,10.78,7a37,37,0,0,1,1.24,3.63V124.7c-.28.08-.2.33-.25.52-1.78,6.45-6.29,9.86-13,9.86H40.15c-7.54,0-12.93-5.39-12.93-12.93V48.52c0-7.5,5.36-12.86,12.86-12.88,3,0,5.93,0,8.9,0,.71,0,.91-.21.88-.9,0-1.2.07-2.41,0-3.6a4.18,4.18,0,0,1,2.4-4.58h1.91a4.21,4.21,0,0,1,2.5,4.61c-.09,1.15,0,2.33,0,3.49-.06.81.22,1,1,1,7.16,0,14.33,0,21.49,0,8.72,0,17.44,0,26.15,0,.9,0,1.15-.25,1.09-1.11-.07-1.13,0-2.26,0-3.39C106.15,29.07,106.81,27.47,108.81,26.58Zm-27.32,43q-23.2,0-46.4,0c-.84,0-1.11.14-1.11,1.06q0,25.74,0,51.48c0,3.93,2.3,6.23,6.25,6.23h82.41c4,0,6.27-2.29,6.27-6.31q0-25.63,0-51.27c0-1-.23-1.2-1.2-1.19Q104.64,69.58,81.49,69.55Zm-.12-6.78q23.25,0,46.51,0c.77,0,1.1-.12,1.09-1-.06-4.55,0-9.11,0-13.67a5.56,5.56,0,0,0-5.63-5.66c-3.11,0-6.21,0-9.32,0-.69,0-.92.19-.91.89,0,2.26,0,4.52,0,6.78a3.45,3.45,0,0,1-.69,2.28,3.32,3.32,0,0,1-3.68,1.18,3.4,3.4,0,0,1-2.4-3.37q-.06-3.39,0-6.78c0-.7-.13-1-.91-1q-23.94,0-47.89,0c-.78,0-.93.28-.91,1,0,2.19,0,4.38,0,6.57a3.46,3.46,0,0,1-3.45,3.75A3.42,3.42,0,0,1,49.85,50c0-2.23,0-4.45,0-6.68,0-.7-.21-.89-.9-.89-3,0-6,0-9,0a5.61,5.61,0,0,0-5.94,6q0,6.46,0,12.93c0,1.42,0,1.42,1.38,1.42Z"/><path class="cls-3" d="M81.37,62.77h-46c-1.38,0-1.38,0-1.38-1.42q0-6.47,0-12.93a5.61,5.61,0,0,1,5.94-6c3,0,6,0,9,0,.69,0,.92.19.9.89,0,2.23,0,4.45,0,6.68a3.42,3.42,0,0,0,3.33,3.73A3.46,3.46,0,0,0,56.63,50c0-2.19,0-4.38,0-6.57,0-.7.13-1,.91-1q23.94,0,47.89,0c.78,0,.92.28.91,1q-.06,3.39,0,6.78a3.4,3.4,0,0,0,2.4,3.37,3.32,3.32,0,0,0,3.68-1.18,3.45,3.45,0,0,0,.69-2.28c0-2.26,0-4.52,0-6.78,0-.7.22-.89.91-.89,3.11,0,6.21,0,9.32,0a5.56,5.56,0,0,1,5.63,5.66c0,4.56,0,9.12,0,13.67,0,.9-.32,1-1.09,1Q104.62,62.76,81.37,62.77Z"/><path class="cls-3" d="M83.89,108.06a3.33,3.33,0,0,1-1,2.36,5.17,5.17,0,0,1-2.31,1.44q-3.48.87-10.48,2.7l-5.85,1.92a23.62,23.62,0,0,1-5.49,1.42q-3.79,0-3.8-3.75a8.19,8.19,0,0,1,1.1-4.71L67.56,93.29a9,9,0,0,0,2-4.26l-.78-1.28a9.18,9.18,0,0,0-1.83-.19,9.42,9.42,0,0,0-5.63,2.34q-.6.45-4.71,4.34-2.52,2.34-3.85,2.34c-.61,0-.91-.4-.91-1.19q0-3.86,6-9.8a32,32,0,0,1,6.5-5A15.38,15.38,0,0,1,72,78.14a7.27,7.27,0,0,1,6.27,3.38A13.54,13.54,0,0,1,79,82.9a5,5,0,0,1,0,.86,8.68,8.68,0,0,1-1.28,4.58q-3.7,6-5.86,9.29-2.19,3.06-6.4,9.29l-1.28,2.51,1.19.46q1.55-.4,13.54-4.16a6.38,6.38,0,0,1,1.69-.23,4,4,0,0,1,2.29.64A2.16,2.16,0,0,1,83.89,108.06Z"/><path class="cls-3" d="M97.85,82.9a37.78,37.78,0,0,1-.83,7q-1.18,6.45-1.28,7,0,.09-2.24,17.75-1.43,2.7-2.88,2.7a2.24,2.24,0,0,1-1.92-1.47,5.88,5.88,0,0,1-.6-2.51,90.14,90.14,0,0,1,1.6-11.85q.14-.55,1.65-6.55a23.94,23.94,0,0,0,1-6.49l0-.46q-1.33-1.78-2.52-3.61a11.61,11.61,0,0,1,1.74-4c1-1.53,2.18-2.29,3.43-2.29a2.55,2.55,0,0,1,2.29,1.79A7.14,7.14,0,0,1,97.85,82.9Z"/></g></g></svg>