<svg xmlns="http://www.w3.org/2000/svg" viewBox="0 0 165.7 165.7"><defs><style>.cls-1{fill:#fff;}.cls-2{fill:#010101;}.cls-3{fill:#5da84c;}</style></defs><g id="Capa_2" data-name="Capa 2"><g id="Capa_1-2" data-name="Capa 1"><rect class="cls-1" width="165.7" height="165.7" rx="10.27"/><path class="cls-2" d="M108.81,26.58h1.7a3.85,3.85,0,0,1,2.61,4.27c-.09,1.27,0,2.54,0,3.81,0,.79.2,1,1,1,3.21,0,6.42-.11,9.62,0,4.94.19,8.49,2.63,10.78,7a37,37,0,0,1,1.24,3.63V124.7c-.28.08-.2.33-.25.52-1.78,6.45-6.29,9.86-13,9.86H40.15c-7.54,0-12.93-5.39-12.93-12.93V48.52c0-7.5,5.36-12.86,12.86-12.88,3,0,5.93,0,8.9,0,.71,0,.91-.21.88-.9,0-1.2.07-2.41,0-3.6a4.18,4.18,0,0,1,2.4-4.58h1.91a4.21,4.21,0,0,1,2.5,4.61c-.09,1.15,0,2.33,0,3.49-.06.81.22,1,1,1,7.16,0,14.33,0,21.49,0,8.72,0,17.44,0,26.15,0,.9,0,1.15-.25,1.09-1.11-.07-1.13,0-2.26,0-3.39C106.15,29.07,106.81,27.47,108.81,26.58Zm-27.32,43q-23.2,0-46.4,0c-.84,0-1.11.14-1.11,1.06q0,25.74,0,51.48c0,3.93,2.3,6.23,6.25,6.23h82.41c4,0,6.27-2.29,6.27-6.31q0-25.63,0-51.27c0-1-.23-1.2-1.2-1.19Q104.64,69.58,81.49,69.55Zm-.12-6.78q23.25,0,46.51,0c.77,0,1.1-.12,1.09-1-.06-4.55,0-9.11,0-13.67a5.56,5.56,0,0,0-5.63-5.66c-3.11,0-6.21,0-9.32,0-.69,0-.92.19-.91.89,0,2.26,0,4.52,0,6.78a3.45,3.45,0,0,1-.69,2.28,3.32,3.32,0,0,1-3.68,1.18,3.4,3.4,0,0,1-2.4-3.37q-.06-3.39,0-6.78c0-.7-.13-1-.91-1q-23.94,0-47.89,0c-.78,0-.93.28-.91,1,0,2.19,0,4.38,0,6.57a3.46,3.46,0,0,1-3.45,3.75A3.42,3.42,0,0,1,49.85,50c0-2.23,0-4.45,0-6.68,0-.7-.21-.89-.9-.89-3,0-6,0-9,0a5.61,5.61,0,0,0-5.94,6q0,6.46,0,12.93c0,1.42,0,1.42,1.38,1.42Z"/><path class="cls-3" d="M81.37,62.77h-46c-1.38,0-1.38,0-1.38-1.42q0-6.47,0-12.93a5.61,5.61,0,0,1,5.94-6c3,0,6,0,9,0,.69,0,.92.19.9.89,0,2.23,0,4.45,0,6.68a3.42,3.42,0,0,0,3.33,3.73A3.46,3.46,0,0,0,56.63,50c0-2.19,0-4.38,0-6.57,0-.7.13-1,.91-1q23.94,0,47.89,0c.78,0,.92.28.91,1q-.06,3.39,0,6.78a3.4,3.4,0,0,0,2.4,3.37,3.32,3.32,0,0,0,3.68-1.18,3.45,3.45,0,0,0,.69-2.28c0-2.26,0-4.52,0-6.78,0-.7.22-.89.91-.89,3.11,0,6.21,0,9.32,0a5.56,5.56,0,0,1,5.63,5.66c0,4.56,0,9.12,0,13.67,0,.9-.32,1-1.09,1Q104.62,62.76,81.37,62.77Z"/><path class="cls-3" d="M78.23,109.19a3.33,3.33,0,0,1-1,2.36A5,5,0,0,1,74.89,113c-2.31.58-5.81,1.48-10.47,2.7l-5.86,1.92A23.09,23.09,0,0,1,53.07,119q-3.8,0-3.8-3.75a8.14,8.14,0,0,1,1.11-4.71L61.9,94.42a8.94,8.94,0,0,0,2-4.26l-.78-1.28a10,10,0,0,0-1.83-.19A9.42,9.42,0,0,0,55.63,91q-.6.45-4.71,4.34-2.52,2.34-3.84,2.34c-.61,0-.92-.4-.92-1.19q0-3.84,6-9.79a31.67,31.67,0,0,1,6.5-5,15.38,15.38,0,0,1,7.64-2.47,7.24,7.24,0,0,1,6.27,3.39A12.19,12.19,0,0,1,73.34,84a5.09,5.09,0,0,1,0,.87,8.58,8.58,0,0,1-1.28,4.57q-3.7,6-5.85,9.29-2.2,3.06-6.41,9.29l-1.28,2.51,1.19.46q1.56-.4,13.54-4.16a6.45,6.45,0,0,1,1.7-.23,4,4,0,0,1,2.28.64A2.16,2.16,0,0,1,78.23,109.19Z"/><path class="cls-3" d="M112.18,83.16c0,1.34-1.2,3.16-3.61,5.44q-4.08,3.9-4.62,5.26l1,.46a19.46,19.46,0,0,1,8.74,1.74q4.57,2.25,4.58,6.91a12.29,12.29,0,0,1-3.43,8.1,23.16,23.16,0,0,1-7,5.53A28.11,28.11,0,0,1,94.57,120c-3.85,0-6.56-.34-8.15-1-2.83-1.19-4.25-2.57-4.25-4.16a2.31,2.31,0,0,1,1-1.92,3.23,3.23,0,0,1,2.06-.64,5.34,5.34,0,0,1,1.23.14q5.49,3.66,9.75,3.66a14.84,14.84,0,0,0,6.5-1.88,27.22,27.22,0,0,0,5.72-3.84,12,12,0,0,0,2.37-3.12,7.85,7.85,0,0,0,1.19-3.7,4.14,4.14,0,0,0-1.51-3.09A4.7,4.7,0,0,0,107.2,99a26.94,26.94,0,0,0-6,1,27,27,0,0,1-6,1,5.79,5.79,0,0,1-2.06-.32l-.46-1.51a11.39,11.39,0,0,1,3-4.12C98,93,99.26,91.81,99.42,91.62c.67-.79,1.42-1.72,2.24-2.79l0-.64-1.1-.27c-.77.27-2.92.76-6.48,1.46a53,53,0,0,1-6.43,1.05,6,6,0,0,1-3.11-.82A3.06,3.06,0,0,1,83,87c0-1.1.73-2.22,2.19-3.34a39.1,39.1,0,0,1,5.91-.83q5.35-.41,6-.5c.44-.06,2.21-.35,5.29-.87a30.8,30.8,0,0,1,5.31-.59C110.7,80.83,112.18,81.6,112.18,83.16Z"/></g></g></svg>